; NON-PLATED HOLES START AT T1
; THROUGH (PLATED) HOLES START AT T100
M48
INCH
T100C0.022334
T101C0.040992
T102C0.039370
T103C0.037888
T104C0.038000
T105C0.035000
%
T100
X012030Y006980
X003056Y009975
X012030Y016965
X003056Y010974
X003056Y017963
X012030Y013969
X003056Y004983
X012030Y011972
X012030Y018962
X003056Y014968
X012030Y007978
X003056Y012971
X012030Y005981
X003056Y008977
X012030Y015966
X003056Y006980
X003056Y016965
X012030Y009975
X012030Y010974
X003056Y013969
X012030Y017963
X003056Y011972
X012030Y004983
X003056Y018962
X003056Y007978
X012030Y014968
X003056Y005981
X012030Y012971
X003056Y015966
X012030Y008977
T101
X021556Y015969
X022556Y005969
X017068Y011446
X017059Y012962
X017059Y015962
X017056Y006969
X021556Y012969
X022556Y007969
T102
X022056Y020969
X023056Y020969
X015056Y020969
X024056Y020969
X016056Y020969
X017056Y020969
X018056Y020969
X020056Y020969
X019056Y020969
X021056Y020969
T103
X002091Y008973
X013068Y018958
X002091Y011969
X002091Y018958
X013068Y016961
X013068Y005978
X002091Y016961
X002091Y005978
X013068Y013966
X002091Y013966
X013068Y007975
X002091Y007975
X013068Y015963
X002091Y015963
X013068Y009972
X013068Y012967
X002091Y009972
X002091Y012967
X013068Y010970
X013068Y017960
X013068Y006976
X002091Y010970
X002091Y017960
X002091Y006976
X013068Y004980
X013068Y014964
X002091Y004980
X002091Y014964
X013068Y008973
X013068Y011969
T104
X021556Y007969
X017056Y004969
X023556Y015969
X020556Y007969
X021556Y002469
X022556Y015969
X018059Y015962
X023556Y012969
X020556Y002469
X023556Y005969
X022556Y012969
X018059Y012962
X016068Y011446
X015059Y015962
X015059Y012962
X024056Y019469
X023056Y019469
X021056Y019469
X023556Y007969
X023556Y002469
X019556Y002469
X022556Y002469
X018068Y011446
X020556Y015969
X017056Y005969
X016059Y015962
X021556Y005969
X015068Y011446
X020556Y012969
X016059Y012962
X020556Y005969
X022056Y019469
X017056Y007969
T105
X015556Y004969
X015556Y008969
T00
M30
