G04 MADE WITH FRITZING*
G04 WWW.FRITZING.ORG*
G04 DOUBLE SIDED*
G04 HOLES PLATED*
G04 CONTOUR ON CENTER OF CONTOUR VECTOR*
%ASAXBY*%
%FSLAX23Y23*%
%MOIN*%
%OFA0B0*%
%SFA1.0B1.0*%
%ADD10C,0.047859*%
%ADD11C,0.070000*%
%ADD12C,0.078000*%
%ADD13C,0.077770*%
%ADD14C,0.075000*%
%ADD15C,0.084141*%
%ADD16R,0.075556X0.075556*%
%ADD17R,0.084375X0.084375*%
%ADD18R,0.083333X0.083333*%
%ADD19R,0.078000X0.078000*%
%ADD20C,0.024000*%
%LNCOPPER1*%
G90*
G70*
G54D10*
X1203Y1695D03*
X306Y1894D03*
X306Y1795D03*
X306Y1695D03*
X306Y1595D03*
X306Y1495D03*
X1203Y1795D03*
X1203Y1894D03*
X1203Y1595D03*
X306Y1395D03*
X306Y1295D03*
X306Y1195D03*
X306Y1096D03*
X306Y996D03*
X306Y896D03*
X306Y796D03*
X306Y696D03*
X306Y596D03*
X306Y497D03*
X1203Y1195D03*
X1203Y1096D03*
X1203Y996D03*
X1203Y896D03*
X1203Y796D03*
X1203Y696D03*
X1203Y596D03*
X1203Y497D03*
X1203Y1495D03*
X1203Y1395D03*
X1203Y1295D03*
G54D11*
X2406Y2095D03*
X2306Y2095D03*
X2206Y2095D03*
X2106Y2095D03*
X2006Y2095D03*
X1906Y2095D03*
X1806Y2095D03*
X1706Y2095D03*
X1606Y2095D03*
X1506Y2095D03*
G54D12*
X2406Y1945D03*
X2306Y1945D03*
X2206Y1945D03*
X2106Y1945D03*
G54D13*
X1307Y1694D03*
X209Y1894D03*
X209Y1794D03*
X209Y1694D03*
X209Y1594D03*
X209Y1495D03*
X1307Y1794D03*
X1307Y1894D03*
X1307Y1594D03*
X209Y1395D03*
X209Y1295D03*
X209Y1195D03*
X209Y1095D03*
X209Y995D03*
X209Y896D03*
X209Y796D03*
X209Y696D03*
X209Y596D03*
X209Y496D03*
X1307Y1195D03*
X1307Y1095D03*
X1307Y995D03*
X1307Y896D03*
X1307Y796D03*
X1307Y696D03*
X1307Y596D03*
X1307Y496D03*
X1307Y1495D03*
X1307Y1395D03*
X1307Y1295D03*
G54D14*
X1556Y895D03*
X1556Y495D03*
G54D12*
X2056Y1295D03*
G54D15*
X2156Y1295D03*
G54D12*
X2256Y1295D03*
X2356Y1295D03*
X2056Y1595D03*
G54D15*
X2156Y1595D03*
G54D12*
X2256Y1595D03*
X2356Y1595D03*
X2356Y795D03*
G54D15*
X2256Y795D03*
G54D12*
X2156Y795D03*
X2056Y795D03*
X1806Y1294D03*
G54D15*
X1706Y1294D03*
G54D12*
X1606Y1294D03*
X1506Y1294D03*
X1807Y1143D03*
G54D15*
X1707Y1143D03*
G54D12*
X1607Y1143D03*
X1507Y1143D03*
X1806Y1594D03*
G54D15*
X1706Y1594D03*
G54D12*
X1606Y1594D03*
X1506Y1594D03*
X2356Y595D03*
G54D15*
X2256Y595D03*
G54D12*
X2156Y595D03*
X2056Y595D03*
X1706Y795D03*
G54D15*
X1706Y695D03*
G54D12*
X1706Y595D03*
X1706Y495D03*
X2356Y245D03*
X2256Y245D03*
X2156Y245D03*
X2056Y245D03*
X1956Y245D03*
G54D16*
X1606Y2095D03*
G54D17*
X2156Y1295D03*
X2156Y1595D03*
X2255Y795D03*
X1706Y1294D03*
X1706Y1143D03*
X1706Y1594D03*
X2255Y595D03*
G54D18*
X1706Y795D03*
G54D19*
X2156Y245D03*
G54D20*
X1277Y1395D02*
X1225Y1395D01*
D02*
X1277Y1495D02*
X1225Y1495D01*
D02*
X1277Y1595D02*
X1225Y1595D01*
D02*
X1277Y1694D02*
X1225Y1695D01*
D02*
X1277Y1794D02*
X1225Y1794D01*
D02*
X1277Y496D02*
X1225Y496D01*
D02*
X1277Y596D02*
X1225Y596D01*
D02*
X239Y1595D02*
X283Y1595D01*
D02*
X239Y1894D02*
X283Y1894D01*
D02*
X1277Y696D02*
X1225Y696D01*
D02*
X1277Y796D02*
X1225Y796D01*
D02*
X1277Y896D02*
X1225Y896D01*
D02*
X1277Y995D02*
X1225Y996D01*
D02*
X1277Y1095D02*
X1225Y1096D01*
D02*
X1277Y1195D02*
X1225Y1195D01*
D02*
X1277Y1295D02*
X1225Y1295D01*
D02*
X239Y596D02*
X283Y596D01*
D02*
X239Y696D02*
X283Y696D01*
D02*
X239Y796D02*
X283Y796D01*
D02*
X239Y896D02*
X283Y896D01*
D02*
X239Y996D02*
X283Y996D01*
D02*
X239Y1095D02*
X283Y1096D01*
D02*
X239Y1195D02*
X283Y1195D01*
D02*
X239Y1295D02*
X283Y1295D01*
D02*
X239Y1395D02*
X283Y1395D01*
D02*
X239Y1495D02*
X283Y1495D01*
D02*
X1277Y1894D02*
X1225Y1894D01*
D02*
X239Y496D02*
X283Y496D01*
D02*
X2206Y1975D02*
X2206Y2064D01*
D02*
X2106Y1975D02*
X2106Y2064D01*
D02*
X1806Y1895D02*
X1806Y2064D01*
D02*
X2056Y1895D02*
X1806Y1895D01*
D02*
X2056Y1795D02*
X2056Y1895D01*
D02*
X2356Y1795D02*
X2056Y1795D01*
D02*
X2356Y1625D02*
X2356Y1795D01*
D02*
X1706Y1845D02*
X1706Y2064D01*
D02*
X2006Y1845D02*
X1706Y1845D01*
D02*
X2006Y1745D02*
X2006Y1845D01*
D02*
X2256Y1745D02*
X2006Y1745D01*
D02*
X2256Y1625D02*
X2256Y1745D01*
D02*
X1106Y496D02*
X1277Y496D01*
D02*
X1106Y2095D02*
X1106Y496D01*
D02*
X1475Y2095D02*
X1106Y2095D01*
D02*
X1606Y1495D02*
X1337Y1495D01*
D02*
X1606Y1564D02*
X1606Y1495D01*
D02*
X2406Y1975D02*
X2406Y2064D01*
D02*
X2306Y1975D02*
X2306Y2064D01*
D02*
X1856Y345D02*
X1857Y145D01*
D02*
X1905Y345D02*
X1856Y345D01*
D02*
X1337Y1694D02*
X1905Y1696D01*
D02*
X1905Y1696D02*
X1905Y345D01*
D02*
X1337Y1794D02*
X1959Y1794D01*
D02*
X1959Y1794D02*
X1956Y275D01*
D02*
X1857Y145D02*
X2057Y145D01*
D02*
X2057Y145D02*
X2056Y215D01*
D02*
X2054Y1195D02*
X2356Y1195D01*
D02*
X2356Y1195D02*
X2356Y1265D01*
D02*
X2056Y825D02*
X2054Y1195D01*
G04 End of Copper1*
M02*