G04 MADE WITH FRITZING*
G04 WWW.FRITZING.ORG*
G04 DOUBLE SIDED*
G04 HOLES PLATED*
G04 CONTOUR ON CENTER OF CONTOUR VECTOR*
%ASAXBY*%
%FSLAX23Y23*%
%MOIN*%
%OFA0B0*%
%SFA1.0B1.0*%
%ADD10C,0.008*%
%LNCONTOUR*%
G90*
G70*
G54D10*
X137Y2754D02*
X138Y2754D01*
X139Y2754D01*
X140Y2754D01*
X141Y2754D01*
X142Y2754D01*
X143Y2754D01*
X144Y2754D01*
X145Y2754D01*
X146Y2754D01*
X147Y2754D01*
X148Y2754D01*
X149Y2754D01*
X150Y2754D01*
X151Y2754D01*
X152Y2754D01*
X153Y2754D01*
X154Y2754D01*
X155Y2754D01*
X156Y2754D01*
X157Y2754D01*
X158Y2754D01*
X159Y2754D01*
X160Y2754D01*
X161Y2754D01*
X162Y2754D01*
X163Y2754D01*
X164Y2754D01*
X165Y2754D01*
X166Y2754D01*
X167Y2754D01*
X168Y2754D01*
X169Y2754D01*
X170Y2754D01*
X171Y2754D01*
X172Y2754D01*
X173Y2754D01*
X174Y2754D01*
X175Y2754D01*
X176Y2754D01*
X177Y2754D01*
X178Y2754D01*
X179Y2754D01*
X180Y2754D01*
X181Y2754D01*
X182Y2754D01*
X183Y2754D01*
X184Y2754D01*
X185Y2754D01*
X186Y2754D01*
X187Y2754D01*
X188Y2754D01*
X189Y2754D01*
X190Y2754D01*
X191Y2754D01*
X192Y2754D01*
X193Y2754D01*
X194Y2754D01*
X195Y2754D01*
X196Y2754D01*
X197Y2754D01*
X198Y2754D01*
X199Y2754D01*
X200Y2754D01*
X201Y2754D01*
X202Y2754D01*
X203Y2754D01*
X204Y2754D01*
X205Y2754D01*
X206Y2754D01*
X207Y2754D01*
X208Y2754D01*
X209Y2754D01*
X210Y2754D01*
X211Y2754D01*
X212Y2754D01*
X213Y2754D01*
X214Y2754D01*
X215Y2754D01*
X216Y2754D01*
X217Y2754D01*
X218Y2754D01*
X219Y2754D01*
X220Y2754D01*
X221Y2754D01*
X222Y2754D01*
X223Y2754D01*
X224Y2754D01*
X225Y2754D01*
X226Y2754D01*
X227Y2754D01*
X228Y2754D01*
X229Y2754D01*
X230Y2754D01*
X231Y2754D01*
X232Y2754D01*
X233Y2754D01*
X234Y2754D01*
X235Y2754D01*
X236Y2754D01*
X237Y2754D01*
X238Y2754D01*
X239Y2754D01*
X240Y2754D01*
X241Y2754D01*
X242Y2754D01*
X243Y2754D01*
X244Y2754D01*
X245Y2754D01*
X246Y2754D01*
X247Y2754D01*
X248Y2754D01*
X249Y2754D01*
X250Y2754D01*
X251Y2754D01*
X252Y2754D01*
X253Y2754D01*
X254Y2754D01*
X255Y2754D01*
X256Y2754D01*
X257Y2754D01*
X258Y2754D01*
X259Y2754D01*
X260Y2754D01*
X261Y2754D01*
X262Y2754D01*
X263Y2754D01*
X264Y2754D01*
X265Y2754D01*
X266Y2754D01*
X267Y2754D01*
X268Y2754D01*
X269Y2754D01*
X270Y2754D01*
X271Y2754D01*
X272Y2754D01*
X273Y2754D01*
X274Y2754D01*
X275Y2754D01*
X276Y2754D01*
X277Y2754D01*
X278Y2754D01*
X279Y2754D01*
X280Y2754D01*
X281Y2754D01*
X282Y2754D01*
X283Y2754D01*
X284Y2754D01*
X285Y2754D01*
X286Y2754D01*
X287Y2754D01*
X288Y2754D01*
X289Y2754D01*
X290Y2754D01*
X291Y2754D01*
X292Y2754D01*
X293Y2754D01*
X294Y2754D01*
X295Y2754D01*
X296Y2754D01*
X297Y2754D01*
X298Y2754D01*
X299Y2754D01*
X300Y2754D01*
X301Y2754D01*
X302Y2754D01*
X303Y2754D01*
X304Y2754D01*
X305Y2754D01*
X306Y2754D01*
X307Y2754D01*
X308Y2754D01*
X309Y2754D01*
X310Y2754D01*
X311Y2754D01*
X312Y2754D01*
X313Y2754D01*
X314Y2754D01*
X315Y2754D01*
X316Y2754D01*
X317Y2754D01*
X318Y2754D01*
X319Y2754D01*
X320Y2754D01*
X321Y2754D01*
X322Y2754D01*
X323Y2754D01*
X324Y2754D01*
X325Y2754D01*
X326Y2754D01*
X327Y2754D01*
X328Y2754D01*
X329Y2754D01*
X330Y2754D01*
X331Y2754D01*
X332Y2754D01*
X333Y2754D01*
X334Y2754D01*
X335Y2754D01*
X336Y2754D01*
X337Y2754D01*
X338Y2754D01*
X339Y2754D01*
X340Y2754D01*
X341Y2754D01*
X342Y2754D01*
X343Y2754D01*
X344Y2754D01*
X345Y2754D01*
X346Y2754D01*
X347Y2754D01*
X348Y2754D01*
X349Y2754D01*
X350Y2754D01*
X351Y2754D01*
X352Y2754D01*
X353Y2754D01*
X354Y2754D01*
X355Y2754D01*
X356Y2754D01*
X357Y2754D01*
X358Y2754D01*
X359Y2754D01*
X360Y2754D01*
X361Y2754D01*
X362Y2754D01*
X363Y2754D01*
X364Y2754D01*
X365Y2754D01*
X366Y2754D01*
X367Y2754D01*
X368Y2754D01*
X369Y2754D01*
X370Y2754D01*
X371Y2754D01*
X372Y2754D01*
X373Y2754D01*
X374Y2754D01*
X375Y2754D01*
X376Y2754D01*
X377Y2754D01*
X378Y2754D01*
X379Y2754D01*
X380Y2754D01*
X381Y2754D01*
X382Y2754D01*
X383Y2754D01*
X384Y2754D01*
X385Y2754D01*
X386Y2754D01*
X387Y2754D01*
X388Y2754D01*
X389Y2754D01*
X390Y2754D01*
X391Y2754D01*
X392Y2754D01*
X393Y2754D01*
X394Y2754D01*
X395Y2754D01*
X396Y2754D01*
X397Y2754D01*
X398Y2754D01*
X399Y2754D01*
X400Y2754D01*
X401Y2754D01*
X402Y2754D01*
X403Y2754D01*
X404Y2754D01*
X405Y2754D01*
X406Y2754D01*
X407Y2754D01*
X408Y2754D01*
X409Y2754D01*
X410Y2754D01*
X411Y2754D01*
X412Y2754D01*
X413Y2754D01*
X414Y2754D01*
X415Y2754D01*
X416Y2754D01*
X417Y2754D01*
X418Y2754D01*
X419Y2754D01*
X420Y2754D01*
X421Y2754D01*
X422Y2754D01*
X423Y2754D01*
X424Y2754D01*
X425Y2754D01*
X426Y2754D01*
X427Y2754D01*
X428Y2754D01*
X429Y2754D01*
X430Y2754D01*
X431Y2754D01*
X432Y2754D01*
X433Y2754D01*
X434Y2754D01*
X435Y2754D01*
X436Y2754D01*
X437Y2754D01*
X438Y2754D01*
X439Y2754D01*
X440Y2754D01*
X441Y2754D01*
X442Y2754D01*
X443Y2754D01*
X444Y2754D01*
X445Y2754D01*
X446Y2754D01*
X447Y2754D01*
X448Y2754D01*
X449Y2754D01*
X450Y2754D01*
X451Y2754D01*
X452Y2754D01*
X453Y2754D01*
X454Y2754D01*
X455Y2754D01*
X456Y2754D01*
X457Y2754D01*
X458Y2754D01*
X459Y2754D01*
X460Y2754D01*
X461Y2754D01*
X462Y2754D01*
X463Y2754D01*
X464Y2754D01*
X465Y2754D01*
X466Y2754D01*
X467Y2754D01*
X468Y2754D01*
X469Y2754D01*
X470Y2754D01*
X471Y2754D01*
X472Y2754D01*
X473Y2754D01*
X474Y2754D01*
X475Y2754D01*
X476Y2754D01*
X477Y2754D01*
X478Y2754D01*
X479Y2754D01*
X480Y2754D01*
X481Y2754D01*
X482Y2754D01*
X483Y2754D01*
X484Y2754D01*
X485Y2754D01*
X486Y2754D01*
X487Y2754D01*
X488Y2754D01*
X489Y2754D01*
X490Y2754D01*
X491Y2754D01*
X492Y2754D01*
X493Y2754D01*
X494Y2754D01*
X495Y2754D01*
X496Y2754D01*
X497Y2754D01*
X498Y2754D01*
X499Y2754D01*
X500Y2754D01*
X501Y2754D01*
X502Y2754D01*
X503Y2754D01*
X504Y2754D01*
X505Y2754D01*
X506Y2754D01*
X507Y2754D01*
X508Y2754D01*
X509Y2754D01*
X510Y2754D01*
X511Y2754D01*
X512Y2754D01*
X513Y2754D01*
X514Y2754D01*
X515Y2754D01*
X516Y2754D01*
X517Y2754D01*
X518Y2754D01*
X519Y2754D01*
X520Y2754D01*
X521Y2754D01*
X522Y2754D01*
X523Y2754D01*
X524Y2754D01*
X525Y2754D01*
X526Y2754D01*
X527Y2754D01*
X528Y2754D01*
X529Y2754D01*
X530Y2754D01*
X531Y2754D01*
X532Y2754D01*
X533Y2754D01*
X534Y2754D01*
X535Y2754D01*
X536Y2754D01*
X537Y2754D01*
X538Y2754D01*
X539Y2754D01*
X540Y2754D01*
X541Y2754D01*
X542Y2754D01*
X543Y2754D01*
X544Y2754D01*
X545Y2754D01*
X546Y2754D01*
X547Y2754D01*
X548Y2754D01*
X549Y2754D01*
X550Y2754D01*
X551Y2754D01*
X552Y2754D01*
X553Y2754D01*
X554Y2754D01*
X555Y2754D01*
X556Y2754D01*
X557Y2754D01*
X558Y2754D01*
X559Y2754D01*
X560Y2754D01*
X561Y2754D01*
X562Y2754D01*
X563Y2754D01*
X564Y2754D01*
X565Y2754D01*
X566Y2754D01*
X567Y2754D01*
X568Y2754D01*
X569Y2754D01*
X570Y2754D01*
X571Y2754D01*
X572Y2754D01*
X573Y2754D01*
X574Y2754D01*
X575Y2754D01*
X576Y2754D01*
X577Y2754D01*
X578Y2754D01*
X579Y2754D01*
X580Y2754D01*
X581Y2754D01*
X582Y2754D01*
X583Y2754D01*
X584Y2754D01*
X585Y2754D01*
X586Y2754D01*
X587Y2754D01*
X588Y2754D01*
X589Y2754D01*
X590Y2754D01*
X591Y2754D01*
X592Y2754D01*
X593Y2754D01*
X594Y2754D01*
X595Y2754D01*
X596Y2754D01*
X597Y2754D01*
X598Y2754D01*
X599Y2754D01*
X600Y2754D01*
X601Y2754D01*
X602Y2754D01*
X603Y2754D01*
X604Y2754D01*
X605Y2754D01*
X606Y2754D01*
X607Y2754D01*
X608Y2754D01*
X609Y2754D01*
X610Y2754D01*
X611Y2754D01*
X612Y2754D01*
X613Y2754D01*
X614Y2754D01*
X615Y2754D01*
X616Y2754D01*
X617Y2754D01*
X618Y2754D01*
X619Y2754D01*
X620Y2754D01*
X621Y2754D01*
X622Y2754D01*
X623Y2754D01*
X624Y2754D01*
X625Y2754D01*
X626Y2754D01*
X627Y2754D01*
X628Y2754D01*
X629Y2754D01*
X630Y2754D01*
X631Y2754D01*
X632Y2754D01*
X633Y2754D01*
X634Y2754D01*
X635Y2754D01*
X636Y2754D01*
X637Y2754D01*
X638Y2754D01*
X639Y2754D01*
X640Y2754D01*
X641Y2754D01*
X642Y2754D01*
X643Y2754D01*
X644Y2754D01*
X645Y2754D01*
X646Y2754D01*
X647Y2754D01*
X648Y2754D01*
X649Y2754D01*
X650Y2754D01*
X651Y2754D01*
X652Y2754D01*
X653Y2754D01*
X654Y2754D01*
X655Y2754D01*
X656Y2754D01*
X657Y2754D01*
X658Y2754D01*
X659Y2754D01*
X660Y2754D01*
X661Y2754D01*
X662Y2754D01*
X663Y2754D01*
X664Y2754D01*
X665Y2754D01*
X666Y2754D01*
X667Y2754D01*
X668Y2754D01*
X669Y2754D01*
X670Y2754D01*
X671Y2754D01*
X672Y2754D01*
X673Y2754D01*
X674Y2754D01*
X675Y2754D01*
X676Y2754D01*
X677Y2754D01*
X678Y2754D01*
X679Y2754D01*
X680Y2754D01*
X681Y2754D01*
X682Y2754D01*
X683Y2754D01*
X684Y2754D01*
X685Y2754D01*
X686Y2754D01*
X687Y2754D01*
X688Y2754D01*
X689Y2754D01*
X690Y2754D01*
X691Y2754D01*
X692Y2754D01*
X693Y2754D01*
X694Y2754D01*
X695Y2754D01*
X696Y2754D01*
X697Y2754D01*
X698Y2754D01*
X699Y2754D01*
X700Y2754D01*
X701Y2754D01*
X702Y2754D01*
X703Y2754D01*
X704Y2754D01*
X705Y2754D01*
X706Y2754D01*
X707Y2754D01*
X708Y2754D01*
X709Y2754D01*
X710Y2754D01*
X711Y2754D01*
X712Y2754D01*
X713Y2754D01*
X714Y2754D01*
X715Y2754D01*
X716Y2754D01*
X717Y2754D01*
X718Y2754D01*
X719Y2754D01*
X720Y2754D01*
X721Y2754D01*
X722Y2754D01*
X723Y2754D01*
X724Y2754D01*
X725Y2754D01*
X726Y2754D01*
X727Y2754D01*
X728Y2754D01*
X729Y2754D01*
X730Y2754D01*
X731Y2754D01*
X732Y2754D01*
X733Y2754D01*
X734Y2754D01*
X735Y2754D01*
X736Y2754D01*
X737Y2754D01*
X738Y2754D01*
X739Y2754D01*
X740Y2754D01*
X741Y2754D01*
X742Y2754D01*
X743Y2754D01*
X744Y2754D01*
X745Y2754D01*
X746Y2754D01*
X747Y2754D01*
X748Y2754D01*
X749Y2754D01*
X750Y2754D01*
X751Y2754D01*
X752Y2754D01*
X753Y2754D01*
X754Y2754D01*
X755Y2754D01*
X756Y2754D01*
X757Y2754D01*
X758Y2754D01*
X759Y2754D01*
X760Y2754D01*
X761Y2754D01*
X762Y2754D01*
X763Y2754D01*
X764Y2754D01*
X765Y2754D01*
X766Y2754D01*
X767Y2754D01*
X768Y2754D01*
X769Y2754D01*
X770Y2754D01*
X771Y2754D01*
X772Y2754D01*
X773Y2754D01*
X774Y2754D01*
X775Y2754D01*
X776Y2754D01*
X777Y2754D01*
X778Y2754D01*
X779Y2754D01*
X780Y2754D01*
X781Y2754D01*
X782Y2754D01*
X783Y2754D01*
X784Y2754D01*
X785Y2754D01*
X786Y2754D01*
X787Y2754D01*
X788Y2754D01*
X789Y2754D01*
X790Y2754D01*
X791Y2754D01*
X792Y2754D01*
X793Y2754D01*
X794Y2754D01*
X795Y2754D01*
X796Y2754D01*
X797Y2754D01*
X798Y2754D01*
X799Y2754D01*
X800Y2754D01*
X801Y2754D01*
X802Y2754D01*
X803Y2754D01*
X804Y2754D01*
X805Y2754D01*
X806Y2754D01*
X807Y2754D01*
X808Y2754D01*
X809Y2754D01*
X810Y2754D01*
X811Y2754D01*
X812Y2754D01*
X813Y2754D01*
X814Y2754D01*
X815Y2754D01*
X816Y2754D01*
X817Y2754D01*
X818Y2754D01*
X819Y2754D01*
X820Y2754D01*
X821Y2754D01*
X822Y2754D01*
X823Y2754D01*
X824Y2754D01*
X825Y2754D01*
X826Y2754D01*
X827Y2754D01*
X828Y2754D01*
X829Y2754D01*
X830Y2754D01*
X831Y2754D01*
X832Y2754D01*
X833Y2754D01*
X834Y2754D01*
X835Y2754D01*
X836Y2754D01*
X837Y2754D01*
X838Y2754D01*
X839Y2754D01*
X840Y2754D01*
X841Y2754D01*
X842Y2754D01*
X843Y2754D01*
X844Y2754D01*
X845Y2754D01*
X846Y2754D01*
X847Y2754D01*
X848Y2754D01*
X849Y2754D01*
X850Y2754D01*
X851Y2754D01*
X852Y2754D01*
X853Y2754D01*
X854Y2754D01*
X855Y2754D01*
X856Y2754D01*
X857Y2754D01*
X858Y2754D01*
X859Y2754D01*
X860Y2754D01*
X861Y2754D01*
X862Y2754D01*
X863Y2754D01*
X864Y2754D01*
X865Y2754D01*
X866Y2754D01*
X867Y2754D01*
X868Y2754D01*
X869Y2754D01*
X870Y2754D01*
X871Y2754D01*
X872Y2754D01*
X873Y2754D01*
X874Y2754D01*
X875Y2754D01*
X876Y2754D01*
X877Y2754D01*
X878Y2754D01*
X879Y2754D01*
X880Y2754D01*
X881Y2754D01*
X882Y2754D01*
X883Y2754D01*
X884Y2754D01*
X885Y2754D01*
X886Y2754D01*
X887Y2754D01*
X888Y2754D01*
X889Y2754D01*
X890Y2754D01*
X891Y2754D01*
X892Y2754D01*
X893Y2754D01*
X894Y2754D01*
X895Y2754D01*
X896Y2754D01*
X897Y2754D01*
X898Y2754D01*
X899Y2754D01*
X900Y2754D01*
X901Y2754D01*
X902Y2754D01*
X903Y2754D01*
X904Y2754D01*
X905Y2754D01*
X906Y2754D01*
X907Y2754D01*
X908Y2754D01*
X909Y2754D01*
X910Y2754D01*
X911Y2754D01*
X912Y2754D01*
X913Y2754D01*
X914Y2754D01*
X915Y2754D01*
X916Y2754D01*
X917Y2754D01*
X918Y2754D01*
X919Y2754D01*
X920Y2754D01*
X921Y2754D01*
X922Y2754D01*
X923Y2754D01*
X924Y2754D01*
X925Y2754D01*
X926Y2754D01*
X927Y2754D01*
X928Y2754D01*
X929Y2754D01*
X930Y2754D01*
X931Y2754D01*
X932Y2754D01*
X933Y2754D01*
X934Y2754D01*
X935Y2754D01*
X936Y2754D01*
X937Y2754D01*
X938Y2754D01*
X939Y2754D01*
X940Y2754D01*
X941Y2754D01*
X942Y2754D01*
X943Y2754D01*
X944Y2754D01*
X945Y2754D01*
X946Y2754D01*
X947Y2754D01*
X948Y2754D01*
X949Y2754D01*
X950Y2754D01*
X951Y2754D01*
X952Y2754D01*
X953Y2754D01*
X954Y2754D01*
X955Y2754D01*
X956Y2754D01*
X957Y2754D01*
X958Y2754D01*
X959Y2754D01*
X960Y2754D01*
X961Y2754D01*
X962Y2754D01*
X963Y2754D01*
X964Y2754D01*
X965Y2754D01*
X966Y2754D01*
X967Y2754D01*
X968Y2754D01*
X969Y2754D01*
X970Y2754D01*
X971Y2754D01*
X972Y2754D01*
X973Y2754D01*
X974Y2754D01*
X975Y2754D01*
X976Y2754D01*
X977Y2754D01*
X978Y2754D01*
X979Y2754D01*
X980Y2754D01*
X981Y2754D01*
X982Y2754D01*
X983Y2754D01*
X984Y2754D01*
X985Y2754D01*
X986Y2754D01*
X987Y2754D01*
X988Y2754D01*
X989Y2754D01*
X990Y2754D01*
X991Y2754D01*
X992Y2754D01*
X993Y2754D01*
X994Y2754D01*
X995Y2754D01*
X996Y2754D01*
X997Y2754D01*
X998Y2754D01*
X999Y2754D01*
X1000Y2754D01*
X1001Y2754D01*
X1002Y2754D01*
X1003Y2754D01*
X1004Y2754D01*
X1005Y2754D01*
X1006Y2754D01*
X1007Y2754D01*
X1008Y2754D01*
X1009Y2754D01*
X1010Y2754D01*
X1011Y2754D01*
X1012Y2754D01*
X1013Y2754D01*
X1014Y2754D01*
X1015Y2754D01*
X1016Y2754D01*
X1017Y2754D01*
X1018Y2754D01*
X1019Y2754D01*
X1020Y2754D01*
X1021Y2754D01*
X1022Y2754D01*
X1023Y2754D01*
X1024Y2754D01*
X1025Y2754D01*
X1026Y2754D01*
X1027Y2754D01*
X1028Y2754D01*
X1029Y2754D01*
X1030Y2754D01*
X1031Y2754D01*
X1032Y2754D01*
X1033Y2754D01*
X1034Y2754D01*
X1035Y2754D01*
X1036Y2754D01*
X1037Y2754D01*
X1038Y2754D01*
X1039Y2754D01*
X1040Y2754D01*
X1041Y2754D01*
X1042Y2754D01*
X1043Y2754D01*
X1044Y2754D01*
X1045Y2754D01*
X1046Y2754D01*
X1047Y2754D01*
X1048Y2754D01*
X1049Y2754D01*
X1050Y2754D01*
X1051Y2754D01*
X1052Y2754D01*
X1053Y2754D01*
X1054Y2754D01*
X1055Y2754D01*
X1056Y2754D01*
X1057Y2754D01*
X1058Y2754D01*
X1059Y2754D01*
X1060Y2754D01*
X1061Y2754D01*
X1062Y2754D01*
X1063Y2754D01*
X1064Y2754D01*
X1065Y2754D01*
X1066Y2754D01*
X1067Y2754D01*
X1068Y2754D01*
X1069Y2754D01*
X1070Y2754D01*
X1071Y2754D01*
X1072Y2754D01*
X1073Y2754D01*
X1074Y2754D01*
X1075Y2754D01*
X1076Y2754D01*
X1077Y2754D01*
X1078Y2754D01*
X1079Y2754D01*
X1080Y2754D01*
X1081Y2754D01*
X1082Y2754D01*
X1083Y2754D01*
X1084Y2754D01*
X1085Y2754D01*
X1086Y2754D01*
X1087Y2754D01*
X1088Y2754D01*
X1089Y2754D01*
X1090Y2754D01*
X1091Y2754D01*
X1092Y2754D01*
X1093Y2754D01*
X1094Y2754D01*
X1095Y2754D01*
X1096Y2754D01*
X1097Y2754D01*
X1098Y2754D01*
X1099Y2754D01*
X1100Y2754D01*
X1101Y2754D01*
X1102Y2754D01*
X1103Y2754D01*
X1104Y2754D01*
X1105Y2754D01*
X1106Y2754D01*
X1107Y2754D01*
X1108Y2754D01*
X1109Y2754D01*
X1110Y2754D01*
X1111Y2754D01*
X1112Y2754D01*
X1113Y2754D01*
X1114Y2754D01*
X1115Y2754D01*
X1116Y2754D01*
X1117Y2754D01*
X1118Y2754D01*
X1119Y2754D01*
X1120Y2754D01*
X1121Y2754D01*
X1122Y2754D01*
X1123Y2754D01*
X1124Y2754D01*
X1125Y2754D01*
X1126Y2754D01*
X1127Y2754D01*
X1128Y2754D01*
X1129Y2754D01*
X1130Y2754D01*
X1131Y2754D01*
X1132Y2754D01*
X1133Y2754D01*
X1134Y2754D01*
X1135Y2754D01*
X1136Y2754D01*
X1137Y2754D01*
X1138Y2754D01*
X1139Y2754D01*
X1140Y2754D01*
X1141Y2754D01*
X1142Y2754D01*
X1143Y2754D01*
X1144Y2754D01*
X1145Y2754D01*
X1146Y2754D01*
X1147Y2754D01*
X1148Y2754D01*
X1149Y2754D01*
X1150Y2754D01*
X1151Y2754D01*
X1152Y2754D01*
X1153Y2754D01*
X1154Y2754D01*
X1155Y2754D01*
X1156Y2754D01*
X1157Y2754D01*
X1158Y2754D01*
X1159Y2754D01*
X1160Y2754D01*
X1161Y2754D01*
X1162Y2754D01*
X1163Y2754D01*
X1164Y2754D01*
X1165Y2754D01*
X1166Y2754D01*
X1167Y2754D01*
X1168Y2754D01*
X1169Y2754D01*
X1170Y2754D01*
X1171Y2754D01*
X1172Y2754D01*
X1173Y2754D01*
X1174Y2754D01*
X1175Y2754D01*
X1176Y2754D01*
X1177Y2754D01*
X1178Y2754D01*
X1179Y2754D01*
X1180Y2754D01*
X1181Y2754D01*
X1182Y2754D01*
X1183Y2754D01*
X1184Y2754D01*
X1185Y2754D01*
X1186Y2754D01*
X1187Y2754D01*
X1188Y2754D01*
X1189Y2754D01*
X1190Y2754D01*
X1191Y2754D01*
X1192Y2754D01*
X1193Y2754D01*
X1194Y2754D01*
X1195Y2754D01*
X1196Y2754D01*
X1197Y2754D01*
X1198Y2754D01*
X1199Y2754D01*
X1200Y2754D01*
X1201Y2754D01*
X1202Y2754D01*
X1203Y2754D01*
X1204Y2754D01*
X1205Y2754D01*
X1206Y2754D01*
X1207Y2754D01*
X1208Y2754D01*
X1209Y2754D01*
X1210Y2754D01*
X1211Y2754D01*
X1212Y2754D01*
X1213Y2754D01*
X1214Y2754D01*
X1215Y2754D01*
X1216Y2754D01*
X1217Y2754D01*
X1218Y2754D01*
X1219Y2754D01*
X1220Y2754D01*
X1221Y2754D01*
X1222Y2754D01*
X1223Y2754D01*
X1224Y2754D01*
X1225Y2754D01*
X1226Y2754D01*
X1227Y2754D01*
X1228Y2754D01*
X1229Y2754D01*
X1230Y2754D01*
X1231Y2754D01*
X1232Y2754D01*
X1233Y2754D01*
X1234Y2754D01*
X1235Y2754D01*
X1236Y2754D01*
X1237Y2754D01*
X1238Y2754D01*
X1239Y2754D01*
X1240Y2754D01*
X1241Y2754D01*
X1242Y2754D01*
X1243Y2754D01*
X1244Y2754D01*
X1245Y2754D01*
X1246Y2754D01*
X1247Y2754D01*
X1248Y2754D01*
X1249Y2754D01*
X1250Y2754D01*
X1251Y2754D01*
X1252Y2754D01*
X1253Y2754D01*
X1254Y2754D01*
X1255Y2754D01*
X1256Y2754D01*
X1257Y2754D01*
X1258Y2754D01*
X1259Y2754D01*
X1260Y2754D01*
X1261Y2754D01*
X1262Y2754D01*
X1263Y2754D01*
X1264Y2754D01*
X1265Y2754D01*
X1266Y2754D01*
X1267Y2754D01*
X1268Y2754D01*
X1269Y2754D01*
X1270Y2754D01*
X1271Y2754D01*
X1272Y2754D01*
X1273Y2754D01*
X1274Y2754D01*
X1275Y2754D01*
X1276Y2754D01*
X1277Y2754D01*
X1278Y2754D01*
X1279Y2754D01*
X1280Y2754D01*
X1281Y2754D01*
X1282Y2754D01*
X1283Y2754D01*
X1284Y2754D01*
X1285Y2754D01*
X1286Y2754D01*
X1287Y2754D01*
X1288Y2754D01*
X1289Y2754D01*
X1290Y2754D01*
X1291Y2754D01*
X1292Y2754D01*
X1293Y2754D01*
X1294Y2754D01*
X1295Y2754D01*
X1296Y2754D01*
X1297Y2754D01*
X1298Y2754D01*
X1299Y2754D01*
X1300Y2754D01*
X1301Y2754D01*
X1302Y2754D01*
X1303Y2754D01*
X1304Y2754D01*
X1305Y2754D01*
X1306Y2754D01*
X1307Y2754D01*
X1308Y2754D01*
X1309Y2754D01*
X1310Y2754D01*
X1311Y2754D01*
X1312Y2754D01*
X1313Y2754D01*
X1314Y2754D01*
X1315Y2754D01*
X1316Y2754D01*
X1317Y2754D01*
X1318Y2754D01*
X1319Y2754D01*
X1320Y2754D01*
X1321Y2754D01*
X1322Y2754D01*
X1323Y2754D01*
X1324Y2754D01*
X1325Y2754D01*
X1326Y2754D01*
X1327Y2754D01*
X1328Y2754D01*
X1329Y2754D01*
X1330Y2754D01*
X1331Y2754D01*
X1332Y2754D01*
X1333Y2754D01*
X1334Y2754D01*
X1335Y2754D01*
X1336Y2754D01*
X1337Y2754D01*
X1338Y2754D01*
X1339Y2754D01*
X1340Y2754D01*
X1341Y2754D01*
X1342Y2754D01*
X1343Y2754D01*
X1344Y2754D01*
X1345Y2754D01*
X1346Y2754D01*
X1347Y2754D01*
X1348Y2754D01*
X1349Y2754D01*
X1350Y2754D01*
X1351Y2754D01*
X1352Y2754D01*
X1353Y2754D01*
X1354Y2754D01*
X1355Y2754D01*
X1356Y2754D01*
X1357Y2754D01*
X1358Y2754D01*
X1359Y2754D01*
X1360Y2754D01*
X1361Y2754D01*
X1362Y2754D01*
X1363Y2754D01*
X1364Y2754D01*
X1365Y2754D01*
X1366Y2754D01*
X1367Y2754D01*
X1368Y2754D01*
X1369Y2754D01*
X1370Y2754D01*
X1371Y2754D01*
X1372Y2754D01*
X1373Y2754D01*
X1374Y2754D01*
X1375Y2754D01*
X1376Y2754D01*
X1377Y2754D01*
X1378Y2754D01*
X1379Y2754D01*
X1380Y2754D01*
X1381Y2754D01*
X1382Y2754D01*
X1383Y2754D01*
X1384Y2754D01*
X1385Y2754D01*
X1386Y2754D01*
X1387Y2754D01*
X1388Y2754D01*
X1389Y2754D01*
X1390Y2754D01*
X1391Y2754D01*
X1392Y2754D01*
X1393Y2754D01*
X1394Y2754D01*
X1395Y2754D01*
X1396Y2754D01*
X1397Y2754D01*
X1398Y2754D01*
X1399Y2754D01*
X1400Y2754D01*
X1401Y2754D01*
X1402Y2754D01*
X1403Y2754D01*
X1404Y2754D01*
X1405Y2754D01*
X1406Y2754D01*
X1407Y2754D01*
X1408Y2754D01*
X1409Y2754D01*
X1410Y2754D01*
X1411Y2754D01*
X1412Y2754D01*
X1413Y2754D01*
X1414Y2754D01*
X1415Y2754D01*
X1416Y2754D01*
X1417Y2754D01*
X1418Y2754D01*
X1419Y2754D01*
X1420Y2754D01*
X1421Y2754D01*
X1422Y2754D01*
X1423Y2754D01*
X1424Y2754D01*
X1425Y2754D01*
X1426Y2754D01*
X1427Y2754D01*
X1428Y2754D01*
X1429Y2754D01*
X1430Y2754D01*
X1431Y2754D01*
X1432Y2754D01*
X1433Y2754D01*
X1434Y2754D01*
X1435Y2754D01*
X1436Y2754D01*
X1437Y2754D01*
X1438Y2754D01*
X1439Y2754D01*
X1440Y2754D01*
X1441Y2754D01*
X1442Y2754D01*
X1443Y2754D01*
X1444Y2754D01*
X1445Y2754D01*
X1446Y2754D01*
X1447Y2754D01*
X1448Y2754D01*
X1449Y2754D01*
X1450Y2754D01*
X1451Y2754D01*
X1452Y2754D01*
X1453Y2754D01*
X1454Y2754D01*
X1455Y2754D01*
X1456Y2754D01*
X1457Y2754D01*
X1458Y2754D01*
X1459Y2754D01*
X1460Y2754D01*
X1461Y2754D01*
X1462Y2754D01*
X1463Y2754D01*
X1464Y2754D01*
X1465Y2754D01*
X1466Y2754D01*
X1467Y2754D01*
X1468Y2754D01*
X1469Y2754D01*
X1470Y2754D01*
X1471Y2754D01*
X1472Y2754D01*
X1473Y2754D01*
X1474Y2754D01*
X1475Y2754D01*
X1476Y2754D01*
X1477Y2754D01*
X1478Y2754D01*
X1479Y2754D01*
X1480Y2754D01*
X1481Y2754D01*
X1482Y2754D01*
X1483Y2754D01*
X1484Y2754D01*
X1485Y2754D01*
X1486Y2754D01*
X1487Y2754D01*
X1488Y2754D01*
X1489Y2754D01*
X1490Y2754D01*
X1491Y2754D01*
X1492Y2754D01*
X1493Y2754D01*
X1494Y2754D01*
X1495Y2754D01*
X1496Y2754D01*
X1497Y2754D01*
X1498Y2754D01*
X1499Y2754D01*
X1500Y2754D01*
X1501Y2754D01*
X1502Y2754D01*
X1503Y2754D01*
X1504Y2754D01*
X1505Y2754D01*
X1506Y2754D01*
X1507Y2754D01*
X1508Y2754D01*
X1509Y2754D01*
X1510Y2754D01*
X1511Y2754D01*
X1512Y2754D01*
X1513Y2754D01*
X1514Y2754D01*
X1515Y2754D01*
X1516Y2754D01*
X1517Y2754D01*
X1518Y2754D01*
X1519Y2754D01*
X1520Y2754D01*
X1521Y2754D01*
X1522Y2754D01*
X1523Y2754D01*
X1524Y2754D01*
X1525Y2754D01*
X1526Y2754D01*
X1527Y2754D01*
X1528Y2754D01*
X1529Y2754D01*
X1530Y2754D01*
X1531Y2754D01*
X1532Y2754D01*
X1533Y2754D01*
X1534Y2754D01*
X1535Y2754D01*
X1536Y2754D01*
X1537Y2754D01*
X1538Y2754D01*
X1539Y2754D01*
X1540Y2754D01*
X1541Y2754D01*
X1542Y2754D01*
X1543Y2754D01*
X1544Y2754D01*
X1545Y2754D01*
X1546Y2754D01*
X1547Y2754D01*
X1548Y2754D01*
X1549Y2754D01*
X1550Y2754D01*
X1551Y2754D01*
X1552Y2754D01*
X1553Y2754D01*
X1554Y2754D01*
X1555Y2754D01*
X1556Y2754D01*
X1557Y2754D01*
X1558Y2754D01*
X1559Y2754D01*
X1560Y2754D01*
X1561Y2754D01*
X1562Y2754D01*
X1563Y2754D01*
X1564Y2754D01*
X1565Y2754D01*
X1566Y2754D01*
X1567Y2754D01*
X1568Y2754D01*
X1569Y2754D01*
X1570Y2754D01*
X1571Y2754D01*
X1572Y2754D01*
X1573Y2754D01*
X1574Y2754D01*
X1575Y2754D01*
X1576Y2754D01*
X1577Y2754D01*
X1578Y2754D01*
X1579Y2754D01*
X1580Y2754D01*
X1581Y2754D01*
X1582Y2754D01*
X1583Y2754D01*
X1584Y2754D01*
X1585Y2754D01*
X1586Y2754D01*
X1587Y2754D01*
X1588Y2754D01*
X1589Y2754D01*
X1590Y2754D01*
X1591Y2754D01*
X1592Y2754D01*
X1593Y2754D01*
X1594Y2754D01*
X1595Y2754D01*
X1596Y2754D01*
X1597Y2754D01*
X1598Y2754D01*
X1599Y2754D01*
X1600Y2754D01*
X1601Y2754D01*
X1602Y2754D01*
X1603Y2754D01*
X1604Y2754D01*
X1605Y2754D01*
X1606Y2754D01*
X1607Y2754D01*
X1608Y2754D01*
X1609Y2754D01*
X1610Y2754D01*
X1611Y2754D01*
X1612Y2754D01*
X1613Y2754D01*
X1614Y2754D01*
X1615Y2754D01*
X1616Y2754D01*
X1617Y2754D01*
X1618Y2754D01*
X1619Y2754D01*
X1620Y2754D01*
X1621Y2754D01*
X1622Y2754D01*
X1623Y2754D01*
X1624Y2754D01*
X1625Y2754D01*
X1626Y2754D01*
X1627Y2754D01*
X1628Y2754D01*
X1629Y2754D01*
X1630Y2754D01*
X1631Y2754D01*
X1632Y2754D01*
X1633Y2754D01*
X1634Y2754D01*
X1635Y2754D01*
X1636Y2754D01*
X1637Y2754D01*
X1638Y2754D01*
X1639Y2754D01*
X1640Y2754D01*
X1641Y2754D01*
X1642Y2754D01*
X1643Y2754D01*
X1644Y2754D01*
X1645Y2754D01*
X1646Y2754D01*
X1647Y2754D01*
X1648Y2754D01*
X1649Y2754D01*
X1650Y2754D01*
X1651Y2754D01*
X1652Y2754D01*
X1653Y2754D01*
X1654Y2754D01*
X1655Y2754D01*
X1656Y2754D01*
X1657Y2754D01*
X1658Y2754D01*
X1659Y2754D01*
X1660Y2754D01*
X1661Y2754D01*
X1662Y2754D01*
X1663Y2754D01*
X1664Y2754D01*
X1665Y2754D01*
X1666Y2754D01*
X1667Y2754D01*
X1668Y2754D01*
X1669Y2754D01*
X1670Y2754D01*
X1671Y2754D01*
X1672Y2754D01*
X1673Y2754D01*
X1674Y2754D01*
X1675Y2754D01*
X1676Y2754D01*
X1677Y2754D01*
X1678Y2754D01*
X1679Y2754D01*
X1680Y2754D01*
X1681Y2754D01*
X1682Y2754D01*
X1683Y2754D01*
X1684Y2754D01*
X1685Y2754D01*
X1686Y2754D01*
X1687Y2754D01*
X1688Y2754D01*
X1689Y2754D01*
X1690Y2754D01*
X1691Y2754D01*
X1692Y2754D01*
X1693Y2754D01*
X1694Y2754D01*
X1695Y2754D01*
X1696Y2754D01*
X1697Y2754D01*
X1698Y2754D01*
X1699Y2754D01*
X1700Y2754D01*
X1701Y2754D01*
X1702Y2754D01*
X1703Y2754D01*
X1704Y2754D01*
X1705Y2754D01*
X1706Y2754D01*
X1707Y2754D01*
X1708Y2754D01*
X1709Y2754D01*
X1710Y2754D01*
X1711Y2754D01*
X1712Y2754D01*
X1713Y2754D01*
X1714Y2754D01*
X1715Y2754D01*
X1716Y2754D01*
X1717Y2754D01*
X1718Y2754D01*
X1719Y2754D01*
X1720Y2754D01*
X1721Y2754D01*
X1722Y2754D01*
X1723Y2754D01*
X1724Y2754D01*
X1725Y2754D01*
X1726Y2754D01*
X1727Y2754D01*
X1728Y2754D01*
X1729Y2754D01*
X1730Y2754D01*
X1731Y2754D01*
X1732Y2754D01*
X1733Y2754D01*
X1734Y2754D01*
X1735Y2754D01*
X1736Y2754D01*
X1737Y2754D01*
X1738Y2754D01*
X1739Y2754D01*
X1740Y2754D01*
X1741Y2754D01*
X1742Y2754D01*
X1743Y2754D01*
X1744Y2754D01*
X1745Y2754D01*
X1746Y2754D01*
X1747Y2754D01*
X1748Y2754D01*
X1749Y2754D01*
X1750Y2754D01*
X1751Y2754D01*
X1752Y2754D01*
X1753Y2754D01*
X1754Y2754D01*
X1755Y2754D01*
X1756Y2754D01*
X1757Y2754D01*
X1758Y2754D01*
X1759Y2754D01*
X1760Y2754D01*
X1761Y2754D01*
X1762Y2754D01*
X1763Y2754D01*
X1764Y2754D01*
X1765Y2754D01*
X1766Y2754D01*
X1767Y2754D01*
X1768Y2754D01*
X1769Y2754D01*
X1770Y2754D01*
X1771Y2754D01*
X1772Y2754D01*
X1773Y2754D01*
X1774Y2754D01*
X1775Y2754D01*
X1776Y2754D01*
X1777Y2754D01*
X1778Y2754D01*
X1779Y2754D01*
X1780Y2754D01*
X1781Y2754D01*
X1782Y2754D01*
X1783Y2754D01*
X1784Y2754D01*
X1785Y2754D01*
X1786Y2754D01*
X1787Y2754D01*
X1788Y2754D01*
X1789Y2754D01*
X1790Y2754D01*
X1791Y2754D01*
X1792Y2754D01*
X1793Y2754D01*
X1794Y2754D01*
X1795Y2754D01*
X1796Y2754D01*
X1797Y2754D01*
X1798Y2754D01*
X1799Y2754D01*
X1800Y2754D01*
X1801Y2754D01*
X1802Y2754D01*
X1803Y2754D01*
X1804Y2754D01*
X1805Y2754D01*
X1806Y2754D01*
X1807Y2754D01*
X1808Y2754D01*
X1809Y2754D01*
X1810Y2754D01*
X1811Y2754D01*
X1812Y2754D01*
X1813Y2754D01*
X1814Y2754D01*
X1815Y2754D01*
X1816Y2754D01*
X1817Y2754D01*
X1818Y2754D01*
X1819Y2754D01*
X1820Y2754D01*
X1821Y2754D01*
X1822Y2754D01*
X1823Y2754D01*
X1824Y2754D01*
X1825Y2754D01*
X1826Y2754D01*
X1827Y2754D01*
X1828Y2754D01*
X1829Y2754D01*
X1830Y2754D01*
X1831Y2754D01*
X1832Y2754D01*
X1833Y2754D01*
X1834Y2754D01*
X1835Y2754D01*
X1836Y2754D01*
X1837Y2754D01*
X1838Y2754D01*
X1839Y2754D01*
X1840Y2754D01*
X1841Y2754D01*
X1842Y2754D01*
X1843Y2754D01*
X1844Y2754D01*
X1845Y2754D01*
X1846Y2754D01*
X1847Y2754D01*
X1848Y2754D01*
X1849Y2754D01*
X1850Y2754D01*
X1851Y2754D01*
X1852Y2754D01*
X1853Y2754D01*
X1854Y2754D01*
X1855Y2754D01*
X1856Y2754D01*
X1857Y2754D01*
X1858Y2754D01*
X1859Y2754D01*
X1860Y2754D01*
X1861Y2754D01*
X1862Y2754D01*
X1863Y2754D01*
X1864Y2754D01*
X1865Y2754D01*
X1866Y2754D01*
X1867Y2754D01*
X1868Y2754D01*
X1869Y2754D01*
X1870Y2754D01*
X1871Y2754D01*
X1872Y2754D01*
X1873Y2754D01*
X1874Y2754D01*
X1875Y2754D01*
X1876Y2754D01*
X1877Y2754D01*
X1878Y2754D01*
X1879Y2754D01*
X1880Y2754D01*
X1881Y2754D01*
X1882Y2754D01*
X1883Y2754D01*
X1884Y2754D01*
X1885Y2754D01*
X1886Y2754D01*
X1887Y2754D01*
X1888Y2754D01*
X1889Y2754D01*
X1890Y2754D01*
X1891Y2754D01*
X1892Y2754D01*
X1893Y2754D01*
X1894Y2754D01*
X1895Y2754D01*
X1896Y2754D01*
X1897Y2754D01*
X1898Y2754D01*
X1899Y2754D01*
X1900Y2754D01*
X1901Y2754D01*
X1902Y2754D01*
X1903Y2754D01*
X1904Y2754D01*
X1905Y2754D01*
X1906Y2754D01*
X1907Y2754D01*
X1908Y2754D01*
X1909Y2754D01*
X1910Y2754D01*
X1911Y2754D01*
X1912Y2754D01*
X1913Y2754D01*
X1914Y2754D01*
X1915Y2754D01*
X1916Y2754D01*
X1917Y2754D01*
X1918Y2754D01*
X1919Y2754D01*
X1920Y2754D01*
X1921Y2754D01*
X1922Y2754D01*
X1923Y2754D01*
X1924Y2754D01*
X1925Y2754D01*
X1926Y2754D01*
X1927Y2754D01*
X1928Y2754D01*
X1929Y2754D01*
X1930Y2754D01*
X1931Y2754D01*
X1932Y2754D01*
X1933Y2754D01*
X1934Y2754D01*
X1935Y2754D01*
X1936Y2754D01*
X1937Y2754D01*
X1938Y2754D01*
X1939Y2754D01*
X1940Y2754D01*
X1941Y2754D01*
X1942Y2754D01*
X1943Y2754D01*
X1944Y2754D01*
X1945Y2754D01*
X1946Y2754D01*
X1947Y2754D01*
X1948Y2754D01*
X1949Y2754D01*
X1950Y2754D01*
X1951Y2754D01*
X1952Y2754D01*
X1953Y2754D01*
X1954Y2754D01*
X1955Y2754D01*
X1956Y2754D01*
X1957Y2754D01*
X1958Y2754D01*
X1959Y2754D01*
X1960Y2754D01*
X1961Y2754D01*
X1962Y2754D01*
X1963Y2754D01*
X1964Y2754D01*
X1965Y2754D01*
X1966Y2754D01*
X1967Y2754D01*
X1968Y2754D01*
X1969Y2754D01*
X1970Y2754D01*
X1971Y2754D01*
X1972Y2754D01*
X1973Y2754D01*
X1974Y2754D01*
X1975Y2754D01*
X1976Y2754D01*
X1977Y2754D01*
X1978Y2754D01*
X1979Y2754D01*
X1980Y2754D01*
X1981Y2754D01*
X1982Y2754D01*
X1983Y2754D01*
X1984Y2754D01*
X1985Y2754D01*
X1986Y2754D01*
X1987Y2754D01*
X1988Y2754D01*
X1989Y2754D01*
X1990Y2754D01*
X1991Y2754D01*
X1992Y2754D01*
X1993Y2754D01*
X1994Y2754D01*
X1995Y2754D01*
X1996Y2754D01*
X1997Y2754D01*
X1998Y2754D01*
X1999Y2754D01*
X2000Y2754D01*
X2001Y2754D01*
X2002Y2754D01*
X2003Y2754D01*
X2004Y2754D01*
X2005Y2754D01*
X2006Y2754D01*
X2007Y2754D01*
X2008Y2754D01*
X2009Y2754D01*
X2010Y2754D01*
X2011Y2754D01*
X2012Y2754D01*
X2013Y2754D01*
X2014Y2754D01*
X2015Y2754D01*
X2016Y2754D01*
X2017Y2754D01*
X2018Y2754D01*
X2019Y2754D01*
X2020Y2754D01*
X2021Y2754D01*
X2022Y2754D01*
X2023Y2754D01*
X2024Y2754D01*
X2025Y2754D01*
X2026Y2754D01*
X2027Y2754D01*
X2028Y2754D01*
X2029Y2754D01*
X2030Y2754D01*
X2031Y2754D01*
X2032Y2754D01*
X2033Y2754D01*
X2034Y2754D01*
X2035Y2754D01*
X2036Y2754D01*
X2037Y2754D01*
X2038Y2754D01*
X2039Y2754D01*
X2040Y2754D01*
X2041Y2754D01*
X2042Y2754D01*
X2043Y2754D01*
X2044Y2754D01*
X2045Y2754D01*
X2046Y2754D01*
X2047Y2754D01*
X2048Y2754D01*
X2049Y2754D01*
X2050Y2754D01*
X2051Y2754D01*
X2052Y2754D01*
X2053Y2754D01*
X2054Y2754D01*
X2055Y2754D01*
X2056Y2754D01*
X2057Y2754D01*
X2058Y2754D01*
X2059Y2754D01*
X2060Y2754D01*
X2061Y2754D01*
X2062Y2754D01*
X2063Y2754D01*
X2064Y2754D01*
X2065Y2754D01*
X2066Y2754D01*
X2067Y2754D01*
X2068Y2754D01*
X2069Y2754D01*
X2070Y2754D01*
X2071Y2754D01*
X2072Y2754D01*
X2073Y2754D01*
X2074Y2754D01*
X2075Y2754D01*
X2076Y2754D01*
X2077Y2754D01*
X2078Y2754D01*
X2079Y2754D01*
X2080Y2754D01*
X2081Y2754D01*
X2082Y2754D01*
X2083Y2754D01*
X2084Y2754D01*
X2085Y2754D01*
X2086Y2754D01*
X2087Y2754D01*
X2088Y2754D01*
X2089Y2754D01*
X2090Y2754D01*
X2091Y2754D01*
X2092Y2754D01*
X2093Y2754D01*
X2094Y2754D01*
X2095Y2754D01*
X2096Y2754D01*
X2097Y2754D01*
X2098Y2754D01*
X2099Y2754D01*
X2100Y2754D01*
X2101Y2754D01*
X2102Y2754D01*
X2103Y2754D01*
X2104Y2754D01*
X2105Y2754D01*
X2106Y2754D01*
X2107Y2754D01*
X2108Y2754D01*
X2109Y2754D01*
X2110Y2754D01*
X2111Y2754D01*
X2112Y2754D01*
X2113Y2754D01*
X2114Y2754D01*
X2115Y2754D01*
X2116Y2754D01*
X2117Y2754D01*
X2118Y2754D01*
X2119Y2754D01*
X2120Y2754D01*
X2121Y2754D01*
X2122Y2754D01*
X2123Y2754D01*
X2124Y2754D01*
X2125Y2754D01*
X2126Y2754D01*
X2127Y2754D01*
X2128Y2754D01*
X2129Y2754D01*
X2130Y2754D01*
X2131Y2754D01*
X2132Y2754D01*
X2133Y2754D01*
X2134Y2754D01*
X2135Y2754D01*
X2136Y2754D01*
X2137Y2754D01*
X2138Y2754D01*
X2139Y2754D01*
X2140Y2754D01*
X2141Y2754D01*
X2142Y2754D01*
X2143Y2754D01*
X2144Y2754D01*
X2145Y2754D01*
X2146Y2754D01*
X2147Y2754D01*
X2148Y2754D01*
X2149Y2754D01*
X2150Y2754D01*
X2151Y2754D01*
X2152Y2754D01*
X2153Y2754D01*
X2154Y2754D01*
X2155Y2754D01*
X2156Y2754D01*
X2157Y2754D01*
X2158Y2754D01*
X2159Y2754D01*
X2160Y2754D01*
X2161Y2754D01*
X2162Y2754D01*
X2163Y2754D01*
X2164Y2754D01*
X2165Y2754D01*
X2166Y2754D01*
X2167Y2754D01*
X2168Y2754D01*
X2169Y2754D01*
X2170Y2754D01*
X2171Y2754D01*
X2172Y2754D01*
X2173Y2754D01*
X2174Y2754D01*
X2175Y2754D01*
X2176Y2754D01*
X2177Y2754D01*
X2178Y2754D01*
X2179Y2754D01*
X2180Y2754D01*
X2181Y2754D01*
X2182Y2754D01*
X2183Y2754D01*
X2184Y2754D01*
X2185Y2754D01*
X2186Y2754D01*
X2187Y2754D01*
X2188Y2754D01*
X2189Y2754D01*
X2190Y2754D01*
X2191Y2754D01*
X2192Y2754D01*
X2193Y2754D01*
X2194Y2754D01*
X2195Y2754D01*
X2196Y2754D01*
X2197Y2754D01*
X2198Y2754D01*
X2199Y2754D01*
X2200Y2754D01*
X2201Y2754D01*
X2202Y2754D01*
X2203Y2754D01*
X2204Y2754D01*
X2205Y2754D01*
X2206Y2754D01*
X2207Y2754D01*
X2208Y2754D01*
X2209Y2754D01*
X2210Y2754D01*
X2211Y2754D01*
X2212Y2754D01*
X2213Y2754D01*
X2214Y2754D01*
X2215Y2754D01*
X2216Y2754D01*
X2217Y2754D01*
X2218Y2754D01*
X2219Y2754D01*
X2220Y2754D01*
X2221Y2754D01*
X2222Y2754D01*
X2223Y2754D01*
X2224Y2754D01*
X2225Y2754D01*
X2226Y2754D01*
X2227Y2754D01*
X2228Y2754D01*
X2229Y2754D01*
X2230Y2754D01*
X2231Y2754D01*
X2232Y2754D01*
X2233Y2754D01*
X2234Y2754D01*
X2235Y2754D01*
X2236Y2754D01*
X2237Y2754D01*
X2238Y2754D01*
X2239Y2754D01*
X2240Y2754D01*
X2241Y2754D01*
X2242Y2754D01*
X2243Y2754D01*
X2244Y2754D01*
X2245Y2754D01*
X2246Y2754D01*
X2247Y2754D01*
X2248Y2754D01*
X2249Y2754D01*
X2250Y2754D01*
X2251Y2754D01*
X2252Y2754D01*
X2253Y2754D01*
X2254Y2754D01*
X2255Y2754D01*
X2256Y2754D01*
X2257Y2754D01*
X2258Y2754D01*
X2259Y2754D01*
X2260Y2754D01*
X2261Y2754D01*
X2262Y2754D01*
X2263Y2754D01*
X2264Y2754D01*
X2265Y2754D01*
X2266Y2754D01*
X2267Y2754D01*
X2268Y2754D01*
X2269Y2754D01*
X2270Y2754D01*
X2271Y2754D01*
X2272Y2754D01*
X2273Y2754D01*
X2274Y2754D01*
X2275Y2754D01*
X2276Y2754D01*
X2277Y2754D01*
X2278Y2754D01*
X2279Y2754D01*
X2280Y2754D01*
X2281Y2754D01*
X2282Y2754D01*
X2283Y2754D01*
X2284Y2754D01*
X2285Y2754D01*
X2286Y2754D01*
X2287Y2754D01*
X2288Y2754D01*
X2289Y2754D01*
X2290Y2754D01*
X2291Y2754D01*
X2292Y2754D01*
X2293Y2754D01*
X2294Y2754D01*
X2295Y2754D01*
X2296Y2754D01*
X2297Y2754D01*
X2298Y2754D01*
X2299Y2754D01*
X2300Y2754D01*
X2301Y2754D01*
X2302Y2754D01*
X2303Y2754D01*
X2304Y2754D01*
X2305Y2754D01*
X2306Y2754D01*
X2307Y2754D01*
X2308Y2754D01*
X2309Y2754D01*
X2310Y2754D01*
X2311Y2754D01*
X2312Y2754D01*
X2313Y2754D01*
X2314Y2754D01*
X2315Y2754D01*
X2316Y2754D01*
X2317Y2754D01*
X2318Y2754D01*
X2319Y2754D01*
X2320Y2754D01*
X2321Y2754D01*
X2322Y2754D01*
X2323Y2754D01*
X2324Y2754D01*
X2325Y2754D01*
X2326Y2754D01*
X2327Y2754D01*
X2328Y2754D01*
X2329Y2754D01*
X2330Y2754D01*
X2331Y2754D01*
X2332Y2754D01*
X2333Y2754D01*
X2334Y2754D01*
X2335Y2754D01*
X2336Y2754D01*
X2337Y2754D01*
X2338Y2754D01*
X2339Y2754D01*
X2340Y2754D01*
X2341Y2754D01*
X2342Y2754D01*
X2343Y2754D01*
X2344Y2754D01*
X2345Y2754D01*
X2346Y2754D01*
X2347Y2754D01*
X2348Y2754D01*
X2349Y2754D01*
X2350Y2754D01*
X2351Y2754D01*
X2352Y2754D01*
X2353Y2754D01*
X2354Y2754D01*
X2355Y2754D01*
X2356Y2754D01*
X2357Y2754D01*
X2358Y2754D01*
X2359Y2754D01*
X2360Y2754D01*
X2361Y2754D01*
X2362Y2754D01*
X2363Y2754D01*
X2364Y2754D01*
X2365Y2754D01*
X2366Y2754D01*
X2367Y2754D01*
X2368Y2754D01*
X2369Y2754D01*
X2370Y2754D01*
X2371Y2754D01*
X2372Y2754D01*
X2373Y2754D01*
X2374Y2754D01*
X2375Y2754D01*
X2376Y2754D01*
X2377Y2754D01*
X2378Y2754D01*
X2379Y2754D01*
X2380Y2754D01*
X2381Y2754D01*
X2382Y2754D01*
X2383Y2754D01*
X2384Y2754D01*
X2385Y2754D01*
X2386Y2754D01*
X2387Y2754D01*
X2388Y2754D01*
X2389Y2754D01*
X2390Y2754D01*
X2391Y2754D01*
X2392Y2754D01*
X2393Y2754D01*
X2394Y2754D01*
X2395Y2754D01*
X2396Y2754D01*
X2397Y2754D01*
X2398Y2754D01*
X2399Y2754D01*
X2400Y2754D01*
X2401Y2754D01*
X2402Y2754D01*
X2403Y2754D01*
X2404Y2754D01*
X2405Y2754D01*
X2406Y2754D01*
X2407Y2754D01*
X2408Y2754D01*
X2409Y2753D01*
X2410Y2753D01*
X2411Y2753D01*
X2412Y2753D01*
X2413Y2753D01*
X2414Y2753D01*
X2415Y2753D01*
X2416Y2753D01*
X2417Y2753D01*
X2418Y2753D01*
X2419Y2752D01*
X2420Y2752D01*
X2421Y2752D01*
X2422Y2752D01*
X2423Y2752D01*
X2424Y2752D01*
X2425Y2751D01*
X2426Y2751D01*
X2427Y2751D01*
X2428Y2751D01*
X2429Y2751D01*
X2430Y2750D01*
X2431Y2750D01*
X2432Y2750D01*
X2433Y2750D01*
X2434Y2749D01*
X2435Y2749D01*
X2436Y2749D01*
X2437Y2749D01*
X2438Y2748D01*
X2439Y2748D01*
X2440Y2748D01*
X2441Y2747D01*
X2442Y2747D01*
X2443Y2747D01*
X2444Y2746D01*
X2445Y2746D01*
X2446Y2746D01*
X2447Y2745D01*
X2448Y2745D01*
X2449Y2745D01*
X2450Y2744D01*
X2451Y2744D01*
X2452Y2744D01*
X2453Y2743D01*
X2454Y2743D01*
X2455Y2742D01*
X2456Y2742D01*
X2457Y2742D01*
X2458Y2741D01*
X2459Y2741D01*
X2460Y2740D01*
X2461Y2740D01*
X2462Y2739D01*
X2463Y2739D01*
X2464Y2738D01*
X2465Y2738D01*
X2466Y2737D01*
X2467Y2737D01*
X2468Y2736D01*
X2469Y2736D01*
X2470Y2735D01*
X2471Y2735D01*
X2472Y2734D01*
X2473Y2733D01*
X2474Y2733D01*
X2475Y2732D01*
X2476Y2732D01*
X2477Y2731D01*
X2478Y2730D01*
X2479Y2730D01*
X2480Y2729D01*
X2481Y2728D01*
X2482Y2728D01*
X2483Y2727D01*
X2484Y2726D01*
X2485Y2725D01*
X2486Y2725D01*
X2487Y2724D01*
X2488Y2723D01*
X2489Y2722D01*
X2490Y2722D01*
X2491Y2721D01*
X2492Y2720D01*
X2493Y2719D01*
X2494Y2718D01*
X2495Y2718D01*
X2496Y2717D01*
X2497Y2716D01*
X2498Y2715D01*
X2499Y2714D01*
X2500Y2713D01*
X2501Y2712D01*
X2502Y2711D01*
X2503Y2710D01*
X2504Y2709D01*
X2505Y2708D01*
X2506Y2707D01*
X2507Y2706D01*
X2508Y2705D01*
X2509Y2704D01*
X2509Y2703D01*
X2510Y2702D01*
X2511Y2701D01*
X2512Y2700D01*
X2513Y2699D01*
X2514Y2698D01*
X2514Y2697D01*
X2515Y2696D01*
X2516Y2695D01*
X2517Y2694D01*
X2517Y2693D01*
X2518Y2692D01*
X2519Y2691D01*
X2520Y2690D01*
X2520Y2689D01*
X2521Y2688D01*
X2521Y2687D01*
X2522Y2686D01*
X2523Y2685D01*
X2523Y2684D01*
X2524Y2683D01*
X2525Y2682D01*
X2525Y2681D01*
X2526Y2680D01*
X2526Y2679D01*
X2527Y2678D01*
X2527Y2677D01*
X2528Y2676D01*
X2528Y2675D01*
X2529Y2674D01*
X2530Y2673D01*
X2530Y2672D01*
X2531Y2671D01*
X2531Y2669D01*
X2532Y2668D01*
X2532Y2667D01*
X2533Y2666D01*
X2533Y2665D01*
X2534Y2664D01*
X2534Y2662D01*
X2535Y2661D01*
X2535Y2660D01*
X2536Y2659D01*
X2536Y2657D01*
X2537Y2656D01*
X2537Y2654D01*
X2538Y2653D01*
X2538Y2651D01*
X2539Y2650D01*
X2539Y2648D01*
X2540Y2647D01*
X2540Y2644D01*
X2541Y2643D01*
X2541Y2640D01*
X2542Y2639D01*
X2542Y2635D01*
X2543Y2634D01*
X2543Y2629D01*
X2544Y2628D01*
X2544Y2620D01*
X2545Y2619D01*
X2545Y139D01*
X2544Y138D01*
X2544Y130D01*
X2543Y129D01*
X2543Y124D01*
X2542Y123D01*
X2542Y119D01*
X2541Y118D01*
X2541Y114D01*
X2540Y113D01*
X2540Y111D01*
X2539Y110D01*
X2539Y107D01*
X2538Y106D01*
X2538Y104D01*
X2537Y103D01*
X2537Y101D01*
X2536Y100D01*
X2536Y98D01*
X2535Y97D01*
X2535Y96D01*
X2534Y95D01*
X2534Y93D01*
X2533Y92D01*
X2533Y91D01*
X2532Y90D01*
X2532Y89D01*
X2531Y88D01*
X2531Y87D01*
X2530Y86D01*
X2530Y85D01*
X2529Y84D01*
X2529Y83D01*
X2528Y82D01*
X2528Y81D01*
X2527Y80D01*
X2527Y79D01*
X2526Y78D01*
X2526Y77D01*
X2525Y76D01*
X2525Y75D01*
X2524Y74D01*
X2523Y73D01*
X2523Y72D01*
X2522Y71D01*
X2521Y70D01*
X2521Y69D01*
X2520Y68D01*
X2520Y67D01*
X2519Y66D01*
X2518Y65D01*
X2517Y64D01*
X2517Y63D01*
X2516Y62D01*
X2515Y61D01*
X2514Y60D01*
X2514Y59D01*
X2513Y58D01*
X2512Y57D01*
X2511Y56D01*
X2511Y55D01*
X2510Y54D01*
X2509Y53D01*
X2508Y52D01*
X2507Y51D01*
X2506Y50D01*
X2505Y49D01*
X2504Y48D01*
X2503Y47D01*
X2502Y46D01*
X2501Y45D01*
X2500Y44D01*
X2499Y43D01*
X2498Y42D01*
X2497Y41D01*
X2496Y40D01*
X2495Y39D01*
X2494Y38D01*
X2493Y37D01*
X2492Y36D01*
X2491Y36D01*
X2490Y35D01*
X2489Y34D01*
X2488Y33D01*
X2487Y33D01*
X2486Y32D01*
X2485Y31D01*
X2484Y30D01*
X2483Y30D01*
X2482Y29D01*
X2481Y28D01*
X2480Y27D01*
X2479Y27D01*
X2478Y26D01*
X2477Y25D01*
X2476Y25D01*
X2475Y24D01*
X2474Y24D01*
X2473Y23D01*
X2472Y22D01*
X2471Y22D01*
X2470Y21D01*
X2469Y21D01*
X2468Y20D01*
X2467Y20D01*
X2466Y19D01*
X2465Y19D01*
X2464Y18D01*
X2463Y18D01*
X2462Y17D01*
X2461Y17D01*
X2460Y16D01*
X2459Y16D01*
X2458Y15D01*
X2457Y15D01*
X2456Y14D01*
X2455Y14D01*
X2454Y13D01*
X2453Y13D01*
X2452Y13D01*
X2451Y12D01*
X2450Y12D01*
X2449Y11D01*
X2448Y11D01*
X2447Y11D01*
X2446Y10D01*
X2445Y10D01*
X2444Y10D01*
X2443Y9D01*
X2442Y9D01*
X2441Y9D01*
X2440Y8D01*
X2439Y8D01*
X2438Y8D01*
X2437Y8D01*
X2436Y7D01*
X2435Y7D01*
X2434Y7D01*
X2433Y6D01*
X2432Y6D01*
X2431Y6D01*
X2430Y6D01*
X2429Y6D01*
X2428Y5D01*
X2427Y5D01*
X2426Y5D01*
X2425Y5D01*
X2424Y5D01*
X2423Y4D01*
X2422Y4D01*
X2421Y4D01*
X2420Y4D01*
X2419Y4D01*
X2418Y4D01*
X2417Y3D01*
X2416Y3D01*
X2415Y3D01*
X2414Y3D01*
X2413Y3D01*
X2412Y3D01*
X2411Y3D01*
X2410Y3D01*
X2409Y3D01*
X2408Y2D01*
X2407Y2D01*
X2406Y2D01*
X2405Y2D01*
X2404Y2D01*
X2403Y2D01*
X2402Y2D01*
X2401Y2D01*
X2400Y2D01*
X2399Y2D01*
X2398Y2D01*
X2397Y2D01*
X2396Y2D01*
X2395Y2D01*
X2394Y2D01*
X2393Y2D01*
X2392Y2D01*
X2391Y2D01*
X2390Y2D01*
X2389Y2D01*
X2388Y2D01*
X2387Y2D01*
X2386Y2D01*
X2385Y2D01*
X2384Y2D01*
X2383Y2D01*
X2382Y2D01*
X2381Y2D01*
X2380Y2D01*
X2379Y2D01*
X2378Y2D01*
X2377Y2D01*
X2376Y2D01*
X2375Y2D01*
X2374Y2D01*
X2373Y2D01*
X2372Y2D01*
X2371Y2D01*
X2370Y2D01*
X2369Y2D01*
X2368Y2D01*
X2367Y2D01*
X2366Y2D01*
X2365Y2D01*
X2364Y2D01*
X2363Y2D01*
X2362Y2D01*
X2361Y2D01*
X2360Y2D01*
X2359Y2D01*
X2358Y2D01*
X2357Y2D01*
X2356Y2D01*
X2355Y2D01*
X2354Y2D01*
X2353Y2D01*
X2352Y2D01*
X2351Y2D01*
X2350Y2D01*
X2349Y2D01*
X2348Y2D01*
X2347Y2D01*
X2346Y2D01*
X2345Y2D01*
X2344Y2D01*
X2343Y2D01*
X2342Y2D01*
X2341Y2D01*
X2340Y2D01*
X2339Y2D01*
X2338Y2D01*
X2337Y2D01*
X2336Y2D01*
X2335Y2D01*
X2334Y2D01*
X2333Y2D01*
X2332Y2D01*
X2331Y2D01*
X2330Y2D01*
X2329Y2D01*
X2328Y2D01*
X2327Y2D01*
X2326Y2D01*
X2325Y2D01*
X2324Y2D01*
X2323Y2D01*
X2322Y2D01*
X2321Y2D01*
X2320Y2D01*
X2319Y2D01*
X2318Y2D01*
X2317Y2D01*
X2316Y2D01*
X2315Y2D01*
X2314Y2D01*
X2313Y2D01*
X2312Y2D01*
X2311Y2D01*
X2310Y2D01*
X2309Y2D01*
X2308Y2D01*
X2307Y2D01*
X2306Y2D01*
X2305Y2D01*
X2304Y2D01*
X2303Y2D01*
X2302Y2D01*
X2301Y2D01*
X2300Y2D01*
X2299Y2D01*
X2298Y2D01*
X2297Y2D01*
X2296Y2D01*
X2295Y2D01*
X2294Y2D01*
X2293Y2D01*
X2292Y2D01*
X2291Y2D01*
X2290Y2D01*
X2289Y2D01*
X2288Y2D01*
X2287Y2D01*
X2286Y2D01*
X2285Y2D01*
X2284Y2D01*
X2283Y2D01*
X2282Y2D01*
X2281Y2D01*
X2280Y2D01*
X2279Y2D01*
X2278Y2D01*
X2277Y2D01*
X2276Y2D01*
X2275Y2D01*
X2274Y2D01*
X2273Y2D01*
X2272Y2D01*
X2271Y2D01*
X2270Y2D01*
X2269Y2D01*
X2268Y2D01*
X2267Y2D01*
X2266Y2D01*
X2265Y2D01*
X2264Y2D01*
X2263Y2D01*
X2262Y2D01*
X2261Y2D01*
X2260Y2D01*
X2259Y2D01*
X2258Y2D01*
X2257Y2D01*
X2256Y2D01*
X2255Y2D01*
X2254Y2D01*
X2253Y2D01*
X2252Y2D01*
X2251Y2D01*
X2250Y2D01*
X2249Y2D01*
X2248Y2D01*
X2247Y2D01*
X2246Y2D01*
X2245Y2D01*
X2244Y2D01*
X2243Y2D01*
X2242Y2D01*
X2241Y2D01*
X2240Y2D01*
X2239Y2D01*
X2238Y2D01*
X2237Y2D01*
X2236Y2D01*
X2235Y2D01*
X2234Y2D01*
X2233Y2D01*
X2232Y2D01*
X2231Y2D01*
X2230Y2D01*
X2229Y2D01*
X2228Y2D01*
X2227Y2D01*
X2226Y2D01*
X2225Y2D01*
X2224Y2D01*
X2223Y2D01*
X2222Y2D01*
X2221Y2D01*
X2220Y2D01*
X2219Y2D01*
X2218Y2D01*
X2217Y2D01*
X2216Y2D01*
X2215Y2D01*
X2214Y2D01*
X2213Y2D01*
X2212Y2D01*
X2211Y2D01*
X2210Y2D01*
X2209Y2D01*
X2208Y2D01*
X2207Y2D01*
X2206Y2D01*
X2205Y2D01*
X2204Y2D01*
X2203Y2D01*
X2202Y2D01*
X2201Y2D01*
X2200Y2D01*
X2199Y2D01*
X2198Y2D01*
X2197Y2D01*
X2196Y2D01*
X2195Y2D01*
X2194Y2D01*
X2193Y2D01*
X2192Y2D01*
X2191Y2D01*
X2190Y2D01*
X2189Y2D01*
X2188Y2D01*
X2187Y2D01*
X2186Y2D01*
X2185Y2D01*
X2184Y2D01*
X2183Y2D01*
X2182Y2D01*
X2181Y2D01*
X2180Y2D01*
X2179Y2D01*
X2178Y2D01*
X2177Y2D01*
X2176Y2D01*
X2175Y2D01*
X2174Y2D01*
X2173Y2D01*
X2172Y2D01*
X2171Y2D01*
X2170Y2D01*
X2169Y2D01*
X2168Y2D01*
X2167Y2D01*
X2166Y2D01*
X2165Y2D01*
X2164Y2D01*
X2163Y2D01*
X2162Y2D01*
X2161Y2D01*
X2160Y2D01*
X2159Y2D01*
X2158Y2D01*
X2157Y2D01*
X2156Y2D01*
X2155Y2D01*
X2154Y2D01*
X2153Y2D01*
X2152Y2D01*
X2151Y2D01*
X2150Y2D01*
X2149Y2D01*
X2148Y2D01*
X2147Y2D01*
X2146Y2D01*
X2145Y2D01*
X2144Y2D01*
X2143Y2D01*
X2142Y2D01*
X2141Y2D01*
X2140Y2D01*
X2139Y2D01*
X2138Y2D01*
X2137Y2D01*
X2136Y2D01*
X2135Y2D01*
X2134Y2D01*
X2133Y2D01*
X2132Y2D01*
X2131Y2D01*
X2130Y2D01*
X2129Y2D01*
X2128Y2D01*
X2127Y2D01*
X2126Y2D01*
X2125Y2D01*
X2124Y2D01*
X2123Y2D01*
X2122Y2D01*
X2121Y2D01*
X2120Y2D01*
X2119Y2D01*
X2118Y2D01*
X2117Y2D01*
X2116Y2D01*
X2115Y2D01*
X2114Y2D01*
X2113Y2D01*
X2112Y2D01*
X2111Y2D01*
X2110Y2D01*
X2109Y2D01*
X2108Y2D01*
X2107Y2D01*
X2106Y2D01*
X2105Y2D01*
X2104Y2D01*
X2103Y2D01*
X2102Y2D01*
X2101Y2D01*
X2100Y2D01*
X2099Y2D01*
X2098Y2D01*
X2097Y2D01*
X2096Y2D01*
X2095Y2D01*
X2094Y2D01*
X2093Y2D01*
X2092Y2D01*
X2091Y2D01*
X2090Y2D01*
X2089Y2D01*
X2088Y2D01*
X2087Y2D01*
X2086Y2D01*
X2085Y2D01*
X2084Y2D01*
X2083Y2D01*
X2082Y2D01*
X2081Y2D01*
X2080Y2D01*
X2079Y2D01*
X2078Y2D01*
X2077Y2D01*
X2076Y2D01*
X2075Y2D01*
X2074Y2D01*
X2073Y2D01*
X2072Y2D01*
X2071Y2D01*
X2070Y2D01*
X2069Y2D01*
X2068Y2D01*
X2067Y2D01*
X2066Y2D01*
X2065Y2D01*
X2064Y2D01*
X2063Y2D01*
X2062Y2D01*
X2061Y2D01*
X2060Y2D01*
X2059Y2D01*
X2058Y2D01*
X2057Y2D01*
X2056Y2D01*
X2055Y2D01*
X2054Y2D01*
X2053Y2D01*
X2052Y2D01*
X2051Y2D01*
X2050Y2D01*
X2049Y2D01*
X2048Y2D01*
X2047Y2D01*
X2046Y2D01*
X2045Y2D01*
X2044Y2D01*
X2043Y2D01*
X2042Y2D01*
X2041Y2D01*
X2040Y2D01*
X2039Y2D01*
X2038Y2D01*
X2037Y2D01*
X2036Y2D01*
X2035Y2D01*
X2034Y2D01*
X2033Y2D01*
X2032Y2D01*
X2031Y2D01*
X2030Y2D01*
X2029Y2D01*
X2028Y2D01*
X2027Y2D01*
X2026Y2D01*
X2025Y2D01*
X2024Y2D01*
X2023Y2D01*
X2022Y2D01*
X2021Y2D01*
X2020Y2D01*
X2019Y2D01*
X2018Y2D01*
X2017Y2D01*
X2016Y2D01*
X2015Y2D01*
X2014Y2D01*
X2013Y2D01*
X2012Y2D01*
X2011Y2D01*
X2010Y2D01*
X2009Y2D01*
X2008Y2D01*
X2007Y2D01*
X2006Y2D01*
X2005Y2D01*
X2004Y2D01*
X2003Y2D01*
X2002Y2D01*
X2001Y2D01*
X2000Y2D01*
X1999Y2D01*
X1998Y2D01*
X1997Y2D01*
X1996Y2D01*
X1995Y2D01*
X1994Y2D01*
X1993Y2D01*
X1992Y2D01*
X1991Y2D01*
X1990Y2D01*
X1989Y2D01*
X1988Y2D01*
X1987Y2D01*
X1986Y2D01*
X1985Y2D01*
X1984Y2D01*
X1983Y2D01*
X1982Y2D01*
X1981Y2D01*
X1980Y2D01*
X1979Y2D01*
X1978Y2D01*
X1977Y2D01*
X1976Y2D01*
X1975Y2D01*
X1974Y2D01*
X1973Y2D01*
X1972Y2D01*
X1971Y2D01*
X1970Y2D01*
X1969Y2D01*
X1968Y2D01*
X1967Y2D01*
X1966Y2D01*
X1965Y2D01*
X1964Y2D01*
X1963Y2D01*
X1962Y2D01*
X1961Y2D01*
X1960Y2D01*
X1959Y2D01*
X1958Y2D01*
X1957Y2D01*
X1956Y2D01*
X1955Y2D01*
X1954Y2D01*
X1953Y2D01*
X1952Y2D01*
X1951Y2D01*
X1950Y2D01*
X1949Y2D01*
X1948Y2D01*
X1947Y2D01*
X1946Y2D01*
X1945Y2D01*
X1944Y2D01*
X1943Y2D01*
X1942Y2D01*
X1941Y2D01*
X1940Y2D01*
X1939Y2D01*
X1938Y2D01*
X1937Y2D01*
X1936Y2D01*
X1935Y2D01*
X1934Y2D01*
X1933Y2D01*
X1932Y2D01*
X1931Y2D01*
X1930Y2D01*
X1929Y2D01*
X1928Y2D01*
X1927Y2D01*
X1926Y2D01*
X1925Y2D01*
X1924Y2D01*
X1923Y2D01*
X1922Y2D01*
X1921Y2D01*
X1920Y2D01*
X1919Y2D01*
X1918Y2D01*
X1917Y2D01*
X1916Y2D01*
X1915Y2D01*
X1914Y2D01*
X1913Y2D01*
X1912Y2D01*
X1911Y2D01*
X1910Y2D01*
X1909Y2D01*
X1908Y2D01*
X1907Y2D01*
X1906Y2D01*
X1905Y2D01*
X1904Y2D01*
X1903Y2D01*
X1902Y2D01*
X1901Y2D01*
X1900Y2D01*
X1899Y2D01*
X1898Y2D01*
X1897Y2D01*
X1896Y2D01*
X1895Y2D01*
X1894Y2D01*
X1893Y2D01*
X1892Y2D01*
X1891Y2D01*
X1890Y2D01*
X1889Y2D01*
X1888Y2D01*
X1887Y2D01*
X1886Y2D01*
X1885Y2D01*
X1884Y2D01*
X1883Y2D01*
X1882Y2D01*
X1881Y2D01*
X1880Y2D01*
X1879Y2D01*
X1878Y2D01*
X1877Y2D01*
X1876Y2D01*
X1875Y2D01*
X1874Y2D01*
X1873Y2D01*
X1872Y2D01*
X1871Y2D01*
X1870Y2D01*
X1869Y2D01*
X1868Y2D01*
X1867Y2D01*
X1866Y2D01*
X1865Y2D01*
X1864Y2D01*
X1863Y2D01*
X1862Y2D01*
X1861Y2D01*
X1860Y2D01*
X1859Y2D01*
X1858Y2D01*
X1857Y2D01*
X1856Y2D01*
X1855Y2D01*
X1854Y2D01*
X1853Y2D01*
X1852Y2D01*
X1851Y2D01*
X1850Y2D01*
X1849Y2D01*
X1848Y2D01*
X1847Y2D01*
X1846Y2D01*
X1845Y2D01*
X1844Y2D01*
X1843Y2D01*
X1842Y2D01*
X1841Y2D01*
X1840Y2D01*
X1839Y2D01*
X1838Y2D01*
X1837Y2D01*
X1836Y2D01*
X1835Y2D01*
X1834Y2D01*
X1833Y2D01*
X1832Y2D01*
X1831Y2D01*
X1830Y2D01*
X1829Y2D01*
X1828Y2D01*
X1827Y2D01*
X1826Y2D01*
X1825Y2D01*
X1824Y2D01*
X1823Y2D01*
X1822Y2D01*
X1821Y2D01*
X1820Y2D01*
X1819Y2D01*
X1818Y2D01*
X1817Y2D01*
X1816Y2D01*
X1815Y2D01*
X1814Y2D01*
X1813Y2D01*
X1812Y2D01*
X1811Y2D01*
X1810Y2D01*
X1809Y2D01*
X1808Y2D01*
X1807Y2D01*
X1806Y2D01*
X1805Y2D01*
X1804Y2D01*
X1803Y2D01*
X1802Y2D01*
X1801Y2D01*
X1800Y2D01*
X1799Y2D01*
X1798Y2D01*
X1797Y2D01*
X1796Y2D01*
X1795Y2D01*
X1794Y2D01*
X1793Y2D01*
X1792Y2D01*
X1791Y2D01*
X1790Y2D01*
X1789Y2D01*
X1788Y2D01*
X1787Y2D01*
X1786Y2D01*
X1785Y2D01*
X1784Y2D01*
X1783Y2D01*
X1782Y2D01*
X1781Y2D01*
X1780Y2D01*
X1779Y2D01*
X1778Y2D01*
X1777Y2D01*
X1776Y2D01*
X1775Y2D01*
X1774Y2D01*
X1773Y2D01*
X1772Y2D01*
X1771Y2D01*
X1770Y2D01*
X1769Y2D01*
X1768Y2D01*
X1767Y2D01*
X1766Y2D01*
X1765Y2D01*
X1764Y2D01*
X1763Y2D01*
X1762Y2D01*
X1761Y2D01*
X1760Y2D01*
X1759Y2D01*
X1758Y2D01*
X1757Y2D01*
X1756Y2D01*
X1755Y2D01*
X1754Y2D01*
X1753Y2D01*
X1752Y2D01*
X1751Y2D01*
X1750Y2D01*
X1749Y2D01*
X1748Y2D01*
X1747Y2D01*
X1746Y2D01*
X1745Y2D01*
X1744Y2D01*
X1743Y2D01*
X1742Y2D01*
X1741Y2D01*
X1740Y2D01*
X1739Y2D01*
X1738Y2D01*
X1737Y2D01*
X1736Y2D01*
X1735Y2D01*
X1734Y2D01*
X1733Y2D01*
X1732Y2D01*
X1731Y2D01*
X1730Y2D01*
X1729Y2D01*
X1728Y2D01*
X1727Y2D01*
X1726Y2D01*
X1725Y2D01*
X1724Y2D01*
X1723Y2D01*
X1722Y2D01*
X1721Y2D01*
X1720Y2D01*
X1719Y2D01*
X1718Y2D01*
X1717Y2D01*
X1716Y2D01*
X1715Y2D01*
X1714Y2D01*
X1713Y2D01*
X1712Y2D01*
X1711Y2D01*
X1710Y2D01*
X1709Y2D01*
X1708Y2D01*
X1707Y2D01*
X1706Y2D01*
X1705Y2D01*
X1704Y2D01*
X1703Y2D01*
X1702Y2D01*
X1701Y2D01*
X1700Y2D01*
X1699Y2D01*
X1698Y2D01*
X1697Y2D01*
X1696Y2D01*
X1695Y2D01*
X1694Y2D01*
X1693Y2D01*
X1692Y2D01*
X1691Y2D01*
X1690Y2D01*
X1689Y2D01*
X1688Y2D01*
X1687Y2D01*
X1686Y2D01*
X1685Y2D01*
X1684Y2D01*
X1683Y2D01*
X1682Y2D01*
X1681Y2D01*
X1680Y2D01*
X1679Y2D01*
X1678Y2D01*
X1677Y2D01*
X1676Y2D01*
X1675Y2D01*
X1674Y2D01*
X1673Y2D01*
X1672Y2D01*
X1671Y2D01*
X1670Y2D01*
X1669Y2D01*
X1668Y2D01*
X1667Y2D01*
X1666Y2D01*
X1665Y2D01*
X1664Y2D01*
X1663Y2D01*
X1662Y2D01*
X1661Y2D01*
X1660Y2D01*
X1659Y2D01*
X1658Y2D01*
X1657Y2D01*
X1656Y2D01*
X1655Y2D01*
X1654Y2D01*
X1653Y2D01*
X1652Y2D01*
X1651Y2D01*
X1650Y2D01*
X1649Y2D01*
X1648Y2D01*
X1647Y2D01*
X1646Y2D01*
X1645Y2D01*
X1644Y2D01*
X1643Y2D01*
X1642Y2D01*
X1641Y2D01*
X1640Y2D01*
X1639Y2D01*
X1638Y2D01*
X1637Y2D01*
X1636Y2D01*
X1635Y2D01*
X1634Y2D01*
X1633Y2D01*
X1632Y2D01*
X1631Y2D01*
X1630Y2D01*
X1629Y2D01*
X1628Y2D01*
X1627Y2D01*
X1626Y2D01*
X1625Y2D01*
X1624Y2D01*
X1623Y2D01*
X1622Y2D01*
X1621Y2D01*
X1620Y2D01*
X1619Y2D01*
X1618Y2D01*
X1617Y2D01*
X1616Y2D01*
X1615Y2D01*
X1614Y2D01*
X1613Y2D01*
X1612Y2D01*
X1611Y2D01*
X1610Y2D01*
X1609Y2D01*
X1608Y2D01*
X1607Y2D01*
X1606Y2D01*
X1605Y2D01*
X1604Y2D01*
X1603Y2D01*
X1602Y2D01*
X1601Y2D01*
X1600Y2D01*
X1599Y2D01*
X1598Y2D01*
X1597Y2D01*
X1596Y2D01*
X1595Y2D01*
X1594Y2D01*
X1593Y2D01*
X1592Y2D01*
X1591Y2D01*
X1590Y2D01*
X1589Y2D01*
X1588Y2D01*
X1587Y2D01*
X1586Y2D01*
X1585Y2D01*
X1584Y2D01*
X1583Y2D01*
X1582Y2D01*
X1581Y2D01*
X1580Y2D01*
X1579Y2D01*
X1578Y2D01*
X1577Y2D01*
X1576Y2D01*
X1575Y2D01*
X1574Y2D01*
X1573Y2D01*
X1572Y2D01*
X1571Y2D01*
X1570Y2D01*
X1569Y2D01*
X1568Y2D01*
X1567Y2D01*
X1566Y2D01*
X1565Y2D01*
X1564Y2D01*
X1563Y2D01*
X1562Y2D01*
X1561Y2D01*
X1560Y2D01*
X1559Y2D01*
X1558Y2D01*
X1557Y2D01*
X1556Y2D01*
X1555Y2D01*
X1554Y2D01*
X1553Y2D01*
X1552Y2D01*
X1551Y2D01*
X1550Y2D01*
X1549Y2D01*
X1548Y2D01*
X1547Y2D01*
X1546Y2D01*
X1545Y2D01*
X1544Y2D01*
X1543Y2D01*
X1542Y2D01*
X1541Y2D01*
X1540Y2D01*
X1539Y2D01*
X1538Y2D01*
X1537Y2D01*
X1536Y2D01*
X1535Y2D01*
X1534Y2D01*
X1533Y2D01*
X1532Y2D01*
X1531Y2D01*
X1530Y2D01*
X1529Y2D01*
X1528Y2D01*
X1527Y2D01*
X1526Y2D01*
X1525Y2D01*
X1524Y2D01*
X1523Y2D01*
X1522Y2D01*
X1521Y2D01*
X1520Y2D01*
X1519Y2D01*
X1518Y2D01*
X1517Y2D01*
X1516Y2D01*
X1515Y2D01*
X1514Y2D01*
X1513Y2D01*
X1512Y2D01*
X1511Y2D01*
X1510Y2D01*
X1509Y2D01*
X1508Y2D01*
X1507Y2D01*
X1506Y2D01*
X1505Y2D01*
X1504Y2D01*
X1503Y2D01*
X1502Y2D01*
X1501Y2D01*
X1500Y2D01*
X1499Y2D01*
X1498Y2D01*
X1497Y2D01*
X1496Y2D01*
X1495Y2D01*
X1494Y2D01*
X1493Y2D01*
X1492Y2D01*
X1491Y2D01*
X1490Y2D01*
X1489Y2D01*
X1488Y2D01*
X1487Y2D01*
X1486Y2D01*
X1485Y2D01*
X1484Y2D01*
X1483Y2D01*
X1482Y2D01*
X1481Y2D01*
X1480Y2D01*
X1479Y2D01*
X1478Y2D01*
X1477Y2D01*
X1476Y2D01*
X1475Y2D01*
X1474Y2D01*
X1473Y2D01*
X1472Y2D01*
X1471Y2D01*
X1470Y2D01*
X1469Y2D01*
X1468Y2D01*
X1467Y2D01*
X1466Y2D01*
X1465Y2D01*
X1464Y2D01*
X1463Y2D01*
X1462Y2D01*
X1461Y2D01*
X1460Y2D01*
X1459Y2D01*
X1458Y2D01*
X1457Y2D01*
X1456Y2D01*
X1455Y2D01*
X1454Y2D01*
X1453Y2D01*
X1452Y2D01*
X1451Y2D01*
X1450Y2D01*
X1449Y2D01*
X1448Y2D01*
X1447Y2D01*
X1446Y2D01*
X1445Y2D01*
X1444Y2D01*
X1443Y2D01*
X1442Y2D01*
X1441Y2D01*
X1440Y2D01*
X1439Y2D01*
X1438Y2D01*
X1437Y2D01*
X1436Y2D01*
X1435Y2D01*
X1434Y2D01*
X1433Y2D01*
X1432Y2D01*
X1431Y2D01*
X1430Y2D01*
X1429Y2D01*
X1428Y2D01*
X1427Y2D01*
X1426Y2D01*
X1425Y2D01*
X1424Y2D01*
X1423Y2D01*
X1422Y2D01*
X1421Y2D01*
X1420Y2D01*
X1419Y2D01*
X1418Y2D01*
X1417Y2D01*
X1416Y2D01*
X1415Y2D01*
X1414Y2D01*
X1413Y2D01*
X1412Y2D01*
X1411Y2D01*
X1410Y2D01*
X1409Y2D01*
X1408Y2D01*
X1407Y2D01*
X1406Y2D01*
X1405Y2D01*
X1404Y2D01*
X1403Y2D01*
X1402Y2D01*
X1401Y2D01*
X1400Y2D01*
X1399Y2D01*
X1398Y2D01*
X1397Y2D01*
X1396Y2D01*
X1395Y2D01*
X1394Y2D01*
X1393Y2D01*
X1392Y2D01*
X1391Y2D01*
X1390Y2D01*
X1389Y2D01*
X1388Y2D01*
X1387Y2D01*
X1386Y2D01*
X1385Y2D01*
X1384Y2D01*
X1383Y2D01*
X1382Y2D01*
X1381Y2D01*
X1380Y2D01*
X1379Y2D01*
X1378Y2D01*
X1377Y2D01*
X1376Y2D01*
X1375Y2D01*
X1374Y2D01*
X1373Y2D01*
X1372Y2D01*
X1371Y2D01*
X1370Y2D01*
X1369Y2D01*
X1368Y2D01*
X1367Y2D01*
X1366Y2D01*
X1365Y2D01*
X1364Y2D01*
X1363Y2D01*
X1362Y2D01*
X1361Y2D01*
X1360Y2D01*
X1359Y2D01*
X1358Y2D01*
X1357Y2D01*
X1356Y2D01*
X1355Y2D01*
X1354Y2D01*
X1353Y2D01*
X1352Y2D01*
X1351Y2D01*
X1350Y2D01*
X1349Y2D01*
X1348Y2D01*
X1347Y2D01*
X1346Y2D01*
X1345Y2D01*
X1344Y2D01*
X1343Y2D01*
X1342Y2D01*
X1341Y2D01*
X1340Y2D01*
X1339Y2D01*
X1338Y2D01*
X1337Y2D01*
X1336Y2D01*
X1335Y2D01*
X1334Y2D01*
X1333Y2D01*
X1332Y2D01*
X1331Y2D01*
X1330Y2D01*
X1329Y2D01*
X1328Y2D01*
X1327Y2D01*
X1326Y2D01*
X1325Y2D01*
X1324Y2D01*
X1323Y2D01*
X1322Y2D01*
X1321Y2D01*
X1320Y2D01*
X1319Y2D01*
X1318Y2D01*
X1317Y2D01*
X1316Y2D01*
X1315Y2D01*
X1314Y2D01*
X1313Y2D01*
X1312Y2D01*
X1311Y2D01*
X1310Y2D01*
X1309Y2D01*
X1308Y2D01*
X1307Y2D01*
X1306Y2D01*
X1305Y2D01*
X1304Y2D01*
X1303Y2D01*
X1302Y2D01*
X1301Y2D01*
X1300Y2D01*
X1299Y2D01*
X1298Y2D01*
X1297Y2D01*
X1296Y2D01*
X1295Y2D01*
X1294Y2D01*
X1293Y2D01*
X1292Y2D01*
X1291Y2D01*
X1290Y2D01*
X1289Y2D01*
X1288Y2D01*
X1287Y2D01*
X1286Y2D01*
X1285Y2D01*
X1284Y2D01*
X1283Y2D01*
X1282Y2D01*
X1281Y2D01*
X1280Y2D01*
X1279Y2D01*
X1278Y2D01*
X1277Y2D01*
X1276Y2D01*
X1275Y2D01*
X1274Y2D01*
X1273Y2D01*
X1272Y2D01*
X1271Y2D01*
X1270Y2D01*
X1269Y2D01*
X1268Y2D01*
X1267Y2D01*
X1266Y2D01*
X1265Y2D01*
X1264Y2D01*
X1263Y2D01*
X1262Y2D01*
X1261Y2D01*
X1260Y2D01*
X1259Y2D01*
X1258Y2D01*
X1257Y2D01*
X1256Y2D01*
X1255Y2D01*
X1254Y2D01*
X1253Y2D01*
X1252Y2D01*
X1251Y2D01*
X1250Y2D01*
X1249Y2D01*
X1248Y2D01*
X1247Y2D01*
X1246Y2D01*
X1245Y2D01*
X1244Y2D01*
X1243Y2D01*
X1242Y2D01*
X1241Y2D01*
X1240Y2D01*
X1239Y2D01*
X1238Y2D01*
X1237Y2D01*
X1236Y2D01*
X1235Y2D01*
X1234Y2D01*
X1233Y2D01*
X1232Y2D01*
X1231Y2D01*
X1230Y2D01*
X1229Y2D01*
X1228Y2D01*
X1227Y2D01*
X1226Y2D01*
X1225Y2D01*
X1224Y2D01*
X1223Y2D01*
X1222Y2D01*
X1221Y2D01*
X1220Y2D01*
X1219Y2D01*
X1218Y2D01*
X1217Y2D01*
X1216Y2D01*
X1215Y2D01*
X1214Y2D01*
X1213Y2D01*
X1212Y2D01*
X1211Y2D01*
X1210Y2D01*
X1209Y2D01*
X1208Y2D01*
X1207Y2D01*
X1206Y2D01*
X1205Y2D01*
X1204Y2D01*
X1203Y2D01*
X1202Y2D01*
X1201Y2D01*
X1200Y2D01*
X1199Y2D01*
X1198Y2D01*
X1197Y2D01*
X1196Y2D01*
X1195Y2D01*
X1194Y2D01*
X1193Y2D01*
X1192Y2D01*
X1191Y2D01*
X1190Y2D01*
X1189Y2D01*
X1188Y2D01*
X1187Y2D01*
X1186Y2D01*
X1185Y2D01*
X1184Y2D01*
X1183Y2D01*
X1182Y2D01*
X1181Y2D01*
X1180Y2D01*
X1179Y2D01*
X1178Y2D01*
X1177Y2D01*
X1176Y2D01*
X1175Y2D01*
X1174Y2D01*
X1173Y2D01*
X1172Y2D01*
X1171Y2D01*
X1170Y2D01*
X1169Y2D01*
X1168Y2D01*
X1167Y2D01*
X1166Y2D01*
X1165Y2D01*
X1164Y2D01*
X1163Y2D01*
X1162Y2D01*
X1161Y2D01*
X1160Y2D01*
X1159Y2D01*
X1158Y2D01*
X1157Y2D01*
X1156Y2D01*
X1155Y2D01*
X1154Y2D01*
X1153Y2D01*
X1152Y2D01*
X1151Y2D01*
X1150Y2D01*
X1149Y2D01*
X1148Y2D01*
X1147Y2D01*
X1146Y2D01*
X1145Y2D01*
X1144Y2D01*
X1143Y2D01*
X1142Y2D01*
X1141Y2D01*
X1140Y2D01*
X1139Y2D01*
X1138Y2D01*
X1137Y2D01*
X1136Y2D01*
X1135Y2D01*
X1134Y2D01*
X1133Y2D01*
X1132Y2D01*
X1131Y2D01*
X1130Y2D01*
X1129Y2D01*
X1128Y2D01*
X1127Y2D01*
X1126Y2D01*
X1125Y2D01*
X1124Y2D01*
X1123Y2D01*
X1122Y2D01*
X1121Y2D01*
X1120Y2D01*
X1119Y2D01*
X1118Y2D01*
X1117Y2D01*
X1116Y2D01*
X1115Y2D01*
X1114Y2D01*
X1113Y2D01*
X1112Y2D01*
X1111Y2D01*
X1110Y2D01*
X1109Y2D01*
X1108Y2D01*
X1107Y2D01*
X1106Y2D01*
X1105Y2D01*
X1104Y2D01*
X1103Y2D01*
X1102Y2D01*
X1101Y2D01*
X1100Y2D01*
X1099Y2D01*
X1098Y2D01*
X1097Y2D01*
X1096Y2D01*
X1095Y2D01*
X1094Y2D01*
X1093Y2D01*
X1092Y2D01*
X1091Y2D01*
X1090Y2D01*
X1089Y2D01*
X1088Y2D01*
X1087Y2D01*
X1086Y2D01*
X1085Y2D01*
X1084Y2D01*
X1083Y2D01*
X1082Y2D01*
X1081Y2D01*
X1080Y2D01*
X1079Y2D01*
X1078Y2D01*
X1077Y2D01*
X1076Y2D01*
X1075Y2D01*
X1074Y2D01*
X1073Y2D01*
X1072Y2D01*
X1071Y2D01*
X1070Y2D01*
X1069Y2D01*
X1068Y2D01*
X1067Y2D01*
X1066Y2D01*
X1065Y2D01*
X1064Y2D01*
X1063Y2D01*
X1062Y2D01*
X1061Y2D01*
X1060Y2D01*
X1059Y2D01*
X1058Y2D01*
X1057Y2D01*
X1056Y2D01*
X1055Y2D01*
X1054Y2D01*
X1053Y2D01*
X1052Y2D01*
X1051Y2D01*
X1050Y2D01*
X1049Y2D01*
X1048Y2D01*
X1047Y2D01*
X1046Y2D01*
X1045Y2D01*
X1044Y2D01*
X1043Y2D01*
X1042Y2D01*
X1041Y2D01*
X1040Y2D01*
X1039Y2D01*
X1038Y2D01*
X1037Y2D01*
X1036Y2D01*
X1035Y2D01*
X1034Y2D01*
X1033Y2D01*
X1032Y2D01*
X1031Y2D01*
X1030Y2D01*
X1029Y2D01*
X1028Y2D01*
X1027Y2D01*
X1026Y2D01*
X1025Y2D01*
X1024Y2D01*
X1023Y2D01*
X1022Y2D01*
X1021Y2D01*
X1020Y2D01*
X1019Y2D01*
X1018Y2D01*
X1017Y2D01*
X1016Y2D01*
X1015Y2D01*
X1014Y2D01*
X1013Y2D01*
X1012Y2D01*
X1011Y2D01*
X1010Y2D01*
X1009Y2D01*
X1008Y2D01*
X1007Y2D01*
X1006Y2D01*
X1005Y2D01*
X1004Y2D01*
X1003Y2D01*
X1002Y2D01*
X1001Y2D01*
X1000Y2D01*
X999Y2D01*
X998Y2D01*
X997Y2D01*
X996Y2D01*
X995Y2D01*
X994Y2D01*
X993Y2D01*
X992Y2D01*
X991Y2D01*
X990Y2D01*
X989Y2D01*
X988Y2D01*
X987Y2D01*
X986Y2D01*
X985Y2D01*
X984Y2D01*
X983Y2D01*
X982Y2D01*
X981Y2D01*
X980Y2D01*
X979Y2D01*
X978Y2D01*
X977Y2D01*
X976Y2D01*
X975Y2D01*
X974Y2D01*
X973Y2D01*
X972Y2D01*
X971Y2D01*
X970Y2D01*
X969Y2D01*
X968Y2D01*
X967Y2D01*
X966Y2D01*
X965Y2D01*
X964Y2D01*
X963Y2D01*
X962Y2D01*
X961Y2D01*
X960Y2D01*
X959Y2D01*
X958Y2D01*
X957Y2D01*
X956Y2D01*
X955Y2D01*
X954Y2D01*
X953Y2D01*
X952Y2D01*
X951Y2D01*
X950Y2D01*
X949Y2D01*
X948Y2D01*
X947Y2D01*
X946Y2D01*
X945Y2D01*
X944Y2D01*
X943Y2D01*
X942Y2D01*
X941Y2D01*
X940Y2D01*
X939Y2D01*
X938Y2D01*
X937Y2D01*
X936Y2D01*
X935Y2D01*
X934Y2D01*
X933Y2D01*
X932Y2D01*
X931Y2D01*
X930Y2D01*
X929Y2D01*
X928Y2D01*
X927Y2D01*
X926Y2D01*
X925Y2D01*
X924Y2D01*
X923Y2D01*
X922Y2D01*
X921Y2D01*
X920Y2D01*
X919Y2D01*
X918Y2D01*
X917Y2D01*
X916Y2D01*
X915Y2D01*
X914Y2D01*
X913Y2D01*
X912Y2D01*
X911Y2D01*
X910Y2D01*
X909Y2D01*
X908Y2D01*
X907Y2D01*
X906Y2D01*
X905Y2D01*
X904Y2D01*
X903Y2D01*
X902Y2D01*
X901Y2D01*
X900Y2D01*
X899Y2D01*
X898Y2D01*
X897Y2D01*
X896Y2D01*
X895Y2D01*
X894Y2D01*
X893Y2D01*
X892Y2D01*
X891Y2D01*
X890Y2D01*
X889Y2D01*
X888Y2D01*
X887Y2D01*
X886Y2D01*
X885Y2D01*
X884Y2D01*
X883Y2D01*
X882Y2D01*
X881Y2D01*
X880Y2D01*
X879Y2D01*
X878Y2D01*
X877Y2D01*
X876Y2D01*
X875Y2D01*
X874Y2D01*
X873Y2D01*
X872Y2D01*
X871Y2D01*
X870Y2D01*
X869Y2D01*
X868Y2D01*
X867Y2D01*
X866Y2D01*
X865Y2D01*
X864Y2D01*
X863Y2D01*
X862Y2D01*
X861Y2D01*
X860Y2D01*
X859Y2D01*
X858Y2D01*
X857Y2D01*
X856Y2D01*
X855Y2D01*
X854Y2D01*
X853Y2D01*
X852Y2D01*
X851Y2D01*
X850Y2D01*
X849Y2D01*
X848Y2D01*
X847Y2D01*
X846Y2D01*
X845Y2D01*
X844Y2D01*
X843Y2D01*
X842Y2D01*
X841Y2D01*
X840Y2D01*
X839Y2D01*
X838Y2D01*
X837Y2D01*
X836Y2D01*
X835Y2D01*
X834Y2D01*
X833Y2D01*
X832Y2D01*
X831Y2D01*
X830Y2D01*
X829Y2D01*
X828Y2D01*
X827Y2D01*
X826Y2D01*
X825Y2D01*
X824Y2D01*
X823Y2D01*
X822Y2D01*
X821Y2D01*
X820Y2D01*
X819Y2D01*
X818Y2D01*
X817Y2D01*
X816Y2D01*
X815Y2D01*
X814Y2D01*
X813Y2D01*
X812Y2D01*
X811Y2D01*
X810Y2D01*
X809Y2D01*
X808Y2D01*
X807Y2D01*
X806Y2D01*
X805Y2D01*
X804Y2D01*
X803Y2D01*
X802Y2D01*
X801Y2D01*
X800Y2D01*
X799Y2D01*
X798Y2D01*
X797Y2D01*
X796Y2D01*
X795Y2D01*
X794Y2D01*
X793Y2D01*
X792Y2D01*
X791Y2D01*
X790Y2D01*
X789Y2D01*
X788Y2D01*
X787Y2D01*
X786Y2D01*
X785Y2D01*
X784Y2D01*
X783Y2D01*
X782Y2D01*
X781Y2D01*
X780Y2D01*
X779Y2D01*
X778Y2D01*
X777Y2D01*
X776Y2D01*
X775Y2D01*
X774Y2D01*
X773Y2D01*
X772Y2D01*
X771Y2D01*
X770Y2D01*
X769Y2D01*
X768Y2D01*
X767Y2D01*
X766Y2D01*
X765Y2D01*
X764Y2D01*
X763Y2D01*
X762Y2D01*
X761Y2D01*
X760Y2D01*
X759Y2D01*
X758Y2D01*
X757Y2D01*
X756Y2D01*
X755Y2D01*
X754Y2D01*
X753Y2D01*
X752Y2D01*
X751Y2D01*
X750Y2D01*
X749Y2D01*
X748Y2D01*
X747Y2D01*
X746Y2D01*
X745Y2D01*
X744Y2D01*
X743Y2D01*
X742Y2D01*
X741Y2D01*
X740Y2D01*
X739Y2D01*
X738Y2D01*
X737Y2D01*
X736Y2D01*
X735Y2D01*
X734Y2D01*
X733Y2D01*
X732Y2D01*
X731Y2D01*
X730Y2D01*
X729Y2D01*
X728Y2D01*
X727Y2D01*
X726Y2D01*
X725Y2D01*
X724Y2D01*
X723Y2D01*
X722Y2D01*
X721Y2D01*
X720Y2D01*
X719Y2D01*
X718Y2D01*
X717Y2D01*
X716Y2D01*
X715Y2D01*
X714Y2D01*
X713Y2D01*
X712Y2D01*
X711Y2D01*
X710Y2D01*
X709Y2D01*
X708Y2D01*
X707Y2D01*
X706Y2D01*
X705Y2D01*
X704Y2D01*
X703Y2D01*
X702Y2D01*
X701Y2D01*
X700Y2D01*
X699Y2D01*
X698Y2D01*
X697Y2D01*
X696Y2D01*
X695Y2D01*
X694Y2D01*
X693Y2D01*
X692Y2D01*
X691Y2D01*
X690Y2D01*
X689Y2D01*
X688Y2D01*
X687Y2D01*
X686Y2D01*
X685Y2D01*
X684Y2D01*
X683Y2D01*
X682Y2D01*
X681Y2D01*
X680Y2D01*
X679Y2D01*
X678Y2D01*
X677Y2D01*
X676Y2D01*
X675Y2D01*
X674Y2D01*
X673Y2D01*
X672Y2D01*
X671Y2D01*
X670Y2D01*
X669Y2D01*
X668Y2D01*
X667Y2D01*
X666Y2D01*
X665Y2D01*
X664Y2D01*
X663Y2D01*
X662Y2D01*
X661Y2D01*
X660Y2D01*
X659Y2D01*
X658Y2D01*
X657Y2D01*
X656Y2D01*
X655Y2D01*
X654Y2D01*
X653Y2D01*
X652Y2D01*
X651Y2D01*
X650Y2D01*
X649Y2D01*
X648Y2D01*
X647Y2D01*
X646Y2D01*
X645Y2D01*
X644Y2D01*
X643Y2D01*
X642Y2D01*
X641Y2D01*
X640Y2D01*
X639Y2D01*
X638Y2D01*
X637Y2D01*
X636Y2D01*
X635Y2D01*
X634Y2D01*
X633Y2D01*
X632Y2D01*
X631Y2D01*
X630Y2D01*
X629Y2D01*
X628Y2D01*
X627Y2D01*
X626Y2D01*
X625Y2D01*
X624Y2D01*
X623Y2D01*
X622Y2D01*
X621Y2D01*
X620Y2D01*
X619Y2D01*
X618Y2D01*
X617Y2D01*
X616Y2D01*
X615Y2D01*
X614Y2D01*
X613Y2D01*
X612Y2D01*
X611Y2D01*
X610Y2D01*
X609Y2D01*
X608Y2D01*
X607Y2D01*
X606Y2D01*
X605Y2D01*
X604Y2D01*
X603Y2D01*
X602Y2D01*
X601Y2D01*
X600Y2D01*
X599Y2D01*
X598Y2D01*
X597Y2D01*
X596Y2D01*
X595Y2D01*
X594Y2D01*
X593Y2D01*
X592Y2D01*
X591Y2D01*
X590Y2D01*
X589Y2D01*
X588Y2D01*
X587Y2D01*
X586Y2D01*
X585Y2D01*
X584Y2D01*
X583Y2D01*
X582Y2D01*
X581Y2D01*
X580Y2D01*
X579Y2D01*
X578Y2D01*
X577Y2D01*
X576Y2D01*
X575Y2D01*
X574Y2D01*
X573Y2D01*
X572Y2D01*
X571Y2D01*
X570Y2D01*
X569Y2D01*
X568Y2D01*
X567Y2D01*
X566Y2D01*
X565Y2D01*
X564Y2D01*
X563Y2D01*
X562Y2D01*
X561Y2D01*
X560Y2D01*
X559Y2D01*
X558Y2D01*
X557Y2D01*
X556Y2D01*
X555Y2D01*
X554Y2D01*
X553Y2D01*
X552Y2D01*
X551Y2D01*
X550Y2D01*
X549Y2D01*
X548Y2D01*
X547Y2D01*
X546Y2D01*
X545Y2D01*
X544Y2D01*
X543Y2D01*
X542Y2D01*
X541Y2D01*
X540Y2D01*
X539Y2D01*
X538Y2D01*
X537Y2D01*
X536Y2D01*
X535Y2D01*
X534Y2D01*
X533Y2D01*
X532Y2D01*
X531Y2D01*
X530Y2D01*
X529Y2D01*
X528Y2D01*
X527Y2D01*
X526Y2D01*
X525Y2D01*
X524Y2D01*
X523Y2D01*
X522Y2D01*
X521Y2D01*
X520Y2D01*
X519Y2D01*
X518Y2D01*
X517Y2D01*
X516Y2D01*
X515Y2D01*
X514Y2D01*
X513Y2D01*
X512Y2D01*
X511Y2D01*
X510Y2D01*
X509Y2D01*
X508Y2D01*
X507Y2D01*
X506Y2D01*
X505Y2D01*
X504Y2D01*
X503Y2D01*
X502Y2D01*
X501Y2D01*
X500Y2D01*
X499Y2D01*
X498Y2D01*
X497Y2D01*
X496Y2D01*
X495Y2D01*
X494Y2D01*
X493Y2D01*
X492Y2D01*
X491Y2D01*
X490Y2D01*
X489Y2D01*
X488Y2D01*
X487Y2D01*
X486Y2D01*
X485Y2D01*
X484Y2D01*
X483Y2D01*
X482Y2D01*
X481Y2D01*
X480Y2D01*
X479Y2D01*
X478Y2D01*
X477Y2D01*
X476Y2D01*
X475Y2D01*
X474Y2D01*
X473Y2D01*
X472Y2D01*
X471Y2D01*
X470Y2D01*
X469Y2D01*
X468Y2D01*
X467Y2D01*
X466Y2D01*
X465Y2D01*
X464Y2D01*
X463Y2D01*
X462Y2D01*
X461Y2D01*
X460Y2D01*
X459Y2D01*
X458Y2D01*
X457Y2D01*
X456Y2D01*
X455Y2D01*
X454Y2D01*
X453Y2D01*
X452Y2D01*
X451Y2D01*
X450Y2D01*
X449Y2D01*
X448Y2D01*
X447Y2D01*
X446Y2D01*
X445Y2D01*
X444Y2D01*
X443Y2D01*
X442Y2D01*
X441Y2D01*
X440Y2D01*
X439Y2D01*
X438Y2D01*
X437Y2D01*
X436Y2D01*
X435Y2D01*
X434Y2D01*
X433Y2D01*
X432Y2D01*
X431Y2D01*
X430Y2D01*
X429Y2D01*
X428Y2D01*
X427Y2D01*
X426Y2D01*
X425Y2D01*
X424Y2D01*
X423Y2D01*
X422Y2D01*
X421Y2D01*
X420Y2D01*
X419Y2D01*
X418Y2D01*
X417Y2D01*
X416Y2D01*
X415Y2D01*
X414Y2D01*
X413Y2D01*
X412Y2D01*
X411Y2D01*
X410Y2D01*
X409Y2D01*
X408Y2D01*
X407Y2D01*
X406Y2D01*
X405Y2D01*
X404Y2D01*
X403Y2D01*
X402Y2D01*
X401Y2D01*
X400Y2D01*
X399Y2D01*
X398Y2D01*
X397Y2D01*
X396Y2D01*
X395Y2D01*
X394Y2D01*
X393Y2D01*
X392Y2D01*
X391Y2D01*
X390Y2D01*
X389Y2D01*
X388Y2D01*
X387Y2D01*
X386Y2D01*
X385Y2D01*
X384Y2D01*
X383Y2D01*
X382Y2D01*
X381Y2D01*
X380Y2D01*
X379Y2D01*
X378Y2D01*
X377Y2D01*
X376Y2D01*
X375Y2D01*
X374Y2D01*
X373Y2D01*
X372Y2D01*
X371Y2D01*
X370Y2D01*
X369Y2D01*
X368Y2D01*
X367Y2D01*
X366Y2D01*
X365Y2D01*
X364Y2D01*
X363Y2D01*
X362Y2D01*
X361Y2D01*
X360Y2D01*
X359Y2D01*
X358Y2D01*
X357Y2D01*
X356Y2D01*
X355Y2D01*
X354Y2D01*
X353Y2D01*
X352Y2D01*
X351Y2D01*
X350Y2D01*
X349Y2D01*
X348Y2D01*
X347Y2D01*
X346Y2D01*
X345Y2D01*
X344Y2D01*
X343Y2D01*
X342Y2D01*
X341Y2D01*
X340Y2D01*
X339Y2D01*
X338Y2D01*
X337Y2D01*
X336Y2D01*
X335Y2D01*
X334Y2D01*
X333Y2D01*
X332Y2D01*
X331Y2D01*
X330Y2D01*
X329Y2D01*
X328Y2D01*
X327Y2D01*
X326Y2D01*
X325Y2D01*
X324Y2D01*
X323Y2D01*
X322Y2D01*
X321Y2D01*
X320Y2D01*
X319Y2D01*
X318Y2D01*
X317Y2D01*
X316Y2D01*
X315Y2D01*
X314Y2D01*
X313Y2D01*
X312Y2D01*
X311Y2D01*
X310Y2D01*
X309Y2D01*
X308Y2D01*
X307Y2D01*
X306Y2D01*
X305Y2D01*
X304Y2D01*
X303Y2D01*
X302Y2D01*
X301Y2D01*
X300Y2D01*
X299Y2D01*
X298Y2D01*
X297Y2D01*
X296Y2D01*
X295Y2D01*
X294Y2D01*
X293Y2D01*
X292Y2D01*
X291Y2D01*
X290Y2D01*
X289Y2D01*
X288Y2D01*
X287Y2D01*
X286Y2D01*
X285Y2D01*
X284Y2D01*
X283Y2D01*
X282Y2D01*
X281Y2D01*
X280Y2D01*
X279Y2D01*
X278Y2D01*
X277Y2D01*
X276Y2D01*
X275Y2D01*
X274Y2D01*
X273Y2D01*
X272Y2D01*
X271Y2D01*
X270Y2D01*
X269Y2D01*
X268Y2D01*
X267Y2D01*
X266Y2D01*
X265Y2D01*
X264Y2D01*
X263Y2D01*
X262Y2D01*
X261Y2D01*
X260Y2D01*
X259Y2D01*
X258Y2D01*
X257Y2D01*
X256Y2D01*
X255Y2D01*
X254Y2D01*
X253Y2D01*
X252Y2D01*
X251Y2D01*
X250Y2D01*
X249Y2D01*
X248Y2D01*
X247Y2D01*
X246Y2D01*
X245Y2D01*
X244Y2D01*
X243Y2D01*
X242Y2D01*
X241Y2D01*
X240Y2D01*
X239Y2D01*
X238Y2D01*
X237Y2D01*
X236Y2D01*
X235Y2D01*
X234Y2D01*
X233Y2D01*
X232Y2D01*
X231Y2D01*
X230Y2D01*
X229Y2D01*
X228Y2D01*
X227Y2D01*
X226Y2D01*
X225Y2D01*
X224Y2D01*
X223Y2D01*
X222Y2D01*
X221Y2D01*
X220Y2D01*
X219Y2D01*
X218Y2D01*
X217Y2D01*
X216Y2D01*
X215Y2D01*
X214Y2D01*
X213Y2D01*
X212Y2D01*
X211Y2D01*
X210Y2D01*
X209Y2D01*
X208Y2D01*
X207Y2D01*
X206Y2D01*
X205Y2D01*
X204Y2D01*
X203Y2D01*
X202Y2D01*
X201Y2D01*
X200Y2D01*
X199Y2D01*
X198Y2D01*
X197Y2D01*
X196Y2D01*
X195Y2D01*
X194Y2D01*
X193Y2D01*
X192Y2D01*
X191Y2D01*
X190Y2D01*
X189Y2D01*
X188Y2D01*
X187Y2D01*
X186Y2D01*
X185Y2D01*
X184Y2D01*
X183Y2D01*
X182Y2D01*
X181Y2D01*
X180Y2D01*
X179Y2D01*
X178Y2D01*
X177Y2D01*
X176Y2D01*
X175Y2D01*
X174Y2D01*
X173Y2D01*
X172Y2D01*
X171Y2D01*
X170Y2D01*
X169Y2D01*
X168Y2D01*
X167Y2D01*
X166Y2D01*
X165Y2D01*
X164Y2D01*
X163Y2D01*
X162Y2D01*
X161Y2D01*
X160Y2D01*
X159Y2D01*
X158Y2D01*
X157Y2D01*
X156Y2D01*
X155Y2D01*
X154Y2D01*
X153Y2D01*
X152Y2D01*
X151Y2D01*
X150Y2D01*
X149Y2D01*
X148Y2D01*
X147Y2D01*
X146Y2D01*
X145Y2D01*
X144Y2D01*
X143Y2D01*
X142Y2D01*
X141Y2D01*
X140Y2D01*
X139Y2D01*
X138Y2D01*
X137Y2D01*
X136Y3D01*
X135Y3D01*
X134Y3D01*
X133Y3D01*
X132Y3D01*
X131Y3D01*
X130Y3D01*
X129Y3D01*
X128Y3D01*
X127Y4D01*
X126Y4D01*
X125Y4D01*
X124Y4D01*
X123Y4D01*
X122Y4D01*
X121Y5D01*
X120Y5D01*
X119Y5D01*
X118Y5D01*
X117Y5D01*
X116Y6D01*
X115Y6D01*
X114Y6D01*
X113Y6D01*
X112Y6D01*
X111Y7D01*
X110Y7D01*
X109Y7D01*
X108Y8D01*
X107Y8D01*
X106Y8D01*
X105Y8D01*
X104Y9D01*
X103Y9D01*
X102Y9D01*
X101Y10D01*
X100Y10D01*
X99Y10D01*
X98Y11D01*
X97Y11D01*
X96Y11D01*
X95Y12D01*
X94Y12D01*
X93Y13D01*
X92Y13D01*
X91Y13D01*
X90Y14D01*
X89Y14D01*
X88Y15D01*
X87Y15D01*
X86Y16D01*
X85Y16D01*
X84Y17D01*
X83Y17D01*
X82Y18D01*
X81Y18D01*
X80Y19D01*
X79Y19D01*
X78Y20D01*
X77Y20D01*
X76Y21D01*
X75Y21D01*
X74Y22D01*
X73Y22D01*
X72Y23D01*
X71Y24D01*
X70Y24D01*
X69Y25D01*
X68Y26D01*
X67Y26D01*
X66Y27D01*
X65Y27D01*
X64Y28D01*
X63Y29D01*
X62Y30D01*
X61Y30D01*
X60Y31D01*
X59Y32D01*
X58Y33D01*
X57Y33D01*
X56Y34D01*
X55Y35D01*
X54Y36D01*
X53Y36D01*
X52Y37D01*
X51Y38D01*
X50Y39D01*
X49Y40D01*
X48Y41D01*
X47Y42D01*
X46Y43D01*
X45Y44D01*
X44Y45D01*
X43Y46D01*
X42Y47D01*
X41Y48D01*
X40Y49D01*
X39Y50D01*
X38Y51D01*
X37Y52D01*
X36Y53D01*
X35Y54D01*
X34Y55D01*
X34Y56D01*
X33Y57D01*
X32Y58D01*
X31Y59D01*
X31Y60D01*
X30Y61D01*
X29Y62D01*
X28Y63D01*
X28Y64D01*
X27Y65D01*
X26Y66D01*
X25Y67D01*
X25Y68D01*
X24Y69D01*
X24Y70D01*
X23Y71D01*
X22Y72D01*
X22Y73D01*
X21Y74D01*
X20Y75D01*
X20Y76D01*
X19Y77D01*
X19Y78D01*
X18Y79D01*
X18Y80D01*
X17Y81D01*
X17Y82D01*
X16Y83D01*
X16Y84D01*
X15Y85D01*
X15Y86D01*
X14Y87D01*
X14Y88D01*
X13Y89D01*
X13Y90D01*
X12Y91D01*
X12Y92D01*
X11Y93D01*
X11Y95D01*
X10Y96D01*
X10Y97D01*
X9Y98D01*
X9Y100D01*
X8Y101D01*
X8Y103D01*
X7Y104D01*
X7Y106D01*
X6Y107D01*
X6Y110D01*
X5Y111D01*
X5Y113D01*
X4Y114D01*
X4Y118D01*
X3Y119D01*
X3Y123D01*
X2Y124D01*
X2Y129D01*
X1Y130D01*
X1Y138D01*
X0Y139D01*
X0Y2617D01*
X1Y2618D01*
X1Y2626D01*
X2Y2627D01*
X2Y2632D01*
X3Y2633D01*
X3Y2637D01*
X4Y2638D01*
X4Y2642D01*
X5Y2643D01*
X5Y2645D01*
X6Y2646D01*
X6Y2649D01*
X7Y2650D01*
X7Y2652D01*
X8Y2653D01*
X8Y2655D01*
X9Y2656D01*
X9Y2658D01*
X10Y2659D01*
X10Y2660D01*
X11Y2661D01*
X11Y2663D01*
X12Y2664D01*
X12Y2665D01*
X13Y2666D01*
X13Y2667D01*
X14Y2668D01*
X14Y2669D01*
X15Y2670D01*
X15Y2671D01*
X16Y2672D01*
X16Y2673D01*
X17Y2674D01*
X17Y2675D01*
X18Y2676D01*
X18Y2677D01*
X19Y2678D01*
X19Y2679D01*
X20Y2680D01*
X20Y2681D01*
X21Y2682D01*
X22Y2683D01*
X22Y2684D01*
X23Y2685D01*
X24Y2686D01*
X24Y2687D01*
X25Y2688D01*
X25Y2689D01*
X26Y2690D01*
X27Y2691D01*
X28Y2692D01*
X28Y2693D01*
X29Y2694D01*
X30Y2695D01*
X31Y2696D01*
X31Y2697D01*
X32Y2698D01*
X33Y2699D01*
X34Y2700D01*
X34Y2701D01*
X35Y2702D01*
X36Y2703D01*
X37Y2704D01*
X38Y2705D01*
X39Y2706D01*
X40Y2707D01*
X41Y2708D01*
X42Y2709D01*
X43Y2710D01*
X44Y2711D01*
X45Y2712D01*
X46Y2713D01*
X47Y2714D01*
X48Y2715D01*
X49Y2716D01*
X50Y2717D01*
X51Y2718D01*
X52Y2719D01*
X53Y2720D01*
X54Y2720D01*
X55Y2721D01*
X56Y2722D01*
X57Y2723D01*
X58Y2723D01*
X59Y2724D01*
X60Y2725D01*
X61Y2726D01*
X62Y2726D01*
X63Y2727D01*
X64Y2728D01*
X65Y2729D01*
X66Y2729D01*
X67Y2730D01*
X68Y2730D01*
X69Y2731D01*
X70Y2732D01*
X71Y2732D01*
X72Y2733D01*
X73Y2734D01*
X74Y2734D01*
X75Y2735D01*
X76Y2735D01*
X77Y2736D01*
X78Y2736D01*
X79Y2737D01*
X80Y2737D01*
X81Y2738D01*
X82Y2738D01*
X83Y2739D01*
X84Y2739D01*
X85Y2740D01*
X86Y2740D01*
X87Y2741D01*
X88Y2741D01*
X89Y2742D01*
X90Y2742D01*
X91Y2743D01*
X92Y2743D01*
X93Y2743D01*
X94Y2744D01*
X95Y2744D01*
X96Y2745D01*
X97Y2745D01*
X98Y2745D01*
X99Y2746D01*
X100Y2746D01*
X101Y2746D01*
X102Y2747D01*
X103Y2747D01*
X104Y2747D01*
X105Y2748D01*
X106Y2748D01*
X107Y2748D01*
X108Y2748D01*
X109Y2749D01*
X110Y2749D01*
X111Y2749D01*
X112Y2750D01*
X113Y2750D01*
X114Y2750D01*
X115Y2750D01*
X116Y2750D01*
X117Y2751D01*
X118Y2751D01*
X119Y2751D01*
X120Y2751D01*
X121Y2751D01*
X122Y2752D01*
X123Y2752D01*
X124Y2752D01*
X125Y2752D01*
X126Y2752D01*
X127Y2752D01*
X128Y2753D01*
X129Y2753D01*
X130Y2753D01*
X131Y2753D01*
X132Y2753D01*
X133Y2753D01*
X134Y2753D01*
X135Y2753D01*
X136Y2753D01*
X137Y2754D01*
D02*
X86Y2393D02*
X87Y2393D01*
X88Y2393D01*
X89Y2393D01*
X90Y2393D01*
X91Y2393D01*
X92Y2393D01*
X93Y2393D01*
X94Y2393D01*
X95Y2393D01*
X96Y2393D01*
X97Y2393D01*
X98Y2393D01*
X99Y2393D01*
X100Y2393D01*
X101Y2393D01*
X102Y2393D01*
X103Y2392D01*
X104Y2392D01*
X105Y2392D01*
X106Y2392D01*
X107Y2392D01*
X108Y2392D01*
X109Y2391D01*
X110Y2391D01*
X111Y2391D01*
X112Y2391D01*
X113Y2390D01*
X114Y2390D01*
X115Y2390D01*
X116Y2390D01*
X117Y2389D01*
X118Y2389D01*
X119Y2388D01*
X120Y2388D01*
X121Y2388D01*
X122Y2387D01*
X123Y2387D01*
X124Y2386D01*
X125Y2386D01*
X126Y2385D01*
X127Y2385D01*
X128Y2384D01*
X129Y2384D01*
X130Y2383D01*
X131Y2382D01*
X132Y2382D01*
X133Y2381D01*
X134Y2381D01*
X135Y2380D01*
X136Y2379D01*
X137Y2378D01*
X138Y2378D01*
X139Y2377D01*
X140Y2376D01*
X141Y2375D01*
X142Y2374D01*
X143Y2373D01*
X144Y2372D01*
X145Y2371D01*
X146Y2370D01*
X147Y2369D01*
X147Y2368D01*
X148Y2367D01*
X149Y2366D01*
X150Y2365D01*
X150Y2364D01*
X151Y2363D01*
X152Y2362D01*
X152Y2361D01*
X153Y2360D01*
X154Y2359D01*
X154Y2358D01*
X155Y2357D01*
X155Y2356D01*
X156Y2355D01*
X156Y2354D01*
X157Y2353D01*
X157Y2352D01*
X158Y2351D01*
X158Y2349D01*
X159Y2348D01*
X159Y2346D01*
X160Y2345D01*
X160Y2342D01*
X161Y2341D01*
X161Y2338D01*
X162Y2337D01*
X162Y2331D01*
X163Y2330D01*
X163Y2319D01*
X162Y2318D01*
X162Y2311D01*
X161Y2310D01*
X161Y2307D01*
X160Y2306D01*
X160Y2303D01*
X159Y2302D01*
X159Y2300D01*
X158Y2299D01*
X158Y2298D01*
X157Y2297D01*
X157Y2295D01*
X156Y2294D01*
X156Y2293D01*
X155Y2292D01*
X155Y2291D01*
X154Y2290D01*
X153Y2289D01*
X153Y2288D01*
X152Y2287D01*
X152Y2286D01*
X151Y2285D01*
X150Y2284D01*
X150Y2283D01*
X149Y2282D01*
X148Y2281D01*
X147Y2280D01*
X146Y2279D01*
X146Y2278D01*
X145Y2277D01*
X144Y2276D01*
X143Y2275D01*
X142Y2274D01*
X141Y2273D01*
X140Y2272D01*
X139Y2272D01*
X138Y2271D01*
X137Y2270D01*
X136Y2269D01*
X135Y2268D01*
X134Y2268D01*
X133Y2267D01*
X132Y2266D01*
X131Y2266D01*
X130Y2265D01*
X129Y2265D01*
X128Y2264D01*
X127Y2263D01*
X126Y2263D01*
X125Y2262D01*
X124Y2262D01*
X123Y2261D01*
X122Y2261D01*
X121Y2261D01*
X120Y2260D01*
X119Y2260D01*
X118Y2259D01*
X117Y2259D01*
X116Y2259D01*
X115Y2258D01*
X114Y2258D01*
X113Y2258D01*
X112Y2258D01*
X111Y2257D01*
X110Y2257D01*
X109Y2257D01*
X108Y2257D01*
X107Y2256D01*
X106Y2256D01*
X105Y2256D01*
X104Y2256D01*
X103Y2256D01*
X102Y2256D01*
X101Y2256D01*
X100Y2256D01*
X99Y2255D01*
X98Y2255D01*
X97Y2255D01*
X96Y2255D01*
X95Y2255D01*
X94Y2255D01*
X93Y2255D01*
X92Y2255D01*
X91Y2255D01*
X90Y2255D01*
X89Y2255D01*
X88Y2256D01*
X87Y2256D01*
X86Y2256D01*
X85Y2256D01*
X84Y2256D01*
X83Y2256D01*
X82Y2256D01*
X81Y2256D01*
X80Y2257D01*
X79Y2257D01*
X78Y2257D01*
X77Y2257D01*
X76Y2258D01*
X75Y2258D01*
X74Y2258D01*
X73Y2258D01*
X72Y2259D01*
X71Y2259D01*
X70Y2260D01*
X69Y2260D01*
X68Y2260D01*
X67Y2261D01*
X66Y2261D01*
X65Y2262D01*
X64Y2262D01*
X63Y2263D01*
X62Y2263D01*
X61Y2264D01*
X60Y2264D01*
X59Y2265D01*
X58Y2265D01*
X57Y2266D01*
X56Y2267D01*
X55Y2267D01*
X54Y2268D01*
X53Y2269D01*
X52Y2269D01*
X51Y2270D01*
X50Y2271D01*
X49Y2272D01*
X48Y2273D01*
X47Y2274D01*
X46Y2275D01*
X45Y2275D01*
X45Y2276D01*
X44Y2277D01*
X43Y2278D01*
X42Y2279D01*
X41Y2280D01*
X40Y2281D01*
X39Y2282D01*
X39Y2283D01*
X38Y2284D01*
X37Y2285D01*
X36Y2286D01*
X36Y2287D01*
X35Y2288D01*
X35Y2289D01*
X34Y2290D01*
X33Y2291D01*
X33Y2292D01*
X32Y2293D01*
X32Y2294D01*
X31Y2295D01*
X31Y2297D01*
X30Y2298D01*
X30Y2299D01*
X29Y2300D01*
X29Y2302D01*
X28Y2303D01*
X28Y2305D01*
X27Y2306D01*
X27Y2309D01*
X26Y2310D01*
X26Y2315D01*
X25Y2316D01*
X25Y2332D01*
X26Y2333D01*
X26Y2338D01*
X27Y2339D01*
X27Y2342D01*
X28Y2343D01*
X28Y2345D01*
X29Y2346D01*
X29Y2348D01*
X30Y2349D01*
X30Y2351D01*
X31Y2352D01*
X31Y2353D01*
X32Y2354D01*
X32Y2355D01*
X33Y2356D01*
X33Y2357D01*
X34Y2358D01*
X35Y2359D01*
X35Y2360D01*
X36Y2361D01*
X36Y2362D01*
X37Y2363D01*
X38Y2364D01*
X38Y2365D01*
X39Y2366D01*
X40Y2367D01*
X41Y2368D01*
X42Y2369D01*
X43Y2370D01*
X43Y2371D01*
X44Y2372D01*
X45Y2373D01*
X46Y2374D01*
X47Y2375D01*
X48Y2376D01*
X49Y2376D01*
X50Y2377D01*
X51Y2378D01*
X52Y2379D01*
X53Y2380D01*
X54Y2380D01*
X55Y2381D01*
X56Y2382D01*
X57Y2382D01*
X58Y2383D01*
X59Y2384D01*
X60Y2384D01*
X61Y2385D01*
X62Y2385D01*
X63Y2386D01*
X64Y2386D01*
X65Y2387D01*
X66Y2387D01*
X67Y2388D01*
X68Y2388D01*
X69Y2388D01*
X70Y2389D01*
X71Y2389D01*
X72Y2389D01*
X73Y2390D01*
X74Y2390D01*
X75Y2390D01*
X76Y2391D01*
X77Y2391D01*
X78Y2391D01*
X79Y2391D01*
X80Y2392D01*
X81Y2392D01*
X82Y2392D01*
X83Y2392D01*
X84Y2392D01*
X85Y2392D01*
X86Y2393D01*
D02*
X1699Y230D02*
X1700Y230D01*
X1701Y230D01*
X1702Y230D01*
X1703Y230D01*
X1704Y230D01*
X1705Y230D01*
X1706Y230D01*
X1707Y230D01*
X1708Y230D01*
X1709Y230D01*
X1710Y230D01*
X1711Y230D01*
X1712Y230D01*
X1713Y230D01*
X1714Y230D01*
X1715Y230D01*
X1716Y229D01*
X1717Y229D01*
X1718Y229D01*
X1719Y229D01*
X1720Y229D01*
X1721Y229D01*
X1722Y228D01*
X1723Y228D01*
X1724Y228D01*
X1725Y228D01*
X1726Y227D01*
X1727Y227D01*
X1728Y227D01*
X1729Y227D01*
X1730Y226D01*
X1731Y226D01*
X1732Y226D01*
X1733Y225D01*
X1734Y225D01*
X1735Y224D01*
X1736Y224D01*
X1737Y223D01*
X1738Y223D01*
X1739Y222D01*
X1740Y222D01*
X1741Y221D01*
X1742Y221D01*
X1743Y220D01*
X1744Y220D01*
X1745Y219D01*
X1746Y218D01*
X1747Y218D01*
X1748Y217D01*
X1749Y216D01*
X1750Y215D01*
X1751Y215D01*
X1752Y214D01*
X1753Y213D01*
X1754Y212D01*
X1755Y211D01*
X1756Y210D01*
X1757Y209D01*
X1758Y208D01*
X1759Y207D01*
X1760Y206D01*
X1761Y205D01*
X1761Y204D01*
X1762Y203D01*
X1763Y202D01*
X1764Y201D01*
X1764Y200D01*
X1765Y199D01*
X1766Y198D01*
X1766Y197D01*
X1767Y196D01*
X1767Y195D01*
X1768Y194D01*
X1768Y193D01*
X1769Y192D01*
X1769Y191D01*
X1770Y190D01*
X1770Y189D01*
X1771Y188D01*
X1771Y186D01*
X1772Y185D01*
X1772Y183D01*
X1773Y182D01*
X1773Y180D01*
X1774Y179D01*
X1774Y176D01*
X1775Y175D01*
X1775Y169D01*
X1776Y168D01*
X1776Y154D01*
X1775Y153D01*
X1775Y147D01*
X1774Y146D01*
X1774Y143D01*
X1773Y142D01*
X1773Y140D01*
X1772Y139D01*
X1772Y137D01*
X1771Y136D01*
X1771Y134D01*
X1770Y133D01*
X1770Y132D01*
X1769Y131D01*
X1769Y130D01*
X1768Y129D01*
X1768Y128D01*
X1767Y127D01*
X1767Y126D01*
X1766Y125D01*
X1765Y124D01*
X1765Y123D01*
X1764Y122D01*
X1763Y121D01*
X1763Y120D01*
X1762Y119D01*
X1761Y118D01*
X1760Y117D01*
X1760Y116D01*
X1759Y115D01*
X1758Y114D01*
X1757Y113D01*
X1756Y112D01*
X1755Y111D01*
X1754Y110D01*
X1753Y109D01*
X1752Y108D01*
X1751Y108D01*
X1750Y107D01*
X1749Y106D01*
X1748Y105D01*
X1747Y105D01*
X1746Y104D01*
X1745Y103D01*
X1744Y103D01*
X1743Y102D01*
X1742Y102D01*
X1741Y101D01*
X1740Y100D01*
X1739Y100D01*
X1738Y99D01*
X1737Y99D01*
X1736Y98D01*
X1735Y98D01*
X1734Y98D01*
X1733Y97D01*
X1732Y97D01*
X1731Y96D01*
X1730Y96D01*
X1729Y96D01*
X1728Y95D01*
X1727Y95D01*
X1726Y95D01*
X1725Y95D01*
X1724Y94D01*
X1723Y94D01*
X1722Y94D01*
X1721Y94D01*
X1720Y93D01*
X1719Y93D01*
X1718Y93D01*
X1717Y93D01*
X1716Y93D01*
X1715Y93D01*
X1714Y93D01*
X1713Y93D01*
X1712Y92D01*
X1711Y92D01*
X1710Y92D01*
X1709Y92D01*
X1708Y92D01*
X1707Y92D01*
X1706Y92D01*
X1705Y92D01*
X1704Y92D01*
X1703Y92D01*
X1702Y92D01*
X1701Y93D01*
X1700Y93D01*
X1699Y93D01*
X1698Y93D01*
X1697Y93D01*
X1696Y93D01*
X1695Y93D01*
X1694Y94D01*
X1693Y94D01*
X1692Y94D01*
X1691Y94D01*
X1690Y94D01*
X1689Y95D01*
X1688Y95D01*
X1687Y95D01*
X1686Y96D01*
X1685Y96D01*
X1684Y96D01*
X1683Y97D01*
X1682Y97D01*
X1681Y97D01*
X1680Y98D01*
X1679Y98D01*
X1678Y99D01*
X1677Y99D01*
X1676Y100D01*
X1675Y100D01*
X1674Y101D01*
X1673Y101D01*
X1672Y102D01*
X1671Y103D01*
X1670Y103D01*
X1669Y104D01*
X1668Y104D01*
X1667Y105D01*
X1666Y106D01*
X1665Y107D01*
X1664Y107D01*
X1663Y108D01*
X1662Y109D01*
X1661Y110D01*
X1660Y111D01*
X1659Y112D01*
X1658Y113D01*
X1657Y114D01*
X1656Y115D01*
X1655Y116D01*
X1654Y117D01*
X1653Y118D01*
X1653Y119D01*
X1652Y120D01*
X1651Y121D01*
X1650Y122D01*
X1650Y123D01*
X1649Y124D01*
X1648Y125D01*
X1648Y126D01*
X1647Y127D01*
X1647Y128D01*
X1646Y129D01*
X1646Y130D01*
X1645Y131D01*
X1645Y132D01*
X1644Y133D01*
X1644Y134D01*
X1643Y135D01*
X1643Y137D01*
X1642Y138D01*
X1642Y139D01*
X1641Y140D01*
X1641Y143D01*
X1640Y144D01*
X1640Y147D01*
X1639Y148D01*
X1639Y153D01*
X1638Y154D01*
X1638Y168D01*
X1639Y169D01*
X1639Y175D01*
X1640Y176D01*
X1640Y179D01*
X1641Y180D01*
X1641Y182D01*
X1642Y183D01*
X1642Y185D01*
X1643Y186D01*
X1643Y188D01*
X1644Y189D01*
X1644Y190D01*
X1645Y191D01*
X1645Y192D01*
X1646Y193D01*
X1646Y194D01*
X1647Y195D01*
X1647Y196D01*
X1648Y197D01*
X1648Y198D01*
X1649Y199D01*
X1650Y200D01*
X1650Y201D01*
X1651Y202D01*
X1652Y203D01*
X1653Y204D01*
X1653Y205D01*
X1654Y206D01*
X1655Y207D01*
X1656Y208D01*
X1657Y209D01*
X1658Y210D01*
X1659Y211D01*
X1660Y212D01*
X1661Y213D01*
X1662Y214D01*
X1663Y215D01*
X1664Y215D01*
X1665Y216D01*
X1666Y217D01*
X1667Y218D01*
X1668Y218D01*
X1669Y219D01*
X1670Y220D01*
X1671Y220D01*
X1672Y221D01*
X1673Y221D01*
X1674Y222D01*
X1675Y222D01*
X1676Y223D01*
X1677Y223D01*
X1678Y224D01*
X1679Y224D01*
X1680Y225D01*
X1681Y225D01*
X1682Y225D01*
X1683Y226D01*
X1684Y226D01*
X1685Y227D01*
X1686Y227D01*
X1687Y227D01*
X1688Y227D01*
X1689Y228D01*
X1690Y228D01*
X1691Y228D01*
X1692Y228D01*
X1693Y229D01*
X1694Y229D01*
X1695Y229D01*
X1696Y229D01*
X1697Y229D01*
X1698Y229D01*
X1699Y230D01*
D02*
X2443Y2393D02*
X2444Y2393D01*
X2445Y2393D01*
X2446Y2393D01*
X2447Y2393D01*
X2448Y2393D01*
X2449Y2393D01*
X2450Y2393D01*
X2451Y2393D01*
X2452Y2393D01*
X2453Y2393D01*
X2454Y2393D01*
X2455Y2393D01*
X2456Y2393D01*
X2457Y2393D01*
X2458Y2393D01*
X2459Y2393D01*
X2460Y2392D01*
X2461Y2392D01*
X2462Y2392D01*
X2463Y2392D01*
X2464Y2392D01*
X2465Y2392D01*
X2466Y2391D01*
X2467Y2391D01*
X2468Y2391D01*
X2469Y2391D01*
X2470Y2390D01*
X2471Y2390D01*
X2472Y2390D01*
X2473Y2390D01*
X2474Y2389D01*
X2475Y2389D01*
X2476Y2389D01*
X2477Y2388D01*
X2478Y2388D01*
X2479Y2387D01*
X2480Y2387D01*
X2481Y2386D01*
X2482Y2386D01*
X2483Y2385D01*
X2484Y2385D01*
X2485Y2384D01*
X2486Y2384D01*
X2487Y2383D01*
X2488Y2383D01*
X2489Y2382D01*
X2490Y2381D01*
X2491Y2381D01*
X2492Y2380D01*
X2493Y2379D01*
X2494Y2378D01*
X2495Y2378D01*
X2496Y2377D01*
X2497Y2376D01*
X2498Y2375D01*
X2499Y2374D01*
X2500Y2373D01*
X2501Y2372D01*
X2502Y2371D01*
X2503Y2370D01*
X2504Y2369D01*
X2505Y2368D01*
X2505Y2367D01*
X2506Y2366D01*
X2507Y2365D01*
X2508Y2364D01*
X2508Y2363D01*
X2509Y2362D01*
X2510Y2361D01*
X2510Y2360D01*
X2511Y2359D01*
X2511Y2358D01*
X2512Y2357D01*
X2512Y2356D01*
X2513Y2355D01*
X2513Y2354D01*
X2514Y2353D01*
X2514Y2352D01*
X2515Y2351D01*
X2515Y2350D01*
X2516Y2349D01*
X2516Y2347D01*
X2517Y2346D01*
X2517Y2343D01*
X2518Y2342D01*
X2518Y2339D01*
X2519Y2338D01*
X2519Y2333D01*
X2520Y2332D01*
X2520Y2316D01*
X2519Y2315D01*
X2519Y2310D01*
X2518Y2309D01*
X2518Y2306D01*
X2517Y2305D01*
X2517Y2303D01*
X2516Y2302D01*
X2516Y2300D01*
X2515Y2299D01*
X2515Y2297D01*
X2514Y2296D01*
X2514Y2295D01*
X2513Y2294D01*
X2513Y2293D01*
X2512Y2292D01*
X2512Y2291D01*
X2511Y2290D01*
X2511Y2289D01*
X2510Y2288D01*
X2509Y2287D01*
X2509Y2286D01*
X2508Y2285D01*
X2508Y2284D01*
X2507Y2283D01*
X2506Y2282D01*
X2505Y2281D01*
X2505Y2280D01*
X2504Y2279D01*
X2503Y2278D01*
X2502Y2277D01*
X2501Y2276D01*
X2500Y2275D01*
X2499Y2274D01*
X2498Y2273D01*
X2497Y2272D01*
X2496Y2271D01*
X2495Y2271D01*
X2494Y2270D01*
X2493Y2269D01*
X2492Y2268D01*
X2491Y2268D01*
X2490Y2267D01*
X2489Y2266D01*
X2488Y2266D01*
X2487Y2265D01*
X2486Y2264D01*
X2485Y2264D01*
X2484Y2263D01*
X2483Y2263D01*
X2482Y2262D01*
X2481Y2262D01*
X2480Y2261D01*
X2479Y2261D01*
X2478Y2260D01*
X2477Y2260D01*
X2476Y2260D01*
X2475Y2259D01*
X2474Y2259D01*
X2473Y2259D01*
X2472Y2258D01*
X2471Y2258D01*
X2470Y2258D01*
X2469Y2258D01*
X2468Y2257D01*
X2467Y2257D01*
X2466Y2257D01*
X2465Y2257D01*
X2464Y2256D01*
X2463Y2256D01*
X2462Y2256D01*
X2461Y2256D01*
X2460Y2256D01*
X2459Y2256D01*
X2458Y2256D01*
X2457Y2255D01*
X2456Y2255D01*
X2455Y2255D01*
X2454Y2255D01*
X2453Y2255D01*
X2452Y2255D01*
X2451Y2255D01*
X2450Y2255D01*
X2449Y2255D01*
X2448Y2255D01*
X2447Y2255D01*
X2446Y2255D01*
X2445Y2256D01*
X2444Y2256D01*
X2443Y2256D01*
X2442Y2256D01*
X2441Y2256D01*
X2440Y2256D01*
X2439Y2256D01*
X2438Y2256D01*
X2437Y2257D01*
X2436Y2257D01*
X2435Y2257D01*
X2434Y2257D01*
X2433Y2258D01*
X2432Y2258D01*
X2431Y2258D01*
X2430Y2259D01*
X2429Y2259D01*
X2428Y2259D01*
X2427Y2260D01*
X2426Y2260D01*
X2425Y2260D01*
X2424Y2261D01*
X2423Y2261D01*
X2422Y2262D01*
X2421Y2262D01*
X2420Y2263D01*
X2419Y2263D01*
X2418Y2264D01*
X2417Y2264D01*
X2416Y2265D01*
X2415Y2266D01*
X2414Y2266D01*
X2413Y2267D01*
X2412Y2267D01*
X2411Y2268D01*
X2410Y2269D01*
X2409Y2270D01*
X2408Y2270D01*
X2407Y2271D01*
X2406Y2272D01*
X2405Y2273D01*
X2404Y2274D01*
X2403Y2275D01*
X2402Y2276D01*
X2401Y2277D01*
X2400Y2278D01*
X2399Y2279D01*
X2398Y2280D01*
X2397Y2281D01*
X2397Y2282D01*
X2396Y2283D01*
X2395Y2284D01*
X2394Y2285D01*
X2394Y2286D01*
X2393Y2287D01*
X2392Y2288D01*
X2392Y2289D01*
X2391Y2290D01*
X2391Y2291D01*
X2390Y2292D01*
X2390Y2293D01*
X2389Y2294D01*
X2389Y2295D01*
X2388Y2296D01*
X2388Y2297D01*
X2387Y2298D01*
X2387Y2300D01*
X2386Y2301D01*
X2386Y2303D01*
X2385Y2304D01*
X2385Y2306D01*
X2384Y2307D01*
X2384Y2310D01*
X2383Y2311D01*
X2383Y2318D01*
X2382Y2319D01*
X2382Y2329D01*
X2383Y2330D01*
X2383Y2337D01*
X2384Y2338D01*
X2384Y2341D01*
X2385Y2342D01*
X2385Y2345D01*
X2386Y2346D01*
X2386Y2347D01*
X2387Y2348D01*
X2387Y2350D01*
X2388Y2351D01*
X2388Y2352D01*
X2389Y2353D01*
X2389Y2354D01*
X2390Y2355D01*
X2390Y2356D01*
X2391Y2357D01*
X2391Y2358D01*
X2392Y2359D01*
X2392Y2360D01*
X2393Y2361D01*
X2394Y2362D01*
X2394Y2363D01*
X2395Y2364D01*
X2396Y2365D01*
X2396Y2366D01*
X2397Y2367D01*
X2398Y2368D01*
X2399Y2369D01*
X2400Y2370D01*
X2401Y2371D01*
X2402Y2372D01*
X2402Y2373D01*
X2403Y2373D01*
X2404Y2374D01*
X2405Y2375D01*
X2406Y2376D01*
X2407Y2377D01*
X2408Y2378D01*
X2409Y2379D01*
X2410Y2379D01*
X2411Y2380D01*
X2412Y2381D01*
X2413Y2382D01*
X2414Y2382D01*
X2415Y2383D01*
X2416Y2383D01*
X2417Y2384D01*
X2418Y2385D01*
X2419Y2385D01*
X2420Y2386D01*
X2421Y2386D01*
X2422Y2387D01*
X2423Y2387D01*
X2424Y2388D01*
X2425Y2388D01*
X2426Y2388D01*
X2427Y2389D01*
X2428Y2389D01*
X2429Y2389D01*
X2430Y2390D01*
X2431Y2390D01*
X2432Y2390D01*
X2433Y2391D01*
X2434Y2391D01*
X2435Y2391D01*
X2436Y2391D01*
X2437Y2392D01*
X2438Y2392D01*
X2439Y2392D01*
X2440Y2392D01*
X2441Y2392D01*
X2442Y2392D01*
X2443Y2393D01*
D02*
G04 End of contour*
M02*