G04 MADE WITH FRITZING*
G04 WWW.FRITZING.ORG*
G04 DOUBLE SIDED*
G04 HOLES PLATED*
G04 CONTOUR ON CENTER OF CONTOUR VECTOR*
%ASAXBY*%
%FSLAX23Y23*%
%MOIN*%
%OFA0B0*%
%SFA1.0B1.0*%
%ADD10C,0.135984*%
%ADD11C,0.080000*%
%ADD12C,0.088000*%
%ADD13C,0.094141*%
%ADD14C,0.085000*%
%ADD15C,0.087778*%
%ADD16C,0.049370*%
%ADD17R,0.093333X0.093333*%
%ADD18R,0.094375X0.094375*%
%ADD19R,0.087778X0.087778*%
%ADD20R,0.088000X0.088000*%
%LNMASK0*%
G90*
G70*
G54D10*
X356Y647D03*
X1256Y647D03*
G54D11*
X1256Y146D03*
X1156Y146D03*
X1056Y146D03*
X956Y146D03*
X856Y146D03*
X756Y146D03*
X656Y146D03*
X556Y146D03*
X456Y146D03*
X356Y146D03*
G54D12*
X1456Y446D03*
G54D13*
X1456Y346D03*
G54D12*
X1456Y246D03*
X1456Y146D03*
G54D14*
X756Y1547D03*
X756Y1147D03*
G54D12*
X1956Y1797D03*
G54D13*
X2056Y1797D03*
G54D12*
X2156Y1797D03*
X2256Y1797D03*
X1956Y2047D03*
G54D13*
X2056Y2047D03*
G54D12*
X2156Y2047D03*
X2256Y2047D03*
X2256Y1397D03*
G54D13*
X2156Y1397D03*
G54D12*
X2056Y1397D03*
X1956Y1397D03*
X1706Y1946D03*
G54D13*
X1606Y1946D03*
G54D12*
X1506Y1946D03*
X1406Y1946D03*
X1706Y1646D03*
G54D13*
X1606Y1646D03*
G54D12*
X1506Y1646D03*
X1406Y1646D03*
X1706Y2246D03*
G54D13*
X1606Y2246D03*
G54D12*
X1506Y2246D03*
X1406Y2246D03*
X2256Y1197D03*
G54D13*
X2156Y1197D03*
G54D12*
X2056Y1197D03*
X1956Y1197D03*
X1456Y1447D03*
G54D13*
X1456Y1347D03*
G54D12*
X1456Y1247D03*
X1456Y1147D03*
G54D15*
X356Y2047D03*
X356Y1947D03*
X356Y1847D03*
X356Y1747D03*
X356Y1647D03*
X356Y1547D03*
X356Y1447D03*
X356Y1347D03*
X1256Y1347D03*
X1256Y1447D03*
X1256Y1547D03*
X1256Y1647D03*
X1256Y1747D03*
X1256Y1847D03*
X1256Y1947D03*
X1256Y2047D03*
G54D12*
X2256Y897D03*
X2156Y897D03*
X2056Y897D03*
X1956Y897D03*
X1856Y897D03*
G54D16*
X1156Y797D03*
G54D17*
X1456Y446D03*
G54D18*
X2056Y1797D03*
X2056Y2047D03*
X2155Y1397D03*
X1606Y1946D03*
X1606Y1646D03*
X1606Y2246D03*
X2155Y1197D03*
G54D17*
X1456Y1447D03*
G54D19*
X1256Y1447D03*
G54D20*
X2056Y897D03*
G04 End of Mask0*
M02*