G04 MADE WITH FRITZING*
G04 WWW.FRITZING.ORG*
G04 DOUBLE SIDED*
G04 HOLES PLATED*
G04 CONTOUR ON CENTER OF CONTOUR VECTOR*
%ASAXBY*%
%FSLAX23Y23*%
%MOIN*%
%OFA0B0*%
%SFA1.0B1.0*%
%ADD10C,0.070000*%
%ADD11C,0.078000*%
%ADD12C,0.084141*%
%ADD13C,0.075000*%
%ADD14C,0.077778*%
%ADD15C,0.039370*%
%ADD16R,0.083333X0.083333*%
%ADD17R,0.084375X0.084375*%
%ADD18R,0.077778X0.077778*%
%ADD19R,0.078000X0.078000*%
%ADD20C,0.024000*%
%LNCOPPER0*%
G90*
G70*
G54D10*
X1256Y146D03*
X1156Y146D03*
X1056Y146D03*
X956Y146D03*
X856Y146D03*
X756Y146D03*
X656Y146D03*
X556Y146D03*
X456Y146D03*
X356Y146D03*
G54D11*
X1456Y446D03*
G54D12*
X1456Y346D03*
G54D11*
X1456Y246D03*
X1456Y146D03*
G54D13*
X756Y1547D03*
X756Y1147D03*
G54D11*
X1956Y1797D03*
G54D12*
X2056Y1797D03*
G54D11*
X2156Y1797D03*
X2256Y1797D03*
X1956Y2047D03*
G54D12*
X2056Y2047D03*
G54D11*
X2156Y2047D03*
X2256Y2047D03*
X2256Y1397D03*
G54D12*
X2156Y1397D03*
G54D11*
X2056Y1397D03*
X1956Y1397D03*
X1706Y1946D03*
G54D12*
X1606Y1946D03*
G54D11*
X1506Y1946D03*
X1406Y1946D03*
X1706Y1646D03*
G54D12*
X1606Y1646D03*
G54D11*
X1506Y1646D03*
X1406Y1646D03*
X1706Y2246D03*
G54D12*
X1606Y2246D03*
G54D11*
X1506Y2246D03*
X1406Y2246D03*
X2256Y1197D03*
G54D12*
X2156Y1197D03*
G54D11*
X2056Y1197D03*
X1956Y1197D03*
X1456Y1447D03*
G54D12*
X1456Y1347D03*
G54D11*
X1456Y1247D03*
X1456Y1147D03*
G54D14*
X356Y2047D03*
X356Y1947D03*
X356Y1847D03*
X356Y1747D03*
X356Y1647D03*
X356Y1547D03*
X356Y1447D03*
X356Y1347D03*
X1256Y1347D03*
X1256Y1447D03*
X1256Y1547D03*
X1256Y1647D03*
X1256Y1747D03*
X1256Y1847D03*
X1256Y1947D03*
X1256Y2047D03*
G54D11*
X2256Y897D03*
X2156Y897D03*
X2056Y897D03*
X1956Y897D03*
X1856Y897D03*
G54D15*
X1156Y797D03*
G54D16*
X1456Y446D03*
G54D17*
X2056Y1797D03*
X2056Y2047D03*
X2155Y1397D03*
X1606Y1946D03*
X1606Y1646D03*
X1606Y2246D03*
X2155Y1197D03*
G54D16*
X1456Y1447D03*
G54D18*
X1256Y1447D03*
G54D19*
X2056Y897D03*
G54D20*
X1137Y797D02*
X457Y796D01*
D02*
X457Y796D02*
X456Y177D01*
D02*
X258Y147D02*
X325Y146D01*
D02*
X258Y1347D02*
X258Y147D01*
D02*
X326Y1347D02*
X258Y1347D01*
D02*
X1606Y1915D02*
X1606Y1678D01*
D02*
X1706Y1916D02*
X1706Y1676D01*
D02*
X1506Y1916D02*
X1506Y1676D01*
D02*
X1406Y1916D02*
X1406Y1676D01*
D02*
X1406Y2216D02*
X1406Y1976D01*
D02*
X1506Y2216D02*
X1506Y1976D01*
D02*
X1606Y2215D02*
X1606Y1978D01*
D02*
X1706Y2216D02*
X1706Y1976D01*
D02*
X2055Y2347D02*
X1607Y2347D01*
D02*
X1607Y2347D02*
X1606Y2278D01*
D02*
X2056Y2079D02*
X2055Y2347D01*
D02*
X1505Y2398D02*
X1506Y2276D01*
D02*
X2156Y2398D02*
X1505Y2398D01*
D02*
X2156Y2077D02*
X2156Y2398D01*
D02*
X2056Y1829D02*
X2056Y2015D01*
D02*
X1405Y2446D02*
X1406Y2276D01*
D02*
X2255Y2446D02*
X1405Y2446D01*
D02*
X2256Y2077D02*
X2255Y2446D01*
D02*
X1956Y1827D02*
X1956Y2017D01*
D02*
X1956Y2246D02*
X1956Y2077D01*
D02*
X1736Y2246D02*
X1956Y2246D01*
D02*
X2156Y1827D02*
X2156Y2017D01*
D02*
X2256Y1827D02*
X2256Y2017D01*
D02*
X2156Y1597D02*
X2156Y1767D01*
D02*
X2056Y1597D02*
X2156Y1597D01*
D02*
X2056Y1427D02*
X2056Y1597D01*
D02*
X855Y1247D02*
X855Y1548D01*
D02*
X855Y1548D02*
X784Y1547D01*
D02*
X1426Y1247D02*
X855Y1247D01*
D02*
X1426Y1147D02*
X784Y1147D01*
D02*
X1606Y1447D02*
X1486Y1447D01*
D02*
X1606Y1615D02*
X1606Y1447D01*
D02*
X1706Y1146D02*
X1486Y1147D01*
D02*
X1706Y1616D02*
X1706Y1146D01*
D02*
X2256Y1367D02*
X2256Y1227D01*
D02*
X2156Y1365D02*
X2156Y1229D01*
D02*
X2056Y1227D02*
X2056Y1367D01*
D02*
X1956Y1227D02*
X1956Y1367D01*
D02*
X1505Y1548D02*
X1285Y1547D01*
D02*
X1506Y1616D02*
X1505Y1548D01*
D02*
X1376Y1646D02*
X1285Y1647D01*
D02*
X555Y1146D02*
X727Y1147D01*
D02*
X555Y1347D02*
X555Y1146D01*
D02*
X385Y1347D02*
X555Y1347D01*
D02*
X385Y1547D02*
X727Y1547D01*
D02*
X2156Y1047D02*
X2054Y1047D01*
D02*
X2054Y1047D02*
X2055Y927D01*
D02*
X2156Y1165D02*
X2156Y1047D01*
D02*
X2256Y1167D02*
X2255Y995D01*
D02*
X2255Y995D02*
X2156Y995D01*
D02*
X2156Y995D02*
X2156Y927D01*
D02*
X1426Y1447D02*
X1285Y1447D01*
D02*
X1175Y797D02*
X2056Y796D01*
D02*
X2056Y796D02*
X2056Y867D01*
G04 End of Copper0*
M02*