; NON-PLATED HOLES START AT T1
; THROUGH (PLATED) HOLES START AT T100
M48
INCH
T100C0.040992
T101C0.039370
T102C0.015748
T103C0.038000
T104C0.036111
T105C0.035000
%
T100
X020556Y020451
X021556Y011951
X016059Y022443
X016059Y019443
X021556Y013951
X016059Y016443
X014561Y003442
X014556Y013451
X020556Y017951
T101
X011561Y001442
X009561Y001442
X003561Y001442
X012561Y001442
X004561Y001442
X005561Y001442
X006561Y001442
X007561Y001442
X008561Y001442
X010561Y001442
T102
X011556Y007951
T103
X021556Y017951
X019556Y020451
X022556Y020451
X019556Y008951
X020556Y011951
X022556Y008951
X014556Y012451
X015059Y022443
X017059Y019443
X014561Y002442
X017059Y016443
X014059Y019443
X019556Y017951
X014059Y016443
X022556Y017951
X020556Y013951
X014556Y014451
X014556Y011451
X019556Y011951
X014561Y004442
X022556Y011951
X017059Y022443
X014561Y001442
X021556Y020451
X018556Y008951
X021556Y008951
X014059Y022443
X020556Y008951
X015059Y019443
X019556Y013951
X022556Y013951
X015059Y016443
T104
X003556Y015451
X012556Y016451
X012556Y020451
X003556Y016451
X012556Y017451
X003556Y020451
X003556Y017451
X012556Y018451
X003556Y018451
X012556Y019451
X012556Y013451
X003556Y019451
X003556Y013451
X012556Y014451
X003556Y014451
X012556Y015451
T105
X007556Y015451
X007556Y011451
T00
M30
