; NON-PLATED HOLES START AT T1
; THROUGH (PLATED) HOLES START AT T100
M48
INCH
T100C0.015748
T101C0.040992
T102C0.036111
T103C0.035000
T104C0.038000
%
T100
X011553Y004459
T101
X022053Y011459
X016556Y013451
X021053Y016459
X015053Y010459
X016556Y016451
X021053Y019459
X022053Y009459
X016556Y019451
T102
X013053Y011459
X004053Y012459
X013053Y012459
X004053Y013459
X013053Y013459
X004053Y014459
X013053Y014459
X004053Y015459
X013053Y015459
X004053Y016459
X004053Y010459
X013053Y016459
X013053Y010459
X004053Y017459
X004053Y011459
X013053Y017459
T103
X008053Y012459
X008053Y008459
T104
X023053Y005959
X019053Y005959
X022053Y005959
X021053Y011459
X020053Y011459
X015053Y011459
X020053Y019459
X021053Y009459
X020053Y016459
X017556Y019451
X020053Y009459
X015053Y009459
X017556Y016451
X015556Y019451
X014556Y019451
X021053Y005959
X015556Y016451
X017556Y013451
X023053Y011459
X020053Y005959
X014556Y016451
X015556Y013451
X014556Y013451
X023053Y019459
X022053Y019459
X023053Y016459
X023053Y009459
X022053Y016459
X015053Y008459
T00
M30
