G04 MADE WITH FRITZING*
G04 WWW.FRITZING.ORG*
G04 DOUBLE SIDED*
G04 HOLES PLATED*
G04 CONTOUR ON CENTER OF CONTOUR VECTOR*
%ASAXBY*%
%FSLAX23Y23*%
%MOIN*%
%OFA0B0*%
%SFA1.0B1.0*%
%ADD10C,0.070000*%
%ADD11C,0.078000*%
%ADD12C,0.084141*%
%ADD13C,0.075000*%
%ADD14C,0.077778*%
%ADD15C,0.039370*%
%ADD16R,0.083333X0.083333*%
%ADD17R,0.084375X0.084375*%
%ADD18R,0.077778X0.077778*%
%ADD19R,0.078000X0.078000*%
%ADD20C,0.024000*%
%LNCOPPER0*%
G90*
G70*
G54D10*
X1256Y144D03*
X1156Y144D03*
X1056Y144D03*
X956Y144D03*
X856Y144D03*
X756Y144D03*
X656Y144D03*
X556Y144D03*
X456Y144D03*
X356Y144D03*
G54D11*
X1456Y444D03*
G54D12*
X1456Y344D03*
G54D11*
X1456Y244D03*
X1456Y144D03*
G54D13*
X756Y1545D03*
X756Y1145D03*
G54D11*
X1956Y1795D03*
G54D12*
X2056Y1795D03*
G54D11*
X2156Y1795D03*
X2256Y1795D03*
X1956Y2045D03*
G54D12*
X2056Y2045D03*
G54D11*
X2156Y2045D03*
X2256Y2045D03*
X2256Y1395D03*
G54D12*
X2156Y1395D03*
G54D11*
X2056Y1395D03*
X1956Y1395D03*
X1706Y1944D03*
G54D12*
X1606Y1944D03*
G54D11*
X1506Y1944D03*
X1406Y1944D03*
X1706Y1644D03*
G54D12*
X1606Y1644D03*
G54D11*
X1506Y1644D03*
X1406Y1644D03*
X1706Y2244D03*
G54D12*
X1606Y2244D03*
G54D11*
X1506Y2244D03*
X1406Y2244D03*
X2256Y1195D03*
G54D12*
X2156Y1195D03*
G54D11*
X2056Y1195D03*
X1956Y1195D03*
X1456Y1445D03*
G54D12*
X1456Y1345D03*
G54D11*
X1456Y1245D03*
X1456Y1145D03*
G54D14*
X356Y2045D03*
X356Y1945D03*
X356Y1845D03*
X356Y1745D03*
X356Y1645D03*
X356Y1545D03*
X356Y1445D03*
X356Y1345D03*
X1256Y1345D03*
X1256Y1445D03*
X1256Y1545D03*
X1256Y1645D03*
X1256Y1745D03*
X1256Y1845D03*
X1256Y1945D03*
X1256Y2045D03*
G54D11*
X2256Y895D03*
X2156Y895D03*
X2056Y895D03*
X1956Y895D03*
X1856Y895D03*
G54D15*
X1156Y795D03*
G54D16*
X1456Y444D03*
G54D17*
X2056Y1795D03*
X2056Y2045D03*
X2155Y1395D03*
X1606Y1944D03*
X1606Y1644D03*
X1606Y2244D03*
X2155Y1195D03*
G54D16*
X1456Y1445D03*
G54D18*
X1256Y1445D03*
G54D19*
X2056Y895D03*
G54D20*
X1137Y795D02*
X457Y795D01*
D02*
X457Y795D02*
X456Y175D01*
D02*
X356Y1316D02*
X356Y175D01*
D02*
X655Y694D02*
X656Y175D01*
D02*
X2356Y694D02*
X655Y694D01*
D02*
X2356Y1796D02*
X2356Y694D01*
D02*
X2286Y1795D02*
X2356Y1796D01*
D02*
X1606Y1913D02*
X1606Y1676D01*
D02*
X1706Y1914D02*
X1706Y1674D01*
D02*
X1506Y1914D02*
X1506Y1674D01*
D02*
X1406Y1914D02*
X1406Y1674D01*
D02*
X1406Y2214D02*
X1406Y1974D01*
D02*
X1506Y2214D02*
X1506Y1974D01*
D02*
X1606Y2213D02*
X1606Y1976D01*
D02*
X1706Y2214D02*
X1706Y1974D01*
D02*
X2055Y2345D02*
X1607Y2345D01*
D02*
X1607Y2345D02*
X1606Y2276D01*
D02*
X2056Y2077D02*
X2055Y2345D01*
D02*
X1505Y2396D02*
X1506Y2274D01*
D02*
X2156Y2396D02*
X1505Y2396D01*
D02*
X2156Y2075D02*
X2156Y2396D01*
D02*
X2056Y1827D02*
X2056Y2014D01*
D02*
X1405Y2444D02*
X1406Y2274D01*
D02*
X2255Y2444D02*
X1405Y2444D01*
D02*
X2256Y2075D02*
X2255Y2444D01*
D02*
X1956Y1825D02*
X1956Y2015D01*
D02*
X1956Y2244D02*
X1956Y2075D01*
D02*
X1736Y2244D02*
X1956Y2244D01*
D02*
X2156Y1825D02*
X2156Y2015D01*
D02*
X2256Y1825D02*
X2256Y2015D01*
D02*
X2156Y1595D02*
X2156Y1765D01*
D02*
X2056Y1425D02*
X2056Y1595D01*
D02*
X2056Y1595D02*
X2156Y1595D01*
D02*
X855Y1245D02*
X855Y1546D01*
D02*
X855Y1546D02*
X784Y1545D01*
D02*
X1426Y1245D02*
X855Y1245D01*
D02*
X1426Y1145D02*
X784Y1145D01*
D02*
X1606Y1445D02*
X1486Y1445D01*
D02*
X1606Y1613D02*
X1606Y1445D01*
D02*
X1706Y1144D02*
X1486Y1145D01*
D02*
X1706Y1614D02*
X1706Y1144D01*
D02*
X2256Y1365D02*
X2256Y1225D01*
D02*
X2156Y1364D02*
X2156Y1227D01*
D02*
X2056Y1225D02*
X2056Y1365D01*
D02*
X1956Y1225D02*
X1956Y1365D01*
D02*
X1505Y1546D02*
X1285Y1545D01*
D02*
X1506Y1614D02*
X1505Y1546D01*
D02*
X1376Y1645D02*
X1285Y1645D01*
D02*
X555Y1144D02*
X727Y1145D01*
D02*
X555Y1345D02*
X555Y1144D01*
D02*
X385Y1345D02*
X555Y1345D01*
D02*
X385Y1545D02*
X727Y1545D01*
D02*
X2156Y1045D02*
X2054Y1045D01*
D02*
X2054Y1045D02*
X2055Y925D01*
D02*
X2156Y1164D02*
X2156Y1045D01*
D02*
X2256Y1165D02*
X2255Y994D01*
D02*
X2255Y994D02*
X2156Y994D01*
D02*
X2156Y994D02*
X2156Y925D01*
D02*
X1426Y1445D02*
X1285Y1445D01*
D02*
X1175Y795D02*
X2056Y795D01*
D02*
X2056Y795D02*
X2056Y865D01*
G04 End of Copper0*
M02*