G04 MADE WITH FRITZING*
G04 WWW.FRITZING.ORG*
G04 DOUBLE SIDED*
G04 HOLES PLATED*
G04 CONTOUR ON CENTER OF CONTOUR VECTOR*
%ASAXBY*%
%FSLAX23Y23*%
%MOIN*%
%OFA0B0*%
%SFA1.0B1.0*%
%ADD10C,0.080000*%
%ADD11C,0.088000*%
%ADD12C,0.094141*%
%ADD13C,0.085000*%
%ADD14C,0.087778*%
%ADD15C,0.049370*%
%ADD16R,0.093333X0.093333*%
%ADD17R,0.094375X0.094375*%
%ADD18R,0.087778X0.087778*%
%ADD19R,0.088000X0.088000*%
%LNMASK0*%
G90*
G70*
G54D10*
X1256Y144D03*
X1156Y144D03*
X1056Y144D03*
X956Y144D03*
X856Y144D03*
X756Y144D03*
X656Y144D03*
X556Y144D03*
X456Y144D03*
X356Y144D03*
G54D11*
X1456Y444D03*
G54D12*
X1456Y344D03*
G54D11*
X1456Y244D03*
X1456Y144D03*
G54D13*
X756Y1545D03*
X756Y1145D03*
G54D11*
X1956Y1795D03*
G54D12*
X2056Y1795D03*
G54D11*
X2156Y1795D03*
X2256Y1795D03*
X1956Y2045D03*
G54D12*
X2056Y2045D03*
G54D11*
X2156Y2045D03*
X2256Y2045D03*
X2256Y1395D03*
G54D12*
X2156Y1395D03*
G54D11*
X2056Y1395D03*
X1956Y1395D03*
X1706Y1944D03*
G54D12*
X1606Y1944D03*
G54D11*
X1506Y1944D03*
X1406Y1944D03*
X1706Y1644D03*
G54D12*
X1606Y1644D03*
G54D11*
X1506Y1644D03*
X1406Y1644D03*
X1706Y2244D03*
G54D12*
X1606Y2244D03*
G54D11*
X1506Y2244D03*
X1406Y2244D03*
X2256Y1195D03*
G54D12*
X2156Y1195D03*
G54D11*
X2056Y1195D03*
X1956Y1195D03*
X1456Y1445D03*
G54D12*
X1456Y1345D03*
G54D11*
X1456Y1245D03*
X1456Y1145D03*
G54D14*
X356Y2045D03*
X356Y1945D03*
X356Y1845D03*
X356Y1745D03*
X356Y1645D03*
X356Y1545D03*
X356Y1445D03*
X356Y1345D03*
X1256Y1345D03*
X1256Y1445D03*
X1256Y1545D03*
X1256Y1645D03*
X1256Y1745D03*
X1256Y1845D03*
X1256Y1945D03*
X1256Y2045D03*
G54D11*
X2256Y895D03*
X2156Y895D03*
X2056Y895D03*
X1956Y895D03*
X1856Y895D03*
G54D15*
X1156Y795D03*
G54D16*
X1456Y444D03*
G54D17*
X2056Y1795D03*
X2056Y2045D03*
X2155Y1395D03*
X1606Y1944D03*
X1606Y1644D03*
X1606Y2244D03*
X2155Y1195D03*
G54D16*
X1456Y1445D03*
G54D18*
X1256Y1445D03*
G54D19*
X2056Y895D03*
G04 End of Mask0*
M02*