; NON-PLATED HOLES START AT T1
; THROUGH (PLATED) HOLES START AT T100
M48
INCH
T1C0.125984
T100C0.040992
T101C0.035000
T102C0.038000
T103C0.034722
T104C0.037500
T105C0.015748
%
T1
X012192Y005399
X003834Y020093
X012271Y020158
T100
X021053Y016477
X015053Y010477
X016556Y019469
X021053Y019477
X022053Y009477
X016556Y013469
X022053Y011477
X016556Y016469
T101
X008053Y008477
X008053Y012477
T102
X020053Y005977
X021053Y011477
X015556Y019469
X014556Y019469
X015053Y011477
X015556Y016469
X022053Y019477
X014556Y016469
X015556Y013469
X022053Y016477
X014556Y013469
X021053Y009477
X019053Y005977
X015053Y009477
X022053Y005977
X021053Y005977
X023053Y011477
X017556Y019469
X017556Y016469
X020053Y011477
X023053Y019477
X017556Y013469
X023053Y016477
X023053Y009477
X020053Y019477
X015053Y008477
X020053Y016477
X020053Y009477
X023053Y005977
T103
X003556Y016469
X003556Y014469
X003556Y017469
X003556Y015469
X003556Y013469
T104
X003556Y011469
X012570Y016469
X012570Y010469
X003556Y012469
X012570Y017469
X012570Y011469
X012570Y012469
X012570Y013469
X012570Y014469
X003556Y010469
X012570Y015469
T105
X011056Y004469
T00
M30
