G04 MADE WITH FRITZING*
G04 WWW.FRITZING.ORG*
G04 DOUBLE SIDED*
G04 HOLES PLATED*
G04 CONTOUR ON CENTER OF CONTOUR VECTOR*
%ASAXBY*%
%FSLAX23Y23*%
%MOIN*%
%OFA0B0*%
%SFA1.0B1.0*%
%ADD10C,0.077770*%
%ADD11C,0.075000*%
%ADD12C,0.078000*%
%ADD13C,0.084141*%
%ADD14C,0.039370*%
%ADD15R,0.084375X0.084375*%
%ADD16R,0.083333X0.083333*%
%ADD17R,0.078000X0.078000*%
%ADD18C,0.024000*%
%LNCOPPER1*%
G90*
G70*
G54D10*
X1305Y1745D03*
X208Y1945D03*
X208Y1845D03*
X208Y1745D03*
X208Y1645D03*
X208Y1545D03*
X1305Y1845D03*
X1305Y1945D03*
X1305Y1645D03*
X208Y1445D03*
X208Y1345D03*
X208Y1246D03*
X208Y1146D03*
X208Y1046D03*
X208Y946D03*
X208Y846D03*
X208Y746D03*
X208Y647D03*
X208Y547D03*
X1305Y1246D03*
X1305Y1146D03*
X1305Y1046D03*
X1305Y946D03*
X1305Y846D03*
X1305Y746D03*
X1305Y647D03*
X1305Y547D03*
X1305Y1545D03*
X1305Y1445D03*
X1305Y1345D03*
G54D11*
X1455Y946D03*
X1455Y546D03*
G54D12*
X2055Y1647D03*
G54D13*
X2155Y1647D03*
G54D12*
X2255Y1647D03*
X2355Y1647D03*
X2055Y1947D03*
G54D13*
X2155Y1947D03*
G54D12*
X2255Y1947D03*
X2355Y1947D03*
X2355Y1147D03*
G54D13*
X2255Y1147D03*
G54D12*
X2155Y1147D03*
X2055Y1147D03*
X1805Y1646D03*
G54D13*
X1705Y1646D03*
G54D12*
X1605Y1646D03*
X1505Y1646D03*
X1806Y1494D03*
G54D13*
X1706Y1494D03*
G54D12*
X1606Y1494D03*
X1506Y1494D03*
X1805Y1946D03*
G54D13*
X1705Y1946D03*
G54D12*
X1605Y1946D03*
X1505Y1946D03*
X2355Y947D03*
G54D13*
X2255Y947D03*
G54D12*
X2155Y947D03*
X2055Y947D03*
X1605Y1146D03*
G54D13*
X1605Y1046D03*
G54D12*
X1605Y946D03*
X1605Y846D03*
X2355Y597D03*
X2255Y597D03*
X2155Y597D03*
X2055Y597D03*
X1955Y597D03*
G54D14*
X1205Y447D03*
G54D15*
X2155Y1647D03*
X2155Y1947D03*
X2254Y1146D03*
X1705Y1646D03*
X1706Y1494D03*
X1705Y1946D03*
X2254Y946D03*
G54D16*
X1605Y1146D03*
G54D17*
X2155Y597D03*
G54D18*
X1856Y695D02*
X1856Y497D01*
D02*
X1904Y695D02*
X1856Y695D01*
D02*
X1335Y1745D02*
X1904Y1746D01*
D02*
X1904Y1746D02*
X1904Y695D01*
D02*
X1335Y1845D02*
X1957Y1845D01*
D02*
X1957Y1845D02*
X1955Y627D01*
D02*
X1856Y497D02*
X2055Y497D01*
D02*
X2055Y497D02*
X2055Y567D01*
D02*
X2054Y1547D02*
X2355Y1547D01*
D02*
X2355Y1547D02*
X2355Y1617D01*
D02*
X2055Y1177D02*
X2054Y1547D01*
G04 End of Copper1*
M02*