G04 MADE WITH FRITZING*
G04 WWW.FRITZING.ORG*
G04 DOUBLE SIDED*
G04 HOLES PLATED*
G04 CONTOUR ON CENTER OF CONTOUR VECTOR*
%ASAXBY*%
%FSLAX23Y23*%
%MOIN*%
%OFA0B0*%
%SFA1.0B1.0*%
%ADD10C,0.077770*%
%ADD11C,0.075000*%
%ADD12C,0.078000*%
%ADD13C,0.084141*%
%ADD14C,0.039370*%
%ADD15R,0.084375X0.084375*%
%ADD16R,0.083333X0.083333*%
%ADD17R,0.078000X0.078000*%
%ADD18C,0.024000*%
%LNCOPPER0*%
G90*
G70*
G54D10*
X1305Y1745D03*
X208Y1945D03*
X208Y1845D03*
X208Y1745D03*
X208Y1645D03*
X208Y1545D03*
X1305Y1845D03*
X1305Y1945D03*
X1305Y1645D03*
X208Y1445D03*
X208Y1345D03*
X208Y1246D03*
X208Y1146D03*
X208Y1046D03*
X208Y946D03*
X208Y846D03*
X208Y746D03*
X208Y647D03*
X208Y547D03*
X1305Y1246D03*
X1305Y1146D03*
X1305Y1046D03*
X1305Y946D03*
X1305Y846D03*
X1305Y746D03*
X1305Y647D03*
X1305Y547D03*
X1305Y1545D03*
X1305Y1445D03*
X1305Y1345D03*
G54D11*
X1455Y946D03*
X1455Y546D03*
G54D12*
X2055Y1647D03*
G54D13*
X2155Y1647D03*
G54D12*
X2255Y1647D03*
X2355Y1647D03*
X2055Y1947D03*
G54D13*
X2155Y1947D03*
G54D12*
X2255Y1947D03*
X2355Y1947D03*
X2355Y1147D03*
G54D13*
X2255Y1147D03*
G54D12*
X2155Y1147D03*
X2055Y1147D03*
X1805Y1646D03*
G54D13*
X1705Y1646D03*
G54D12*
X1605Y1646D03*
X1505Y1646D03*
X1806Y1494D03*
G54D13*
X1706Y1494D03*
G54D12*
X1606Y1494D03*
X1506Y1494D03*
X1805Y1946D03*
G54D13*
X1705Y1946D03*
G54D12*
X1605Y1946D03*
X1505Y1946D03*
X2355Y947D03*
G54D13*
X2255Y947D03*
G54D12*
X2155Y947D03*
X2055Y947D03*
X1605Y1146D03*
G54D13*
X1605Y1046D03*
G54D12*
X1605Y946D03*
X1605Y846D03*
X2355Y597D03*
X2255Y597D03*
X2155Y597D03*
X2055Y597D03*
X1955Y597D03*
G54D14*
X1205Y447D03*
G54D15*
X2155Y1647D03*
X2155Y1947D03*
X2254Y1146D03*
X1705Y1646D03*
X1706Y1494D03*
X1705Y1946D03*
X2254Y946D03*
G54D16*
X1605Y1146D03*
G54D17*
X2155Y597D03*
G54D18*
X1206Y647D02*
X1275Y647D01*
D02*
X1205Y466D02*
X1206Y647D01*
D02*
X1484Y946D02*
X1575Y946D01*
D02*
X1455Y1044D02*
X1335Y1046D01*
D02*
X1455Y975D02*
X1455Y1044D01*
D02*
X1606Y544D02*
X1484Y546D01*
D02*
X1605Y816D02*
X1606Y544D01*
D02*
X1427Y546D02*
X1335Y547D01*
D02*
X1604Y1396D02*
X1606Y1464D01*
D02*
X1406Y1543D02*
X1406Y1396D01*
D02*
X1406Y1396D02*
X1604Y1396D01*
D02*
X1335Y1545D02*
X1406Y1543D01*
D02*
X1335Y1645D02*
X1475Y1646D01*
D02*
X1575Y1146D02*
X1404Y1147D01*
D02*
X1404Y1147D02*
X1404Y1346D01*
D02*
X1404Y1346D02*
X1335Y1345D01*
D02*
X2257Y397D02*
X305Y397D01*
D02*
X305Y397D02*
X305Y1746D01*
D02*
X2255Y567D02*
X2257Y397D01*
D02*
X305Y1746D02*
X238Y1745D01*
D02*
X1705Y1614D02*
X1706Y1526D01*
D02*
X1805Y1616D02*
X1806Y1524D01*
D02*
X1605Y1616D02*
X1606Y1524D01*
D02*
X1505Y1616D02*
X1506Y1524D01*
D02*
X1505Y1916D02*
X1505Y1676D01*
D02*
X1605Y1916D02*
X1605Y1676D01*
D02*
X1705Y1914D02*
X1705Y1677D01*
D02*
X1805Y1916D02*
X1805Y1676D01*
D02*
X2154Y2046D02*
X1706Y2047D01*
D02*
X1706Y2047D02*
X1705Y1978D01*
D02*
X2155Y1978D02*
X2154Y2046D01*
D02*
X1604Y2098D02*
X1605Y1976D01*
D02*
X2256Y2098D02*
X1604Y2098D01*
D02*
X2255Y1977D02*
X2256Y2098D01*
D02*
X2155Y1678D02*
X2155Y1915D01*
D02*
X1505Y2146D02*
X1505Y1976D01*
D02*
X2355Y2146D02*
X1505Y2146D01*
D02*
X2355Y1977D02*
X2355Y2146D01*
D02*
X2055Y1677D02*
X2055Y1917D01*
D02*
X1835Y1946D02*
X2025Y1947D01*
D02*
X2255Y1677D02*
X2255Y1917D01*
D02*
X2355Y1677D02*
X2355Y1917D01*
D02*
X2154Y1547D02*
X2255Y1547D01*
D02*
X2255Y1547D02*
X2255Y1617D01*
D02*
X2155Y1177D02*
X2154Y1547D01*
D02*
X1705Y1147D02*
X1635Y1146D01*
D02*
X1706Y1463D02*
X1705Y1147D01*
D02*
X1805Y845D02*
X1635Y846D01*
D02*
X1806Y1464D02*
X1805Y845D01*
D02*
X2355Y1117D02*
X2355Y977D01*
D02*
X2255Y1115D02*
X2255Y978D01*
D02*
X2155Y977D02*
X2155Y1117D01*
D02*
X2055Y977D02*
X2055Y1117D01*
D02*
X2256Y746D02*
X2153Y746D01*
D02*
X2153Y746D02*
X2155Y627D01*
D02*
X2255Y915D02*
X2256Y746D01*
D02*
X2355Y917D02*
X2355Y695D01*
D02*
X2355Y695D02*
X2256Y695D01*
D02*
X2256Y695D02*
X2255Y627D01*
D02*
X1224Y447D02*
X2153Y446D01*
D02*
X2153Y446D02*
X2155Y567D01*
G04 End of Copper0*
M02*