; NON-PLATED HOLES START AT T1
; THROUGH (PLATED) HOLES START AT T100
M48
INCH
T100C0.040992
T101C0.037888
T102C0.015748
T103C0.038000
T104C0.035000
%
T100
X021548Y019466
X016052Y010458
X022548Y009466
X017060Y014943
X017052Y016459
X022548Y011466
X017052Y019458
X021548Y016466
T101
X013052Y010458
X002075Y011457
X002075Y018446
X013052Y017448
X013052Y015451
X002075Y005466
X013052Y009460
X013052Y012455
X002075Y013454
X013052Y019445
X013052Y006465
X002075Y007463
X002075Y010458
X013052Y016449
X002075Y017448
X013052Y014452
X002075Y015451
X013052Y008461
X002075Y009460
X013052Y011457
X002075Y012455
X013052Y018446
X002075Y019445
X013052Y005466
X002075Y006465
X002075Y016449
X013052Y013454
X002075Y014452
X013052Y007463
X002075Y008461
T102
X012048Y004466
T103
X023548Y011466
X018052Y019458
X021548Y011466
X016052Y008458
X020548Y011466
X023548Y019466
X018060Y014943
X018052Y016459
X015052Y019458
X023548Y016466
X016060Y014943
X023548Y009466
X020548Y019466
X015060Y014943
X015052Y016459
X021548Y009466
X020548Y016466
X020548Y009466
X023548Y005966
X021548Y005966
X020548Y005966
X016052Y011458
X016052Y019458
X022548Y019466
X016052Y016459
X022548Y016466
X016052Y009458
X019548Y005966
X022548Y005966
T104
X014552Y005458
X014552Y009458
T00
M30
