; NON-PLATED HOLES START AT T1
; THROUGH (PLATED) HOLES START AT T100
M48
INCH
T1C0.125984
T100C0.040992
T101C0.039370
T102C0.038000
T103C0.015748
T104C0.036111
T105C0.035000
%
T1
X003556Y006469
X012556Y006469
T100
X021556Y013969
X016059Y022462
X016059Y019462
X014556Y013469
X020556Y017969
X020556Y020469
X021556Y011969
X016059Y016462
X014561Y003461
T101
X010561Y001461
X011561Y001461
X009561Y001461
X003561Y001461
X004561Y001461
X012561Y001461
X005561Y001461
X006561Y001461
X007561Y001461
X008561Y001461
T102
X022556Y013969
X017059Y022462
X021556Y017969
X014059Y022462
X019556Y020469
X014561Y002461
X022556Y020469
X015059Y019462
X019556Y008969
X020556Y011969
X022556Y008969
X014556Y012469
X015059Y016462
X014561Y004461
X019556Y017969
X022556Y017969
X020556Y013969
X014556Y014469
X014561Y001461
X014556Y011469
X015059Y022462
X019556Y011969
X017059Y019462
X022556Y011969
X017059Y016462
X021556Y020469
X014059Y019462
X018556Y008969
X021556Y008969
X014059Y016462
X020556Y008969
X019556Y013969
T103
X011556Y007969
T104
X003556Y018469
X012556Y019469
X012556Y013469
X003556Y019469
X003556Y013469
X012556Y014469
X003556Y014469
X012556Y015469
X003556Y015469
X012556Y016469
X012556Y020469
X003556Y016469
X012556Y017469
X003556Y020469
X003556Y017469
X012556Y018469
T105
X007556Y015469
X007556Y011469
T00
M30
