; NON-PLATED HOLES START AT T1
; THROUGH (PLATED) HOLES START AT T100
M48
INCH
T100C0.037500
T101C0.034722
T102C0.035000
T103C0.015748
T104C0.038000
T105C0.040992
%
T100
X012570Y010451
X003556Y011451
X003556Y012451
X003556Y010451
X012570Y017451
X012570Y016451
X012570Y012451
X012570Y015451
X012570Y011451
X012570Y013451
X012570Y014451
T101
X003556Y014451
X003556Y013451
X003556Y016451
X003556Y017451
X003556Y015451
T102
X008053Y012459
X008053Y008459
T103
X011056Y004451
T104
X014556Y019451
X020053Y009459
X015053Y011459
X023053Y009459
X017556Y013451
X014556Y016451
X020053Y005959
X015053Y009459
X015556Y013451
X017556Y016451
X022053Y016459
X020053Y011459
X023053Y005959
X015556Y016451
X017556Y019451
X020053Y016459
X023053Y019459
X019053Y005959
X020053Y019459
X023053Y016459
X021053Y005959
X022053Y005959
X022053Y019459
X015053Y008459
X014556Y013451
X021053Y009459
X015556Y019451
X023053Y011459
X021053Y011459
T105
X022053Y011459
X021053Y016459
X022053Y009459
X016556Y016451
X016556Y019451
X016556Y013451
X015053Y010459
X021053Y019459
T00
M30
