G04 MADE WITH FRITZING*
G04 WWW.FRITZING.ORG*
G04 DOUBLE SIDED*
G04 HOLES PLATED*
G04 CONTOUR ON CENTER OF CONTOUR VECTOR*
%ASAXBY*%
%FSLAX23Y23*%
%MOIN*%
%OFA0B0*%
%SFA1.0B1.0*%
%ADD10C,0.075000*%
%ADD11C,0.078000*%
%ADD12C,0.084141*%
%ADD13C,0.039370*%
%ADD14C,0.076389*%
%ADD15C,0.079166*%
%ADD16R,0.084375X0.084375*%
%ADD17R,0.083333X0.083333*%
%ADD18R,0.078000X0.078000*%
%ADD19C,0.024000*%
%LNCOPPER0*%
G90*
G70*
G54D10*
X805Y1246D03*
X805Y846D03*
G54D11*
X2005Y1646D03*
G54D12*
X2105Y1646D03*
G54D11*
X2205Y1646D03*
X2305Y1646D03*
X2005Y1946D03*
G54D12*
X2105Y1946D03*
G54D11*
X2205Y1946D03*
X2305Y1946D03*
X2305Y1146D03*
G54D12*
X2205Y1146D03*
G54D11*
X2105Y1146D03*
X2005Y1146D03*
X1756Y1645D03*
G54D12*
X1656Y1645D03*
G54D11*
X1556Y1645D03*
X1456Y1645D03*
X1756Y1345D03*
G54D12*
X1656Y1345D03*
G54D11*
X1556Y1345D03*
X1456Y1345D03*
X1756Y1945D03*
G54D12*
X1656Y1945D03*
G54D11*
X1556Y1945D03*
X1456Y1945D03*
X2305Y946D03*
G54D12*
X2205Y946D03*
G54D11*
X2105Y946D03*
X2005Y946D03*
X1505Y1146D03*
G54D12*
X1505Y1046D03*
G54D11*
X1505Y946D03*
X1505Y846D03*
X2305Y596D03*
X2205Y596D03*
X2105Y596D03*
X2005Y596D03*
X1905Y596D03*
G54D13*
X1106Y445D03*
G54D14*
X356Y1745D03*
X356Y1645D03*
X356Y1545D03*
X356Y1445D03*
X356Y1345D03*
G54D15*
X356Y1245D03*
X356Y1145D03*
X356Y1045D03*
X1257Y1045D03*
X1257Y1145D03*
X1257Y1245D03*
X1257Y1345D03*
X1257Y1445D03*
X1257Y1545D03*
X1257Y1645D03*
X1257Y1745D03*
G54D16*
X2106Y1646D03*
X2106Y1946D03*
X2205Y1146D03*
X1655Y1645D03*
X1655Y1345D03*
X1655Y1945D03*
X2205Y946D03*
G54D17*
X1506Y1146D03*
G54D18*
X2105Y596D03*
G54D19*
X1656Y1614D02*
X1656Y1377D01*
D02*
X1756Y1615D02*
X1756Y1375D01*
D02*
X1556Y1615D02*
X1556Y1375D01*
D02*
X1456Y1615D02*
X1456Y1375D01*
D02*
X1456Y1915D02*
X1456Y1675D01*
D02*
X1556Y1915D02*
X1556Y1675D01*
D02*
X1656Y1914D02*
X1656Y1677D01*
D02*
X1756Y1915D02*
X1756Y1675D01*
D02*
X2105Y2045D02*
X1656Y2046D01*
D02*
X1656Y2046D02*
X1656Y1977D01*
D02*
X2105Y1978D02*
X2105Y2045D01*
D02*
X1554Y2097D02*
X1555Y1975D01*
D02*
X2206Y2097D02*
X1554Y2097D01*
D02*
X2205Y1976D02*
X2206Y2097D01*
D02*
X2105Y1678D02*
X2105Y1914D01*
D02*
X1455Y2145D02*
X1456Y1975D01*
D02*
X2305Y2145D02*
X1455Y2145D01*
D02*
X2305Y1976D02*
X2305Y2145D01*
D02*
X2005Y1676D02*
X2005Y1916D01*
D02*
X1786Y1945D02*
X1975Y1946D01*
D02*
X2205Y1676D02*
X2205Y1916D01*
D02*
X2305Y1676D02*
X2305Y1916D01*
D02*
X2105Y1546D02*
X2205Y1546D01*
D02*
X2205Y1546D02*
X2205Y1616D01*
D02*
X2105Y1176D02*
X2105Y1546D01*
D02*
X905Y946D02*
X905Y1247D01*
D02*
X905Y1247D02*
X834Y1246D01*
D02*
X1475Y946D02*
X905Y946D01*
D02*
X1475Y846D02*
X834Y846D01*
D02*
X1655Y1146D02*
X1535Y1146D01*
D02*
X1656Y1314D02*
X1655Y1146D01*
D02*
X1756Y845D02*
X1535Y846D01*
D02*
X1756Y1315D02*
X1756Y845D01*
D02*
X2305Y1116D02*
X2305Y976D01*
D02*
X2205Y1114D02*
X2205Y978D01*
D02*
X2105Y976D02*
X2105Y1116D01*
D02*
X2005Y976D02*
X2005Y1116D01*
D02*
X2206Y746D02*
X2104Y746D01*
D02*
X2104Y746D02*
X2105Y626D01*
D02*
X2205Y914D02*
X2206Y746D01*
D02*
X2305Y916D02*
X2305Y694D01*
D02*
X2305Y694D02*
X2206Y694D01*
D02*
X2206Y694D02*
X2206Y626D01*
D02*
X1125Y445D02*
X2104Y445D01*
D02*
X2104Y445D02*
X2105Y566D01*
D02*
X1475Y1146D02*
X1287Y1145D01*
D02*
X1554Y1244D02*
X1287Y1245D01*
D02*
X1555Y1315D02*
X1554Y1244D01*
D02*
X1426Y1345D02*
X1287Y1345D01*
D02*
X777Y1246D02*
X386Y1245D01*
D02*
X777Y846D02*
X507Y846D01*
D02*
X507Y846D02*
X507Y1045D01*
D02*
X507Y1045D02*
X386Y1045D01*
G04 End of Copper0*
M02*