G04 MADE WITH FRITZING*
G04 WWW.FRITZING.ORG*
G04 DOUBLE SIDED*
G04 HOLES PLATED*
G04 CONTOUR ON CENTER OF CONTOUR VECTOR*
%ASAXBY*%
%FSLAX23Y23*%
%MOIN*%
%OFA0B0*%
%SFA1.0B1.0*%
%ADD10C,0.075000*%
%ADD11C,0.078000*%
%ADD12C,0.084141*%
%ADD13C,0.039370*%
%ADD14C,0.076389*%
%ADD15C,0.079166*%
%ADD16R,0.084375X0.084375*%
%ADD17R,0.083333X0.083333*%
%ADD18R,0.078000X0.078000*%
%ADD19C,0.024000*%
%LNCOPPER1*%
G90*
G70*
G54D10*
X805Y1246D03*
X805Y846D03*
G54D11*
X2005Y1646D03*
G54D12*
X2105Y1646D03*
G54D11*
X2205Y1646D03*
X2305Y1646D03*
X2005Y1946D03*
G54D12*
X2105Y1946D03*
G54D11*
X2205Y1946D03*
X2305Y1946D03*
X2305Y1146D03*
G54D12*
X2205Y1146D03*
G54D11*
X2105Y1146D03*
X2005Y1146D03*
X1756Y1645D03*
G54D12*
X1656Y1645D03*
G54D11*
X1556Y1645D03*
X1456Y1645D03*
X1756Y1345D03*
G54D12*
X1656Y1345D03*
G54D11*
X1556Y1345D03*
X1456Y1345D03*
X1756Y1945D03*
G54D12*
X1656Y1945D03*
G54D11*
X1556Y1945D03*
X1456Y1945D03*
X2305Y946D03*
G54D12*
X2205Y946D03*
G54D11*
X2105Y946D03*
X2005Y946D03*
X1505Y1146D03*
G54D12*
X1505Y1046D03*
G54D11*
X1505Y946D03*
X1505Y846D03*
X2305Y596D03*
X2205Y596D03*
X2105Y596D03*
X2005Y596D03*
X1905Y596D03*
G54D13*
X1106Y445D03*
G54D14*
X356Y1745D03*
X356Y1645D03*
X356Y1545D03*
X356Y1445D03*
X356Y1345D03*
G54D15*
X356Y1245D03*
X356Y1145D03*
X356Y1045D03*
X1257Y1045D03*
X1257Y1145D03*
X1257Y1245D03*
X1257Y1345D03*
X1257Y1445D03*
X1257Y1545D03*
X1257Y1645D03*
X1257Y1745D03*
G54D16*
X2106Y1646D03*
X2106Y1946D03*
X2205Y1146D03*
X1655Y1645D03*
X1655Y1345D03*
X1655Y1945D03*
X2205Y946D03*
G54D17*
X1506Y1146D03*
G54D18*
X2105Y596D03*
G54D19*
X2004Y1546D02*
X2305Y1546D01*
D02*
X2305Y1546D02*
X2305Y1616D01*
D02*
X2005Y1176D02*
X2004Y1546D01*
D02*
X1905Y626D02*
X1905Y1547D01*
D02*
X1905Y1547D02*
X1287Y1545D01*
D02*
X1805Y496D02*
X1805Y747D01*
D02*
X1805Y747D02*
X1857Y747D01*
D02*
X2004Y496D02*
X1805Y496D01*
D02*
X2005Y566D02*
X2004Y496D01*
D02*
X1857Y747D02*
X1857Y1444D01*
D02*
X1857Y1444D02*
X1287Y1445D01*
D02*
X1105Y1145D02*
X1227Y1145D01*
D02*
X1106Y464D02*
X1105Y1145D01*
D02*
X1355Y396D02*
X1355Y1045D01*
D02*
X2206Y566D02*
X2207Y396D01*
D02*
X2207Y396D02*
X1355Y396D01*
D02*
X1355Y1045D02*
X1287Y1045D01*
G04 End of Copper1*
M02*