<?xml version='1.0' encoding='UTF-8' standalone='no'?>
<!-- Created with Fritzing (http://www.fritzing.org/) -->
<svg xmlns="http://www.w3.org/2000/svg" width="2.54678in" version="1.2"  height="2.75372in" xmlns:svg="http://www.w3.org/2000/svg" x="0in" y="0in" viewBox="0 0 183.368 198.268" baseProfile="tiny">
 <g transform="matrix(-1, 0, 0, 1, 183.368, 0)">
  <g partID="125450">
   <g transform="matrix(1, 0, 0, 1, -7.99992, -0.499919)">
    <g id="board">
     <g fill-opacity="1" stroke="black" fill="none" stroke-width="0.5">
      <path fill-opacity="1" stroke="black" class="st0" d="M180.67,0.499919L18.6982,0.499919c-5.89905,0,-10.6983,4.79922,-10.6983,10.6983l0,176.871c0,5.89904,4.79923,10.6983,10.6983,10.6983L180.67,198.768c5.89905,0,10.6983,-4.79922,10.6983,-10.6983l0,-176.971c0,-5.89904,-4.79923,-10.5983,-10.6983,-10.5983zM14.7976,36.4941c-2.69957,0,-4.9992,-2.19964,-4.9992,-4.99919,0,-2.69956,2.19965,-4.99919,4.9992,-4.99919,2.79955,0,4.9992,2.19964,4.9992,4.99919,0,2.79955,-2.19965,4.99919,-4.9992,4.99919zM130.979,192.269c-2.69957,0,-4.9992,-2.19964,-4.9992,-4.99919,0,-2.79955,2.19965,-4.99919,4.9992,-4.99919,2.79955,0,4.9992,2.19964,4.9992,4.99919,0,2.79955,-2.19965,4.99919,-4.9992,4.99919zM184.57,36.4941c-2.69957,0,-4.9992,-2.19964,-4.9992,-4.99919,0,-2.69956,2.19965,-4.99919,4.9992,-4.99919,2.79955,0,4.9992,2.19964,4.9992,4.99919,0,2.79955,-2.19965,4.99919,-4.9992,4.99919z" id="boardoutline" fill="none" stroke-width="0.5"/>
     </g>
    </g>
   </g>
  </g>
  <g partID="854419360">
   <g transform="translate(111.287,43.0977)">
    <g id="copper1" >
     <rect width="5.44" fill-opacity="1" stroke="none" id="connector0pad"  height="5.44" x="1.6" y="1.6" fill="black" stroke-width="0"/>
     <g width="5.44" stroke="none" id="connector0terminal"  height="5.44" x="1.6" y="1.6" fill="none" stroke-width="0"/>
    </g>
   </g>
  </g>
  <g partID="854420852">
   <g transform="translate(18.8923,45.8166)">
    <g transform="matrix(1, 0, 0, 1, 53.104, 4.304)">
     <g id="copper1">
      <g transform="matrix(0.997054, 0, 0, 0.998472, -5.48398, 10.1258)">
       <g>
        <g gorn="0.1.0.0.0.0.3.0.0.0.0.0">
         <circle r="1.2672" stroke="black" id="connector2pad" cx="20.1632" cy="16.0288" gorn="0.1.0.0.0.0.3.0.0.0.0.0.0" fill="none" stroke-width="0.9216"/>
         <circle r="1.2672" stroke="black" id="connector42pin" cx="-44.6368" cy="1.6288" gorn="0.1.0.0.0.0.3.0.0.0.0.0.1" fill="none" stroke-width="0.9216"/>
         <circle r="1.2672" stroke="black" id="connector41pin" cx="-44.6368" cy="8.8288" gorn="0.1.0.0.0.0.3.0.0.0.0.0.2" fill="none" stroke-width="0.9216"/>
         <circle r="1.2672" stroke="black" id="connector40pin" cx="-44.6368" cy="16.0288" gorn="0.1.0.0.0.0.3.0.0.0.0.0.3" fill="none" stroke-width="0.9216"/>
         <circle r="1.2672" stroke="black" id="connector39pin" cx="-44.6368" cy="23.2288" gorn="0.1.0.0.0.0.3.0.0.0.0.0.4" fill="none" stroke-width="0.9216"/>
         <circle r="1.2672" stroke="black" id="connector38pin" cx="-44.6368" cy="30.4288" gorn="0.1.0.0.0.0.3.0.0.0.0.0.5" fill="none" stroke-width="0.9216"/>
         <circle r="1.2672" stroke="black" id="connector1pad" cx="20.1632" cy="8.8288" gorn="0.1.0.0.0.0.3.0.0.0.0.0.6" fill="none" stroke-width="0.9216"/>
         <circle r="1.2672" stroke="black" id="connector0pad" cx="20.1632" cy="1.6288" gorn="0.1.0.0.0.0.3.0.0.0.0.0.7" fill="none" stroke-width="0.9216"/>
         <circle r="1.2672" stroke="black" id="connector3pad" cx="20.1632" cy="23.2288" gorn="0.1.0.0.0.0.3.0.0.0.0.0.8" fill="none" stroke-width="0.9216"/>
         <circle r="1.2672" stroke="black" id="connector37pin" cx="-44.6368" cy="37.6288" gorn="0.1.0.0.0.0.3.0.0.0.0.0.9" fill="none" stroke-width="0.9216"/>
         <circle r="1.2672" stroke="black" id="connector36pin" cx="-44.6368" cy="44.8288" gorn="0.1.0.0.0.0.3.0.0.0.0.0.10" fill="none" stroke-width="0.9216"/>
         <circle r="1.2672" stroke="black" id="connector35pin" cx="-44.6368" cy="52.0288" gorn="0.1.0.0.0.0.3.0.0.0.0.0.11" fill="none" stroke-width="0.9216"/>
         <circle r="1.2672" stroke="black" id="connector34pin" cx="-44.6368" cy="59.2288" gorn="0.1.0.0.0.0.3.0.0.0.0.0.12" fill="none" stroke-width="0.9216"/>
         <circle r="1.2672" stroke="black" id="connector33pin" cx="-44.6368" cy="66.4288" gorn="0.1.0.0.0.0.3.0.0.0.0.0.13" fill="none" stroke-width="0.9216"/>
         <circle r="1.2672" stroke="black" id="connector19pad" cx="-44.6368" cy="73.6288" gorn="0.1.0.0.0.0.3.0.0.0.0.0.14" fill="none" stroke-width="0.9216"/>
         <circle r="1.2672" stroke="black" id="connector18pad" cx="-44.6368" cy="80.8288" gorn="0.1.0.0.0.0.3.0.0.0.0.0.15" fill="none" stroke-width="0.9216"/>
         <circle r="1.2672" stroke="black" id="connector17pad" cx="-44.6368" cy="88.0288" gorn="0.1.0.0.0.0.3.0.0.0.0.0.16" fill="none" stroke-width="0.9216"/>
         <circle r="1.2672" stroke="black" id="connector16pad" cx="-44.6368" cy="95.2288" gorn="0.1.0.0.0.0.3.0.0.0.0.0.17" fill="none" stroke-width="0.9216"/>
         <circle r="1.2672" stroke="black" id="connector15pad" cx="-44.6368" cy="102.429" gorn="0.1.0.0.0.0.3.0.0.0.0.0.18" fill="none" stroke-width="0.9216"/>
         <circle r="1.2672" stroke="black" id="connector7pad" cx="20.1632" cy="52.0288" gorn="0.1.0.0.0.0.3.0.0.0.0.0.19" fill="none" stroke-width="0.9216"/>
         <circle r="1.2672" stroke="black" id="connector8pad" cx="20.1632" cy="59.2288" gorn="0.1.0.0.0.0.3.0.0.0.0.0.20" fill="none" stroke-width="0.9216"/>
         <circle r="1.2672" stroke="black" id="connector9pad" cx="20.1632" cy="66.4288" gorn="0.1.0.0.0.0.3.0.0.0.0.0.21" fill="none" stroke-width="0.9216"/>
         <circle r="1.2672" stroke="black" id="connector10pad" cx="20.1632" cy="73.6288" gorn="0.1.0.0.0.0.3.0.0.0.0.0.22" fill="none" stroke-width="0.9216"/>
         <circle r="1.2672" stroke="black" id="connector11pad" cx="20.1632" cy="80.8288" gorn="0.1.0.0.0.0.3.0.0.0.0.0.23" fill="none" stroke-width="0.9216"/>
         <circle r="1.2672" stroke="black" id="connector12pad" cx="20.1632" cy="88.0288" gorn="0.1.0.0.0.0.3.0.0.0.0.0.24" fill="none" stroke-width="0.9216"/>
         <circle r="1.2672" stroke="black" id="connector13pad" cx="20.1632" cy="95.2288" gorn="0.1.0.0.0.0.3.0.0.0.0.0.25" fill="none" stroke-width="0.9216"/>
         <circle r="1.2672" stroke="black" id="connector14pad" cx="20.1632" cy="102.429" gorn="0.1.0.0.0.0.3.0.0.0.0.0.26" fill="none" stroke-width="0.9216"/>
         <circle r="1.2672" stroke="black" id="connector4pad" cx="20.1632" cy="30.4288" gorn="0.1.0.0.0.0.3.0.0.0.0.0.27" fill="none" stroke-width="0.9216"/>
         <circle r="1.2672" stroke="black" id="connector5pad" cx="20.1632" cy="37.6288" gorn="0.1.0.0.0.0.3.0.0.0.0.0.28" fill="none" stroke-width="0.9216"/>
         <circle r="1.2672" stroke="black" id="connector6pad" cx="20.1632" cy="44.8288" gorn="0.1.0.0.0.0.3.0.0.0.0.0.29" fill="none" stroke-width="0.9216"/>
        </g>
       </g>
      </g>
     </g>
    </g>
   </g>
  </g>
  <g partID="854399092">
   <g transform="translate(101.207,4.21766)">
    <g id="copper1"  gorn="0.3">
     <g id="copper0"  gorn="0.3.0">
      <circle r="1.96866" stroke="black" id="connector10pad" connectorname="AIN3"  cx="72" cy="43.2" gorn="0.3.0.0" stroke-width="1.10268" fill="none"/>
      <circle r="1.96866" stroke="black" id="connector11pad" connectorname="AIN2"  cx="64.8" cy="43.2" gorn="0.3.0.1" stroke-width="1.10268" fill="none"/>
      <circle r="1.96866" stroke="black" id="connector12pad" connectorname="AIN1"  cx="57.6" cy="43.2" gorn="0.3.0.2" stroke-width="1.10268" fill="none"/>
      <circle r="1.96866" stroke="black" id="connector13pad" connectorname="AIN0"  cx="50.4" cy="43.2" gorn="0.3.0.3" stroke-width="1.10268" fill="none"/>
      <circle r="1.96866" stroke="black" id="connector14pad" connectorname="ALERT"  cx="43.2" cy="43.2" gorn="0.3.0.4" stroke-width="1.10268" fill="none"/>
      <circle r="1.96866" stroke="black" id="connector15pad" connectorname="ADDR"  cx="36" cy="43.2" gorn="0.3.0.5" stroke-width="1.10268" fill="none"/>
      <circle r="1.96866" stroke="black" id="connector16pad" connectorname="SDA"  cx="28.8" cy="43.2" gorn="0.3.0.6" stroke-width="1.10268" fill="none"/>
      <circle r="1.96866" stroke="black" id="connector17pad" connectorname="SCL"  cx="21.6" cy="43.2" gorn="0.3.0.7" stroke-width="1.10268" fill="none"/>
      <circle r="1.96866" stroke="black" id="connector18pad" connectorname="GND"  cx="14.4" cy="43.2" gorn="0.3.0.8" stroke-width="1.10268" fill="none"/>
      <circle r="1.96866" stroke="black" id="connector19pad" connectorname="VDD"  cx="7.2" cy="43.2" gorn="0.3.0.9" stroke-width="1.10268" fill="none"/>
     </g>
    </g>
   </g>
  </g>
  <g partID="854401562">
   <g transform="translate(178.247,53.1777)">
    <g transform="matrix(0,1,-1,0,0,0)">
     <g id="copper1" >
      <g id="copper0" >
       <circle r="2.088" stroke="black" id="connector0pin"  cx="5.04" cy="5.04" fill="none" stroke-width="1.44"/>
       <circle r="2.088" stroke="black" id="connector1pin"  cx="5.04" cy="12.24" fill="none" stroke-width="1.44"/>
       <circle r="2.088" stroke="black" id="connector2pin"  cx="5.04" cy="19.44" fill="none" stroke-width="1.44"/>
       <circle r="2.088" stroke="black" id="connector3pin"  cx="5.04" cy="26.64" fill="none" stroke-width="1.44"/>
      </g>
     </g>
    </g>
   </g>
  </g>
  <g partID="220272">
   <g transform="translate(10.2229,28.4477)">
    <g transform="matrix(1, 0, 0, 1, 54.8272, 21.6984)">
     <g id="copper1">
      <g transform="matrix(0.997054, 0, 0, 0.998472, -5.48398, 10.1258)">
       <g>
        <g gorn="0.3.0.0.0.0.0.0.0.0.0.3.0.0.0.0.0.0.0.0.0.0">
         <circle r="2.08798" stroke="black" id="connector2pad" cx="34.6289" cy="16.0288" gorn="0.3.0.0.0.0.0.0.0.0.0.3.0.0.0.0.0.0.0.0.0.0.0" stroke-width="1.43999" fill="none"/>
         <circle r="2.08798" stroke="black" id="connector42pin" cx="-44.6368" cy="1.6288" gorn="0.3.0.0.0.0.0.0.0.0.0.3.0.0.0.0.0.0.0.0.0.0.1" stroke-width="1.43999" fill="none"/>
         <circle r="2.08798" stroke="black" id="connector41pin" cx="-44.6368" cy="8.8288" gorn="0.3.0.0.0.0.0.0.0.0.0.3.0.0.0.0.0.0.0.0.0.0.2" stroke-width="1.43999" fill="none"/>
         <circle r="2.08798" stroke="black" id="connector40pin" cx="-44.6368" cy="16.0288" gorn="0.3.0.0.0.0.0.0.0.0.0.3.0.0.0.0.0.0.0.0.0.0.3" stroke-width="1.43999" fill="none"/>
         <circle r="2.08798" stroke="black" id="connector39pin" cx="-44.6368" cy="23.2288" gorn="0.3.0.0.0.0.0.0.0.0.0.3.0.0.0.0.0.0.0.0.0.0.4" stroke-width="1.43999" fill="none"/>
         <circle r="2.08798" stroke="black" id="connector38pin" cx="-44.6368" cy="30.4288" gorn="0.3.0.0.0.0.0.0.0.0.0.3.0.0.0.0.0.0.0.0.0.0.5" stroke-width="1.43999" fill="none"/>
         <circle r="2.08798" stroke="black" id="connector1pad" cx="34.6289" cy="8.8288" gorn="0.3.0.0.0.0.0.0.0.0.0.3.0.0.0.0.0.0.0.0.0.0.6" stroke-width="1.43999" fill="none"/>
         <circle r="2.08798" stroke="black" id="connector0pad" cx="34.6289" cy="1.6288" gorn="0.3.0.0.0.0.0.0.0.0.0.3.0.0.0.0.0.0.0.0.0.0.7" stroke-width="1.43999" fill="none"/>
         <circle r="2.08798" stroke="black" id="connector3pad" cx="34.6289" cy="23.2288" gorn="0.3.0.0.0.0.0.0.0.0.0.3.0.0.0.0.0.0.0.0.0.0.8" stroke-width="1.43999" fill="none"/>
         <circle r="2.08798" stroke="black" id="connector37pin" cx="-44.6368" cy="37.6288" gorn="0.3.0.0.0.0.0.0.0.0.0.3.0.0.0.0.0.0.0.0.0.0.9" stroke-width="1.43999" fill="none"/>
         <circle r="2.08798" stroke="black" id="connector36pin" cx="-44.6368" cy="44.8288" gorn="0.3.0.0.0.0.0.0.0.0.0.3.0.0.0.0.0.0.0.0.0.0.10" stroke-width="1.43999" fill="none"/>
         <circle r="2.08798" stroke="black" id="connector35pin" cx="-44.6368" cy="52.0288" gorn="0.3.0.0.0.0.0.0.0.0.0.3.0.0.0.0.0.0.0.0.0.0.11" stroke-width="1.43999" fill="none"/>
         <circle r="2.08798" stroke="black" id="connector34pin" cx="-44.6368" cy="59.2288" gorn="0.3.0.0.0.0.0.0.0.0.0.3.0.0.0.0.0.0.0.0.0.0.12" stroke-width="1.43999" fill="none"/>
         <circle r="2.08798" stroke="black" id="connector33pin" cx="-44.6368" cy="66.4288" gorn="0.3.0.0.0.0.0.0.0.0.0.3.0.0.0.0.0.0.0.0.0.0.13" stroke-width="1.43999" fill="none"/>
         <circle r="2.08798" stroke="black" id="connector19pad" cx="-44.6368" cy="73.6288" gorn="0.3.0.0.0.0.0.0.0.0.0.3.0.0.0.0.0.0.0.0.0.0.14" stroke-width="1.43999" fill="none"/>
         <circle r="2.08798" stroke="black" id="connector18pad" cx="-44.6368" cy="80.8288" gorn="0.3.0.0.0.0.0.0.0.0.0.3.0.0.0.0.0.0.0.0.0.0.15" stroke-width="1.43999" fill="none"/>
         <circle r="2.08798" stroke="black" id="connector17pad" cx="-44.6368" cy="88.0288" gorn="0.3.0.0.0.0.0.0.0.0.0.3.0.0.0.0.0.0.0.0.0.0.16" stroke-width="1.43999" fill="none"/>
         <circle r="2.08798" stroke="black" id="connector16pad" cx="-44.6368" cy="95.2288" gorn="0.3.0.0.0.0.0.0.0.0.0.3.0.0.0.0.0.0.0.0.0.0.17" stroke-width="1.43999" fill="none"/>
         <circle r="2.08798" stroke="black" id="connector15pad" cx="-44.6368" cy="102.429" gorn="0.3.0.0.0.0.0.0.0.0.0.3.0.0.0.0.0.0.0.0.0.0.18" stroke-width="1.43999" fill="none"/>
         <circle r="2.08798" stroke="black" id="connector7pad" cx="34.6289" cy="52.0288" gorn="0.3.0.0.0.0.0.0.0.0.0.3.0.0.0.0.0.0.0.0.0.0.19" stroke-width="1.43999" fill="none"/>
         <circle r="2.08798" stroke="black" id="connector8pad" cx="34.6289" cy="59.2288" gorn="0.3.0.0.0.0.0.0.0.0.0.3.0.0.0.0.0.0.0.0.0.0.20" stroke-width="1.43999" fill="none"/>
         <circle r="2.08798" stroke="black" id="connector9pad" cx="34.6289" cy="66.4288" gorn="0.3.0.0.0.0.0.0.0.0.0.3.0.0.0.0.0.0.0.0.0.0.21" stroke-width="1.43999" fill="none"/>
         <circle r="2.08798" stroke="black" id="connector10pad" cx="34.6289" cy="73.6288" gorn="0.3.0.0.0.0.0.0.0.0.0.3.0.0.0.0.0.0.0.0.0.0.22" stroke-width="1.43999" fill="none"/>
         <circle r="2.08798" stroke="black" id="connector11pad" cx="34.6289" cy="80.8288" gorn="0.3.0.0.0.0.0.0.0.0.0.3.0.0.0.0.0.0.0.0.0.0.23" stroke-width="1.43999" fill="none"/>
         <circle r="2.08798" stroke="black" id="connector12pad" cx="34.6289" cy="88.0288" gorn="0.3.0.0.0.0.0.0.0.0.0.3.0.0.0.0.0.0.0.0.0.0.24" stroke-width="1.43999" fill="none"/>
         <circle r="2.08798" stroke="black" id="connector13pad" cx="34.6289" cy="95.2288" gorn="0.3.0.0.0.0.0.0.0.0.0.3.0.0.0.0.0.0.0.0.0.0.25" stroke-width="1.43999" fill="none"/>
         <circle r="2.08798" stroke="black" id="connector14pad" cx="34.6289" cy="102.429" gorn="0.3.0.0.0.0.0.0.0.0.0.3.0.0.0.0.0.0.0.0.0.0.26" stroke-width="1.43999" fill="none"/>
         <circle r="2.08798" stroke="black" id="connector4pad" cx="34.6289" cy="30.4288" gorn="0.3.0.0.0.0.0.0.0.0.0.3.0.0.0.0.0.0.0.0.0.0.27" stroke-width="1.43999" fill="none"/>
         <circle r="2.08798" stroke="black" id="connector5pad" cx="34.6289" cy="37.6288" gorn="0.3.0.0.0.0.0.0.0.0.0.3.0.0.0.0.0.0.0.0.0.0.28" stroke-width="1.43999" fill="none"/>
         <circle r="2.08798" stroke="black" id="connector6pad" cx="34.6289" cy="44.8288" gorn="0.3.0.0.0.0.0.0.0.0.0.3.0.0.0.0.0.0.0.0.0.0.29" stroke-width="1.43999" fill="none"/>
        </g>
       </g>
      </g>
     </g>
    </g>
   </g>
  </g>
  <g partID="137202">
   <g transform="translate(115.103,131.118)">
    <g transform="matrix(0,1,-1,0,0,0)">
     <g id="copper1" >
      <!-- <rect width="55" x="10" y="15.5" fill="none" height="55" stroke="rgb(255, 191, 0)" stroke-width="20" />  -->
      <circle r="1.98" stroke="black" id="connector0pin"  cx="2.7" cy="3.096" fill="none" stroke-width="1.44"/>
      <circle r="1.98" stroke="black" id="connector1pin"  cx="31.5" cy="3.096" fill="none" stroke-width="1.44"/>
     </g>
    </g>
   </g>
  </g>
  <g partID="167382">
   <g transform="translate(142.967,110.058)">
    <g transform="matrix(0,-1,1,0,0,0)">
     <g id="copper1" gorn="0.5">
      <g id="copper0" gorn="0.5.0">
       <circle r="2.088" stroke="black" id="connector0pin" cx="5.04" cy="5.04" gorn="0.5.0.0" fill="none" stroke-width="1.44"/>
       <g transform="matrix(0.71337341,-0.70078412,0.71337341,0.70078412,0,0)">
        <g>
         <g>
          <circle r="2.25238" stroke="black" id="connector1pin" cx="-5.20056" cy="12.2656" gorn="0.5.0.1.0.0" style="stroke-miterlimit:4;stroke-dasharray:none" fill="none" stroke-width="1.55337"/>
         </g>
        </g>
       </g>
       <circle r="2.088" stroke="black" id="connector2pin" cx="5.04" cy="19.44" gorn="0.5.0.2" fill="none" stroke-width="1.44"/>
       <circle r="2.088" stroke="black" id="connector3pin" cx="5.04" cy="26.64" gorn="0.5.0.3" fill="none" stroke-width="1.44"/>
       <rect width="4.85595" stroke="black" id="rect3887" height="4.85595" x="2.62651" y="9.84129" gorn="0.5.0.4" style="stroke-miterlimit:4;stroke-dasharray:none;" stroke-opacity="1" fill="none" stroke-width="1.21905"/>
      </g>
     </g>
    </g>
   </g>
  </g>
  <g partID="167372">
   <g transform="translate(142.967,88.4581)">
    <g transform="matrix(0,-1,1,0,0,0)">
     <g id="copper1" gorn="0.5">
      <g id="copper0" gorn="0.5.0">
       <circle r="2.088" stroke="black" id="connector0pin" cx="5.04" cy="5.04" gorn="0.5.0.0" fill="none" stroke-width="1.44"/>
       <g transform="matrix(0.71337341,-0.70078412,0.71337341,0.70078412,0,0)">
        <g>
         <g>
          <circle r="2.25238" stroke="black" id="connector1pin" cx="-5.20056" cy="12.2656" gorn="0.5.0.1.0.0" style="stroke-miterlimit:4;stroke-dasharray:none" fill="none" stroke-width="1.55337"/>
         </g>
        </g>
       </g>
       <circle r="2.088" stroke="black" id="connector2pin" cx="5.04" cy="19.44" gorn="0.5.0.2" fill="none" stroke-width="1.44"/>
       <circle r="2.088" stroke="black" id="connector3pin" cx="5.04" cy="26.64" gorn="0.5.0.3" fill="none" stroke-width="1.44"/>
       <rect width="4.85595" stroke="black" id="rect3887" height="4.85595" x="2.62651" y="9.84129" gorn="0.5.0.4" style="stroke-miterlimit:4;stroke-dasharray:none;" stroke-opacity="1" fill="none" stroke-width="1.21905"/>
      </g>
     </g>
    </g>
   </g>
  </g>
  <g partID="167362">
   <g transform="translate(174.647,135.978)">
    <g transform="matrix(0,1,-1,0,0,0)">
     <g id="copper1" gorn="0.5">
      <g id="copper0" gorn="0.5.0">
       <circle r="2.088" stroke="black" id="connector0pin" cx="5.04" cy="5.04" gorn="0.5.0.0" fill="none" stroke-width="1.44"/>
       <g transform="matrix(0.71337341,-0.70078412,0.71337341,0.70078412,0,0)">
        <g>
         <g>
          <circle r="2.25238" stroke="black" id="connector1pin" cx="-5.20056" cy="12.2656" gorn="0.5.0.1.0.0" style="stroke-miterlimit:4;stroke-dasharray:none" fill="none" stroke-width="1.55337"/>
         </g>
        </g>
       </g>
       <circle r="2.088" stroke="black" id="connector2pin" cx="5.04" cy="19.44" gorn="0.5.0.2" fill="none" stroke-width="1.44"/>
       <circle r="2.088" stroke="black" id="connector3pin" cx="5.04" cy="26.64" gorn="0.5.0.3" fill="none" stroke-width="1.44"/>
       <rect width="4.85595" stroke="black" id="rect3887" height="4.85595" x="2.62651" y="9.84129" gorn="0.5.0.4" style="stroke-miterlimit:4;stroke-dasharray:none;" stroke-opacity="1" fill="none" stroke-width="1.21905"/>
      </g>
     </g>
    </g>
   </g>
  </g>
  <g partID="167352">
   <g transform="translate(135.071,100.034)">
    <g transform="matrix(0,1,-1,0,0,0)">
     <g id="copper1" gorn="0.5">
      <g id="copper0" gorn="0.5.0">
       <circle r="2.088" stroke="black" id="connector0pin" cx="5.04" cy="5.04" gorn="0.5.0.0" fill="none" stroke-width="1.44"/>
       <g transform="matrix(0.71337341,-0.70078412,0.71337341,0.70078412,0,0)">
        <g>
         <g>
          <circle r="2.25238" stroke="black" id="connector1pin" cx="-5.20056" cy="12.2656" gorn="0.5.0.1.0.0" style="stroke-miterlimit:4;stroke-dasharray:none" fill="none" stroke-width="1.55337"/>
         </g>
        </g>
       </g>
       <circle r="2.088" stroke="black" id="connector2pin" cx="5.04" cy="19.44" gorn="0.5.0.2" fill="none" stroke-width="1.44"/>
       <circle r="2.088" stroke="black" id="connector3pin" cx="5.04" cy="26.64" gorn="0.5.0.3" fill="none" stroke-width="1.44"/>
       <rect width="4.85595" stroke="black" id="rect3887" height="4.85595" x="2.62651" y="9.84129" gorn="0.5.0.4" style="stroke-miterlimit:4;stroke-dasharray:none;" stroke-opacity="1" fill="none" stroke-width="1.21905"/>
      </g>
     </g>
    </g>
   </g>
  </g>
  <g partID="167342">
   <g transform="translate(135.133,110.942)">
    <g transform="matrix(0,1,-1,0,0,0)">
     <g id="copper1" gorn="0.5">
      <g id="copper0" gorn="0.5.0">
       <circle r="2.088" stroke="black" id="connector0pin" cx="5.04" cy="5.04" gorn="0.5.0.0" fill="none" stroke-width="1.44"/>
       <g transform="matrix(0.71337341,-0.70078412,0.71337341,0.70078412,0,0)">
        <g>
         <g>
          <circle r="2.25238" stroke="black" id="connector1pin" cx="-5.20056" cy="12.2656" gorn="0.5.0.1.0.0" style="stroke-miterlimit:4;stroke-dasharray:none" fill="none" stroke-width="1.55337"/>
         </g>
        </g>
       </g>
       <circle r="2.088" stroke="black" id="connector2pin" cx="5.04" cy="19.44" gorn="0.5.0.2" fill="none" stroke-width="1.44"/>
       <circle r="2.088" stroke="black" id="connector3pin" cx="5.04" cy="26.64" gorn="0.5.0.3" fill="none" stroke-width="1.44"/>
       <rect width="4.85595" stroke="black" id="rect3887" height="4.85595" x="2.62651" y="9.84129" gorn="0.5.0.4" style="stroke-miterlimit:4;stroke-dasharray:none;" stroke-opacity="1" fill="none" stroke-width="1.21905"/>
      </g>
     </g>
    </g>
   </g>
  </g>
  <g partID="167332">
   <g transform="translate(135.071,78.4337)">
    <g transform="matrix(0,1,-1,0,0,0)">
     <g id="copper1" gorn="0.5">
      <g id="copper0" gorn="0.5.0">
       <circle r="2.088" stroke="black" id="connector0pin" cx="5.04" cy="5.04" gorn="0.5.0.0" fill="none" stroke-width="1.44"/>
       <g transform="matrix(0.71337341,-0.70078412,0.71337341,0.70078412,0,0)">
        <g>
         <g>
          <circle r="2.25238" stroke="black" id="connector1pin" cx="-5.20056" cy="12.2656" gorn="0.5.0.1.0.0" style="stroke-miterlimit:4;stroke-dasharray:none" fill="none" stroke-width="1.55337"/>
         </g>
        </g>
       </g>
       <circle r="2.088" stroke="black" id="connector2pin" cx="5.04" cy="19.44" gorn="0.5.0.2" fill="none" stroke-width="1.44"/>
       <circle r="2.088" stroke="black" id="connector3pin" cx="5.04" cy="26.64" gorn="0.5.0.3" fill="none" stroke-width="1.44"/>
       <rect width="4.85595" stroke="black" id="rect3887" height="4.85595" x="2.62651" y="9.84129" gorn="0.5.0.4" style="stroke-miterlimit:4;stroke-dasharray:none;" stroke-opacity="1" fill="none" stroke-width="1.21905"/>
      </g>
     </g>
    </g>
   </g>
  </g>
  <g partID="167322">
   <g transform="translate(174.647,150.378)">
    <g transform="matrix(0,1,-1,0,0,0)">
     <g id="copper1" gorn="0.5">
      <g id="copper0" gorn="0.5.0">
       <circle r="2.088" stroke="black" id="connector0pin" cx="5.04" cy="5.04" gorn="0.5.0.0" fill="none" stroke-width="1.44"/>
       <g transform="matrix(0.71337341,-0.70078412,0.71337341,0.70078412,0,0)">
        <g>
         <g>
          <circle r="2.25238" stroke="black" id="connector1pin" cx="-5.20056" cy="12.2656" gorn="0.5.0.1.0.0" style="stroke-miterlimit:4;stroke-dasharray:none" fill="none" stroke-width="1.55337"/>
         </g>
        </g>
       </g>
       <circle r="2.088" stroke="black" id="connector2pin" cx="5.04" cy="19.44" gorn="0.5.0.2" fill="none" stroke-width="1.44"/>
       <circle r="2.088" stroke="black" id="connector3pin" cx="5.04" cy="26.64" gorn="0.5.0.3" fill="none" stroke-width="1.44"/>
       <rect width="4.85595" stroke="black" id="rect3887" height="4.85595" x="2.62651" y="9.84129" gorn="0.5.0.4" style="stroke-miterlimit:4;stroke-dasharray:none;" stroke-opacity="1" fill="none" stroke-width="1.21905"/>
      </g>
     </g>
    </g>
   </g>
  </g>
  <g partID="172022">
   <g transform="translate(117.767,135.978)">
    <g id="copper1" gorn="0.5">
     <g id="copper0" gorn="0.5.0">
      <circle r="2.088" stroke="black" id="connector0pin" cx="5.04" cy="5.04" gorn="0.5.0.0" fill="none" stroke-width="1.44"/>
      <g transform="matrix(0.71337341,-0.70078412,0.71337341,0.70078412,0,0)">
       <g>
        <g>
         <circle r="2.25238" stroke="black" id="connector1pin" cx="-5.20056" cy="12.2656" gorn="0.5.0.1.0.0" style="stroke-miterlimit:4;stroke-dasharray:none" fill="none" stroke-width="1.55337"/>
        </g>
       </g>
      </g>
      <circle r="2.088" stroke="black" id="connector2pin" cx="5.04" cy="19.44" gorn="0.5.0.2" fill="none" stroke-width="1.44"/>
      <circle r="2.088" stroke="black" id="connector3pin" cx="5.04" cy="26.64" gorn="0.5.0.3" fill="none" stroke-width="1.44"/>
      <rect width="4.796" stroke="black" id="rect3887" height="4.796" x="2.65909" y="2.64937" gorn="0.5.0.4" style="stroke-miterlimit:4;stroke-dasharray:none;" stroke-opacity="1" fill="none" stroke-width="1.204"/>
     </g>
    </g>
   </g>
  </g>
  <g partID="177172">
   <g transform="translate(174.647,175.578)">
    <g transform="matrix(0,1,-1,0,0,0)">
     <g id="copper1"  gorn="0.5">
      <g id="copper0"  gorn="0.5.0">
       <circle r="2.088" stroke="black" id="connector0pin"  cx="5.04" cy="5.04" gorn="0.5.0.0" fill="none" stroke-width="1.44"/>
       <circle r="2.088" stroke="black" id="connector1pin"  cx="5.04" cy="12.24" gorn="0.5.0.1" fill="none" stroke-width="1.44"/>
       <circle r="2.088" stroke="black" id="connector2pin"  cx="5.04" cy="19.44" gorn="0.5.0.2" fill="none" stroke-width="1.44"/>
       <circle r="2.088" stroke="black" id="connector3pin"  cx="5.04" cy="26.64" gorn="0.5.0.3" fill="none" stroke-width="1.44"/>
       <circle r="2.088" stroke="black" id="connector4pin"  cx="5.04" cy="33.84" gorn="0.5.0.4" fill="none" stroke-width="1.44"/>
       <rect width="4.60049" stroke="black" id="rect6729"  height="4.60049" x="2.73976" y="17.1398" gorn="0.5.0.5" style="stroke-miterlimit:4;stroke-dasharray:none;" stroke-opacity="1" fill="none" stroke-width="1.01551"/>
      </g>
     </g>
    </g>
   </g>
  </g>
  <g partID="854421910">
   <line stroke="black" y1="97.8359" y2="97.8232" x1="91.9294" x2="88.2205" stroke-linecap="round" stroke-width="1.728"/>
  </g>
  <g partID="854421740">
   <line stroke="black" y1="90.6471" y2="90.6344" x1="91.9294" x2="88.2205" stroke-linecap="round" stroke-width="1.728"/>
  </g>
  <g partID="854421570">
   <line stroke="black" y1="83.4575" y2="83.4448" x1="91.9294" x2="88.2205" stroke-linecap="round" stroke-width="1.728"/>
  </g>
  <g partID="854421480">
   <line stroke="black" y1="76.2688" y2="76.2561" x1="91.9294" x2="88.2205" stroke-linecap="round" stroke-width="1.728"/>
  </g>
  <g partID="854421390">
   <line stroke="black" y1="69.0799" y2="69.0672" x1="91.9294" x2="88.2205" stroke-linecap="round" stroke-width="1.728"/>
  </g>
  <g partID="854421090">
   <line stroke="black" y1="162.537" y2="162.524" x1="91.9294" x2="88.2205" stroke-linecap="round" stroke-width="1.728"/>
  </g>
  <g partID="854420880">
   <line stroke="black" y1="155.348" y2="155.335" x1="91.9294" x2="88.2205" stroke-linecap="round" stroke-width="1.728"/>
  </g>
  <g partID="854422890">
   <line stroke="black" y1="83.4569" y2="83.4452" x1="17.2248" x2="20.403" stroke-linecap="round" stroke-width="1.728"/>
  </g>
  <g partID="854422750">
   <line stroke="black" y1="61.8903" y2="61.8785" x1="17.2248" x2="20.403" stroke-linecap="round" stroke-width="1.728"/>
  </g>
  <g partID="854422680">
   <line stroke="black" y1="148.159" y2="148.146" x1="91.9294" x2="88.2205" stroke-linecap="round" stroke-width="1.728"/>
  </g>
  <g partID="854422610">
   <line stroke="black" y1="140.969" y2="140.957" x1="91.9294" x2="88.2205" stroke-linecap="round" stroke-width="1.728"/>
  </g>
  <g partID="854422540">
   <line stroke="black" y1="133.781" y2="133.768" x1="91.9294" x2="88.2205" stroke-linecap="round" stroke-width="1.728"/>
  </g>
  <g partID="854422430">
   <line stroke="black" y1="126.592" y2="126.579" x1="91.9294" x2="88.2205" stroke-linecap="round" stroke-width="1.728"/>
  </g>
  <g partID="854422360">
   <line stroke="black" y1="119.403" y2="119.39" x1="91.9294" x2="88.2205" stroke-linecap="round" stroke-width="1.728"/>
  </g>
  <g partID="854422290">
   <line stroke="black" y1="112.213" y2="112.201" x1="91.9294" x2="88.2205" stroke-linecap="round" stroke-width="1.728"/>
  </g>
  <g partID="854422080">
   <line stroke="black" y1="105.025" y2="105.012" x1="91.9294" x2="88.2205" stroke-linecap="round" stroke-width="1.728"/>
  </g>
  <g partID="854423830">
   <line stroke="black" y1="155.347" y2="155.336" x1="17.2248" x2="20.403" stroke-linecap="round" stroke-width="1.728"/>
  </g>
  <g partID="854423760">
   <line stroke="black" y1="148.158" y2="148.147" x1="17.2248" x2="20.403" stroke-linecap="round" stroke-width="1.728"/>
  </g>
  <g partID="854423690">
   <line stroke="black" y1="140.969" y2="140.957" x1="17.2248" x2="20.403" stroke-linecap="round" stroke-width="1.728"/>
  </g>
  <g partID="854423520">
   <line stroke="black" y1="133.78" y2="133.768" x1="17.2248" x2="20.403" stroke-linecap="round" stroke-width="1.728"/>
  </g>
  <g partID="854423310">
   <line stroke="black" y1="126.591" y2="126.58" x1="17.2248" x2="20.403" stroke-linecap="round" stroke-width="1.728"/>
  </g>
  <g partID="854423240">
   <line stroke="black" y1="119.402" y2="119.391" x1="17.2248" x2="20.403" stroke-linecap="round" stroke-width="1.728"/>
  </g>
  <g partID="854423170">
   <line stroke="black" y1="112.213" y2="112.201" x1="17.2248" x2="20.403" stroke-linecap="round" stroke-width="1.728"/>
  </g>
  <g partID="854423100">
   <line stroke="black" y1="105.024" y2="105.012" x1="17.2248" x2="20.403" stroke-linecap="round" stroke-width="1.728"/>
  </g>
  <g partID="854423030">
   <line stroke="black" y1="97.8353" y2="97.8236" x1="17.2248" x2="20.403" stroke-linecap="round" stroke-width="1.728"/>
  </g>
  <g partID="854422960">
   <line stroke="black" y1="90.6465" y2="90.6348" x1="17.2248" x2="20.403" stroke-linecap="round" stroke-width="1.728"/>
  </g>
  <g partID="854424110">
   <line stroke="black" y1="61.8908" y2="61.8781" x1="91.9294" x2="88.2205" stroke-linecap="round" stroke-width="1.728"/>
  </g>
  <g partID="854424040">
   <line stroke="black" y1="162.536" y2="162.524" x1="17.2248" x2="20.403" stroke-linecap="round" stroke-width="1.728"/>
  </g>
  <g partID="854401650">
   <line stroke="black" y1="56.0497" y2="49.635" x1="158.807" x2="158.807" stroke-linecap="round" stroke-width="1.728"/>
  </g>
  <g partID="854401580">
   <line stroke="black" y1="56.0497" y2="49.635" x1="151.607" x2="151.607" stroke-linecap="round" stroke-width="1.728"/>
  </g>
  <g partID="854401380">
   <line stroke="black" y1="61.8177" y2="49.635" x1="130.007" x2="130.007" stroke-linecap="round" stroke-width="1.728"/>
  </g>
  <g partID="854401250">
   <line stroke="black" y1="61.8177" y2="61.8177" x1="148.007" x2="130.007" stroke-linecap="round" stroke-width="1.728"/>
  </g>
  <g partID="854401120">
   <line stroke="black" y1="69.0177" y2="61.8177" x1="148.007" x2="148.007" stroke-linecap="round" stroke-width="1.728"/>
  </g>
  <g partID="854400990">
   <line stroke="black" y1="69.0177" y2="69.0177" x1="169.607" x2="148.007" stroke-linecap="round" stroke-width="1.728"/>
  </g>
  <g partID="854400860">
   <line stroke="black" y1="81.2497" y2="69.0173" x1="169.607" x2="169.607" stroke-linecap="round" stroke-width="1.728"/>
  </g>
  <g partID="854400730">
   <line stroke="black" y1="65.4177" y2="49.635" x1="122.807" x2="122.807" stroke-linecap="round" stroke-width="1.728"/>
  </g>
  <g partID="854400600">
   <line stroke="black" y1="65.4177" y2="65.4177" x1="144.407" x2="122.807" stroke-linecap="round" stroke-width="1.728"/>
  </g>
  <g partID="854400470">
   <line stroke="black" y1="72.6177" y2="65.4177" x1="144.407" x2="144.407" stroke-linecap="round" stroke-width="1.728"/>
  </g>
  <g partID="854400340">
   <line stroke="black" y1="72.6177" y2="72.6177" x1="162.407" x2="144.407" stroke-linecap="round" stroke-width="1.728"/>
  </g>
  <g partID="854400210">
   <line stroke="black" y1="81.2497" y2="72.6173" x1="162.407" x2="162.407" stroke-linecap="round" stroke-width="1.728"/>
  </g>
  <g partID="854399380">
   <line stroke="black" y1="162.538" y2="162.543" x1="79.607" x2="91.929" stroke-linecap="round" stroke-width="1.728"/>
  </g>
  <g partID="854399250">
   <line stroke="black" y1="47.4177" y2="162.538" x1="79.607" x2="79.607" stroke-linecap="round" stroke-width="1.728"/>
  </g>
  <g partID="854399120">
   <line stroke="black" y1="47.4177" y2="47.4177" x1="106.19" x2="79.607" stroke-linecap="round" stroke-width="1.728"/>
  </g>
  <g partID="230460">
   <line stroke="black" y1="90.6177" y2="90.6506" x1="115.607" x2="96.2569" stroke-linecap="round" stroke-width="1.728"/>
  </g>
  <g partID="230370">
   <line stroke="black" y1="85.6417" y2="90.6177" x1="115.624" x2="115.607" stroke-linecap="round" stroke-width="1.728"/>
  </g>
  <g partID="854401790">
   <line stroke="black" y1="56.0497" y2="49.635" x1="173.207" x2="173.207" stroke-linecap="round" stroke-width="1.728"/>
  </g>
  <g partID="854401720">
   <line stroke="black" y1="56.0497" y2="49.635" x1="166.007" x2="166.007" stroke-linecap="round" stroke-width="1.728"/>
  </g>
  <g partID="224830">
   <line stroke="black" y1="173.418" y2="187.818" x1="133.607" x2="133.687" stroke-linecap="round" stroke-width="1.728"/>
  </g>
  <g partID="224680">
   <line stroke="black" y1="173.418" y2="173.417" x1="137.195" x2="133.607" stroke-linecap="round" stroke-width="1.728"/>
  </g>
  <g partID="224630">
   <line stroke="black" y1="76.2711" y2="76.1748" x1="96.2573" x2="137.195" stroke-linecap="round" stroke-width="1.728"/>
  </g>
  <g partID="224620">
   <line stroke="black" y1="76.1748" y2="173.418" x1="137.195" x2="137.195" stroke-linecap="round" stroke-width="1.728"/>
  </g>
  <g partID="229270">
   <line stroke="black" y1="69.0871" y2="69.0846" x1="96.2573" x2="141.036" stroke-linecap="round" stroke-width="1.728"/>
  </g>
  <g partID="229260">
   <line stroke="black" y1="69.0845" y2="178.449" x1="141.036" x2="140.811" stroke-linecap="round" stroke-width="1.728"/>
  </g>
  <g partID="224780">
   <line stroke="black" y1="187.818" y2="187.818" x1="133.687" x2="148.087" stroke-linecap="round" stroke-width="1.728"/>
  </g>
  <g partID="224730">
   <line stroke="black" y1="187.818" y2="182.786" x1="148.087" x2="148.031" stroke-linecap="round" stroke-width="1.728"/>
  </g>
  <g partID="163500">
   <line stroke="black" y1="112.222" y2="112.222" x1="147.922" x2="169.616" stroke-linecap="round" stroke-width="1.728"/>
  </g>
  <g partID="163370">
   <line stroke="black" y1="112.222" y2="107.186" x1="169.616" x2="169.609" stroke-linecap="round" stroke-width="1.728"/>
  </g>
  <g partID="163240">
   <line stroke="black" y1="138.85" y2="112.222" x1="148.001" x2="147.922" stroke-linecap="round" stroke-width="1.728"/>
  </g>
 </g>
</svg>
