<?xml version='1.0' encoding='UTF-8' standalone='no'?>
<!-- Created with Fritzing (http://www.fritzing.org/) -->
<svg xmlns="http://www.w3.org/2000/svg" width="2.54678in" version="1.2"  height="2.75372in" xmlns:svg="http://www.w3.org/2000/svg" x="0in" y="0in" viewBox="0 0 183.368 198.268" baseProfile="tiny">
 <g partID="125450">
  <g transform="matrix(1, 0, 0, 1, -7.99992, -0.499919)">
   <g id="board">
    <g fill-opacity="1" stroke="black" fill="none" stroke-width="0.5">
     <path fill-opacity="1" stroke="black" class="st0" d="M180.67,0.499919L18.6982,0.499919c-5.89905,0,-10.6983,4.79922,-10.6983,10.6983l0,176.871c0,5.89904,4.79923,10.6983,10.6983,10.6983L180.67,198.768c5.89905,0,10.6983,-4.79922,10.6983,-10.6983l0,-176.971c0,-5.89904,-4.79923,-10.5983,-10.6983,-10.5983zM14.7976,36.4941c-2.69957,0,-4.9992,-2.19964,-4.9992,-4.99919,0,-2.69956,2.19965,-4.99919,4.9992,-4.99919,2.79955,0,4.9992,2.19964,4.9992,4.99919,0,2.79955,-2.19965,4.99919,-4.9992,4.99919zM130.979,192.269c-2.69957,0,-4.9992,-2.19964,-4.9992,-4.99919,0,-2.79955,2.19965,-4.99919,4.9992,-4.99919,2.79955,0,4.9992,2.19964,4.9992,4.99919,0,2.79955,-2.19965,4.99919,-4.9992,4.99919zM184.57,36.4941c-2.69957,0,-4.9992,-2.19964,-4.9992,-4.99919,0,-2.69956,2.19965,-4.99919,4.9992,-4.99919,2.79955,0,4.9992,2.19964,4.9992,4.99919,0,2.79955,-2.19965,4.99919,-4.9992,4.99919z" id="boardoutline" fill="none" stroke-width="0.5"/>
    </g>
   </g>
  </g>
 </g>
 <g partID="854419360">
  <g transform="translate(111.287,43.0977)">
   <g id="copper1" >
    <rect width="5.44" fill-opacity="1" stroke="black" id="connector0pad"  height="5.44" x="1.6" y="1.6" fill="black" stroke-width="0.72"/>
    <g width="5.44" stroke="black" id="connector0terminal"  height="5.44" x="1.6" y="1.6" fill="black" stroke-width="0.72"/>
   </g>
  </g>
 </g>
 <g partID="854420852">
  <g transform="translate(18.8923,45.8166)">
   <g transform="matrix(1, 0, 0, 1, 53.104, 4.304)">
    <g id="copper1">
     <g transform="matrix(0.997054, 0, 0, 0.998472, -5.48398, 10.1258)">
      <g>
       <g gorn="0.1.0.0.0.0.3.0.0.0.0.0">
        <circle r="1.2672" stroke="black" id="connector2pad" cx="20.1632" cy="16.0288" gorn="0.1.0.0.0.0.3.0.0.0.0.0.0" fill="black" stroke-width="1.6416"/>
        <circle r="1.2672" stroke="black" id="connector42pin" cx="-44.6368" cy="1.6288" gorn="0.1.0.0.0.0.3.0.0.0.0.0.1" fill="black" stroke-width="1.6416"/>
        <circle r="1.2672" stroke="black" id="connector41pin" cx="-44.6368" cy="8.8288" gorn="0.1.0.0.0.0.3.0.0.0.0.0.2" fill="black" stroke-width="1.6416"/>
        <circle r="1.2672" stroke="black" id="connector40pin" cx="-44.6368" cy="16.0288" gorn="0.1.0.0.0.0.3.0.0.0.0.0.3" fill="black" stroke-width="1.6416"/>
        <circle r="1.2672" stroke="black" id="connector39pin" cx="-44.6368" cy="23.2288" gorn="0.1.0.0.0.0.3.0.0.0.0.0.4" fill="black" stroke-width="1.6416"/>
        <circle r="1.2672" stroke="black" id="connector38pin" cx="-44.6368" cy="30.4288" gorn="0.1.0.0.0.0.3.0.0.0.0.0.5" fill="black" stroke-width="1.6416"/>
        <circle r="1.2672" stroke="black" id="connector1pad" cx="20.1632" cy="8.8288" gorn="0.1.0.0.0.0.3.0.0.0.0.0.6" fill="black" stroke-width="1.6416"/>
        <circle r="1.2672" stroke="black" id="connector0pad" cx="20.1632" cy="1.6288" gorn="0.1.0.0.0.0.3.0.0.0.0.0.7" fill="black" stroke-width="1.6416"/>
        <circle r="1.2672" stroke="black" id="connector3pad" cx="20.1632" cy="23.2288" gorn="0.1.0.0.0.0.3.0.0.0.0.0.8" fill="black" stroke-width="1.6416"/>
        <circle r="1.2672" stroke="black" id="connector37pin" cx="-44.6368" cy="37.6288" gorn="0.1.0.0.0.0.3.0.0.0.0.0.9" fill="black" stroke-width="1.6416"/>
        <circle r="1.2672" stroke="black" id="connector36pin" cx="-44.6368" cy="44.8288" gorn="0.1.0.0.0.0.3.0.0.0.0.0.10" fill="black" stroke-width="1.6416"/>
        <circle r="1.2672" stroke="black" id="connector35pin" cx="-44.6368" cy="52.0288" gorn="0.1.0.0.0.0.3.0.0.0.0.0.11" fill="black" stroke-width="1.6416"/>
        <circle r="1.2672" stroke="black" id="connector34pin" cx="-44.6368" cy="59.2288" gorn="0.1.0.0.0.0.3.0.0.0.0.0.12" fill="black" stroke-width="1.6416"/>
        <circle r="1.2672" stroke="black" id="connector33pin" cx="-44.6368" cy="66.4288" gorn="0.1.0.0.0.0.3.0.0.0.0.0.13" fill="black" stroke-width="1.6416"/>
        <circle r="1.2672" stroke="black" id="connector19pad" cx="-44.6368" cy="73.6288" gorn="0.1.0.0.0.0.3.0.0.0.0.0.14" fill="black" stroke-width="1.6416"/>
        <circle r="1.2672" stroke="black" id="connector18pad" cx="-44.6368" cy="80.8288" gorn="0.1.0.0.0.0.3.0.0.0.0.0.15" fill="black" stroke-width="1.6416"/>
        <circle r="1.2672" stroke="black" id="connector17pad" cx="-44.6368" cy="88.0288" gorn="0.1.0.0.0.0.3.0.0.0.0.0.16" fill="black" stroke-width="1.6416"/>
        <circle r="1.2672" stroke="black" id="connector16pad" cx="-44.6368" cy="95.2288" gorn="0.1.0.0.0.0.3.0.0.0.0.0.17" fill="black" stroke-width="1.6416"/>
        <circle r="1.2672" stroke="black" id="connector15pad" cx="-44.6368" cy="102.429" gorn="0.1.0.0.0.0.3.0.0.0.0.0.18" fill="black" stroke-width="1.6416"/>
        <circle r="1.2672" stroke="black" id="connector7pad" cx="20.1632" cy="52.0288" gorn="0.1.0.0.0.0.3.0.0.0.0.0.19" fill="black" stroke-width="1.6416"/>
        <circle r="1.2672" stroke="black" id="connector8pad" cx="20.1632" cy="59.2288" gorn="0.1.0.0.0.0.3.0.0.0.0.0.20" fill="black" stroke-width="1.6416"/>
        <circle r="1.2672" stroke="black" id="connector9pad" cx="20.1632" cy="66.4288" gorn="0.1.0.0.0.0.3.0.0.0.0.0.21" fill="black" stroke-width="1.6416"/>
        <circle r="1.2672" stroke="black" id="connector10pad" cx="20.1632" cy="73.6288" gorn="0.1.0.0.0.0.3.0.0.0.0.0.22" fill="black" stroke-width="1.6416"/>
        <circle r="1.2672" stroke="black" id="connector11pad" cx="20.1632" cy="80.8288" gorn="0.1.0.0.0.0.3.0.0.0.0.0.23" fill="black" stroke-width="1.6416"/>
        <circle r="1.2672" stroke="black" id="connector12pad" cx="20.1632" cy="88.0288" gorn="0.1.0.0.0.0.3.0.0.0.0.0.24" fill="black" stroke-width="1.6416"/>
        <circle r="1.2672" stroke="black" id="connector13pad" cx="20.1632" cy="95.2288" gorn="0.1.0.0.0.0.3.0.0.0.0.0.25" fill="black" stroke-width="1.6416"/>
        <circle r="1.2672" stroke="black" id="connector14pad" cx="20.1632" cy="102.429" gorn="0.1.0.0.0.0.3.0.0.0.0.0.26" fill="black" stroke-width="1.6416"/>
        <circle r="1.2672" stroke="black" id="connector4pad" cx="20.1632" cy="30.4288" gorn="0.1.0.0.0.0.3.0.0.0.0.0.27" fill="black" stroke-width="1.6416"/>
        <circle r="1.2672" stroke="black" id="connector5pad" cx="20.1632" cy="37.6288" gorn="0.1.0.0.0.0.3.0.0.0.0.0.28" fill="black" stroke-width="1.6416"/>
        <circle r="1.2672" stroke="black" id="connector6pad" cx="20.1632" cy="44.8288" gorn="0.1.0.0.0.0.3.0.0.0.0.0.29" fill="black" stroke-width="1.6416"/>
       </g>
      </g>
     </g>
    </g>
   </g>
  </g>
 </g>
 <g partID="854399092">
  <g transform="translate(101.207,4.21766)">
   <g id="copper1"  gorn="0.3">
    <g id="copper0"  gorn="0.3.0">
     <circle r="1.96866" stroke="black" id="connector10pad" connectorname="AIN3"  cx="72" cy="43.2" gorn="0.3.0.0" stroke-width="1.82268" fill="black"/>
     <circle r="1.96866" stroke="black" id="connector11pad" connectorname="AIN2"  cx="64.8" cy="43.2" gorn="0.3.0.1" stroke-width="1.82268" fill="black"/>
     <circle r="1.96866" stroke="black" id="connector12pad" connectorname="AIN1"  cx="57.6" cy="43.2" gorn="0.3.0.2" stroke-width="1.82268" fill="black"/>
     <circle r="1.96866" stroke="black" id="connector13pad" connectorname="AIN0"  cx="50.4" cy="43.2" gorn="0.3.0.3" stroke-width="1.82268" fill="black"/>
     <circle r="1.96866" stroke="black" id="connector14pad" connectorname="ALERT"  cx="43.2" cy="43.2" gorn="0.3.0.4" stroke-width="1.82268" fill="black"/>
     <circle r="1.96866" stroke="black" id="connector15pad" connectorname="ADDR"  cx="36" cy="43.2" gorn="0.3.0.5" stroke-width="1.82268" fill="black"/>
     <circle r="1.96866" stroke="black" id="connector16pad" connectorname="SDA"  cx="28.8" cy="43.2" gorn="0.3.0.6" stroke-width="1.82268" fill="black"/>
     <circle r="1.96866" stroke="black" id="connector17pad" connectorname="SCL"  cx="21.6" cy="43.2" gorn="0.3.0.7" stroke-width="1.82268" fill="black"/>
     <circle r="1.96866" stroke="black" id="connector18pad" connectorname="GND"  cx="14.4" cy="43.2" gorn="0.3.0.8" stroke-width="1.82268" fill="black"/>
     <circle r="1.96866" stroke="black" id="connector19pad" connectorname="VDD"  cx="7.2" cy="43.2" gorn="0.3.0.9" stroke-width="1.82268" fill="black"/>
    </g>
   </g>
  </g>
 </g>
 <g partID="854401562">
  <g transform="translate(178.247,53.1777)">
   <g transform="matrix(0,1,-1,0,0,0)">
    <g id="copper1" >
     <g id="copper0" >
      <circle r="2.088" stroke="black" id="connector0pin"  cx="5.04" cy="5.04" fill="black" stroke-width="2.16"/>
      <circle r="2.088" stroke="black" id="connector1pin"  cx="5.04" cy="12.24" fill="black" stroke-width="2.16"/>
      <circle r="2.088" stroke="black" id="connector2pin"  cx="5.04" cy="19.44" fill="black" stroke-width="2.16"/>
      <circle r="2.088" stroke="black" id="connector3pin"  cx="5.04" cy="26.64" fill="black" stroke-width="2.16"/>
     </g>
    </g>
   </g>
  </g>
 </g>
 <g partID="220272">
  <g transform="translate(10.2229,28.4477)">
   <g transform="matrix(1, 0, 0, 1, 54.8272, 21.6984)">
    <g id="copper1">
     <g transform="matrix(0.997054, 0, 0, 0.998472, -5.48398, 10.1258)">
      <g>
       <g gorn="0.3.0.0.0.0.0.0.0.0.0.3.0.0.0.0.0.0.0.0.0.0">
        <circle r="2.08798" stroke="black" id="connector2pad" cx="34.6289" cy="16.0288" gorn="0.3.0.0.0.0.0.0.0.0.0.3.0.0.0.0.0.0.0.0.0.0.0" stroke-width="2.15999" fill="black"/>
        <circle r="2.08798" stroke="black" id="connector42pin" cx="-44.6368" cy="1.6288" gorn="0.3.0.0.0.0.0.0.0.0.0.3.0.0.0.0.0.0.0.0.0.0.1" stroke-width="2.15999" fill="black"/>
        <circle r="2.08798" stroke="black" id="connector41pin" cx="-44.6368" cy="8.8288" gorn="0.3.0.0.0.0.0.0.0.0.0.3.0.0.0.0.0.0.0.0.0.0.2" stroke-width="2.15999" fill="black"/>
        <circle r="2.08798" stroke="black" id="connector40pin" cx="-44.6368" cy="16.0288" gorn="0.3.0.0.0.0.0.0.0.0.0.3.0.0.0.0.0.0.0.0.0.0.3" stroke-width="2.15999" fill="black"/>
        <circle r="2.08798" stroke="black" id="connector39pin" cx="-44.6368" cy="23.2288" gorn="0.3.0.0.0.0.0.0.0.0.0.3.0.0.0.0.0.0.0.0.0.0.4" stroke-width="2.15999" fill="black"/>
        <circle r="2.08798" stroke="black" id="connector38pin" cx="-44.6368" cy="30.4288" gorn="0.3.0.0.0.0.0.0.0.0.0.3.0.0.0.0.0.0.0.0.0.0.5" stroke-width="2.15999" fill="black"/>
        <circle r="2.08798" stroke="black" id="connector1pad" cx="34.6289" cy="8.8288" gorn="0.3.0.0.0.0.0.0.0.0.0.3.0.0.0.0.0.0.0.0.0.0.6" stroke-width="2.15999" fill="black"/>
        <circle r="2.08798" stroke="black" id="connector0pad" cx="34.6289" cy="1.6288" gorn="0.3.0.0.0.0.0.0.0.0.0.3.0.0.0.0.0.0.0.0.0.0.7" stroke-width="2.15999" fill="black"/>
        <circle r="2.08798" stroke="black" id="connector3pad" cx="34.6289" cy="23.2288" gorn="0.3.0.0.0.0.0.0.0.0.0.3.0.0.0.0.0.0.0.0.0.0.8" stroke-width="2.15999" fill="black"/>
        <circle r="2.08798" stroke="black" id="connector37pin" cx="-44.6368" cy="37.6288" gorn="0.3.0.0.0.0.0.0.0.0.0.3.0.0.0.0.0.0.0.0.0.0.9" stroke-width="2.15999" fill="black"/>
        <circle r="2.08798" stroke="black" id="connector36pin" cx="-44.6368" cy="44.8288" gorn="0.3.0.0.0.0.0.0.0.0.0.3.0.0.0.0.0.0.0.0.0.0.10" stroke-width="2.15999" fill="black"/>
        <circle r="2.08798" stroke="black" id="connector35pin" cx="-44.6368" cy="52.0288" gorn="0.3.0.0.0.0.0.0.0.0.0.3.0.0.0.0.0.0.0.0.0.0.11" stroke-width="2.15999" fill="black"/>
        <circle r="2.08798" stroke="black" id="connector34pin" cx="-44.6368" cy="59.2288" gorn="0.3.0.0.0.0.0.0.0.0.0.3.0.0.0.0.0.0.0.0.0.0.12" stroke-width="2.15999" fill="black"/>
        <circle r="2.08798" stroke="black" id="connector33pin" cx="-44.6368" cy="66.4288" gorn="0.3.0.0.0.0.0.0.0.0.0.3.0.0.0.0.0.0.0.0.0.0.13" stroke-width="2.15999" fill="black"/>
        <circle r="2.08798" stroke="black" id="connector19pad" cx="-44.6368" cy="73.6288" gorn="0.3.0.0.0.0.0.0.0.0.0.3.0.0.0.0.0.0.0.0.0.0.14" stroke-width="2.15999" fill="black"/>
        <circle r="2.08798" stroke="black" id="connector18pad" cx="-44.6368" cy="80.8288" gorn="0.3.0.0.0.0.0.0.0.0.0.3.0.0.0.0.0.0.0.0.0.0.15" stroke-width="2.15999" fill="black"/>
        <circle r="2.08798" stroke="black" id="connector17pad" cx="-44.6368" cy="88.0288" gorn="0.3.0.0.0.0.0.0.0.0.0.3.0.0.0.0.0.0.0.0.0.0.16" stroke-width="2.15999" fill="black"/>
        <circle r="2.08798" stroke="black" id="connector16pad" cx="-44.6368" cy="95.2288" gorn="0.3.0.0.0.0.0.0.0.0.0.3.0.0.0.0.0.0.0.0.0.0.17" stroke-width="2.15999" fill="black"/>
        <circle r="2.08798" stroke="black" id="connector15pad" cx="-44.6368" cy="102.429" gorn="0.3.0.0.0.0.0.0.0.0.0.3.0.0.0.0.0.0.0.0.0.0.18" stroke-width="2.15999" fill="black"/>
        <circle r="2.08798" stroke="black" id="connector7pad" cx="34.6289" cy="52.0288" gorn="0.3.0.0.0.0.0.0.0.0.0.3.0.0.0.0.0.0.0.0.0.0.19" stroke-width="2.15999" fill="black"/>
        <circle r="2.08798" stroke="black" id="connector8pad" cx="34.6289" cy="59.2288" gorn="0.3.0.0.0.0.0.0.0.0.0.3.0.0.0.0.0.0.0.0.0.0.20" stroke-width="2.15999" fill="black"/>
        <circle r="2.08798" stroke="black" id="connector9pad" cx="34.6289" cy="66.4288" gorn="0.3.0.0.0.0.0.0.0.0.0.3.0.0.0.0.0.0.0.0.0.0.21" stroke-width="2.15999" fill="black"/>
        <circle r="2.08798" stroke="black" id="connector10pad" cx="34.6289" cy="73.6288" gorn="0.3.0.0.0.0.0.0.0.0.0.3.0.0.0.0.0.0.0.0.0.0.22" stroke-width="2.15999" fill="black"/>
        <circle r="2.08798" stroke="black" id="connector11pad" cx="34.6289" cy="80.8288" gorn="0.3.0.0.0.0.0.0.0.0.0.3.0.0.0.0.0.0.0.0.0.0.23" stroke-width="2.15999" fill="black"/>
        <circle r="2.08798" stroke="black" id="connector12pad" cx="34.6289" cy="88.0288" gorn="0.3.0.0.0.0.0.0.0.0.0.3.0.0.0.0.0.0.0.0.0.0.24" stroke-width="2.15999" fill="black"/>
        <circle r="2.08798" stroke="black" id="connector13pad" cx="34.6289" cy="95.2288" gorn="0.3.0.0.0.0.0.0.0.0.0.3.0.0.0.0.0.0.0.0.0.0.25" stroke-width="2.15999" fill="black"/>
        <circle r="2.08798" stroke="black" id="connector14pad" cx="34.6289" cy="102.429" gorn="0.3.0.0.0.0.0.0.0.0.0.3.0.0.0.0.0.0.0.0.0.0.26" stroke-width="2.15999" fill="black"/>
        <circle r="2.08798" stroke="black" id="connector4pad" cx="34.6289" cy="30.4288" gorn="0.3.0.0.0.0.0.0.0.0.0.3.0.0.0.0.0.0.0.0.0.0.27" stroke-width="2.15999" fill="black"/>
        <circle r="2.08798" stroke="black" id="connector5pad" cx="34.6289" cy="37.6288" gorn="0.3.0.0.0.0.0.0.0.0.0.3.0.0.0.0.0.0.0.0.0.0.28" stroke-width="2.15999" fill="black"/>
        <circle r="2.08798" stroke="black" id="connector6pad" cx="34.6289" cy="44.8288" gorn="0.3.0.0.0.0.0.0.0.0.0.3.0.0.0.0.0.0.0.0.0.0.29" stroke-width="2.15999" fill="black"/>
       </g>
      </g>
     </g>
    </g>
   </g>
  </g>
 </g>
 <g partID="137202">
  <g transform="translate(115.103,131.118)">
   <g transform="matrix(0,1,-1,0,0,0)">
    <g id="copper1" >
     <!-- <rect width="55" x="10" y="15.5" fill="none" height="55" stroke="rgb(255, 191, 0)" stroke-width="20" />  -->
     <circle r="1.98" stroke="black" id="connector0pin"  cx="2.7" cy="3.096" fill="black" stroke-width="2.16"/>
     <circle r="1.98" stroke="black" id="connector1pin"  cx="31.5" cy="3.096" fill="black" stroke-width="2.16"/>
    </g>
   </g>
  </g>
 </g>
 <g partID="167382">
  <g transform="translate(142.967,110.058)">
   <g transform="matrix(0,-1,1,0,0,0)">
    <g id="copper1" gorn="0.5">
     <g id="copper0" gorn="0.5.0">
      <circle r="2.088" stroke="black" id="connector0pin" cx="5.04" cy="5.04" gorn="0.5.0.0" fill="black" stroke-width="2.16"/>
      <g transform="matrix(0.71337341,-0.70078412,0.71337341,0.70078412,0,0)">
       <g>
        <g>
         <circle r="2.25238" stroke="black" id="connector1pin" cx="-5.20056" cy="12.2656" gorn="0.5.0.1.0.0" style="stroke-miterlimit:4;stroke-dasharray:none" fill="black" stroke-width="2.27337"/>
        </g>
       </g>
      </g>
      <circle r="2.088" stroke="black" id="connector2pin" cx="5.04" cy="19.44" gorn="0.5.0.2" fill="black" stroke-width="2.16"/>
      <circle r="2.088" stroke="black" id="connector3pin" cx="5.04" cy="26.64" gorn="0.5.0.3" fill="black" stroke-width="2.16"/>
      <rect width="4.85595" stroke="black" id="rect3887" height="4.85595" x="2.62651" y="9.84129" gorn="0.5.0.4" style="stroke-miterlimit:4;stroke-dasharray:none;" stroke-opacity="1" fill="black" stroke-width="1.93905"/>
     </g>
    </g>
   </g>
  </g>
 </g>
 <g partID="167372">
  <g transform="translate(142.967,88.4581)">
   <g transform="matrix(0,-1,1,0,0,0)">
    <g id="copper1" gorn="0.5">
     <g id="copper0" gorn="0.5.0">
      <circle r="2.088" stroke="black" id="connector0pin" cx="5.04" cy="5.04" gorn="0.5.0.0" fill="black" stroke-width="2.16"/>
      <g transform="matrix(0.71337341,-0.70078412,0.71337341,0.70078412,0,0)">
       <g>
        <g>
         <circle r="2.25238" stroke="black" id="connector1pin" cx="-5.20056" cy="12.2656" gorn="0.5.0.1.0.0" style="stroke-miterlimit:4;stroke-dasharray:none" fill="black" stroke-width="2.27337"/>
        </g>
       </g>
      </g>
      <circle r="2.088" stroke="black" id="connector2pin" cx="5.04" cy="19.44" gorn="0.5.0.2" fill="black" stroke-width="2.16"/>
      <circle r="2.088" stroke="black" id="connector3pin" cx="5.04" cy="26.64" gorn="0.5.0.3" fill="black" stroke-width="2.16"/>
      <rect width="4.85595" stroke="black" id="rect3887" height="4.85595" x="2.62651" y="9.84129" gorn="0.5.0.4" style="stroke-miterlimit:4;stroke-dasharray:none;" stroke-opacity="1" fill="black" stroke-width="1.93905"/>
     </g>
    </g>
   </g>
  </g>
 </g>
 <g partID="167362">
  <g transform="translate(174.647,135.978)">
   <g transform="matrix(0,1,-1,0,0,0)">
    <g id="copper1" gorn="0.5">
     <g id="copper0" gorn="0.5.0">
      <circle r="2.088" stroke="black" id="connector0pin" cx="5.04" cy="5.04" gorn="0.5.0.0" fill="black" stroke-width="2.16"/>
      <g transform="matrix(0.71337341,-0.70078412,0.71337341,0.70078412,0,0)">
       <g>
        <g>
         <circle r="2.25238" stroke="black" id="connector1pin" cx="-5.20056" cy="12.2656" gorn="0.5.0.1.0.0" style="stroke-miterlimit:4;stroke-dasharray:none" fill="black" stroke-width="2.27337"/>
        </g>
       </g>
      </g>
      <circle r="2.088" stroke="black" id="connector2pin" cx="5.04" cy="19.44" gorn="0.5.0.2" fill="black" stroke-width="2.16"/>
      <circle r="2.088" stroke="black" id="connector3pin" cx="5.04" cy="26.64" gorn="0.5.0.3" fill="black" stroke-width="2.16"/>
      <rect width="4.85595" stroke="black" id="rect3887" height="4.85595" x="2.62651" y="9.84129" gorn="0.5.0.4" style="stroke-miterlimit:4;stroke-dasharray:none;" stroke-opacity="1" fill="black" stroke-width="1.93905"/>
     </g>
    </g>
   </g>
  </g>
 </g>
 <g partID="167352">
  <g transform="translate(135.071,100.034)">
   <g transform="matrix(0,1,-1,0,0,0)">
    <g id="copper1" gorn="0.5">
     <g id="copper0" gorn="0.5.0">
      <circle r="2.088" stroke="black" id="connector0pin" cx="5.04" cy="5.04" gorn="0.5.0.0" fill="black" stroke-width="2.16"/>
      <g transform="matrix(0.71337341,-0.70078412,0.71337341,0.70078412,0,0)">
       <g>
        <g>
         <circle r="2.25238" stroke="black" id="connector1pin" cx="-5.20056" cy="12.2656" gorn="0.5.0.1.0.0" style="stroke-miterlimit:4;stroke-dasharray:none" fill="black" stroke-width="2.27337"/>
        </g>
       </g>
      </g>
      <circle r="2.088" stroke="black" id="connector2pin" cx="5.04" cy="19.44" gorn="0.5.0.2" fill="black" stroke-width="2.16"/>
      <circle r="2.088" stroke="black" id="connector3pin" cx="5.04" cy="26.64" gorn="0.5.0.3" fill="black" stroke-width="2.16"/>
      <rect width="4.85595" stroke="black" id="rect3887" height="4.85595" x="2.62651" y="9.84129" gorn="0.5.0.4" style="stroke-miterlimit:4;stroke-dasharray:none;" stroke-opacity="1" fill="black" stroke-width="1.93905"/>
     </g>
    </g>
   </g>
  </g>
 </g>
 <g partID="167342">
  <g transform="translate(135.133,110.942)">
   <g transform="matrix(0,1,-1,0,0,0)">
    <g id="copper1" gorn="0.5">
     <g id="copper0" gorn="0.5.0">
      <circle r="2.088" stroke="black" id="connector0pin" cx="5.04" cy="5.04" gorn="0.5.0.0" fill="black" stroke-width="2.16"/>
      <g transform="matrix(0.71337341,-0.70078412,0.71337341,0.70078412,0,0)">
       <g>
        <g>
         <circle r="2.25238" stroke="black" id="connector1pin" cx="-5.20056" cy="12.2656" gorn="0.5.0.1.0.0" style="stroke-miterlimit:4;stroke-dasharray:none" fill="black" stroke-width="2.27337"/>
        </g>
       </g>
      </g>
      <circle r="2.088" stroke="black" id="connector2pin" cx="5.04" cy="19.44" gorn="0.5.0.2" fill="black" stroke-width="2.16"/>
      <circle r="2.088" stroke="black" id="connector3pin" cx="5.04" cy="26.64" gorn="0.5.0.3" fill="black" stroke-width="2.16"/>
      <rect width="4.85595" stroke="black" id="rect3887" height="4.85595" x="2.62651" y="9.84129" gorn="0.5.0.4" style="stroke-miterlimit:4;stroke-dasharray:none;" stroke-opacity="1" fill="black" stroke-width="1.93905"/>
     </g>
    </g>
   </g>
  </g>
 </g>
 <g partID="167332">
  <g transform="translate(135.071,78.4337)">
   <g transform="matrix(0,1,-1,0,0,0)">
    <g id="copper1" gorn="0.5">
     <g id="copper0" gorn="0.5.0">
      <circle r="2.088" stroke="black" id="connector0pin" cx="5.04" cy="5.04" gorn="0.5.0.0" fill="black" stroke-width="2.16"/>
      <g transform="matrix(0.71337341,-0.70078412,0.71337341,0.70078412,0,0)">
       <g>
        <g>
         <circle r="2.25238" stroke="black" id="connector1pin" cx="-5.20056" cy="12.2656" gorn="0.5.0.1.0.0" style="stroke-miterlimit:4;stroke-dasharray:none" fill="black" stroke-width="2.27337"/>
        </g>
       </g>
      </g>
      <circle r="2.088" stroke="black" id="connector2pin" cx="5.04" cy="19.44" gorn="0.5.0.2" fill="black" stroke-width="2.16"/>
      <circle r="2.088" stroke="black" id="connector3pin" cx="5.04" cy="26.64" gorn="0.5.0.3" fill="black" stroke-width="2.16"/>
      <rect width="4.85595" stroke="black" id="rect3887" height="4.85595" x="2.62651" y="9.84129" gorn="0.5.0.4" style="stroke-miterlimit:4;stroke-dasharray:none;" stroke-opacity="1" fill="black" stroke-width="1.93905"/>
     </g>
    </g>
   </g>
  </g>
 </g>
 <g partID="167322">
  <g transform="translate(174.647,150.378)">
   <g transform="matrix(0,1,-1,0,0,0)">
    <g id="copper1" gorn="0.5">
     <g id="copper0" gorn="0.5.0">
      <circle r="2.088" stroke="black" id="connector0pin" cx="5.04" cy="5.04" gorn="0.5.0.0" fill="black" stroke-width="2.16"/>
      <g transform="matrix(0.71337341,-0.70078412,0.71337341,0.70078412,0,0)">
       <g>
        <g>
         <circle r="2.25238" stroke="black" id="connector1pin" cx="-5.20056" cy="12.2656" gorn="0.5.0.1.0.0" style="stroke-miterlimit:4;stroke-dasharray:none" fill="black" stroke-width="2.27337"/>
        </g>
       </g>
      </g>
      <circle r="2.088" stroke="black" id="connector2pin" cx="5.04" cy="19.44" gorn="0.5.0.2" fill="black" stroke-width="2.16"/>
      <circle r="2.088" stroke="black" id="connector3pin" cx="5.04" cy="26.64" gorn="0.5.0.3" fill="black" stroke-width="2.16"/>
      <rect width="4.85595" stroke="black" id="rect3887" height="4.85595" x="2.62651" y="9.84129" gorn="0.5.0.4" style="stroke-miterlimit:4;stroke-dasharray:none;" stroke-opacity="1" fill="black" stroke-width="1.93905"/>
     </g>
    </g>
   </g>
  </g>
 </g>
 <g partID="172022">
  <g transform="translate(117.767,135.978)">
   <g id="copper1" gorn="0.5">
    <g id="copper0" gorn="0.5.0">
     <circle r="2.088" stroke="black" id="connector0pin" cx="5.04" cy="5.04" gorn="0.5.0.0" fill="black" stroke-width="2.16"/>
     <g transform="matrix(0.71337341,-0.70078412,0.71337341,0.70078412,0,0)">
      <g>
       <g>
        <circle r="2.25238" stroke="black" id="connector1pin" cx="-5.20056" cy="12.2656" gorn="0.5.0.1.0.0" style="stroke-miterlimit:4;stroke-dasharray:none" fill="black" stroke-width="2.27337"/>
       </g>
      </g>
     </g>
     <circle r="2.088" stroke="black" id="connector2pin" cx="5.04" cy="19.44" gorn="0.5.0.2" fill="black" stroke-width="2.16"/>
     <circle r="2.088" stroke="black" id="connector3pin" cx="5.04" cy="26.64" gorn="0.5.0.3" fill="black" stroke-width="2.16"/>
     <rect width="4.796" stroke="black" id="rect3887" height="4.796" x="2.65909" y="2.64937" gorn="0.5.0.4" style="stroke-miterlimit:4;stroke-dasharray:none;" stroke-opacity="1" fill="black" stroke-width="1.924"/>
    </g>
   </g>
  </g>
 </g>
 <g partID="177172">
  <g transform="translate(174.647,175.578)">
   <g transform="matrix(0,1,-1,0,0,0)">
    <g id="copper1"  gorn="0.5">
     <g id="copper0"  gorn="0.5.0">
      <circle r="2.088" stroke="black" id="connector0pin"  cx="5.04" cy="5.04" gorn="0.5.0.0" fill="black" stroke-width="2.16"/>
      <circle r="2.088" stroke="black" id="connector1pin"  cx="5.04" cy="12.24" gorn="0.5.0.1" fill="black" stroke-width="2.16"/>
      <circle r="2.088" stroke="black" id="connector2pin"  cx="5.04" cy="19.44" gorn="0.5.0.2" fill="black" stroke-width="2.16"/>
      <circle r="2.088" stroke="black" id="connector3pin"  cx="5.04" cy="26.64" gorn="0.5.0.3" fill="black" stroke-width="2.16"/>
      <circle r="2.088" stroke="black" id="connector4pin"  cx="5.04" cy="33.84" gorn="0.5.0.4" fill="black" stroke-width="2.16"/>
      <rect width="4.60049" stroke="black" id="rect6729"  height="4.60049" x="2.73976" y="17.1398" gorn="0.5.0.5" style="stroke-miterlimit:4;stroke-dasharray:none;" stroke-opacity="1" fill="black" stroke-width="1.73551"/>
     </g>
    </g>
   </g>
  </g>
 </g>
</svg>
