<?xml version='1.0' encoding='UTF-8' standalone='no'?>
<!-- Created with Fritzing (http://www.fritzing.org/) -->
<svg xmlns="http://www.w3.org/2000/svg" width="2.54678in" version="1.2"  height="2.75372in" xmlns:svg="http://www.w3.org/2000/svg" x="0in" y="0in" viewBox="0 0 183.368 198.268" baseProfile="tiny">
 <g transform="matrix(-1, 0, 0, 1, 183.368, 0)">
  <g partID="125450">
   <g transform="matrix(1, 0, 0, 1, -7.99992, -0.499919)">
    <g id="board">
     <g fill-opacity="1" stroke="black" fill="none" stroke-width="0.5">
      <path fill-opacity="1" stroke="black" class="st0" d="M180.67,0.499919L18.6982,0.499919c-5.89905,0,-10.6983,4.79922,-10.6983,10.6983l0,176.871c0,5.89904,4.79923,10.6983,10.6983,10.6983L180.67,198.768c5.89905,0,10.6983,-4.79922,10.6983,-10.6983l0,-176.971c0,-5.89904,-4.79923,-10.5983,-10.6983,-10.5983zM14.7976,36.4941c-2.69957,0,-4.9992,-2.19964,-4.9992,-4.99919,0,-2.69956,2.19965,-4.99919,4.9992,-4.99919,2.79955,0,4.9992,2.19964,4.9992,4.99919,0,2.79955,-2.19965,4.99919,-4.9992,4.99919zM130.979,192.269c-2.69957,0,-4.9992,-2.19964,-4.9992,-4.99919,0,-2.79955,2.19965,-4.99919,4.9992,-4.99919,2.79955,0,4.9992,2.19964,4.9992,4.99919,0,2.79955,-2.19965,4.99919,-4.9992,4.99919zM184.57,36.4941c-2.69957,0,-4.9992,-2.19964,-4.9992,-4.99919,0,-2.69956,2.19965,-4.99919,4.9992,-4.99919,2.79955,0,4.9992,2.19964,4.9992,4.99919,0,2.79955,-2.19965,4.99919,-4.9992,4.99919z" id="boardoutline" fill="none" stroke-width="0.5"/>
     </g>
    </g>
   </g>
  </g>
  <g partID="854420850">
   <g transform="translate(18.8923,45.8166)">
    <g transform="matrix(1, 0, 0, 1, 53.104, 4.304)">
     <g id="copper0">
      <g transform="matrix(0.997054, 0, 0, 0.998472, -5.48398, 10.1258)">
       <g>
        <g gorn="0.1.0.0.0.0.3.0.0.0.0">
         <g id="copper1" gorn="0.1.0.0.0.0.3.0.0.0.0.0">
          <circle r="1.2672" stroke="black" id="connector2pad" cx="20.1632" cy="16.0288" gorn="0.1.0.0.0.0.3.0.0.0.0.0.0" fill="none" stroke-width="0.9216"/>
          <circle r="1.2672" stroke="black" id="connector42pin" cx="-44.6368" cy="1.6288" gorn="0.1.0.0.0.0.3.0.0.0.0.0.1" fill="none" stroke-width="0.9216"/>
          <circle r="1.2672" stroke="black" id="connector41pin" cx="-44.6368" cy="8.8288" gorn="0.1.0.0.0.0.3.0.0.0.0.0.2" fill="none" stroke-width="0.9216"/>
          <circle r="1.2672" stroke="black" id="connector40pin" cx="-44.6368" cy="16.0288" gorn="0.1.0.0.0.0.3.0.0.0.0.0.3" fill="none" stroke-width="0.9216"/>
          <circle r="1.2672" stroke="black" id="connector39pin" cx="-44.6368" cy="23.2288" gorn="0.1.0.0.0.0.3.0.0.0.0.0.4" fill="none" stroke-width="0.9216"/>
          <circle r="1.2672" stroke="black" id="connector38pin" cx="-44.6368" cy="30.4288" gorn="0.1.0.0.0.0.3.0.0.0.0.0.5" fill="none" stroke-width="0.9216"/>
          <circle r="1.2672" stroke="black" id="connector1pad" cx="20.1632" cy="8.8288" gorn="0.1.0.0.0.0.3.0.0.0.0.0.6" fill="none" stroke-width="0.9216"/>
          <circle r="1.2672" stroke="black" id="connector0pad" cx="20.1632" cy="1.6288" gorn="0.1.0.0.0.0.3.0.0.0.0.0.7" fill="none" stroke-width="0.9216"/>
          <circle r="1.2672" stroke="black" id="connector3pad" cx="20.1632" cy="23.2288" gorn="0.1.0.0.0.0.3.0.0.0.0.0.8" fill="none" stroke-width="0.9216"/>
          <circle r="1.2672" stroke="black" id="connector37pin" cx="-44.6368" cy="37.6288" gorn="0.1.0.0.0.0.3.0.0.0.0.0.9" fill="none" stroke-width="0.9216"/>
          <circle r="1.2672" stroke="black" id="connector36pin" cx="-44.6368" cy="44.8288" gorn="0.1.0.0.0.0.3.0.0.0.0.0.10" fill="none" stroke-width="0.9216"/>
          <circle r="1.2672" stroke="black" id="connector35pin" cx="-44.6368" cy="52.0288" gorn="0.1.0.0.0.0.3.0.0.0.0.0.11" fill="none" stroke-width="0.9216"/>
          <circle r="1.2672" stroke="black" id="connector34pin" cx="-44.6368" cy="59.2288" gorn="0.1.0.0.0.0.3.0.0.0.0.0.12" fill="none" stroke-width="0.9216"/>
          <circle r="1.2672" stroke="black" id="connector33pin" cx="-44.6368" cy="66.4288" gorn="0.1.0.0.0.0.3.0.0.0.0.0.13" fill="none" stroke-width="0.9216"/>
          <circle r="1.2672" stroke="black" id="connector19pad" cx="-44.6368" cy="73.6288" gorn="0.1.0.0.0.0.3.0.0.0.0.0.14" fill="none" stroke-width="0.9216"/>
          <circle r="1.2672" stroke="black" id="connector18pad" cx="-44.6368" cy="80.8288" gorn="0.1.0.0.0.0.3.0.0.0.0.0.15" fill="none" stroke-width="0.9216"/>
          <circle r="1.2672" stroke="black" id="connector17pad" cx="-44.6368" cy="88.0288" gorn="0.1.0.0.0.0.3.0.0.0.0.0.16" fill="none" stroke-width="0.9216"/>
          <circle r="1.2672" stroke="black" id="connector16pad" cx="-44.6368" cy="95.2288" gorn="0.1.0.0.0.0.3.0.0.0.0.0.17" fill="none" stroke-width="0.9216"/>
          <circle r="1.2672" stroke="black" id="connector15pad" cx="-44.6368" cy="102.429" gorn="0.1.0.0.0.0.3.0.0.0.0.0.18" fill="none" stroke-width="0.9216"/>
          <circle r="1.2672" stroke="black" id="connector7pad" cx="20.1632" cy="52.0288" gorn="0.1.0.0.0.0.3.0.0.0.0.0.19" fill="none" stroke-width="0.9216"/>
          <circle r="1.2672" stroke="black" id="connector8pad" cx="20.1632" cy="59.2288" gorn="0.1.0.0.0.0.3.0.0.0.0.0.20" fill="none" stroke-width="0.9216"/>
          <circle r="1.2672" stroke="black" id="connector9pad" cx="20.1632" cy="66.4288" gorn="0.1.0.0.0.0.3.0.0.0.0.0.21" fill="none" stroke-width="0.9216"/>
          <circle r="1.2672" stroke="black" id="connector10pad" cx="20.1632" cy="73.6288" gorn="0.1.0.0.0.0.3.0.0.0.0.0.22" fill="none" stroke-width="0.9216"/>
          <circle r="1.2672" stroke="black" id="connector11pad" cx="20.1632" cy="80.8288" gorn="0.1.0.0.0.0.3.0.0.0.0.0.23" fill="none" stroke-width="0.9216"/>
          <circle r="1.2672" stroke="black" id="connector12pad" cx="20.1632" cy="88.0288" gorn="0.1.0.0.0.0.3.0.0.0.0.0.24" fill="none" stroke-width="0.9216"/>
          <circle r="1.2672" stroke="black" id="connector13pad" cx="20.1632" cy="95.2288" gorn="0.1.0.0.0.0.3.0.0.0.0.0.25" fill="none" stroke-width="0.9216"/>
          <circle r="1.2672" stroke="black" id="connector14pad" cx="20.1632" cy="102.429" gorn="0.1.0.0.0.0.3.0.0.0.0.0.26" fill="none" stroke-width="0.9216"/>
          <circle r="1.2672" stroke="black" id="connector4pad" cx="20.1632" cy="30.4288" gorn="0.1.0.0.0.0.3.0.0.0.0.0.27" fill="none" stroke-width="0.9216"/>
          <circle r="1.2672" stroke="black" id="connector5pad" cx="20.1632" cy="37.6288" gorn="0.1.0.0.0.0.3.0.0.0.0.0.28" fill="none" stroke-width="0.9216"/>
          <circle r="1.2672" stroke="black" id="connector6pad" cx="20.1632" cy="44.8288" gorn="0.1.0.0.0.0.3.0.0.0.0.0.29" fill="none" stroke-width="0.9216"/>
         </g>
        </g>
       </g>
      </g>
     </g>
    </g>
   </g>
  </g>
  <g partID="854399090">
   <g transform="translate(101.207,4.21766)">
    <g id="copper0"  gorn="0.3.0">
     <circle r="1.96866" stroke="black" id="connector10pad" connectorname="AIN3"  cx="72" cy="43.2" gorn="0.3.0.0" stroke-width="1.10268" fill="none"/>
     <circle r="1.96866" stroke="black" id="connector11pad" connectorname="AIN2"  cx="64.8" cy="43.2" gorn="0.3.0.1" stroke-width="1.10268" fill="none"/>
     <circle r="1.96866" stroke="black" id="connector12pad" connectorname="AIN1"  cx="57.6" cy="43.2" gorn="0.3.0.2" stroke-width="1.10268" fill="none"/>
     <circle r="1.96866" stroke="black" id="connector13pad" connectorname="AIN0"  cx="50.4" cy="43.2" gorn="0.3.0.3" stroke-width="1.10268" fill="none"/>
     <circle r="1.96866" stroke="black" id="connector14pad" connectorname="ALERT"  cx="43.2" cy="43.2" gorn="0.3.0.4" stroke-width="1.10268" fill="none"/>
     <circle r="1.96866" stroke="black" id="connector15pad" connectorname="ADDR"  cx="36" cy="43.2" gorn="0.3.0.5" stroke-width="1.10268" fill="none"/>
     <circle r="1.96866" stroke="black" id="connector16pad" connectorname="SDA"  cx="28.8" cy="43.2" gorn="0.3.0.6" stroke-width="1.10268" fill="none"/>
     <circle r="1.96866" stroke="black" id="connector17pad" connectorname="SCL"  cx="21.6" cy="43.2" gorn="0.3.0.7" stroke-width="1.10268" fill="none"/>
     <circle r="1.96866" stroke="black" id="connector18pad" connectorname="GND"  cx="14.4" cy="43.2" gorn="0.3.0.8" stroke-width="1.10268" fill="none"/>
     <circle r="1.96866" stroke="black" id="connector19pad" connectorname="VDD"  cx="7.2" cy="43.2" gorn="0.3.0.9" stroke-width="1.10268" fill="none"/>
    </g>
   </g>
  </g>
  <g partID="854401560">
   <g transform="translate(178.247,53.1777)">
    <g transform="matrix(0,1,-1,0,0,0)">
     <g id="copper0" >
      <circle r="2.088" stroke="black" id="connector0pin"  cx="5.04" cy="5.04" fill="none" stroke-width="1.44"/>
      <circle r="2.088" stroke="black" id="connector1pin"  cx="5.04" cy="12.24" fill="none" stroke-width="1.44"/>
      <circle r="2.088" stroke="black" id="connector2pin"  cx="5.04" cy="19.44" fill="none" stroke-width="1.44"/>
      <circle r="2.088" stroke="black" id="connector3pin"  cx="5.04" cy="26.64" fill="none" stroke-width="1.44"/>
     </g>
    </g>
   </g>
  </g>
  <g partID="220270">
   <g transform="translate(10.2229,28.4477)">
    <g transform="matrix(1, 0, 0, 1, 54.8272, 21.6984)">
     <g id="copper0">
      <g transform="matrix(0.997054, 0, 0, 0.998472, -5.48398, 10.1258)">
       <g>
        <g gorn="0.3.0.0.0.0.0.0.0.0.0.3.0.0.0.0.0.0.0.0.0">
         <g id="copper1" gorn="0.3.0.0.0.0.0.0.0.0.0.3.0.0.0.0.0.0.0.0.0.0">
          <circle r="2.08798" stroke="black" id="connector2pad" cx="34.6289" cy="16.0288" gorn="0.3.0.0.0.0.0.0.0.0.0.3.0.0.0.0.0.0.0.0.0.0.0" stroke-width="1.43999" fill="none"/>
          <circle r="2.08798" stroke="black" id="connector42pin" cx="-44.6368" cy="1.6288" gorn="0.3.0.0.0.0.0.0.0.0.0.3.0.0.0.0.0.0.0.0.0.0.1" stroke-width="1.43999" fill="none"/>
          <circle r="2.08798" stroke="black" id="connector41pin" cx="-44.6368" cy="8.8288" gorn="0.3.0.0.0.0.0.0.0.0.0.3.0.0.0.0.0.0.0.0.0.0.2" stroke-width="1.43999" fill="none"/>
          <circle r="2.08798" stroke="black" id="connector40pin" cx="-44.6368" cy="16.0288" gorn="0.3.0.0.0.0.0.0.0.0.0.3.0.0.0.0.0.0.0.0.0.0.3" stroke-width="1.43999" fill="none"/>
          <circle r="2.08798" stroke="black" id="connector39pin" cx="-44.6368" cy="23.2288" gorn="0.3.0.0.0.0.0.0.0.0.0.3.0.0.0.0.0.0.0.0.0.0.4" stroke-width="1.43999" fill="none"/>
          <circle r="2.08798" stroke="black" id="connector38pin" cx="-44.6368" cy="30.4288" gorn="0.3.0.0.0.0.0.0.0.0.0.3.0.0.0.0.0.0.0.0.0.0.5" stroke-width="1.43999" fill="none"/>
          <circle r="2.08798" stroke="black" id="connector1pad" cx="34.6289" cy="8.8288" gorn="0.3.0.0.0.0.0.0.0.0.0.3.0.0.0.0.0.0.0.0.0.0.6" stroke-width="1.43999" fill="none"/>
          <circle r="2.08798" stroke="black" id="connector0pad" cx="34.6289" cy="1.6288" gorn="0.3.0.0.0.0.0.0.0.0.0.3.0.0.0.0.0.0.0.0.0.0.7" stroke-width="1.43999" fill="none"/>
          <circle r="2.08798" stroke="black" id="connector3pad" cx="34.6289" cy="23.2288" gorn="0.3.0.0.0.0.0.0.0.0.0.3.0.0.0.0.0.0.0.0.0.0.8" stroke-width="1.43999" fill="none"/>
          <circle r="2.08798" stroke="black" id="connector37pin" cx="-44.6368" cy="37.6288" gorn="0.3.0.0.0.0.0.0.0.0.0.3.0.0.0.0.0.0.0.0.0.0.9" stroke-width="1.43999" fill="none"/>
          <circle r="2.08798" stroke="black" id="connector36pin" cx="-44.6368" cy="44.8288" gorn="0.3.0.0.0.0.0.0.0.0.0.3.0.0.0.0.0.0.0.0.0.0.10" stroke-width="1.43999" fill="none"/>
          <circle r="2.08798" stroke="black" id="connector35pin" cx="-44.6368" cy="52.0288" gorn="0.3.0.0.0.0.0.0.0.0.0.3.0.0.0.0.0.0.0.0.0.0.11" stroke-width="1.43999" fill="none"/>
          <circle r="2.08798" stroke="black" id="connector34pin" cx="-44.6368" cy="59.2288" gorn="0.3.0.0.0.0.0.0.0.0.0.3.0.0.0.0.0.0.0.0.0.0.12" stroke-width="1.43999" fill="none"/>
          <circle r="2.08798" stroke="black" id="connector33pin" cx="-44.6368" cy="66.4288" gorn="0.3.0.0.0.0.0.0.0.0.0.3.0.0.0.0.0.0.0.0.0.0.13" stroke-width="1.43999" fill="none"/>
          <circle r="2.08798" stroke="black" id="connector19pad" cx="-44.6368" cy="73.6288" gorn="0.3.0.0.0.0.0.0.0.0.0.3.0.0.0.0.0.0.0.0.0.0.14" stroke-width="1.43999" fill="none"/>
          <circle r="2.08798" stroke="black" id="connector18pad" cx="-44.6368" cy="80.8288" gorn="0.3.0.0.0.0.0.0.0.0.0.3.0.0.0.0.0.0.0.0.0.0.15" stroke-width="1.43999" fill="none"/>
          <circle r="2.08798" stroke="black" id="connector17pad" cx="-44.6368" cy="88.0288" gorn="0.3.0.0.0.0.0.0.0.0.0.3.0.0.0.0.0.0.0.0.0.0.16" stroke-width="1.43999" fill="none"/>
          <circle r="2.08798" stroke="black" id="connector16pad" cx="-44.6368" cy="95.2288" gorn="0.3.0.0.0.0.0.0.0.0.0.3.0.0.0.0.0.0.0.0.0.0.17" stroke-width="1.43999" fill="none"/>
          <circle r="2.08798" stroke="black" id="connector15pad" cx="-44.6368" cy="102.429" gorn="0.3.0.0.0.0.0.0.0.0.0.3.0.0.0.0.0.0.0.0.0.0.18" stroke-width="1.43999" fill="none"/>
          <circle r="2.08798" stroke="black" id="connector7pad" cx="34.6289" cy="52.0288" gorn="0.3.0.0.0.0.0.0.0.0.0.3.0.0.0.0.0.0.0.0.0.0.19" stroke-width="1.43999" fill="none"/>
          <circle r="2.08798" stroke="black" id="connector8pad" cx="34.6289" cy="59.2288" gorn="0.3.0.0.0.0.0.0.0.0.0.3.0.0.0.0.0.0.0.0.0.0.20" stroke-width="1.43999" fill="none"/>
          <circle r="2.08798" stroke="black" id="connector9pad" cx="34.6289" cy="66.4288" gorn="0.3.0.0.0.0.0.0.0.0.0.3.0.0.0.0.0.0.0.0.0.0.21" stroke-width="1.43999" fill="none"/>
          <circle r="2.08798" stroke="black" id="connector10pad" cx="34.6289" cy="73.6288" gorn="0.3.0.0.0.0.0.0.0.0.0.3.0.0.0.0.0.0.0.0.0.0.22" stroke-width="1.43999" fill="none"/>
          <circle r="2.08798" stroke="black" id="connector11pad" cx="34.6289" cy="80.8288" gorn="0.3.0.0.0.0.0.0.0.0.0.3.0.0.0.0.0.0.0.0.0.0.23" stroke-width="1.43999" fill="none"/>
          <circle r="2.08798" stroke="black" id="connector12pad" cx="34.6289" cy="88.0288" gorn="0.3.0.0.0.0.0.0.0.0.0.3.0.0.0.0.0.0.0.0.0.0.24" stroke-width="1.43999" fill="none"/>
          <circle r="2.08798" stroke="black" id="connector13pad" cx="34.6289" cy="95.2288" gorn="0.3.0.0.0.0.0.0.0.0.0.3.0.0.0.0.0.0.0.0.0.0.25" stroke-width="1.43999" fill="none"/>
          <circle r="2.08798" stroke="black" id="connector14pad" cx="34.6289" cy="102.429" gorn="0.3.0.0.0.0.0.0.0.0.0.3.0.0.0.0.0.0.0.0.0.0.26" stroke-width="1.43999" fill="none"/>
          <circle r="2.08798" stroke="black" id="connector4pad" cx="34.6289" cy="30.4288" gorn="0.3.0.0.0.0.0.0.0.0.0.3.0.0.0.0.0.0.0.0.0.0.27" stroke-width="1.43999" fill="none"/>
          <circle r="2.08798" stroke="black" id="connector5pad" cx="34.6289" cy="37.6288" gorn="0.3.0.0.0.0.0.0.0.0.0.3.0.0.0.0.0.0.0.0.0.0.28" stroke-width="1.43999" fill="none"/>
          <circle r="2.08798" stroke="black" id="connector6pad" cx="34.6289" cy="44.8288" gorn="0.3.0.0.0.0.0.0.0.0.0.3.0.0.0.0.0.0.0.0.0.0.29" stroke-width="1.43999" fill="none"/>
         </g>
        </g>
       </g>
      </g>
     </g>
    </g>
   </g>
  </g>
  <g partID="137200">
   <g transform="translate(115.103,131.118)">
    <g transform="matrix(0,1,-1,0,0,0)">
     <g id="copper0" >
      <g id="copper1" >
       <!-- <rect width="55" x="10" y="15.5" fill="none" height="55" stroke="rgb(255, 191, 0)" stroke-width="20" />  -->
       <circle r="1.98" stroke="black" id="connector0pin"  cx="2.7" cy="3.096" fill="none" stroke-width="1.44"/>
       <circle r="1.98" stroke="black" id="connector1pin"  cx="31.5" cy="3.096" fill="none" stroke-width="1.44"/>
      </g>
     </g>
    </g>
   </g>
  </g>
  <g partID="167380">
   <g transform="translate(142.967,110.058)">
    <g transform="matrix(0,-1,1,0,0,0)">
     <g id="copper0" gorn="0.5.0">
      <circle r="2.088" stroke="black" id="connector0pin" cx="5.04" cy="5.04" gorn="0.5.0.0" fill="none" stroke-width="1.44"/>
      <g transform="matrix(0.71337341,-0.70078412,0.71337341,0.70078412,0,0)">
       <g>
        <g>
         <circle r="2.25238" stroke="black" id="connector1pin" cx="-5.20056" cy="12.2656" gorn="0.5.0.1.0.0" style="stroke-miterlimit:4;stroke-dasharray:none" fill="none" stroke-width="1.55337"/>
        </g>
       </g>
      </g>
      <circle r="2.088" stroke="black" id="connector2pin" cx="5.04" cy="19.44" gorn="0.5.0.2" fill="none" stroke-width="1.44"/>
      <circle r="2.088" stroke="black" id="connector3pin" cx="5.04" cy="26.64" gorn="0.5.0.3" fill="none" stroke-width="1.44"/>
      <rect width="4.85595" stroke="black" id="rect3887" height="4.85595" x="2.62651" y="9.84129" gorn="0.5.0.4" style="stroke-miterlimit:4;stroke-dasharray:none;" stroke-opacity="1" fill="none" stroke-width="1.21905"/>
     </g>
    </g>
   </g>
  </g>
  <g partID="167370">
   <g transform="translate(142.967,88.4581)">
    <g transform="matrix(0,-1,1,0,0,0)">
     <g id="copper0" gorn="0.5.0">
      <circle r="2.088" stroke="black" id="connector0pin" cx="5.04" cy="5.04" gorn="0.5.0.0" fill="none" stroke-width="1.44"/>
      <g transform="matrix(0.71337341,-0.70078412,0.71337341,0.70078412,0,0)">
       <g>
        <g>
         <circle r="2.25238" stroke="black" id="connector1pin" cx="-5.20056" cy="12.2656" gorn="0.5.0.1.0.0" style="stroke-miterlimit:4;stroke-dasharray:none" fill="none" stroke-width="1.55337"/>
        </g>
       </g>
      </g>
      <circle r="2.088" stroke="black" id="connector2pin" cx="5.04" cy="19.44" gorn="0.5.0.2" fill="none" stroke-width="1.44"/>
      <circle r="2.088" stroke="black" id="connector3pin" cx="5.04" cy="26.64" gorn="0.5.0.3" fill="none" stroke-width="1.44"/>
      <rect width="4.85595" stroke="black" id="rect3887" height="4.85595" x="2.62651" y="9.84129" gorn="0.5.0.4" style="stroke-miterlimit:4;stroke-dasharray:none;" stroke-opacity="1" fill="none" stroke-width="1.21905"/>
     </g>
    </g>
   </g>
  </g>
  <g partID="167360">
   <g transform="translate(174.647,135.978)">
    <g transform="matrix(0,1,-1,0,0,0)">
     <g id="copper0" gorn="0.5.0">
      <circle r="2.088" stroke="black" id="connector0pin" cx="5.04" cy="5.04" gorn="0.5.0.0" fill="none" stroke-width="1.44"/>
      <g transform="matrix(0.71337341,-0.70078412,0.71337341,0.70078412,0,0)">
       <g>
        <g>
         <circle r="2.25238" stroke="black" id="connector1pin" cx="-5.20056" cy="12.2656" gorn="0.5.0.1.0.0" style="stroke-miterlimit:4;stroke-dasharray:none" fill="none" stroke-width="1.55337"/>
        </g>
       </g>
      </g>
      <circle r="2.088" stroke="black" id="connector2pin" cx="5.04" cy="19.44" gorn="0.5.0.2" fill="none" stroke-width="1.44"/>
      <circle r="2.088" stroke="black" id="connector3pin" cx="5.04" cy="26.64" gorn="0.5.0.3" fill="none" stroke-width="1.44"/>
      <rect width="4.85595" stroke="black" id="rect3887" height="4.85595" x="2.62651" y="9.84129" gorn="0.5.0.4" style="stroke-miterlimit:4;stroke-dasharray:none;" stroke-opacity="1" fill="none" stroke-width="1.21905"/>
     </g>
    </g>
   </g>
  </g>
  <g partID="167350">
   <g transform="translate(135.071,100.034)">
    <g transform="matrix(0,1,-1,0,0,0)">
     <g id="copper0" gorn="0.5.0">
      <circle r="2.088" stroke="black" id="connector0pin" cx="5.04" cy="5.04" gorn="0.5.0.0" fill="none" stroke-width="1.44"/>
      <g transform="matrix(0.71337341,-0.70078412,0.71337341,0.70078412,0,0)">
       <g>
        <g>
         <circle r="2.25238" stroke="black" id="connector1pin" cx="-5.20056" cy="12.2656" gorn="0.5.0.1.0.0" style="stroke-miterlimit:4;stroke-dasharray:none" fill="none" stroke-width="1.55337"/>
        </g>
       </g>
      </g>
      <circle r="2.088" stroke="black" id="connector2pin" cx="5.04" cy="19.44" gorn="0.5.0.2" fill="none" stroke-width="1.44"/>
      <circle r="2.088" stroke="black" id="connector3pin" cx="5.04" cy="26.64" gorn="0.5.0.3" fill="none" stroke-width="1.44"/>
      <rect width="4.85595" stroke="black" id="rect3887" height="4.85595" x="2.62651" y="9.84129" gorn="0.5.0.4" style="stroke-miterlimit:4;stroke-dasharray:none;" stroke-opacity="1" fill="none" stroke-width="1.21905"/>
     </g>
    </g>
   </g>
  </g>
  <g partID="167340">
   <g transform="translate(135.133,110.942)">
    <g transform="matrix(0,1,-1,0,0,0)">
     <g id="copper0" gorn="0.5.0">
      <circle r="2.088" stroke="black" id="connector0pin" cx="5.04" cy="5.04" gorn="0.5.0.0" fill="none" stroke-width="1.44"/>
      <g transform="matrix(0.71337341,-0.70078412,0.71337341,0.70078412,0,0)">
       <g>
        <g>
         <circle r="2.25238" stroke="black" id="connector1pin" cx="-5.20056" cy="12.2656" gorn="0.5.0.1.0.0" style="stroke-miterlimit:4;stroke-dasharray:none" fill="none" stroke-width="1.55337"/>
        </g>
       </g>
      </g>
      <circle r="2.088" stroke="black" id="connector2pin" cx="5.04" cy="19.44" gorn="0.5.0.2" fill="none" stroke-width="1.44"/>
      <circle r="2.088" stroke="black" id="connector3pin" cx="5.04" cy="26.64" gorn="0.5.0.3" fill="none" stroke-width="1.44"/>
      <rect width="4.85595" stroke="black" id="rect3887" height="4.85595" x="2.62651" y="9.84129" gorn="0.5.0.4" style="stroke-miterlimit:4;stroke-dasharray:none;" stroke-opacity="1" fill="none" stroke-width="1.21905"/>
     </g>
    </g>
   </g>
  </g>
  <g partID="167330">
   <g transform="translate(135.071,78.4337)">
    <g transform="matrix(0,1,-1,0,0,0)">
     <g id="copper0" gorn="0.5.0">
      <circle r="2.088" stroke="black" id="connector0pin" cx="5.04" cy="5.04" gorn="0.5.0.0" fill="none" stroke-width="1.44"/>
      <g transform="matrix(0.71337341,-0.70078412,0.71337341,0.70078412,0,0)">
       <g>
        <g>
         <circle r="2.25238" stroke="black" id="connector1pin" cx="-5.20056" cy="12.2656" gorn="0.5.0.1.0.0" style="stroke-miterlimit:4;stroke-dasharray:none" fill="none" stroke-width="1.55337"/>
        </g>
       </g>
      </g>
      <circle r="2.088" stroke="black" id="connector2pin" cx="5.04" cy="19.44" gorn="0.5.0.2" fill="none" stroke-width="1.44"/>
      <circle r="2.088" stroke="black" id="connector3pin" cx="5.04" cy="26.64" gorn="0.5.0.3" fill="none" stroke-width="1.44"/>
      <rect width="4.85595" stroke="black" id="rect3887" height="4.85595" x="2.62651" y="9.84129" gorn="0.5.0.4" style="stroke-miterlimit:4;stroke-dasharray:none;" stroke-opacity="1" fill="none" stroke-width="1.21905"/>
     </g>
    </g>
   </g>
  </g>
  <g partID="167320">
   <g transform="translate(174.647,150.378)">
    <g transform="matrix(0,1,-1,0,0,0)">
     <g id="copper0" gorn="0.5.0">
      <circle r="2.088" stroke="black" id="connector0pin" cx="5.04" cy="5.04" gorn="0.5.0.0" fill="none" stroke-width="1.44"/>
      <g transform="matrix(0.71337341,-0.70078412,0.71337341,0.70078412,0,0)">
       <g>
        <g>
         <circle r="2.25238" stroke="black" id="connector1pin" cx="-5.20056" cy="12.2656" gorn="0.5.0.1.0.0" style="stroke-miterlimit:4;stroke-dasharray:none" fill="none" stroke-width="1.55337"/>
        </g>
       </g>
      </g>
      <circle r="2.088" stroke="black" id="connector2pin" cx="5.04" cy="19.44" gorn="0.5.0.2" fill="none" stroke-width="1.44"/>
      <circle r="2.088" stroke="black" id="connector3pin" cx="5.04" cy="26.64" gorn="0.5.0.3" fill="none" stroke-width="1.44"/>
      <rect width="4.85595" stroke="black" id="rect3887" height="4.85595" x="2.62651" y="9.84129" gorn="0.5.0.4" style="stroke-miterlimit:4;stroke-dasharray:none;" stroke-opacity="1" fill="none" stroke-width="1.21905"/>
     </g>
    </g>
   </g>
  </g>
  <g partID="172020">
   <g transform="translate(117.767,135.978)">
    <g id="copper0" gorn="0.5.0">
     <circle r="2.088" stroke="black" id="connector0pin" cx="5.04" cy="5.04" gorn="0.5.0.0" fill="none" stroke-width="1.44"/>
     <g transform="matrix(0.71337341,-0.70078412,0.71337341,0.70078412,0,0)">
      <g>
       <g>
        <circle r="2.25238" stroke="black" id="connector1pin" cx="-5.20056" cy="12.2656" gorn="0.5.0.1.0.0" style="stroke-miterlimit:4;stroke-dasharray:none" fill="none" stroke-width="1.55337"/>
       </g>
      </g>
     </g>
     <circle r="2.088" stroke="black" id="connector2pin" cx="5.04" cy="19.44" gorn="0.5.0.2" fill="none" stroke-width="1.44"/>
     <circle r="2.088" stroke="black" id="connector3pin" cx="5.04" cy="26.64" gorn="0.5.0.3" fill="none" stroke-width="1.44"/>
     <rect width="4.796" stroke="black" id="rect3887" height="4.796" x="2.65909" y="2.64937" gorn="0.5.0.4" style="stroke-miterlimit:4;stroke-dasharray:none;" stroke-opacity="1" fill="none" stroke-width="1.204"/>
    </g>
   </g>
  </g>
  <g partID="177170">
   <g transform="translate(174.647,175.578)">
    <g transform="matrix(0,1,-1,0,0,0)">
     <g id="copper0"  gorn="0.5.0">
      <circle r="2.088" stroke="black" id="connector0pin"  cx="5.04" cy="5.04" gorn="0.5.0.0" fill="none" stroke-width="1.44"/>
      <circle r="2.088" stroke="black" id="connector1pin"  cx="5.04" cy="12.24" gorn="0.5.0.1" fill="none" stroke-width="1.44"/>
      <circle r="2.088" stroke="black" id="connector2pin"  cx="5.04" cy="19.44" gorn="0.5.0.2" fill="none" stroke-width="1.44"/>
      <circle r="2.088" stroke="black" id="connector3pin"  cx="5.04" cy="26.64" gorn="0.5.0.3" fill="none" stroke-width="1.44"/>
      <circle r="2.088" stroke="black" id="connector4pin"  cx="5.04" cy="33.84" gorn="0.5.0.4" fill="none" stroke-width="1.44"/>
      <rect width="4.60049" stroke="black" id="rect6729"  height="4.60049" x="2.73976" y="17.1398" gorn="0.5.0.5" style="stroke-miterlimit:4;stroke-dasharray:none;" stroke-opacity="1" fill="none" stroke-width="1.01551"/>
     </g>
    </g>
   </g>
  </g>
  <g partID="854402470">
   <line stroke="black" y1="162.618" y2="162.618" x1="120.639" x2="114.067" stroke-linecap="round" stroke-width="1.728"/>
  </g>
  <g partID="854419190">
   <line stroke="black" y1="123.018" y2="118.258" x1="122.807" x2="122.865" stroke-linecap="round" stroke-width="1.728"/>
  </g>
  <g partID="854420270">
   <line stroke="black" y1="169.898" y2="169.898" x1="155.207" x2="79.607" stroke-linecap="round" stroke-width="1.728"/>
  </g>
  <g partID="854420100">
   <line stroke="black" y1="169.898" y2="155.338" x1="79.607" x2="79.607" stroke-linecap="round" stroke-width="1.728"/>
  </g>
  <g partID="854419930">
   <line stroke="black" y1="155.338" y2="155.353" x1="79.607" x2="91.929" stroke-linecap="round" stroke-width="1.728"/>
  </g>
  <g partID="854419760">
   <line stroke="black" y1="178.45" y2="169.898" x1="155.207" x2="155.207" stroke-linecap="round" stroke-width="1.728"/>
  </g>
  <g partID="854425310">
   <line stroke="black" y1="195.045" y2="182.786" x1="162.345" x2="162.397" stroke-linecap="round" stroke-width="1.728"/>
  </g>
  <g partID="854425120">
   <line stroke="black" y1="195.045" y2="195.045" x1="29.0887" x2="162.345" stroke-linecap="round" stroke-width="1.728"/>
  </g>
  <g partID="854424930">
   <line stroke="black" y1="162.518" y2="195.045" x1="29.207" x2="29.0888" stroke-linecap="round" stroke-width="1.728"/>
  </g>
  <g partID="854424740">
   <line stroke="black" y1="162.518" y2="162.518" x1="23.611" x2="29.207" stroke-linecap="round" stroke-width="1.728"/>
  </g>
  <g partID="229980">
   <line stroke="black" y1="83.4661" y2="83.472" x1="96.2573" x2="106.263" stroke-linecap="round" stroke-width="1.728"/>
  </g>
  <g partID="854400020">
   <line stroke="black" y1="155.338" y2="54.7553" x1="79.607" x2="79.607" stroke-linecap="round" stroke-width="1.728"/>
  </g>
  <g partID="854399850">
   <line stroke="black" y1="54.7549" y2="54.7549" x1="79.607" x2="115.505" stroke-linecap="round" stroke-width="1.728"/>
  </g>
  <g partID="854399680">
   <line stroke="black" y1="54.7549" y2="49.6347" x1="115.505" x2="115.576" stroke-linecap="round" stroke-width="1.728"/>
  </g>
  <g partID="854399510">
   <line stroke="black" y1="155.353" y2="155.338" x1="91.9294" x2="79.6074" stroke-linecap="round" stroke-width="1.728"/>
  </g>
  <g partID="854401860">
   <line stroke="black" y1="155.498" y2="155.434" x1="112.087" x2="120.639" stroke-linecap="round" stroke-width="1.728"/>
  </g>
  <g partID="227820">
   <line stroke="black" y1="135.878" y2="155.498" x1="112.015" x2="112.087" stroke-linecap="round" stroke-width="1.728"/>
  </g>
  <g partID="227980">
   <line stroke="black" y1="126.599" y2="126.599" x1="112.007" x2="96.2569" stroke-linecap="round" stroke-width="1.728"/>
  </g>
  <g partID="227920">
   <line stroke="black" y1="131.758" y2="126.599" x1="112.007" x2="112.007" stroke-linecap="round" stroke-width="1.728"/>
  </g>
  <g partID="228210">
   <line stroke="black" y1="162.609" y2="162.553" x1="109.947" x2="96.2569" stroke-linecap="round" stroke-width="1.728"/>
  </g>
  <g partID="854401930">
   <line stroke="black" y1="123.018" y2="123.018" x1="122.807" x2="101.207" stroke-linecap="round" stroke-width="1.728"/>
  </g>
  <g partID="225820">
   <line stroke="black" y1="138.85" y2="123.018" x1="122.807" x2="122.807" stroke-linecap="round" stroke-width="1.728"/>
  </g>
  <g partID="226080">
   <line stroke="black" y1="123.018" y2="105.018" x1="101.207" x2="101.207" stroke-linecap="round" stroke-width="1.728"/>
  </g>
  <g partID="225950">
   <line stroke="black" y1="105.018" y2="105.028" x1="101.207" x2="96.257" stroke-linecap="round" stroke-width="1.728"/>
  </g>
  <g partID="153660">
   <line stroke="black" y1="107.349" y2="113.707" x1="122.844" x2="122.88" stroke-linecap="round" stroke-width="1.728"/>
  </g>
  <g partID="153830">
   <line stroke="black" y1="107.242" y2="113.815" x1="130.044" x2="130.082" stroke-linecap="round" stroke-width="1.728"/>
  </g>
  <g partID="154000">
   <line stroke="black" y1="107.242" y2="113.815" x1="115.643" x2="115.681" stroke-linecap="round" stroke-width="1.728"/>
  </g>
  <g partID="154250">
   <line stroke="black" y1="107.242" y2="113.815" x1="108.443" x2="108.481" stroke-linecap="round" stroke-width="1.728"/>
  </g>
  <g partID="157190">
   <line stroke="black" y1="85.6417" y2="102.906" x1="108.431" x2="108.431" stroke-linecap="round" stroke-width="1.728"/>
  </g>
  <g partID="157280">
   <line stroke="black" y1="85.6417" y2="102.906" x1="115.631" x2="115.631" stroke-linecap="round" stroke-width="1.728"/>
  </g>
  <g partID="157370">
   <line stroke="black" y1="85.7494" y2="102.798" x1="122.831" x2="122.831" stroke-linecap="round" stroke-width="1.728"/>
  </g>
  <g partID="157580">
   <line stroke="black" y1="85.6417" y2="102.906" x1="130.031" x2="130.031" stroke-linecap="round" stroke-width="1.728"/>
  </g>
  <g partID="160100">
   <line stroke="black" y1="76.2517" y2="76.2051" x1="155.153" x2="122.889" stroke-linecap="round" stroke-width="1.728"/>
  </g>
  <g partID="159890">
   <line stroke="black" y1="76.2051" y2="81.198" x1="122.889" x2="122.849" stroke-linecap="round" stroke-width="1.728"/>
  </g>
  <g partID="159680">
   <line stroke="black" y1="81.142" y2="76.2513" x1="155.19" x2="155.153" stroke-linecap="round" stroke-width="1.728"/>
  </g>
  <g partID="160490">
   <line stroke="black" y1="72.5238" y2="81.3058" x1="115.527" x2="115.61" stroke-linecap="round" stroke-width="1.728"/>
  </g>
  <g partID="160400">
   <line stroke="black" y1="72.5238" y2="72.5238" x1="162.463" x2="115.527" stroke-linecap="round" stroke-width="1.728"/>
  </g>
  <g partID="160310">
   <line stroke="black" y1="81.2497" y2="72.5234" x1="162.418" x2="162.463" stroke-linecap="round" stroke-width="1.728"/>
  </g>
  <g partID="160580">
   <line stroke="black" y1="102.742" y2="85.6934" x1="155.207" x2="155.207" stroke-linecap="round" stroke-width="1.728"/>
  </g>
  <g partID="160970">
   <line stroke="black" y1="69.0727" y2="81.3057" x1="108.394" x2="108.425" stroke-linecap="round" stroke-width="1.728"/>
  </g>
  <g partID="160880">
   <line stroke="black" y1="69.0727" y2="69.0727" x1="169.595" x2="108.394" stroke-linecap="round" stroke-width="1.728"/>
  </g>
  <g partID="160790">
   <line stroke="black" y1="81.2497" y2="69.0723" x1="169.605" x2="169.595" stroke-linecap="round" stroke-width="1.728"/>
  </g>
  <g partID="161350">
   <line stroke="black" y1="102.85" y2="85.5857" x1="148.007" x2="148.007" stroke-linecap="round" stroke-width="1.728"/>
  </g>
  <g partID="161420">
   <line stroke="black" y1="83.467" y2="83.4248" x1="132.199" x2="145.839" stroke-linecap="round" stroke-width="1.728"/>
  </g>
  <g partID="162190">
   <line stroke="black" y1="102.85" y2="85.5857" x1="162.407" x2="162.407" stroke-linecap="round" stroke-width="1.728"/>
  </g>
  <g partID="162320">
   <line stroke="black" y1="102.85" y2="85.5857" x1="169.607" x2="169.607" stroke-linecap="round" stroke-width="1.728"/>
  </g>
  <g partID="163110">
   <line stroke="black" y1="115.818" y2="115.818" x1="155.127" x2="162.407" stroke-linecap="round" stroke-width="1.728"/>
  </g>
  <g partID="162980">
   <line stroke="black" y1="115.818" y2="107.186" x1="162.407" x2="162.407" stroke-linecap="round" stroke-width="1.728"/>
  </g>
  <g partID="162850">
   <line stroke="black" y1="138.85" y2="115.818" x1="155.2" x2="155.127" stroke-linecap="round" stroke-width="1.728"/>
  </g>
  <g partID="167040">
   <line stroke="black" y1="162.712" y2="162.646" x1="130.037" x2="124.975" stroke-linecap="round" stroke-width="1.728"/>
  </g>
  <g partID="166870">
   <line stroke="black" y1="118.15" y2="162.712" x1="130.091" x2="130.037" stroke-linecap="round" stroke-width="1.728"/>
  </g>
  <g partID="164830">
   <line stroke="black" y1="143.186" y2="153.25" x1="169.607" x2="169.607" stroke-linecap="round" stroke-width="1.728"/>
  </g>
  <g partID="164580">
   <line stroke="black" y1="143.293" y2="153.142" x1="162.407" x2="162.407" stroke-linecap="round" stroke-width="1.728"/>
  </g>
  <g partID="165150">
   <line stroke="black" y1="153.25" y2="143.186" x1="155.207" x2="155.207" stroke-linecap="round" stroke-width="1.728"/>
  </g>
  <g partID="164980">
   <line stroke="black" y1="153.25" y2="143.186" x1="148.007" x2="148.007" stroke-linecap="round" stroke-width="1.728"/>
  </g>
  <g partID="179960">
   <line stroke="black" y1="166.218" y2="166.218" x1="162.487" x2="155.287" stroke-linecap="round" stroke-width="1.728"/>
  </g>
  <g partID="179710">
   <line stroke="black" y1="166.218" y2="178.45" x1="155.287" x2="155.219" stroke-linecap="round" stroke-width="1.728"/>
  </g>
  <g partID="179460">
   <line stroke="black" y1="157.693" y2="166.218" x1="162.424" x2="162.487" stroke-linecap="round" stroke-width="1.728"/>
  </g>
  <g partID="179010">
   <line stroke="black" y1="157.586" y2="173.418" x1="169.607" x2="169.607" stroke-linecap="round" stroke-width="1.728"/>
  </g>
  <g partID="179310">
   <line stroke="black" y1="173.418" y2="173.418" x1="169.607" x2="162.407" stroke-linecap="round" stroke-width="1.728"/>
  </g>
  <g partID="179160">
   <line stroke="black" y1="173.418" y2="178.45" x1="162.407" x2="162.407" stroke-linecap="round" stroke-width="1.728"/>
  </g>
 </g>
</svg>
