<?xml version="1.0" encoding="utf-8"?>
<!-- Generator: Adobe Illustrator 23.0.3, SVG Export Plug-In . SVG Version: 6.00 Build 0)  -->
<svg version="1.1"
	 id="Lager_1" xmlns:cc="http://creativecommons.org/ns#" xmlns:dc="http://purl.org/dc/elements/1.1/" xmlns:rdf="http://www.w3.org/1999/02/22-rdf-syntax-ns#" xmlns:svg="http://www.w3.org/2000/svg"
	 xmlns="http://www.w3.org/2000/svg" xmlns:xlink="http://www.w3.org/1999/xlink" x="0px" y="0px" viewBox="0 0 199.4 199.4"
	 style="enable-background:new 0 0 199.4 199.4;" xml:space="preserve">
<style type="text/css">
	.st0{fill:#787878;}
</style>
<g id="board">
	<path id="path4" class="st0" d="M188.2,0.5h-177C5.3,0.5,0.5,5.3,0.5,11.2v176.9c0,5.9,4.8,10.7,10.7,10.7h177
		c5.9,0,10.7-4.8,10.7-10.7v-177C198.9,5.2,194.1,0.5,188.2,0.5z M14.8,36.5c-2.7,0-5-2.2-5-5c0-2.7,2.2-5,5-5s5,2.2,5,5
		S17.6,36.5,14.8,36.5z M131,192.3c-2.7,0-5-2.2-5-5s2.2-5,5-5s5,2.2,5,5S133.8,192.3,131,192.3z M184.6,36.5c-2.7,0-5-2.2-5-5
		c0-2.7,2.2-5,5-5s5,2.2,5,5S187.4,36.5,184.6,36.5z"/>
</g>
<g id="silkscreen">
</g>
</svg>
