<?xml-stylesheet href="https://s3.amazonaws.com/maker.works.boards/css/blackpcb.css" type="text/css"?><svg xmlns="http://www.w3.org/2000/svg" version="1.1" xmlns:xlink="http://www.w3.org/1999/xlink" stroke-width="0" stroke-linecap="round" stroke-linejoin="round" width="2.545in" height="2.7520000000000002in" id="pcb_bottom" viewBox="4 4 2545 2752"><defs><circle cx="0" cy="0" r="17.5" id="tool-T10-pad-1000"/><circle cx="0" cy="0" r="18" id="tool-T11-pad-1001"/><circle cx="0" cy="0" r="19" id="tool-T12-pad-1002"/><circle cx="0" cy="0" r="8" id="tool-T13-pad-1003"/><circle cx="0" cy="0" r="20.5" id="tool-T14-pad-1004"/><circle cx="0" cy="0" r="37.5" id="tool-D10-pad-1005"/><circle cx="0" cy="0" r="39" id="tool-D11-pad-1006"/><circle cx="0" cy="0" r="42.05" id="tool-D12-pad-1007"/><circle cx="0" cy="0" r="38.9" id="tool-D13-pad-1008"/><circle cx="0" cy="0" r="19.7" id="tool-D14-pad-1009"/><rect x="-42.2" y="-42.2" width="84.4" height="84.4" id="tool-D15-pad-1010"/><rect x="-41.65" y="-41.65" width="83.3" height="83.3" id="tool-D16-pad-1011"/><rect x="-38.9" y="-38.9" width="77.8" height="77.8" id="tool-D17-pad-1012"/><rect x="-39" y="-39" width="78" height="78" id="tool-D18-pad-1013"/><circle cx="0" cy="0" r="42.5" id="tool-D10-pad-1015"/><circle cx="0" cy="0" r="44" id="tool-D11-pad-1016"/><circle cx="0" cy="0" r="47.05" id="tool-D12-pad-1017"/><circle cx="0" cy="0" r="43.9" id="tool-D13-pad-1018"/><circle cx="0" cy="0" r="24.7" id="tool-D14-pad-1019"/><rect x="-47.2" y="-47.2" width="94.4" height="94.4" id="tool-D15-pad-1020"/><rect x="-46.65" y="-46.65" width="93.3" height="93.3" id="tool-D16-pad-1021"/><rect x="-43.9" y="-43.9" width="87.8" height="87.8" id="tool-D17-pad-1022"/><rect x="-44" y="-44" width="88" height="88" id="tool-D18-pad-1023"/><g id="pcb_bottom-cu" fill="currentColor" stroke="currentColor"><use x="809" y="1248" xlink:href="#tool-D10-pad-1005"/><use x="809" y="848" xlink:href="#tool-D10-pad-1005"/><use x="2009" y="1648" xlink:href="#tool-D11-pad-1006"/><use x="2109" y="1648" xlink:href="#tool-D12-pad-1007"/><use x="2209" y="1648" xlink:href="#tool-D11-pad-1006"/><use x="2309" y="1648" xlink:href="#tool-D11-pad-1006"/><use x="2009" y="1948" xlink:href="#tool-D11-pad-1006"/><use x="2109" y="1948" xlink:href="#tool-D12-pad-1007"/><use x="2209" y="1948" xlink:href="#tool-D11-pad-1006"/><use x="2309" y="1948" xlink:href="#tool-D11-pad-1006"/><use x="2309" y="1148" xlink:href="#tool-D11-pad-1006"/><use x="2209" y="1148" xlink:href="#tool-D12-pad-1007"/><use x="2109" y="1148" xlink:href="#tool-D11-pad-1006"/><use x="2009" y="1148" xlink:href="#tool-D11-pad-1006"/><use x="1760" y="1647" xlink:href="#tool-D11-pad-1006"/><use x="1660" y="1647" xlink:href="#tool-D12-pad-1007"/><use x="1560" y="1647" xlink:href="#tool-D11-pad-1006"/><use x="1460" y="1647" xlink:href="#tool-D11-pad-1006"/><use x="1760" y="1347" xlink:href="#tool-D11-pad-1006"/><use x="1660" y="1347" xlink:href="#tool-D12-pad-1007"/><use x="1560" y="1347" xlink:href="#tool-D11-pad-1006"/><use x="1460" y="1347" xlink:href="#tool-D11-pad-1006"/><use x="1760" y="1947" xlink:href="#tool-D11-pad-1006"/><use x="1660" y="1947" xlink:href="#tool-D12-pad-1007"/><use x="1560" y="1947" xlink:href="#tool-D11-pad-1006"/><use x="1460" y="1947" xlink:href="#tool-D11-pad-1006"/><use x="2309" y="948" xlink:href="#tool-D11-pad-1006"/><use x="2209" y="948" xlink:href="#tool-D12-pad-1007"/><use x="2109" y="948" xlink:href="#tool-D11-pad-1006"/><use x="2009" y="948" xlink:href="#tool-D11-pad-1006"/><use x="1509" y="1148" xlink:href="#tool-D11-pad-1006"/><use x="1509" y="1048" xlink:href="#tool-D12-pad-1007"/><use x="1509" y="948" xlink:href="#tool-D11-pad-1006"/><use x="1509" y="848" xlink:href="#tool-D11-pad-1006"/><use x="409" y="1748" xlink:href="#tool-D13-pad-1008"/><use x="409" y="1648" xlink:href="#tool-D13-pad-1008"/><use x="409" y="1548" xlink:href="#tool-D13-pad-1008"/><use x="409" y="1448" xlink:href="#tool-D13-pad-1008"/><use x="409" y="1348" xlink:href="#tool-D13-pad-1008"/><use x="409" y="1248" xlink:href="#tool-D13-pad-1008"/><use x="409" y="1148" xlink:href="#tool-D13-pad-1008"/><use x="409" y="1048" xlink:href="#tool-D13-pad-1008"/><use x="1309" y="1048" xlink:href="#tool-D13-pad-1008"/><use x="1309" y="1148" xlink:href="#tool-D13-pad-1008"/><use x="1309" y="1248" xlink:href="#tool-D13-pad-1008"/><use x="1309" y="1348" xlink:href="#tool-D13-pad-1008"/><use x="1309" y="1448" xlink:href="#tool-D13-pad-1008"/><use x="1309" y="1548" xlink:href="#tool-D13-pad-1008"/><use x="1309" y="1648" xlink:href="#tool-D13-pad-1008"/><use x="1309" y="1748" xlink:href="#tool-D13-pad-1008"/><use x="2309" y="598" xlink:href="#tool-D11-pad-1006"/><use x="2209" y="598" xlink:href="#tool-D11-pad-1006"/><use x="2109" y="598" xlink:href="#tool-D11-pad-1006"/><use x="2009" y="598" xlink:href="#tool-D11-pad-1006"/><use x="1909" y="598" xlink:href="#tool-D11-pad-1006"/><use x="1159" y="448" xlink:href="#tool-D14-pad-1009"/><use x="2110" y="1648" xlink:href="#tool-D15-pad-1010"/><use x="2110" y="1948" xlink:href="#tool-D15-pad-1010"/><use x="2209" y="1148" xlink:href="#tool-D15-pad-1010"/><use x="1659" y="1647" xlink:href="#tool-D15-pad-1010"/><use x="1659" y="1347" xlink:href="#tool-D15-pad-1010"/><use x="1659" y="1947" xlink:href="#tool-D15-pad-1010"/><use x="2209" y="948" xlink:href="#tool-D15-pad-1010"/><use x="1510" y="1148" xlink:href="#tool-D16-pad-1011"/><use x="1309" y="1148" xlink:href="#tool-D17-pad-1012"/><use x="2109" y="598" xlink:href="#tool-D18-pad-1013"/><path stroke-width="24" fill="none" d="M 1660 1616 L 1660 1379 M 1760 1617 L 1760 1377 M 1560 1617 L 1560 1377 M 1460 1617 L 1460 1377 M 1460 1917 L 1460 1677 M 1560 1917 L 1560 1677 M 1660 1916 L 1660 1679 M 1760 1917 L 1760 1677 M 2109 2047 L 1660 2048 M 1660 2048 L 1660 1979 M 2109 1980 L 2109 2047 M 1558 2099 L 1559 1977 M 2210 2099 L 1558 2099 M 2209 1978 L 2210 2099 M 2109 1680 L 2109 1916 M 1459 2147 L 1460 1977 M 2309 2147 L 1459 2147 M 2309 1978 L 2309 2147 M 2009 1678 L 2009 1918 M 1790 1947 L 1979 1948 M 2209 1678 L 2209 1918 M 2309 1678 L 2309 1918 M 2109 1548 L 2209 1548 M 2209 1548 L 2209 1618 M 2109 1178 L 2109 1548 M 909 948 L 909 1249 M 909 1249 L 838 1248 M 1479 948 L 909 948 M 1479 848 L 838 848 M 1659 1148 L 1539 1148 M 1660 1316 L 1659 1148 M 1760 847 L 1539 848 M 1760 1317 L 1760 847 M 2309 1118 L 2309 978 M 2209 1116 L 2209 980 M 2109 978 L 2109 1118 M 2009 978 L 2009 1118 M 1558 1249 L 1338 1248 M 1559 1317 L 1558 1249 M 1430 1347 L 1338 1348 M 609 847 L 781 848 M 609 1048 L 609 847 M 438 1048 L 609 1048 M 438 1248 L 781 1248 M 2210 748 L 2108 748 M 2108 748 L 2109 628 M 2209 916 L 2210 748 M 2309 918 L 2309 696 M 2309 696 L 2210 696 M 2210 696 L 2210 628 M 1479 1148 L 1338 1148 M 1178 448 L 2108 447 M 2108 447 L 2109 568"/></g><mask id="pcb_bottom_mech-mask" fill="#fff" stroke="#fff" fill-rule="evenodd"><path stroke-width="0" d="M 141 2756 L 140 2755 L 139 2755 L 138 2755 L 137 2755 L 136 2755 L 135 2755 L 134 2755 L 133 2755 L 132 2755 L 131 2754 L 130 2754 L 129 2754 L 128 2754 L 127 2754 L 126 2754 L 125 2753 L 124 2753 L 123 2753 L 122 2753 L 121 2753 L 120 2752 L 119 2752 L 118 2752 L 117 2752 L 116 2752 L 115 2751 L 114 2751 L 113 2751 L 112 2750 L 111 2750 L 110 2750 L 109 2750 L 108 2749 L 107 2749 L 106 2749 L 105 2748 L 104 2748 L 103 2748 L 102 2747 L 101 2747 L 100 2747 L 99 2746 L 98 2746 L 97 2745 L 96 2745 L 95 2745 L 94 2744 L 93 2744 L 92 2743 L 91 2743 L 90 2742 L 89 2742 L 88 2741 L 87 2741 L 86 2740 L 85 2740 L 84 2739 L 83 2739 L 82 2738 L 81 2738 L 80 2737 L 79 2737 L 78 2736 L 77 2736 L 76 2735 L 75 2734 L 74 2734 L 73 2733 L 72 2732 L 71 2732 L 70 2731 L 69 2731 L 68 2730 L 67 2729 L 66 2728 L 65 2728 L 64 2727 L 63 2726 L 62 2725 L 61 2725 L 60 2724 L 59 2723 L 58 2722 L 57 2722 L 56 2721 L 55 2720 L 54 2719 L 53 2718 L 52 2717 L 51 2716 L 50 2715 L 49 2714 L 48 2713 L 47 2712 L 46 2711 L 45 2710 L 44 2709 L 43 2708 L 42 2707 L 41 2706 L 40 2705 L 39 2704 L 38 2703 L 38 2702 L 37 2701 L 36 2700 L 35 2699 L 35 2698 L 34 2697 L 33 2696 L 32 2695 L 32 2694 L 31 2693 L 30 2692 L 29 2691 L 29 2690 L 28 2689 L 28 2688 L 27 2687 L 26 2686 L 26 2685 L 25 2684 L 24 2683 L 24 2682 L 23 2681 L 23 2680 L 22 2679 L 22 2678 L 21 2677 L 21 2676 L 20 2675 L 20 2674 L 19 2673 L 19 2672 L 18 2671 L 18 2670 L 17 2669 L 17 2668 L 16 2667 L 16 2666 L 15 2665 L 15 2663 L 14 2662 L 14 2661 L 13 2660 L 13 2658 L 12 2657 L 12 2655 L 11 2654 L 11 2652 L 10 2651 L 10 2648 L 9 2647 L 9 2645 L 8 2644 L 8 2640 L 7 2639 L 7 2635 L 6 2634 L 6 2629 L 5 2628 L 5 2620 L 4 2619 L 4 141 L 5 140 L 5 132 L 6 131 L 6 126 L 7 125 L 7 121 L 8 120 L 8 116 L 9 115 L 9 113 L 10 112 L 10 109 L 11 108 L 11 106 L 12 105 L 12 103 L 13 102 L 13 100 L 14 99 L 14 98 L 15 97 L 15 95 L 16 94 L 16 93 L 17 92 L 17 91 L 18 90 L 18 89 L 19 88 L 19 87 L 20 86 L 20 85 L 21 84 L 21 83 L 22 82 L 22 81 L 23 80 L 23 79 L 24 78 L 24 77 L 25 76 L 26 75 L 26 74 L 27 73 L 28 72 L 28 71 L 29 70 L 29 69 L 30 68 L 31 67 L 32 66 L 32 65 L 33 64 L 34 63 L 35 62 L 35 61 L 36 60 L 37 59 L 38 58 L 38 57 L 39 56 L 40 55 L 41 54 L 42 53 L 43 52 L 44 51 L 45 50 L 46 49 L 47 48 L 48 47 L 49 46 L 50 45 L 51 44 L 52 43 L 53 42 L 54 41 L 55 40 L 56 39 L 57 38 L 58 38 L 59 37 L 60 36 L 61 35 L 62 35 L 63 34 L 64 33 L 65 32 L 66 32 L 67 31 L 68 30 L 69 29 L 70 29 L 71 28 L 72 28 L 73 27 L 74 26 L 75 26 L 76 25 L 77 24 L 78 24 L 79 23 L 80 23 L 81 22 L 82 22 L 83 21 L 84 21 L 85 20 L 86 20 L 87 19 L 88 19 L 89 18 L 90 18 L 91 17 L 92 17 L 93 16 L 94 16 L 95 15 L 96 15 L 97 15 L 98 14 L 99 14 L 100 13 L 101 13 L 102 13 L 103 12 L 104 12 L 105 12 L 106 11 L 107 11 L 108 11 L 109 10 L 110 10 L 111 10 L 112 10 L 113 9 L 114 9 L 115 9 L 116 8 L 117 8 L 118 8 L 119 8 L 120 8 L 121 7 L 122 7 L 123 7 L 124 7 L 125 7 L 126 6 L 127 6 L 128 6 L 129 6 L 130 6 L 131 6 L 132 5 L 133 5 L 134 5 L 135 5 L 136 5 L 137 5 L 138 5 L 139 5 L 140 5 L 141 4 L 142 4 L 143 4 L 144 4 L 145 4 L 146 4 L 147 4 L 148 4 L 149 4 L 150 4 L 151 4 L 152 4 L 153 4 L 154 4 L 155 4 L 156 4 L 157 4 L 158 4 L 159 4 L 160 4 L 161 4 L 162 4 L 163 4 L 164 4 L 165 4 L 166 4 L 167 4 L 168 4 L 169 4 L 170 4 L 171 4 L 172 4 L 173 4 L 174 4 L 175 4 L 176 4 L 177 4 L 178 4 L 179 4 L 180 4 L 181 4 L 182 4 L 183 4 L 184 4 L 185 4 L 186 4 L 187 4 L 188 4 L 189 4 L 190 4 L 191 4 L 192 4 L 193 4 L 194 4 L 195 4 L 196 4 L 197 4 L 198 4 L 199 4 L 200 4 L 201 4 L 202 4 L 203 4 L 204 4 L 205 4 L 206 4 L 207 4 L 208 4 L 209 4 L 210 4 L 211 4 L 212 4 L 213 4 L 214 4 L 215 4 L 216 4 L 217 4 L 218 4 L 219 4 L 220 4 L 221 4 L 222 4 L 223 4 L 224 4 L 225 4 L 226 4 L 227 4 L 228 4 L 229 4 L 230 4 L 231 4 L 232 4 L 233 4 L 234 4 L 235 4 L 236 4 L 237 4 L 238 4 L 239 4 L 240 4 L 241 4 L 242 4 L 243 4 L 244 4 L 245 4 L 246 4 L 247 4 L 248 4 L 249 4 L 250 4 L 251 4 L 252 4 L 253 4 L 254 4 L 255 4 L 256 4 L 257 4 L 258 4 L 259 4 L 260 4 L 261 4 L 262 4 L 263 4 L 264 4 L 265 4 L 266 4 L 267 4 L 268 4 L 269 4 L 270 4 L 271 4 L 272 4 L 273 4 L 274 4 L 275 4 L 276 4 L 277 4 L 278 4 L 279 4 L 280 4 L 281 4 L 282 4 L 283 4 L 284 4 L 285 4 L 286 4 L 287 4 L 288 4 L 289 4 L 290 4 L 291 4 L 292 4 L 293 4 L 294 4 L 295 4 L 296 4 L 297 4 L 298 4 L 299 4 L 300 4 L 301 4 L 302 4 L 303 4 L 304 4 L 305 4 L 306 4 L 307 4 L 308 4 L 309 4 L 310 4 L 311 4 L 312 4 L 313 4 L 314 4 L 315 4 L 316 4 L 317 4 L 318 4 L 319 4 L 320 4 L 321 4 L 322 4 L 323 4 L 324 4 L 325 4 L 326 4 L 327 4 L 328 4 L 329 4 L 330 4 L 331 4 L 332 4 L 333 4 L 334 4 L 335 4 L 336 4 L 337 4 L 338 4 L 339 4 L 340 4 L 341 4 L 342 4 L 343 4 L 344 4 L 345 4 L 346 4 L 347 4 L 348 4 L 349 4 L 350 4 L 351 4 L 352 4 L 353 4 L 354 4 L 355 4 L 356 4 L 357 4 L 358 4 L 359 4 L 360 4 L 361 4 L 362 4 L 363 4 L 364 4 L 365 4 L 366 4 L 367 4 L 368 4 L 369 4 L 370 4 L 371 4 L 372 4 L 373 4 L 374 4 L 375 4 L 376 4 L 377 4 L 378 4 L 379 4 L 380 4 L 381 4 L 382 4 L 383 4 L 384 4 L 385 4 L 386 4 L 387 4 L 388 4 L 389 4 L 390 4 L 391 4 L 392 4 L 393 4 L 394 4 L 395 4 L 396 4 L 397 4 L 398 4 L 399 4 L 400 4 L 401 4 L 402 4 L 403 4 L 404 4 L 405 4 L 406 4 L 407 4 L 408 4 L 409 4 L 410 4 L 411 4 L 412 4 L 413 4 L 414 4 L 415 4 L 416 4 L 417 4 L 418 4 L 419 4 L 420 4 L 421 4 L 422 4 L 423 4 L 424 4 L 425 4 L 426 4 L 427 4 L 428 4 L 429 4 L 430 4 L 431 4 L 432 4 L 433 4 L 434 4 L 435 4 L 436 4 L 437 4 L 438 4 L 439 4 L 440 4 L 441 4 L 442 4 L 443 4 L 444 4 L 445 4 L 446 4 L 447 4 L 448 4 L 449 4 L 450 4 L 451 4 L 452 4 L 453 4 L 454 4 L 455 4 L 456 4 L 457 4 L 458 4 L 459 4 L 460 4 L 461 4 L 462 4 L 463 4 L 464 4 L 465 4 L 466 4 L 467 4 L 468 4 L 469 4 L 470 4 L 471 4 L 472 4 L 473 4 L 474 4 L 475 4 L 476 4 L 477 4 L 478 4 L 479 4 L 480 4 L 481 4 L 482 4 L 483 4 L 484 4 L 485 4 L 486 4 L 487 4 L 488 4 L 489 4 L 490 4 L 491 4 L 492 4 L 493 4 L 494 4 L 495 4 L 496 4 L 497 4 L 498 4 L 499 4 L 500 4 L 501 4 L 502 4 L 503 4 L 504 4 L 505 4 L 506 4 L 507 4 L 508 4 L 509 4 L 510 4 L 511 4 L 512 4 L 513 4 L 514 4 L 515 4 L 516 4 L 517 4 L 518 4 L 519 4 L 520 4 L 521 4 L 522 4 L 523 4 L 524 4 L 525 4 L 526 4 L 527 4 L 528 4 L 529 4 L 530 4 L 531 4 L 532 4 L 533 4 L 534 4 L 535 4 L 536 4 L 537 4 L 538 4 L 539 4 L 540 4 L 541 4 L 542 4 L 543 4 L 544 4 L 545 4 L 546 4 L 547 4 L 548 4 L 549 4 L 550 4 L 551 4 L 552 4 L 553 4 L 554 4 L 555 4 L 556 4 L 557 4 L 558 4 L 559 4 L 560 4 L 561 4 L 562 4 L 563 4 L 564 4 L 565 4 L 566 4 L 567 4 L 568 4 L 569 4 L 570 4 L 571 4 L 572 4 L 573 4 L 574 4 L 575 4 L 576 4 L 577 4 L 578 4 L 579 4 L 580 4 L 581 4 L 582 4 L 583 4 L 584 4 L 585 4 L 586 4 L 587 4 L 588 4 L 589 4 L 590 4 L 591 4 L 592 4 L 593 4 L 594 4 L 595 4 L 596 4 L 597 4 L 598 4 L 599 4 L 600 4 L 601 4 L 602 4 L 603 4 L 604 4 L 605 4 L 606 4 L 607 4 L 608 4 L 609 4 L 610 4 L 611 4 L 612 4 L 613 4 L 614 4 L 615 4 L 616 4 L 617 4 L 618 4 L 619 4 L 620 4 L 621 4 L 622 4 L 623 4 L 624 4 L 625 4 L 626 4 L 627 4 L 628 4 L 629 4 L 630 4 L 631 4 L 632 4 L 633 4 L 634 4 L 635 4 L 636 4 L 637 4 L 638 4 L 639 4 L 640 4 L 641 4 L 642 4 L 643 4 L 644 4 L 645 4 L 646 4 L 647 4 L 648 4 L 649 4 L 650 4 L 651 4 L 652 4 L 653 4 L 654 4 L 655 4 L 656 4 L 657 4 L 658 4 L 659 4 L 660 4 L 661 4 L 662 4 L 663 4 L 664 4 L 665 4 L 666 4 L 667 4 L 668 4 L 669 4 L 670 4 L 671 4 L 672 4 L 673 4 L 674 4 L 675 4 L 676 4 L 677 4 L 678 4 L 679 4 L 680 4 L 681 4 L 682 4 L 683 4 L 684 4 L 685 4 L 686 4 L 687 4 L 688 4 L 689 4 L 690 4 L 691 4 L 692 4 L 693 4 L 694 4 L 695 4 L 696 4 L 697 4 L 698 4 L 699 4 L 700 4 L 701 4 L 702 4 L 703 4 L 704 4 L 705 4 L 706 4 L 707 4 L 708 4 L 709 4 L 710 4 L 711 4 L 712 4 L 713 4 L 714 4 L 715 4 L 716 4 L 717 4 L 718 4 L 719 4 L 720 4 L 721 4 L 722 4 L 723 4 L 724 4 L 725 4 L 726 4 L 727 4 L 728 4 L 729 4 L 730 4 L 731 4 L 732 4 L 733 4 L 734 4 L 735 4 L 736 4 L 737 4 L 738 4 L 739 4 L 740 4 L 741 4 L 742 4 L 743 4 L 744 4 L 745 4 L 746 4 L 747 4 L 748 4 L 749 4 L 750 4 L 751 4 L 752 4 L 753 4 L 754 4 L 755 4 L 756 4 L 757 4 L 758 4 L 759 4 L 760 4 L 761 4 L 762 4 L 763 4 L 764 4 L 765 4 L 766 4 L 767 4 L 768 4 L 769 4 L 770 4 L 771 4 L 772 4 L 773 4 L 774 4 L 775 4 L 776 4 L 777 4 L 778 4 L 779 4 L 780 4 L 781 4 L 782 4 L 783 4 L 784 4 L 785 4 L 786 4 L 787 4 L 788 4 L 789 4 L 790 4 L 791 4 L 792 4 L 793 4 L 794 4 L 795 4 L 796 4 L 797 4 L 798 4 L 799 4 L 800 4 L 801 4 L 802 4 L 803 4 L 804 4 L 805 4 L 806 4 L 807 4 L 808 4 L 809 4 L 810 4 L 811 4 L 812 4 L 813 4 L 814 4 L 815 4 L 816 4 L 817 4 L 818 4 L 819 4 L 820 4 L 821 4 L 822 4 L 823 4 L 824 4 L 825 4 L 826 4 L 827 4 L 828 4 L 829 4 L 830 4 L 831 4 L 832 4 L 833 4 L 834 4 L 835 4 L 836 4 L 837 4 L 838 4 L 839 4 L 840 4 L 841 4 L 842 4 L 843 4 L 844 4 L 845 4 L 846 4 L 847 4 L 848 4 L 849 4 L 850 4 L 851 4 L 852 4 L 853 4 L 854 4 L 855 4 L 856 4 L 857 4 L 858 4 L 859 4 L 860 4 L 861 4 L 862 4 L 863 4 L 864 4 L 865 4 L 866 4 L 867 4 L 868 4 L 869 4 L 870 4 L 871 4 L 872 4 L 873 4 L 874 4 L 875 4 L 876 4 L 877 4 L 878 4 L 879 4 L 880 4 L 881 4 L 882 4 L 883 4 L 884 4 L 885 4 L 886 4 L 887 4 L 888 4 L 889 4 L 890 4 L 891 4 L 892 4 L 893 4 L 894 4 L 895 4 L 896 4 L 897 4 L 898 4 L 899 4 L 900 4 L 901 4 L 902 4 L 903 4 L 904 4 L 905 4 L 906 4 L 907 4 L 908 4 L 909 4 L 910 4 L 911 4 L 912 4 L 913 4 L 914 4 L 915 4 L 916 4 L 917 4 L 918 4 L 919 4 L 920 4 L 921 4 L 922 4 L 923 4 L 924 4 L 925 4 L 926 4 L 927 4 L 928 4 L 929 4 L 930 4 L 931 4 L 932 4 L 933 4 L 934 4 L 935 4 L 936 4 L 937 4 L 938 4 L 939 4 L 940 4 L 941 4 L 942 4 L 943 4 L 944 4 L 945 4 L 946 4 L 947 4 L 948 4 L 949 4 L 950 4 L 951 4 L 952 4 L 953 4 L 954 4 L 955 4 L 956 4 L 957 4 L 958 4 L 959 4 L 960 4 L 961 4 L 962 4 L 963 4 L 964 4 L 965 4 L 966 4 L 967 4 L 968 4 L 969 4 L 970 4 L 971 4 L 972 4 L 973 4 L 974 4 L 975 4 L 976 4 L 977 4 L 978 4 L 979 4 L 980 4 L 981 4 L 982 4 L 983 4 L 984 4 L 985 4 L 986 4 L 987 4 L 988 4 L 989 4 L 990 4 L 991 4 L 992 4 L 993 4 L 994 4 L 995 4 L 996 4 L 997 4 L 998 4 L 999 4 L 1000 4 L 1001 4 L 1002 4 L 1003 4 L 1004 4 L 1005 4 L 1006 4 L 1007 4 L 1008 4 L 1009 4 L 1010 4 L 1011 4 L 1012 4 L 1013 4 L 1014 4 L 1015 4 L 1016 4 L 1017 4 L 1018 4 L 1019 4 L 1020 4 L 1021 4 L 1022 4 L 1023 4 L 1024 4 L 1025 4 L 1026 4 L 1027 4 L 1028 4 L 1029 4 L 1030 4 L 1031 4 L 1032 4 L 1033 4 L 1034 4 L 1035 4 L 1036 4 L 1037 4 L 1038 4 L 1039 4 L 1040 4 L 1041 4 L 1042 4 L 1043 4 L 1044 4 L 1045 4 L 1046 4 L 1047 4 L 1048 4 L 1049 4 L 1050 4 L 1051 4 L 1052 4 L 1053 4 L 1054 4 L 1055 4 L 1056 4 L 1057 4 L 1058 4 L 1059 4 L 1060 4 L 1061 4 L 1062 4 L 1063 4 L 1064 4 L 1065 4 L 1066 4 L 1067 4 L 1068 4 L 1069 4 L 1070 4 L 1071 4 L 1072 4 L 1073 4 L 1074 4 L 1075 4 L 1076 4 L 1077 4 L 1078 4 L 1079 4 L 1080 4 L 1081 4 L 1082 4 L 1083 4 L 1084 4 L 1085 4 L 1086 4 L 1087 4 L 1088 4 L 1089 4 L 1090 4 L 1091 4 L 1092 4 L 1093 4 L 1094 4 L 1095 4 L 1096 4 L 1097 4 L 1098 4 L 1099 4 L 1100 4 L 1101 4 L 1102 4 L 1103 4 L 1104 4 L 1105 4 L 1106 4 L 1107 4 L 1108 4 L 1109 4 L 1110 4 L 1111 4 L 1112 4 L 1113 4 L 1114 4 L 1115 4 L 1116 4 L 1117 4 L 1118 4 L 1119 4 L 1120 4 L 1121 4 L 1122 4 L 1123 4 L 1124 4 L 1125 4 L 1126 4 L 1127 4 L 1128 4 L 1129 4 L 1130 4 L 1131 4 L 1132 4 L 1133 4 L 1134 4 L 1135 4 L 1136 4 L 1137 4 L 1138 4 L 1139 4 L 1140 4 L 1141 4 L 1142 4 L 1143 4 L 1144 4 L 1145 4 L 1146 4 L 1147 4 L 1148 4 L 1149 4 L 1150 4 L 1151 4 L 1152 4 L 1153 4 L 1154 4 L 1155 4 L 1156 4 L 1157 4 L 1158 4 L 1159 4 L 1160 4 L 1161 4 L 1162 4 L 1163 4 L 1164 4 L 1165 4 L 1166 4 L 1167 4 L 1168 4 L 1169 4 L 1170 4 L 1171 4 L 1172 4 L 1173 4 L 1174 4 L 1175 4 L 1176 4 L 1177 4 L 1178 4 L 1179 4 L 1180 4 L 1181 4 L 1182 4 L 1183 4 L 1184 4 L 1185 4 L 1186 4 L 1187 4 L 1188 4 L 1189 4 L 1190 4 L 1191 4 L 1192 4 L 1193 4 L 1194 4 L 1195 4 L 1196 4 L 1197 4 L 1198 4 L 1199 4 L 1200 4 L 1201 4 L 1202 4 L 1203 4 L 1204 4 L 1205 4 L 1206 4 L 1207 4 L 1208 4 L 1209 4 L 1210 4 L 1211 4 L 1212 4 L 1213 4 L 1214 4 L 1215 4 L 1216 4 L 1217 4 L 1218 4 L 1219 4 L 1220 4 L 1221 4 L 1222 4 L 1223 4 L 1224 4 L 1225 4 L 1226 4 L 1227 4 L 1228 4 L 1229 4 L 1230 4 L 1231 4 L 1232 4 L 1233 4 L 1234 4 L 1235 4 L 1236 4 L 1237 4 L 1238 4 L 1239 4 L 1240 4 L 1241 4 L 1242 4 L 1243 4 L 1244 4 L 1245 4 L 1246 4 L 1247 4 L 1248 4 L 1249 4 L 1250 4 L 1251 4 L 1252 4 L 1253 4 L 1254 4 L 1255 4 L 1256 4 L 1257 4 L 1258 4 L 1259 4 L 1260 4 L 1261 4 L 1262 4 L 1263 4 L 1264 4 L 1265 4 L 1266 4 L 1267 4 L 1268 4 L 1269 4 L 1270 4 L 1271 4 L 1272 4 L 1273 4 L 1274 4 L 1275 4 L 1276 4 L 1277 4 L 1278 4 L 1279 4 L 1280 4 L 1281 4 L 1282 4 L 1283 4 L 1284 4 L 1285 4 L 1286 4 L 1287 4 L 1288 4 L 1289 4 L 1290 4 L 1291 4 L 1292 4 L 1293 4 L 1294 4 L 1295 4 L 1296 4 L 1297 4 L 1298 4 L 1299 4 L 1300 4 L 1301 4 L 1302 4 L 1303 4 L 1304 4 L 1305 4 L 1306 4 L 1307 4 L 1308 4 L 1309 4 L 1310 4 L 1311 4 L 1312 4 L 1313 4 L 1314 4 L 1315 4 L 1316 4 L 1317 4 L 1318 4 L 1319 4 L 1320 4 L 1321 4 L 1322 4 L 1323 4 L 1324 4 L 1325 4 L 1326 4 L 1327 4 L 1328 4 L 1329 4 L 1330 4 L 1331 4 L 1332 4 L 1333 4 L 1334 4 L 1335 4 L 1336 4 L 1337 4 L 1338 4 L 1339 4 L 1340 4 L 1341 4 L 1342 4 L 1343 4 L 1344 4 L 1345 4 L 1346 4 L 1347 4 L 1348 4 L 1349 4 L 1350 4 L 1351 4 L 1352 4 L 1353 4 L 1354 4 L 1355 4 L 1356 4 L 1357 4 L 1358 4 L 1359 4 L 1360 4 L 1361 4 L 1362 4 L 1363 4 L 1364 4 L 1365 4 L 1366 4 L 1367 4 L 1368 4 L 1369 4 L 1370 4 L 1371 4 L 1372 4 L 1373 4 L 1374 4 L 1375 4 L 1376 4 L 1377 4 L 1378 4 L 1379 4 L 1380 4 L 1381 4 L 1382 4 L 1383 4 L 1384 4 L 1385 4 L 1386 4 L 1387 4 L 1388 4 L 1389 4 L 1390 4 L 1391 4 L 1392 4 L 1393 4 L 1394 4 L 1395 4 L 1396 4 L 1397 4 L 1398 4 L 1399 4 L 1400 4 L 1401 4 L 1402 4 L 1403 4 L 1404 4 L 1405 4 L 1406 4 L 1407 4 L 1408 4 L 1409 4 L 1410 4 L 1411 4 L 1412 4 L 1413 4 L 1414 4 L 1415 4 L 1416 4 L 1417 4 L 1418 4 L 1419 4 L 1420 4 L 1421 4 L 1422 4 L 1423 4 L 1424 4 L 1425 4 L 1426 4 L 1427 4 L 1428 4 L 1429 4 L 1430 4 L 1431 4 L 1432 4 L 1433 4 L 1434 4 L 1435 4 L 1436 4 L 1437 4 L 1438 4 L 1439 4 L 1440 4 L 1441 4 L 1442 4 L 1443 4 L 1444 4 L 1445 4 L 1446 4 L 1447 4 L 1448 4 L 1449 4 L 1450 4 L 1451 4 L 1452 4 L 1453 4 L 1454 4 L 1455 4 L 1456 4 L 1457 4 L 1458 4 L 1459 4 L 1460 4 L 1461 4 L 1462 4 L 1463 4 L 1464 4 L 1465 4 L 1466 4 L 1467 4 L 1468 4 L 1469 4 L 1470 4 L 1471 4 L 1472 4 L 1473 4 L 1474 4 L 1475 4 L 1476 4 L 1477 4 L 1478 4 L 1479 4 L 1480 4 L 1481 4 L 1482 4 L 1483 4 L 1484 4 L 1485 4 L 1486 4 L 1487 4 L 1488 4 L 1489 4 L 1490 4 L 1491 4 L 1492 4 L 1493 4 L 1494 4 L 1495 4 L 1496 4 L 1497 4 L 1498 4 L 1499 4 L 1500 4 L 1501 4 L 1502 4 L 1503 4 L 1504 4 L 1505 4 L 1506 4 L 1507 4 L 1508 4 L 1509 4 L 1510 4 L 1511 4 L 1512 4 L 1513 4 L 1514 4 L 1515 4 L 1516 4 L 1517 4 L 1518 4 L 1519 4 L 1520 4 L 1521 4 L 1522 4 L 1523 4 L 1524 4 L 1525 4 L 1526 4 L 1527 4 L 1528 4 L 1529 4 L 1530 4 L 1531 4 L 1532 4 L 1533 4 L 1534 4 L 1535 4 L 1536 4 L 1537 4 L 1538 4 L 1539 4 L 1540 4 L 1541 4 L 1542 4 L 1543 4 L 1544 4 L 1545 4 L 1546 4 L 1547 4 L 1548 4 L 1549 4 L 1550 4 L 1551 4 L 1552 4 L 1553 4 L 1554 4 L 1555 4 L 1556 4 L 1557 4 L 1558 4 L 1559 4 L 1560 4 L 1561 4 L 1562 4 L 1563 4 L 1564 4 L 1565 4 L 1566 4 L 1567 4 L 1568 4 L 1569 4 L 1570 4 L 1571 4 L 1572 4 L 1573 4 L 1574 4 L 1575 4 L 1576 4 L 1577 4 L 1578 4 L 1579 4 L 1580 4 L 1581 4 L 1582 4 L 1583 4 L 1584 4 L 1585 4 L 1586 4 L 1587 4 L 1588 4 L 1589 4 L 1590 4 L 1591 4 L 1592 4 L 1593 4 L 1594 4 L 1595 4 L 1596 4 L 1597 4 L 1598 4 L 1599 4 L 1600 4 L 1601 4 L 1602 4 L 1603 4 L 1604 4 L 1605 4 L 1606 4 L 1607 4 L 1608 4 L 1609 4 L 1610 4 L 1611 4 L 1612 4 L 1613 4 L 1614 4 L 1615 4 L 1616 4 L 1617 4 L 1618 4 L 1619 4 L 1620 4 L 1621 4 L 1622 4 L 1623 4 L 1624 4 L 1625 4 L 1626 4 L 1627 4 L 1628 4 L 1629 4 L 1630 4 L 1631 4 L 1632 4 L 1633 4 L 1634 4 L 1635 4 L 1636 4 L 1637 4 L 1638 4 L 1639 4 L 1640 4 L 1641 4 L 1642 4 L 1643 4 L 1644 4 L 1645 4 L 1646 4 L 1647 4 L 1648 4 L 1649 4 L 1650 4 L 1651 4 L 1652 4 L 1653 4 L 1654 4 L 1655 4 L 1656 4 L 1657 4 L 1658 4 L 1659 4 L 1660 4 L 1661 4 L 1662 4 L 1663 4 L 1664 4 L 1665 4 L 1666 4 L 1667 4 L 1668 4 L 1669 4 L 1670 4 L 1671 4 L 1672 4 L 1673 4 L 1674 4 L 1675 4 L 1676 4 L 1677 4 L 1678 4 L 1679 4 L 1680 4 L 1681 4 L 1682 4 L 1683 4 L 1684 4 L 1685 4 L 1686 4 L 1687 4 L 1688 4 L 1689 4 L 1690 4 L 1691 4 L 1692 4 L 1693 4 L 1694 4 L 1695 4 L 1696 4 L 1697 4 L 1698 4 L 1699 4 L 1700 4 L 1701 4 L 1702 4 L 1703 4 L 1704 4 L 1705 4 L 1706 4 L 1707 4 L 1708 4 L 1709 4 L 1710 4 L 1711 4 L 1712 4 L 1713 4 L 1714 4 L 1715 4 L 1716 4 L 1717 4 L 1718 4 L 1719 4 L 1720 4 L 1721 4 L 1722 4 L 1723 4 L 1724 4 L 1725 4 L 1726 4 L 1727 4 L 1728 4 L 1729 4 L 1730 4 L 1731 4 L 1732 4 L 1733 4 L 1734 4 L 1735 4 L 1736 4 L 1737 4 L 1738 4 L 1739 4 L 1740 4 L 1741 4 L 1742 4 L 1743 4 L 1744 4 L 1745 4 L 1746 4 L 1747 4 L 1748 4 L 1749 4 L 1750 4 L 1751 4 L 1752 4 L 1753 4 L 1754 4 L 1755 4 L 1756 4 L 1757 4 L 1758 4 L 1759 4 L 1760 4 L 1761 4 L 1762 4 L 1763 4 L 1764 4 L 1765 4 L 1766 4 L 1767 4 L 1768 4 L 1769 4 L 1770 4 L 1771 4 L 1772 4 L 1773 4 L 1774 4 L 1775 4 L 1776 4 L 1777 4 L 1778 4 L 1779 4 L 1780 4 L 1781 4 L 1782 4 L 1783 4 L 1784 4 L 1785 4 L 1786 4 L 1787 4 L 1788 4 L 1789 4 L 1790 4 L 1791 4 L 1792 4 L 1793 4 L 1794 4 L 1795 4 L 1796 4 L 1797 4 L 1798 4 L 1799 4 L 1800 4 L 1801 4 L 1802 4 L 1803 4 L 1804 4 L 1805 4 L 1806 4 L 1807 4 L 1808 4 L 1809 4 L 1810 4 L 1811 4 L 1812 4 L 1813 4 L 1814 4 L 1815 4 L 1816 4 L 1817 4 L 1818 4 L 1819 4 L 1820 4 L 1821 4 L 1822 4 L 1823 4 L 1824 4 L 1825 4 L 1826 4 L 1827 4 L 1828 4 L 1829 4 L 1830 4 L 1831 4 L 1832 4 L 1833 4 L 1834 4 L 1835 4 L 1836 4 L 1837 4 L 1838 4 L 1839 4 L 1840 4 L 1841 4 L 1842 4 L 1843 4 L 1844 4 L 1845 4 L 1846 4 L 1847 4 L 1848 4 L 1849 4 L 1850 4 L 1851 4 L 1852 4 L 1853 4 L 1854 4 L 1855 4 L 1856 4 L 1857 4 L 1858 4 L 1859 4 L 1860 4 L 1861 4 L 1862 4 L 1863 4 L 1864 4 L 1865 4 L 1866 4 L 1867 4 L 1868 4 L 1869 4 L 1870 4 L 1871 4 L 1872 4 L 1873 4 L 1874 4 L 1875 4 L 1876 4 L 1877 4 L 1878 4 L 1879 4 L 1880 4 L 1881 4 L 1882 4 L 1883 4 L 1884 4 L 1885 4 L 1886 4 L 1887 4 L 1888 4 L 1889 4 L 1890 4 L 1891 4 L 1892 4 L 1893 4 L 1894 4 L 1895 4 L 1896 4 L 1897 4 L 1898 4 L 1899 4 L 1900 4 L 1901 4 L 1902 4 L 1903 4 L 1904 4 L 1905 4 L 1906 4 L 1907 4 L 1908 4 L 1909 4 L 1910 4 L 1911 4 L 1912 4 L 1913 4 L 1914 4 L 1915 4 L 1916 4 L 1917 4 L 1918 4 L 1919 4 L 1920 4 L 1921 4 L 1922 4 L 1923 4 L 1924 4 L 1925 4 L 1926 4 L 1927 4 L 1928 4 L 1929 4 L 1930 4 L 1931 4 L 1932 4 L 1933 4 L 1934 4 L 1935 4 L 1936 4 L 1937 4 L 1938 4 L 1939 4 L 1940 4 L 1941 4 L 1942 4 L 1943 4 L 1944 4 L 1945 4 L 1946 4 L 1947 4 L 1948 4 L 1949 4 L 1950 4 L 1951 4 L 1952 4 L 1953 4 L 1954 4 L 1955 4 L 1956 4 L 1957 4 L 1958 4 L 1959 4 L 1960 4 L 1961 4 L 1962 4 L 1963 4 L 1964 4 L 1965 4 L 1966 4 L 1967 4 L 1968 4 L 1969 4 L 1970 4 L 1971 4 L 1972 4 L 1973 4 L 1974 4 L 1975 4 L 1976 4 L 1977 4 L 1978 4 L 1979 4 L 1980 4 L 1981 4 L 1982 4 L 1983 4 L 1984 4 L 1985 4 L 1986 4 L 1987 4 L 1988 4 L 1989 4 L 1990 4 L 1991 4 L 1992 4 L 1993 4 L 1994 4 L 1995 4 L 1996 4 L 1997 4 L 1998 4 L 1999 4 L 2000 4 L 2001 4 L 2002 4 L 2003 4 L 2004 4 L 2005 4 L 2006 4 L 2007 4 L 2008 4 L 2009 4 L 2010 4 L 2011 4 L 2012 4 L 2013 4 L 2014 4 L 2015 4 L 2016 4 L 2017 4 L 2018 4 L 2019 4 L 2020 4 L 2021 4 L 2022 4 L 2023 4 L 2024 4 L 2025 4 L 2026 4 L 2027 4 L 2028 4 L 2029 4 L 2030 4 L 2031 4 L 2032 4 L 2033 4 L 2034 4 L 2035 4 L 2036 4 L 2037 4 L 2038 4 L 2039 4 L 2040 4 L 2041 4 L 2042 4 L 2043 4 L 2044 4 L 2045 4 L 2046 4 L 2047 4 L 2048 4 L 2049 4 L 2050 4 L 2051 4 L 2052 4 L 2053 4 L 2054 4 L 2055 4 L 2056 4 L 2057 4 L 2058 4 L 2059 4 L 2060 4 L 2061 4 L 2062 4 L 2063 4 L 2064 4 L 2065 4 L 2066 4 L 2067 4 L 2068 4 L 2069 4 L 2070 4 L 2071 4 L 2072 4 L 2073 4 L 2074 4 L 2075 4 L 2076 4 L 2077 4 L 2078 4 L 2079 4 L 2080 4 L 2081 4 L 2082 4 L 2083 4 L 2084 4 L 2085 4 L 2086 4 L 2087 4 L 2088 4 L 2089 4 L 2090 4 L 2091 4 L 2092 4 L 2093 4 L 2094 4 L 2095 4 L 2096 4 L 2097 4 L 2098 4 L 2099 4 L 2100 4 L 2101 4 L 2102 4 L 2103 4 L 2104 4 L 2105 4 L 2106 4 L 2107 4 L 2108 4 L 2109 4 L 2110 4 L 2111 4 L 2112 4 L 2113 4 L 2114 4 L 2115 4 L 2116 4 L 2117 4 L 2118 4 L 2119 4 L 2120 4 L 2121 4 L 2122 4 L 2123 4 L 2124 4 L 2125 4 L 2126 4 L 2127 4 L 2128 4 L 2129 4 L 2130 4 L 2131 4 L 2132 4 L 2133 4 L 2134 4 L 2135 4 L 2136 4 L 2137 4 L 2138 4 L 2139 4 L 2140 4 L 2141 4 L 2142 4 L 2143 4 L 2144 4 L 2145 4 L 2146 4 L 2147 4 L 2148 4 L 2149 4 L 2150 4 L 2151 4 L 2152 4 L 2153 4 L 2154 4 L 2155 4 L 2156 4 L 2157 4 L 2158 4 L 2159 4 L 2160 4 L 2161 4 L 2162 4 L 2163 4 L 2164 4 L 2165 4 L 2166 4 L 2167 4 L 2168 4 L 2169 4 L 2170 4 L 2171 4 L 2172 4 L 2173 4 L 2174 4 L 2175 4 L 2176 4 L 2177 4 L 2178 4 L 2179 4 L 2180 4 L 2181 4 L 2182 4 L 2183 4 L 2184 4 L 2185 4 L 2186 4 L 2187 4 L 2188 4 L 2189 4 L 2190 4 L 2191 4 L 2192 4 L 2193 4 L 2194 4 L 2195 4 L 2196 4 L 2197 4 L 2198 4 L 2199 4 L 2200 4 L 2201 4 L 2202 4 L 2203 4 L 2204 4 L 2205 4 L 2206 4 L 2207 4 L 2208 4 L 2209 4 L 2210 4 L 2211 4 L 2212 4 L 2213 4 L 2214 4 L 2215 4 L 2216 4 L 2217 4 L 2218 4 L 2219 4 L 2220 4 L 2221 4 L 2222 4 L 2223 4 L 2224 4 L 2225 4 L 2226 4 L 2227 4 L 2228 4 L 2229 4 L 2230 4 L 2231 4 L 2232 4 L 2233 4 L 2234 4 L 2235 4 L 2236 4 L 2237 4 L 2238 4 L 2239 4 L 2240 4 L 2241 4 L 2242 4 L 2243 4 L 2244 4 L 2245 4 L 2246 4 L 2247 4 L 2248 4 L 2249 4 L 2250 4 L 2251 4 L 2252 4 L 2253 4 L 2254 4 L 2255 4 L 2256 4 L 2257 4 L 2258 4 L 2259 4 L 2260 4 L 2261 4 L 2262 4 L 2263 4 L 2264 4 L 2265 4 L 2266 4 L 2267 4 L 2268 4 L 2269 4 L 2270 4 L 2271 4 L 2272 4 L 2273 4 L 2274 4 L 2275 4 L 2276 4 L 2277 4 L 2278 4 L 2279 4 L 2280 4 L 2281 4 L 2282 4 L 2283 4 L 2284 4 L 2285 4 L 2286 4 L 2287 4 L 2288 4 L 2289 4 L 2290 4 L 2291 4 L 2292 4 L 2293 4 L 2294 4 L 2295 4 L 2296 4 L 2297 4 L 2298 4 L 2299 4 L 2300 4 L 2301 4 L 2302 4 L 2303 4 L 2304 4 L 2305 4 L 2306 4 L 2307 4 L 2308 4 L 2309 4 L 2310 4 L 2311 4 L 2312 4 L 2313 4 L 2314 4 L 2315 4 L 2316 4 L 2317 4 L 2318 4 L 2319 4 L 2320 4 L 2321 4 L 2322 4 L 2323 4 L 2324 4 L 2325 4 L 2326 4 L 2327 4 L 2328 4 L 2329 4 L 2330 4 L 2331 4 L 2332 4 L 2333 4 L 2334 4 L 2335 4 L 2336 4 L 2337 4 L 2338 4 L 2339 4 L 2340 4 L 2341 4 L 2342 4 L 2343 4 L 2344 4 L 2345 4 L 2346 4 L 2347 4 L 2348 4 L 2349 4 L 2350 4 L 2351 4 L 2352 4 L 2353 4 L 2354 4 L 2355 4 L 2356 4 L 2357 4 L 2358 4 L 2359 4 L 2360 4 L 2361 4 L 2362 4 L 2363 4 L 2364 4 L 2365 4 L 2366 4 L 2367 4 L 2368 4 L 2369 4 L 2370 4 L 2371 4 L 2372 4 L 2373 4 L 2374 4 L 2375 4 L 2376 4 L 2377 4 L 2378 4 L 2379 4 L 2380 4 L 2381 4 L 2382 4 L 2383 4 L 2384 4 L 2385 4 L 2386 4 L 2387 4 L 2388 4 L 2389 4 L 2390 4 L 2391 4 L 2392 4 L 2393 4 L 2394 4 L 2395 4 L 2396 4 L 2397 4 L 2398 4 L 2399 4 L 2400 4 L 2401 4 L 2402 4 L 2403 4 L 2404 4 L 2405 4 L 2406 4 L 2407 4 L 2408 4 L 2409 4 L 2410 4 L 2411 4 L 2412 4 L 2413 5 L 2414 5 L 2415 5 L 2416 5 L 2417 5 L 2418 5 L 2419 5 L 2420 5 L 2421 5 L 2422 6 L 2423 6 L 2424 6 L 2425 6 L 2426 6 L 2427 6 L 2428 7 L 2429 7 L 2430 7 L 2431 7 L 2432 7 L 2433 8 L 2434 8 L 2435 8 L 2436 8 L 2437 8 L 2438 9 L 2439 9 L 2440 9 L 2441 10 L 2442 10 L 2443 10 L 2444 10 L 2445 11 L 2446 11 L 2447 11 L 2448 12 L 2449 12 L 2450 12 L 2451 13 L 2452 13 L 2453 13 L 2454 14 L 2455 14 L 2456 15 L 2457 15 L 2458 15 L 2459 16 L 2460 16 L 2461 17 L 2462 17 L 2463 18 L 2464 18 L 2465 19 L 2466 19 L 2467 20 L 2468 20 L 2469 21 L 2470 21 L 2471 22 L 2472 22 L 2473 23 L 2474 23 L 2475 24 L 2476 24 L 2477 25 L 2478 26 L 2479 26 L 2480 27 L 2481 28 L 2482 28 L 2483 29 L 2484 29 L 2485 30 L 2486 31 L 2487 32 L 2488 32 L 2489 33 L 2490 34 L 2491 35 L 2492 35 L 2493 36 L 2494 37 L 2495 38 L 2496 38 L 2497 39 L 2498 40 L 2499 41 L 2500 42 L 2501 43 L 2502 44 L 2503 45 L 2504 46 L 2505 47 L 2506 48 L 2507 49 L 2508 50 L 2509 51 L 2510 52 L 2511 53 L 2512 54 L 2513 55 L 2514 56 L 2515 57 L 2515 58 L 2516 59 L 2517 60 L 2518 61 L 2518 62 L 2519 63 L 2520 64 L 2521 65 L 2521 66 L 2522 67 L 2523 68 L 2524 69 L 2524 70 L 2525 71 L 2525 72 L 2526 73 L 2527 74 L 2527 75 L 2528 76 L 2529 77 L 2529 78 L 2530 79 L 2530 80 L 2531 81 L 2531 82 L 2532 83 L 2532 84 L 2533 85 L 2533 86 L 2534 87 L 2534 88 L 2535 89 L 2535 90 L 2536 91 L 2536 92 L 2537 93 L 2537 94 L 2538 95 L 2538 97 L 2539 98 L 2539 99 L 2540 100 L 2540 102 L 2541 103 L 2541 105 L 2542 106 L 2542 108 L 2543 109 L 2543 112 L 2544 113 L 2544 115 L 2545 116 L 2545 120 L 2546 121 L 2546 125 L 2547 126 L 2547 131 L 2548 132 L 2548 140 L 2549 141 L 2549 2621 L 2548 2622 L 2548 2630 L 2547 2631 L 2547 2636 L 2546 2637 L 2546 2641 L 2545 2642 L 2545 2645 L 2544 2646 L 2544 2649 L 2543 2650 L 2543 2652 L 2542 2653 L 2542 2655 L 2541 2656 L 2541 2658 L 2540 2659 L 2540 2661 L 2539 2662 L 2539 2663 L 2538 2664 L 2538 2666 L 2537 2667 L 2537 2668 L 2536 2669 L 2536 2670 L 2535 2671 L 2535 2673 L 2534 2674 L 2534 2675 L 2533 2676 L 2532 2677 L 2532 2678 L 2531 2679 L 2531 2680 L 2530 2681 L 2530 2682 L 2529 2683 L 2529 2684 L 2528 2685 L 2527 2686 L 2527 2687 L 2526 2688 L 2525 2689 L 2525 2690 L 2524 2691 L 2524 2692 L 2523 2693 L 2522 2694 L 2521 2695 L 2521 2696 L 2520 2697 L 2519 2698 L 2518 2699 L 2518 2700 L 2517 2701 L 2516 2702 L 2515 2703 L 2514 2704 L 2513 2705 L 2513 2706 L 2512 2707 L 2511 2708 L 2510 2709 L 2509 2710 L 2508 2711 L 2507 2712 L 2506 2713 L 2505 2714 L 2504 2715 L 2503 2716 L 2502 2717 L 2501 2718 L 2500 2719 L 2499 2720 L 2498 2720 L 2497 2721 L 2496 2722 L 2495 2723 L 2494 2724 L 2493 2724 L 2492 2725 L 2491 2726 L 2490 2727 L 2489 2727 L 2488 2728 L 2487 2729 L 2486 2730 L 2485 2730 L 2484 2731 L 2483 2732 L 2482 2732 L 2481 2733 L 2480 2734 L 2479 2734 L 2478 2735 L 2477 2735 L 2476 2736 L 2475 2737 L 2474 2737 L 2473 2738 L 2472 2738 L 2471 2739 L 2470 2739 L 2469 2740 L 2468 2740 L 2467 2741 L 2466 2741 L 2465 2742 L 2464 2742 L 2463 2743 L 2462 2743 L 2461 2744 L 2460 2744 L 2459 2744 L 2458 2745 L 2457 2745 L 2456 2746 L 2455 2746 L 2454 2746 L 2453 2747 L 2452 2747 L 2451 2747 L 2450 2748 L 2449 2748 L 2448 2748 L 2447 2749 L 2446 2749 L 2445 2749 L 2444 2750 L 2443 2750 L 2442 2750 L 2441 2751 L 2440 2751 L 2439 2751 L 2438 2751 L 2437 2752 L 2436 2752 L 2435 2752 L 2434 2752 L 2433 2753 L 2432 2753 L 2431 2753 L 2430 2753 L 2429 2753 L 2428 2754 L 2427 2754 L 2426 2754 L 2425 2754 L 2424 2754 L 2423 2754 L 2422 2755 L 2421 2755 L 2420 2755 L 2419 2755 L 2418 2755 L 2417 2755 L 2416 2755 L 2415 2755 L 2414 2755 L 2413 2755 L 2412 2756 L 2411 2756 L 2410 2756 L 2409 2756 L 2408 2756 L 2407 2756 L 2406 2756 L 2405 2756 L 2404 2756 L 2403 2756 L 2402 2756 L 2401 2756 L 2400 2756 L 2399 2756 L 2398 2756 L 2397 2756 L 2396 2756 L 2395 2756 L 2394 2756 L 2393 2756 L 2392 2756 L 2391 2756 L 2390 2756 L 2389 2756 L 2388 2756 L 2387 2756 L 2386 2756 L 2385 2756 L 2384 2756 L 2383 2756 L 2382 2756 L 2381 2756 L 2380 2756 L 2379 2756 L 2378 2756 L 2377 2756 L 2376 2756 L 2375 2756 L 2374 2756 L 2373 2756 L 2372 2756 L 2371 2756 L 2370 2756 L 2369 2756 L 2368 2756 L 2367 2756 L 2366 2756 L 2365 2756 L 2364 2756 L 2363 2756 L 2362 2756 L 2361 2756 L 2360 2756 L 2359 2756 L 2358 2756 L 2357 2756 L 2356 2756 L 2355 2756 L 2354 2756 L 2353 2756 L 2352 2756 L 2351 2756 L 2350 2756 L 2349 2756 L 2348 2756 L 2347 2756 L 2346 2756 L 2345 2756 L 2344 2756 L 2343 2756 L 2342 2756 L 2341 2756 L 2340 2756 L 2339 2756 L 2338 2756 L 2337 2756 L 2336 2756 L 2335 2756 L 2334 2756 L 2333 2756 L 2332 2756 L 2331 2756 L 2330 2756 L 2329 2756 L 2328 2756 L 2327 2756 L 2326 2756 L 2325 2756 L 2324 2756 L 2323 2756 L 2322 2756 L 2321 2756 L 2320 2756 L 2319 2756 L 2318 2756 L 2317 2756 L 2316 2756 L 2315 2756 L 2314 2756 L 2313 2756 L 2312 2756 L 2311 2756 L 2310 2756 L 2309 2756 L 2308 2756 L 2307 2756 L 2306 2756 L 2305 2756 L 2304 2756 L 2303 2756 L 2302 2756 L 2301 2756 L 2300 2756 L 2299 2756 L 2298 2756 L 2297 2756 L 2296 2756 L 2295 2756 L 2294 2756 L 2293 2756 L 2292 2756 L 2291 2756 L 2290 2756 L 2289 2756 L 2288 2756 L 2287 2756 L 2286 2756 L 2285 2756 L 2284 2756 L 2283 2756 L 2282 2756 L 2281 2756 L 2280 2756 L 2279 2756 L 2278 2756 L 2277 2756 L 2276 2756 L 2275 2756 L 2274 2756 L 2273 2756 L 2272 2756 L 2271 2756 L 2270 2756 L 2269 2756 L 2268 2756 L 2267 2756 L 2266 2756 L 2265 2756 L 2264 2756 L 2263 2756 L 2262 2756 L 2261 2756 L 2260 2756 L 2259 2756 L 2258 2756 L 2257 2756 L 2256 2756 L 2255 2756 L 2254 2756 L 2253 2756 L 2252 2756 L 2251 2756 L 2250 2756 L 2249 2756 L 2248 2756 L 2247 2756 L 2246 2756 L 2245 2756 L 2244 2756 L 2243 2756 L 2242 2756 L 2241 2756 L 2240 2756 L 2239 2756 L 2238 2756 L 2237 2756 L 2236 2756 L 2235 2756 L 2234 2756 L 2233 2756 L 2232 2756 L 2231 2756 L 2230 2756 L 2229 2756 L 2228 2756 L 2227 2756 L 2226 2756 L 2225 2756 L 2224 2756 L 2223 2756 L 2222 2756 L 2221 2756 L 2220 2756 L 2219 2756 L 2218 2756 L 2217 2756 L 2216 2756 L 2215 2756 L 2214 2756 L 2213 2756 L 2212 2756 L 2211 2756 L 2210 2756 L 2209 2756 L 2208 2756 L 2207 2756 L 2206 2756 L 2205 2756 L 2204 2756 L 2203 2756 L 2202 2756 L 2201 2756 L 2200 2756 L 2199 2756 L 2198 2756 L 2197 2756 L 2196 2756 L 2195 2756 L 2194 2756 L 2193 2756 L 2192 2756 L 2191 2756 L 2190 2756 L 2189 2756 L 2188 2756 L 2187 2756 L 2186 2756 L 2185 2756 L 2184 2756 L 2183 2756 L 2182 2756 L 2181 2756 L 2180 2756 L 2179 2756 L 2178 2756 L 2177 2756 L 2176 2756 L 2175 2756 L 2174 2756 L 2173 2756 L 2172 2756 L 2171 2756 L 2170 2756 L 2169 2756 L 2168 2756 L 2167 2756 L 2166 2756 L 2165 2756 L 2164 2756 L 2163 2756 L 2162 2756 L 2161 2756 L 2160 2756 L 2159 2756 L 2158 2756 L 2157 2756 L 2156 2756 L 2155 2756 L 2154 2756 L 2153 2756 L 2152 2756 L 2151 2756 L 2150 2756 L 2149 2756 L 2148 2756 L 2147 2756 L 2146 2756 L 2145 2756 L 2144 2756 L 2143 2756 L 2142 2756 L 2141 2756 L 2140 2756 L 2139 2756 L 2138 2756 L 2137 2756 L 2136 2756 L 2135 2756 L 2134 2756 L 2133 2756 L 2132 2756 L 2131 2756 L 2130 2756 L 2129 2756 L 2128 2756 L 2127 2756 L 2126 2756 L 2125 2756 L 2124 2756 L 2123 2756 L 2122 2756 L 2121 2756 L 2120 2756 L 2119 2756 L 2118 2756 L 2117 2756 L 2116 2756 L 2115 2756 L 2114 2756 L 2113 2756 L 2112 2756 L 2111 2756 L 2110 2756 L 2109 2756 L 2108 2756 L 2107 2756 L 2106 2756 L 2105 2756 L 2104 2756 L 2103 2756 L 2102 2756 L 2101 2756 L 2100 2756 L 2099 2756 L 2098 2756 L 2097 2756 L 2096 2756 L 2095 2756 L 2094 2756 L 2093 2756 L 2092 2756 L 2091 2756 L 2090 2756 L 2089 2756 L 2088 2756 L 2087 2756 L 2086 2756 L 2085 2756 L 2084 2756 L 2083 2756 L 2082 2756 L 2081 2756 L 2080 2756 L 2079 2756 L 2078 2756 L 2077 2756 L 2076 2756 L 2075 2756 L 2074 2756 L 2073 2756 L 2072 2756 L 2071 2756 L 2070 2756 L 2069 2756 L 2068 2756 L 2067 2756 L 2066 2756 L 2065 2756 L 2064 2756 L 2063 2756 L 2062 2756 L 2061 2756 L 2060 2756 L 2059 2756 L 2058 2756 L 2057 2756 L 2056 2756 L 2055 2756 L 2054 2756 L 2053 2756 L 2052 2756 L 2051 2756 L 2050 2756 L 2049 2756 L 2048 2756 L 2047 2756 L 2046 2756 L 2045 2756 L 2044 2756 L 2043 2756 L 2042 2756 L 2041 2756 L 2040 2756 L 2039 2756 L 2038 2756 L 2037 2756 L 2036 2756 L 2035 2756 L 2034 2756 L 2033 2756 L 2032 2756 L 2031 2756 L 2030 2756 L 2029 2756 L 2028 2756 L 2027 2756 L 2026 2756 L 2025 2756 L 2024 2756 L 2023 2756 L 2022 2756 L 2021 2756 L 2020 2756 L 2019 2756 L 2018 2756 L 2017 2756 L 2016 2756 L 2015 2756 L 2014 2756 L 2013 2756 L 2012 2756 L 2011 2756 L 2010 2756 L 2009 2756 L 2008 2756 L 2007 2756 L 2006 2756 L 2005 2756 L 2004 2756 L 2003 2756 L 2002 2756 L 2001 2756 L 2000 2756 L 1999 2756 L 1998 2756 L 1997 2756 L 1996 2756 L 1995 2756 L 1994 2756 L 1993 2756 L 1992 2756 L 1991 2756 L 1990 2756 L 1989 2756 L 1988 2756 L 1987 2756 L 1986 2756 L 1985 2756 L 1984 2756 L 1983 2756 L 1982 2756 L 1981 2756 L 1980 2756 L 1979 2756 L 1978 2756 L 1977 2756 L 1976 2756 L 1975 2756 L 1974 2756 L 1973 2756 L 1972 2756 L 1971 2756 L 1970 2756 L 1969 2756 L 1968 2756 L 1967 2756 L 1966 2756 L 1965 2756 L 1964 2756 L 1963 2756 L 1962 2756 L 1961 2756 L 1960 2756 L 1959 2756 L 1958 2756 L 1957 2756 L 1956 2756 L 1955 2756 L 1954 2756 L 1953 2756 L 1952 2756 L 1951 2756 L 1950 2756 L 1949 2756 L 1948 2756 L 1947 2756 L 1946 2756 L 1945 2756 L 1944 2756 L 1943 2756 L 1942 2756 L 1941 2756 L 1940 2756 L 1939 2756 L 1938 2756 L 1937 2756 L 1936 2756 L 1935 2756 L 1934 2756 L 1933 2756 L 1932 2756 L 1931 2756 L 1930 2756 L 1929 2756 L 1928 2756 L 1927 2756 L 1926 2756 L 1925 2756 L 1924 2756 L 1923 2756 L 1922 2756 L 1921 2756 L 1920 2756 L 1919 2756 L 1918 2756 L 1917 2756 L 1916 2756 L 1915 2756 L 1914 2756 L 1913 2756 L 1912 2756 L 1911 2756 L 1910 2756 L 1909 2756 L 1908 2756 L 1907 2756 L 1906 2756 L 1905 2756 L 1904 2756 L 1903 2756 L 1902 2756 L 1901 2756 L 1900 2756 L 1899 2756 L 1898 2756 L 1897 2756 L 1896 2756 L 1895 2756 L 1894 2756 L 1893 2756 L 1892 2756 L 1891 2756 L 1890 2756 L 1889 2756 L 1888 2756 L 1887 2756 L 1886 2756 L 1885 2756 L 1884 2756 L 1883 2756 L 1882 2756 L 1881 2756 L 1880 2756 L 1879 2756 L 1878 2756 L 1877 2756 L 1876 2756 L 1875 2756 L 1874 2756 L 1873 2756 L 1872 2756 L 1871 2756 L 1870 2756 L 1869 2756 L 1868 2756 L 1867 2756 L 1866 2756 L 1865 2756 L 1864 2756 L 1863 2756 L 1862 2756 L 1861 2756 L 1860 2756 L 1859 2756 L 1858 2756 L 1857 2756 L 1856 2756 L 1855 2756 L 1854 2756 L 1853 2756 L 1852 2756 L 1851 2756 L 1850 2756 L 1849 2756 L 1848 2756 L 1847 2756 L 1846 2756 L 1845 2756 L 1844 2756 L 1843 2756 L 1842 2756 L 1841 2756 L 1840 2756 L 1839 2756 L 1838 2756 L 1837 2756 L 1836 2756 L 1835 2756 L 1834 2756 L 1833 2756 L 1832 2756 L 1831 2756 L 1830 2756 L 1829 2756 L 1828 2756 L 1827 2756 L 1826 2756 L 1825 2756 L 1824 2756 L 1823 2756 L 1822 2756 L 1821 2756 L 1820 2756 L 1819 2756 L 1818 2756 L 1817 2756 L 1816 2756 L 1815 2756 L 1814 2756 L 1813 2756 L 1812 2756 L 1811 2756 L 1810 2756 L 1809 2756 L 1808 2756 L 1807 2756 L 1806 2756 L 1805 2756 L 1804 2756 L 1803 2756 L 1802 2756 L 1801 2756 L 1800 2756 L 1799 2756 L 1798 2756 L 1797 2756 L 1796 2756 L 1795 2756 L 1794 2756 L 1793 2756 L 1792 2756 L 1791 2756 L 1790 2756 L 1789 2756 L 1788 2756 L 1787 2756 L 1786 2756 L 1785 2756 L 1784 2756 L 1783 2756 L 1782 2756 L 1781 2756 L 1780 2756 L 1779 2756 L 1778 2756 L 1777 2756 L 1776 2756 L 1775 2756 L 1774 2756 L 1773 2756 L 1772 2756 L 1771 2756 L 1770 2756 L 1769 2756 L 1768 2756 L 1767 2756 L 1766 2756 L 1765 2756 L 1764 2756 L 1763 2756 L 1762 2756 L 1761 2756 L 1760 2756 L 1759 2756 L 1758 2756 L 1757 2756 L 1756 2756 L 1755 2756 L 1754 2756 L 1753 2756 L 1752 2756 L 1751 2756 L 1750 2756 L 1749 2756 L 1748 2756 L 1747 2756 L 1746 2756 L 1745 2756 L 1744 2756 L 1743 2756 L 1742 2756 L 1741 2756 L 1740 2756 L 1739 2756 L 1738 2756 L 1737 2756 L 1736 2756 L 1735 2756 L 1734 2756 L 1733 2756 L 1732 2756 L 1731 2756 L 1730 2756 L 1729 2756 L 1728 2756 L 1727 2756 L 1726 2756 L 1725 2756 L 1724 2756 L 1723 2756 L 1722 2756 L 1721 2756 L 1720 2756 L 1719 2756 L 1718 2756 L 1717 2756 L 1716 2756 L 1715 2756 L 1714 2756 L 1713 2756 L 1712 2756 L 1711 2756 L 1710 2756 L 1709 2756 L 1708 2756 L 1707 2756 L 1706 2756 L 1705 2756 L 1704 2756 L 1703 2756 L 1702 2756 L 1701 2756 L 1700 2756 L 1699 2756 L 1698 2756 L 1697 2756 L 1696 2756 L 1695 2756 L 1694 2756 L 1693 2756 L 1692 2756 L 1691 2756 L 1690 2756 L 1689 2756 L 1688 2756 L 1687 2756 L 1686 2756 L 1685 2756 L 1684 2756 L 1683 2756 L 1682 2756 L 1681 2756 L 1680 2756 L 1679 2756 L 1678 2756 L 1677 2756 L 1676 2756 L 1675 2756 L 1674 2756 L 1673 2756 L 1672 2756 L 1671 2756 L 1670 2756 L 1669 2756 L 1668 2756 L 1667 2756 L 1666 2756 L 1665 2756 L 1664 2756 L 1663 2756 L 1662 2756 L 1661 2756 L 1660 2756 L 1659 2756 L 1658 2756 L 1657 2756 L 1656 2756 L 1655 2756 L 1654 2756 L 1653 2756 L 1652 2756 L 1651 2756 L 1650 2756 L 1649 2756 L 1648 2756 L 1647 2756 L 1646 2756 L 1645 2756 L 1644 2756 L 1643 2756 L 1642 2756 L 1641 2756 L 1640 2756 L 1639 2756 L 1638 2756 L 1637 2756 L 1636 2756 L 1635 2756 L 1634 2756 L 1633 2756 L 1632 2756 L 1631 2756 L 1630 2756 L 1629 2756 L 1628 2756 L 1627 2756 L 1626 2756 L 1625 2756 L 1624 2756 L 1623 2756 L 1622 2756 L 1621 2756 L 1620 2756 L 1619 2756 L 1618 2756 L 1617 2756 L 1616 2756 L 1615 2756 L 1614 2756 L 1613 2756 L 1612 2756 L 1611 2756 L 1610 2756 L 1609 2756 L 1608 2756 L 1607 2756 L 1606 2756 L 1605 2756 L 1604 2756 L 1603 2756 L 1602 2756 L 1601 2756 L 1600 2756 L 1599 2756 L 1598 2756 L 1597 2756 L 1596 2756 L 1595 2756 L 1594 2756 L 1593 2756 L 1592 2756 L 1591 2756 L 1590 2756 L 1589 2756 L 1588 2756 L 1587 2756 L 1586 2756 L 1585 2756 L 1584 2756 L 1583 2756 L 1582 2756 L 1581 2756 L 1580 2756 L 1579 2756 L 1578 2756 L 1577 2756 L 1576 2756 L 1575 2756 L 1574 2756 L 1573 2756 L 1572 2756 L 1571 2756 L 1570 2756 L 1569 2756 L 1568 2756 L 1567 2756 L 1566 2756 L 1565 2756 L 1564 2756 L 1563 2756 L 1562 2756 L 1561 2756 L 1560 2756 L 1559 2756 L 1558 2756 L 1557 2756 L 1556 2756 L 1555 2756 L 1554 2756 L 1553 2756 L 1552 2756 L 1551 2756 L 1550 2756 L 1549 2756 L 1548 2756 L 1547 2756 L 1546 2756 L 1545 2756 L 1544 2756 L 1543 2756 L 1542 2756 L 1541 2756 L 1540 2756 L 1539 2756 L 1538 2756 L 1537 2756 L 1536 2756 L 1535 2756 L 1534 2756 L 1533 2756 L 1532 2756 L 1531 2756 L 1530 2756 L 1529 2756 L 1528 2756 L 1527 2756 L 1526 2756 L 1525 2756 L 1524 2756 L 1523 2756 L 1522 2756 L 1521 2756 L 1520 2756 L 1519 2756 L 1518 2756 L 1517 2756 L 1516 2756 L 1515 2756 L 1514 2756 L 1513 2756 L 1512 2756 L 1511 2756 L 1510 2756 L 1509 2756 L 1508 2756 L 1507 2756 L 1506 2756 L 1505 2756 L 1504 2756 L 1503 2756 L 1502 2756 L 1501 2756 L 1500 2756 L 1499 2756 L 1498 2756 L 1497 2756 L 1496 2756 L 1495 2756 L 1494 2756 L 1493 2756 L 1492 2756 L 1491 2756 L 1490 2756 L 1489 2756 L 1488 2756 L 1487 2756 L 1486 2756 L 1485 2756 L 1484 2756 L 1483 2756 L 1482 2756 L 1481 2756 L 1480 2756 L 1479 2756 L 1478 2756 L 1477 2756 L 1476 2756 L 1475 2756 L 1474 2756 L 1473 2756 L 1472 2756 L 1471 2756 L 1470 2756 L 1469 2756 L 1468 2756 L 1467 2756 L 1466 2756 L 1465 2756 L 1464 2756 L 1463 2756 L 1462 2756 L 1461 2756 L 1460 2756 L 1459 2756 L 1458 2756 L 1457 2756 L 1456 2756 L 1455 2756 L 1454 2756 L 1453 2756 L 1452 2756 L 1451 2756 L 1450 2756 L 1449 2756 L 1448 2756 L 1447 2756 L 1446 2756 L 1445 2756 L 1444 2756 L 1443 2756 L 1442 2756 L 1441 2756 L 1440 2756 L 1439 2756 L 1438 2756 L 1437 2756 L 1436 2756 L 1435 2756 L 1434 2756 L 1433 2756 L 1432 2756 L 1431 2756 L 1430 2756 L 1429 2756 L 1428 2756 L 1427 2756 L 1426 2756 L 1425 2756 L 1424 2756 L 1423 2756 L 1422 2756 L 1421 2756 L 1420 2756 L 1419 2756 L 1418 2756 L 1417 2756 L 1416 2756 L 1415 2756 L 1414 2756 L 1413 2756 L 1412 2756 L 1411 2756 L 1410 2756 L 1409 2756 L 1408 2756 L 1407 2756 L 1406 2756 L 1405 2756 L 1404 2756 L 1403 2756 L 1402 2756 L 1401 2756 L 1400 2756 L 1399 2756 L 1398 2756 L 1397 2756 L 1396 2756 L 1395 2756 L 1394 2756 L 1393 2756 L 1392 2756 L 1391 2756 L 1390 2756 L 1389 2756 L 1388 2756 L 1387 2756 L 1386 2756 L 1385 2756 L 1384 2756 L 1383 2756 L 1382 2756 L 1381 2756 L 1380 2756 L 1379 2756 L 1378 2756 L 1377 2756 L 1376 2756 L 1375 2756 L 1374 2756 L 1373 2756 L 1372 2756 L 1371 2756 L 1370 2756 L 1369 2756 L 1368 2756 L 1367 2756 L 1366 2756 L 1365 2756 L 1364 2756 L 1363 2756 L 1362 2756 L 1361 2756 L 1360 2756 L 1359 2756 L 1358 2756 L 1357 2756 L 1356 2756 L 1355 2756 L 1354 2756 L 1353 2756 L 1352 2756 L 1351 2756 L 1350 2756 L 1349 2756 L 1348 2756 L 1347 2756 L 1346 2756 L 1345 2756 L 1344 2756 L 1343 2756 L 1342 2756 L 1341 2756 L 1340 2756 L 1339 2756 L 1338 2756 L 1337 2756 L 1336 2756 L 1335 2756 L 1334 2756 L 1333 2756 L 1332 2756 L 1331 2756 L 1330 2756 L 1329 2756 L 1328 2756 L 1327 2756 L 1326 2756 L 1325 2756 L 1324 2756 L 1323 2756 L 1322 2756 L 1321 2756 L 1320 2756 L 1319 2756 L 1318 2756 L 1317 2756 L 1316 2756 L 1315 2756 L 1314 2756 L 1313 2756 L 1312 2756 L 1311 2756 L 1310 2756 L 1309 2756 L 1308 2756 L 1307 2756 L 1306 2756 L 1305 2756 L 1304 2756 L 1303 2756 L 1302 2756 L 1301 2756 L 1300 2756 L 1299 2756 L 1298 2756 L 1297 2756 L 1296 2756 L 1295 2756 L 1294 2756 L 1293 2756 L 1292 2756 L 1291 2756 L 1290 2756 L 1289 2756 L 1288 2756 L 1287 2756 L 1286 2756 L 1285 2756 L 1284 2756 L 1283 2756 L 1282 2756 L 1281 2756 L 1280 2756 L 1279 2756 L 1278 2756 L 1277 2756 L 1276 2756 L 1275 2756 L 1274 2756 L 1273 2756 L 1272 2756 L 1271 2756 L 1270 2756 L 1269 2756 L 1268 2756 L 1267 2756 L 1266 2756 L 1265 2756 L 1264 2756 L 1263 2756 L 1262 2756 L 1261 2756 L 1260 2756 L 1259 2756 L 1258 2756 L 1257 2756 L 1256 2756 L 1255 2756 L 1254 2756 L 1253 2756 L 1252 2756 L 1251 2756 L 1250 2756 L 1249 2756 L 1248 2756 L 1247 2756 L 1246 2756 L 1245 2756 L 1244 2756 L 1243 2756 L 1242 2756 L 1241 2756 L 1240 2756 L 1239 2756 L 1238 2756 L 1237 2756 L 1236 2756 L 1235 2756 L 1234 2756 L 1233 2756 L 1232 2756 L 1231 2756 L 1230 2756 L 1229 2756 L 1228 2756 L 1227 2756 L 1226 2756 L 1225 2756 L 1224 2756 L 1223 2756 L 1222 2756 L 1221 2756 L 1220 2756 L 1219 2756 L 1218 2756 L 1217 2756 L 1216 2756 L 1215 2756 L 1214 2756 L 1213 2756 L 1212 2756 L 1211 2756 L 1210 2756 L 1209 2756 L 1208 2756 L 1207 2756 L 1206 2756 L 1205 2756 L 1204 2756 L 1203 2756 L 1202 2756 L 1201 2756 L 1200 2756 L 1199 2756 L 1198 2756 L 1197 2756 L 1196 2756 L 1195 2756 L 1194 2756 L 1193 2756 L 1192 2756 L 1191 2756 L 1190 2756 L 1189 2756 L 1188 2756 L 1187 2756 L 1186 2756 L 1185 2756 L 1184 2756 L 1183 2756 L 1182 2756 L 1181 2756 L 1180 2756 L 1179 2756 L 1178 2756 L 1177 2756 L 1176 2756 L 1175 2756 L 1174 2756 L 1173 2756 L 1172 2756 L 1171 2756 L 1170 2756 L 1169 2756 L 1168 2756 L 1167 2756 L 1166 2756 L 1165 2756 L 1164 2756 L 1163 2756 L 1162 2756 L 1161 2756 L 1160 2756 L 1159 2756 L 1158 2756 L 1157 2756 L 1156 2756 L 1155 2756 L 1154 2756 L 1153 2756 L 1152 2756 L 1151 2756 L 1150 2756 L 1149 2756 L 1148 2756 L 1147 2756 L 1146 2756 L 1145 2756 L 1144 2756 L 1143 2756 L 1142 2756 L 1141 2756 L 1140 2756 L 1139 2756 L 1138 2756 L 1137 2756 L 1136 2756 L 1135 2756 L 1134 2756 L 1133 2756 L 1132 2756 L 1131 2756 L 1130 2756 L 1129 2756 L 1128 2756 L 1127 2756 L 1126 2756 L 1125 2756 L 1124 2756 L 1123 2756 L 1122 2756 L 1121 2756 L 1120 2756 L 1119 2756 L 1118 2756 L 1117 2756 L 1116 2756 L 1115 2756 L 1114 2756 L 1113 2756 L 1112 2756 L 1111 2756 L 1110 2756 L 1109 2756 L 1108 2756 L 1107 2756 L 1106 2756 L 1105 2756 L 1104 2756 L 1103 2756 L 1102 2756 L 1101 2756 L 1100 2756 L 1099 2756 L 1098 2756 L 1097 2756 L 1096 2756 L 1095 2756 L 1094 2756 L 1093 2756 L 1092 2756 L 1091 2756 L 1090 2756 L 1089 2756 L 1088 2756 L 1087 2756 L 1086 2756 L 1085 2756 L 1084 2756 L 1083 2756 L 1082 2756 L 1081 2756 L 1080 2756 L 1079 2756 L 1078 2756 L 1077 2756 L 1076 2756 L 1075 2756 L 1074 2756 L 1073 2756 L 1072 2756 L 1071 2756 L 1070 2756 L 1069 2756 L 1068 2756 L 1067 2756 L 1066 2756 L 1065 2756 L 1064 2756 L 1063 2756 L 1062 2756 L 1061 2756 L 1060 2756 L 1059 2756 L 1058 2756 L 1057 2756 L 1056 2756 L 1055 2756 L 1054 2756 L 1053 2756 L 1052 2756 L 1051 2756 L 1050 2756 L 1049 2756 L 1048 2756 L 1047 2756 L 1046 2756 L 1045 2756 L 1044 2756 L 1043 2756 L 1042 2756 L 1041 2756 L 1040 2756 L 1039 2756 L 1038 2756 L 1037 2756 L 1036 2756 L 1035 2756 L 1034 2756 L 1033 2756 L 1032 2756 L 1031 2756 L 1030 2756 L 1029 2756 L 1028 2756 L 1027 2756 L 1026 2756 L 1025 2756 L 1024 2756 L 1023 2756 L 1022 2756 L 1021 2756 L 1020 2756 L 1019 2756 L 1018 2756 L 1017 2756 L 1016 2756 L 1015 2756 L 1014 2756 L 1013 2756 L 1012 2756 L 1011 2756 L 1010 2756 L 1009 2756 L 1008 2756 L 1007 2756 L 1006 2756 L 1005 2756 L 1004 2756 L 1003 2756 L 1002 2756 L 1001 2756 L 1000 2756 L 999 2756 L 998 2756 L 997 2756 L 996 2756 L 995 2756 L 994 2756 L 993 2756 L 992 2756 L 991 2756 L 990 2756 L 989 2756 L 988 2756 L 987 2756 L 986 2756 L 985 2756 L 984 2756 L 983 2756 L 982 2756 L 981 2756 L 980 2756 L 979 2756 L 978 2756 L 977 2756 L 976 2756 L 975 2756 L 974 2756 L 973 2756 L 972 2756 L 971 2756 L 970 2756 L 969 2756 L 968 2756 L 967 2756 L 966 2756 L 965 2756 L 964 2756 L 963 2756 L 962 2756 L 961 2756 L 960 2756 L 959 2756 L 958 2756 L 957 2756 L 956 2756 L 955 2756 L 954 2756 L 953 2756 L 952 2756 L 951 2756 L 950 2756 L 949 2756 L 948 2756 L 947 2756 L 946 2756 L 945 2756 L 944 2756 L 943 2756 L 942 2756 L 941 2756 L 940 2756 L 939 2756 L 938 2756 L 937 2756 L 936 2756 L 935 2756 L 934 2756 L 933 2756 L 932 2756 L 931 2756 L 930 2756 L 929 2756 L 928 2756 L 927 2756 L 926 2756 L 925 2756 L 924 2756 L 923 2756 L 922 2756 L 921 2756 L 920 2756 L 919 2756 L 918 2756 L 917 2756 L 916 2756 L 915 2756 L 914 2756 L 913 2756 L 912 2756 L 911 2756 L 910 2756 L 909 2756 L 908 2756 L 907 2756 L 906 2756 L 905 2756 L 904 2756 L 903 2756 L 902 2756 L 901 2756 L 900 2756 L 899 2756 L 898 2756 L 897 2756 L 896 2756 L 895 2756 L 894 2756 L 893 2756 L 892 2756 L 891 2756 L 890 2756 L 889 2756 L 888 2756 L 887 2756 L 886 2756 L 885 2756 L 884 2756 L 883 2756 L 882 2756 L 881 2756 L 880 2756 L 879 2756 L 878 2756 L 877 2756 L 876 2756 L 875 2756 L 874 2756 L 873 2756 L 872 2756 L 871 2756 L 870 2756 L 869 2756 L 868 2756 L 867 2756 L 866 2756 L 865 2756 L 864 2756 L 863 2756 L 862 2756 L 861 2756 L 860 2756 L 859 2756 L 858 2756 L 857 2756 L 856 2756 L 855 2756 L 854 2756 L 853 2756 L 852 2756 L 851 2756 L 850 2756 L 849 2756 L 848 2756 L 847 2756 L 846 2756 L 845 2756 L 844 2756 L 843 2756 L 842 2756 L 841 2756 L 840 2756 L 839 2756 L 838 2756 L 837 2756 L 836 2756 L 835 2756 L 834 2756 L 833 2756 L 832 2756 L 831 2756 L 830 2756 L 829 2756 L 828 2756 L 827 2756 L 826 2756 L 825 2756 L 824 2756 L 823 2756 L 822 2756 L 821 2756 L 820 2756 L 819 2756 L 818 2756 L 817 2756 L 816 2756 L 815 2756 L 814 2756 L 813 2756 L 812 2756 L 811 2756 L 810 2756 L 809 2756 L 808 2756 L 807 2756 L 806 2756 L 805 2756 L 804 2756 L 803 2756 L 802 2756 L 801 2756 L 800 2756 L 799 2756 L 798 2756 L 797 2756 L 796 2756 L 795 2756 L 794 2756 L 793 2756 L 792 2756 L 791 2756 L 790 2756 L 789 2756 L 788 2756 L 787 2756 L 786 2756 L 785 2756 L 784 2756 L 783 2756 L 782 2756 L 781 2756 L 780 2756 L 779 2756 L 778 2756 L 777 2756 L 776 2756 L 775 2756 L 774 2756 L 773 2756 L 772 2756 L 771 2756 L 770 2756 L 769 2756 L 768 2756 L 767 2756 L 766 2756 L 765 2756 L 764 2756 L 763 2756 L 762 2756 L 761 2756 L 760 2756 L 759 2756 L 758 2756 L 757 2756 L 756 2756 L 755 2756 L 754 2756 L 753 2756 L 752 2756 L 751 2756 L 750 2756 L 749 2756 L 748 2756 L 747 2756 L 746 2756 L 745 2756 L 744 2756 L 743 2756 L 742 2756 L 741 2756 L 740 2756 L 739 2756 L 738 2756 L 737 2756 L 736 2756 L 735 2756 L 734 2756 L 733 2756 L 732 2756 L 731 2756 L 730 2756 L 729 2756 L 728 2756 L 727 2756 L 726 2756 L 725 2756 L 724 2756 L 723 2756 L 722 2756 L 721 2756 L 720 2756 L 719 2756 L 718 2756 L 717 2756 L 716 2756 L 715 2756 L 714 2756 L 713 2756 L 712 2756 L 711 2756 L 710 2756 L 709 2756 L 708 2756 L 707 2756 L 706 2756 L 705 2756 L 704 2756 L 703 2756 L 702 2756 L 701 2756 L 700 2756 L 699 2756 L 698 2756 L 697 2756 L 696 2756 L 695 2756 L 694 2756 L 693 2756 L 692 2756 L 691 2756 L 690 2756 L 689 2756 L 688 2756 L 687 2756 L 686 2756 L 685 2756 L 684 2756 L 683 2756 L 682 2756 L 681 2756 L 680 2756 L 679 2756 L 678 2756 L 677 2756 L 676 2756 L 675 2756 L 674 2756 L 673 2756 L 672 2756 L 671 2756 L 670 2756 L 669 2756 L 668 2756 L 667 2756 L 666 2756 L 665 2756 L 664 2756 L 663 2756 L 662 2756 L 661 2756 L 660 2756 L 659 2756 L 658 2756 L 657 2756 L 656 2756 L 655 2756 L 654 2756 L 653 2756 L 652 2756 L 651 2756 L 650 2756 L 649 2756 L 648 2756 L 647 2756 L 646 2756 L 645 2756 L 644 2756 L 643 2756 L 642 2756 L 641 2756 L 640 2756 L 639 2756 L 638 2756 L 637 2756 L 636 2756 L 635 2756 L 634 2756 L 633 2756 L 632 2756 L 631 2756 L 630 2756 L 629 2756 L 628 2756 L 627 2756 L 626 2756 L 625 2756 L 624 2756 L 623 2756 L 622 2756 L 621 2756 L 620 2756 L 619 2756 L 618 2756 L 617 2756 L 616 2756 L 615 2756 L 614 2756 L 613 2756 L 612 2756 L 611 2756 L 610 2756 L 609 2756 L 608 2756 L 607 2756 L 606 2756 L 605 2756 L 604 2756 L 603 2756 L 602 2756 L 601 2756 L 600 2756 L 599 2756 L 598 2756 L 597 2756 L 596 2756 L 595 2756 L 594 2756 L 593 2756 L 592 2756 L 591 2756 L 590 2756 L 589 2756 L 588 2756 L 587 2756 L 586 2756 L 585 2756 L 584 2756 L 583 2756 L 582 2756 L 581 2756 L 580 2756 L 579 2756 L 578 2756 L 577 2756 L 576 2756 L 575 2756 L 574 2756 L 573 2756 L 572 2756 L 571 2756 L 570 2756 L 569 2756 L 568 2756 L 567 2756 L 566 2756 L 565 2756 L 564 2756 L 563 2756 L 562 2756 L 561 2756 L 560 2756 L 559 2756 L 558 2756 L 557 2756 L 556 2756 L 555 2756 L 554 2756 L 553 2756 L 552 2756 L 551 2756 L 550 2756 L 549 2756 L 548 2756 L 547 2756 L 546 2756 L 545 2756 L 544 2756 L 543 2756 L 542 2756 L 541 2756 L 540 2756 L 539 2756 L 538 2756 L 537 2756 L 536 2756 L 535 2756 L 534 2756 L 533 2756 L 532 2756 L 531 2756 L 530 2756 L 529 2756 L 528 2756 L 527 2756 L 526 2756 L 525 2756 L 524 2756 L 523 2756 L 522 2756 L 521 2756 L 520 2756 L 519 2756 L 518 2756 L 517 2756 L 516 2756 L 515 2756 L 514 2756 L 513 2756 L 512 2756 L 511 2756 L 510 2756 L 509 2756 L 508 2756 L 507 2756 L 506 2756 L 505 2756 L 504 2756 L 503 2756 L 502 2756 L 501 2756 L 500 2756 L 499 2756 L 498 2756 L 497 2756 L 496 2756 L 495 2756 L 494 2756 L 493 2756 L 492 2756 L 491 2756 L 490 2756 L 489 2756 L 488 2756 L 487 2756 L 486 2756 L 485 2756 L 484 2756 L 483 2756 L 482 2756 L 481 2756 L 480 2756 L 479 2756 L 478 2756 L 477 2756 L 476 2756 L 475 2756 L 474 2756 L 473 2756 L 472 2756 L 471 2756 L 470 2756 L 469 2756 L 468 2756 L 467 2756 L 466 2756 L 465 2756 L 464 2756 L 463 2756 L 462 2756 L 461 2756 L 460 2756 L 459 2756 L 458 2756 L 457 2756 L 456 2756 L 455 2756 L 454 2756 L 453 2756 L 452 2756 L 451 2756 L 450 2756 L 449 2756 L 448 2756 L 447 2756 L 446 2756 L 445 2756 L 444 2756 L 443 2756 L 442 2756 L 441 2756 L 440 2756 L 439 2756 L 438 2756 L 437 2756 L 436 2756 L 435 2756 L 434 2756 L 433 2756 L 432 2756 L 431 2756 L 430 2756 L 429 2756 L 428 2756 L 427 2756 L 426 2756 L 425 2756 L 424 2756 L 423 2756 L 422 2756 L 421 2756 L 420 2756 L 419 2756 L 418 2756 L 417 2756 L 416 2756 L 415 2756 L 414 2756 L 413 2756 L 412 2756 L 411 2756 L 410 2756 L 409 2756 L 408 2756 L 407 2756 L 406 2756 L 405 2756 L 404 2756 L 403 2756 L 402 2756 L 401 2756 L 400 2756 L 399 2756 L 398 2756 L 397 2756 L 396 2756 L 395 2756 L 394 2756 L 393 2756 L 392 2756 L 391 2756 L 390 2756 L 389 2756 L 388 2756 L 387 2756 L 386 2756 L 385 2756 L 384 2756 L 383 2756 L 382 2756 L 381 2756 L 380 2756 L 379 2756 L 378 2756 L 377 2756 L 376 2756 L 375 2756 L 374 2756 L 373 2756 L 372 2756 L 371 2756 L 370 2756 L 369 2756 L 368 2756 L 367 2756 L 366 2756 L 365 2756 L 364 2756 L 363 2756 L 362 2756 L 361 2756 L 360 2756 L 359 2756 L 358 2756 L 357 2756 L 356 2756 L 355 2756 L 354 2756 L 353 2756 L 352 2756 L 351 2756 L 350 2756 L 349 2756 L 348 2756 L 347 2756 L 346 2756 L 345 2756 L 344 2756 L 343 2756 L 342 2756 L 341 2756 L 340 2756 L 339 2756 L 338 2756 L 337 2756 L 336 2756 L 335 2756 L 334 2756 L 333 2756 L 332 2756 L 331 2756 L 330 2756 L 329 2756 L 328 2756 L 327 2756 L 326 2756 L 325 2756 L 324 2756 L 323 2756 L 322 2756 L 321 2756 L 320 2756 L 319 2756 L 318 2756 L 317 2756 L 316 2756 L 315 2756 L 314 2756 L 313 2756 L 312 2756 L 311 2756 L 310 2756 L 309 2756 L 308 2756 L 307 2756 L 306 2756 L 305 2756 L 304 2756 L 303 2756 L 302 2756 L 301 2756 L 300 2756 L 299 2756 L 298 2756 L 297 2756 L 296 2756 L 295 2756 L 294 2756 L 293 2756 L 292 2756 L 291 2756 L 290 2756 L 289 2756 L 288 2756 L 287 2756 L 286 2756 L 285 2756 L 284 2756 L 283 2756 L 282 2756 L 281 2756 L 280 2756 L 279 2756 L 278 2756 L 277 2756 L 276 2756 L 275 2756 L 274 2756 L 273 2756 L 272 2756 L 271 2756 L 270 2756 L 269 2756 L 268 2756 L 267 2756 L 266 2756 L 265 2756 L 264 2756 L 263 2756 L 262 2756 L 261 2756 L 260 2756 L 259 2756 L 258 2756 L 257 2756 L 256 2756 L 255 2756 L 254 2756 L 253 2756 L 252 2756 L 251 2756 L 250 2756 L 249 2756 L 248 2756 L 247 2756 L 246 2756 L 245 2756 L 244 2756 L 243 2756 L 242 2756 L 241 2756 L 240 2756 L 239 2756 L 238 2756 L 237 2756 L 236 2756 L 235 2756 L 234 2756 L 233 2756 L 232 2756 L 231 2756 L 230 2756 L 229 2756 L 228 2756 L 227 2756 L 226 2756 L 225 2756 L 224 2756 L 223 2756 L 222 2756 L 221 2756 L 220 2756 L 219 2756 L 218 2756 L 217 2756 L 216 2756 L 215 2756 L 214 2756 L 213 2756 L 212 2756 L 211 2756 L 210 2756 L 209 2756 L 208 2756 L 207 2756 L 206 2756 L 205 2756 L 204 2756 L 203 2756 L 202 2756 L 201 2756 L 200 2756 L 199 2756 L 198 2756 L 197 2756 L 196 2756 L 195 2756 L 194 2756 L 193 2756 L 192 2756 L 191 2756 L 190 2756 L 189 2756 L 188 2756 L 187 2756 L 186 2756 L 185 2756 L 184 2756 L 183 2756 L 182 2756 L 181 2756 L 180 2756 L 179 2756 L 178 2756 L 177 2756 L 176 2756 L 175 2756 L 174 2756 L 173 2756 L 172 2756 L 171 2756 L 170 2756 L 169 2756 L 168 2756 L 167 2756 L 166 2756 L 165 2756 L 164 2756 L 163 2756 L 162 2756 L 161 2756 L 160 2756 L 159 2756 L 158 2756 L 157 2756 L 156 2756 L 155 2756 L 154 2756 L 153 2756 L 152 2756 L 151 2756 L 150 2756 L 149 2756 L 148 2756 L 147 2756 L 146 2756 L 145 2756 L 144 2756 L 143 2756 L 142 2756 Z M 90 2395 L 89 2394 L 88 2394 L 87 2394 L 86 2394 L 85 2394 L 84 2394 L 83 2393 L 82 2393 L 81 2393 L 80 2393 L 79 2392 L 78 2392 L 77 2392 L 76 2391 L 75 2391 L 74 2391 L 73 2390 L 72 2390 L 71 2390 L 70 2389 L 69 2389 L 68 2388 L 67 2388 L 66 2387 L 65 2387 L 64 2386 L 63 2386 L 62 2385 L 61 2384 L 60 2384 L 59 2383 L 58 2382 L 57 2382 L 56 2381 L 55 2380 L 54 2379 L 53 2378 L 52 2378 L 51 2377 L 50 2376 L 49 2375 L 48 2374 L 47 2373 L 47 2372 L 46 2371 L 45 2370 L 44 2369 L 43 2368 L 42 2367 L 42 2366 L 41 2365 L 40 2364 L 40 2363 L 39 2362 L 39 2361 L 38 2360 L 37 2359 L 37 2358 L 36 2357 L 36 2356 L 35 2355 L 35 2354 L 34 2353 L 34 2351 L 33 2350 L 33 2348 L 32 2347 L 32 2345 L 31 2344 L 31 2341 L 30 2340 L 30 2335 L 29 2334 L 29 2318 L 30 2317 L 30 2312 L 31 2311 L 31 2308 L 32 2307 L 32 2305 L 33 2304 L 33 2302 L 34 2301 L 34 2300 L 35 2299 L 35 2297 L 36 2296 L 36 2295 L 37 2294 L 37 2293 L 38 2292 L 39 2291 L 39 2290 L 40 2289 L 40 2288 L 41 2287 L 42 2286 L 43 2285 L 43 2284 L 44 2283 L 45 2282 L 46 2281 L 47 2280 L 48 2279 L 49 2278 L 49 2277 L 50 2277 L 51 2276 L 52 2275 L 53 2274 L 54 2273 L 55 2272 L 56 2271 L 57 2271 L 58 2270 L 59 2269 L 60 2269 L 61 2268 L 62 2267 L 63 2267 L 64 2266 L 65 2266 L 66 2265 L 67 2265 L 68 2264 L 69 2264 L 70 2263 L 71 2263 L 72 2262 L 73 2262 L 74 2262 L 75 2261 L 76 2261 L 77 2260 L 78 2260 L 79 2260 L 80 2260 L 81 2259 L 82 2259 L 83 2259 L 84 2259 L 85 2258 L 86 2258 L 87 2258 L 88 2258 L 89 2258 L 90 2258 L 91 2258 L 92 2258 L 93 2257 L 94 2257 L 95 2257 L 96 2257 L 97 2257 L 98 2257 L 99 2257 L 100 2257 L 101 2257 L 102 2257 L 103 2257 L 104 2258 L 105 2258 L 106 2258 L 107 2258 L 108 2258 L 109 2258 L 110 2258 L 111 2258 L 112 2259 L 113 2259 L 114 2259 L 115 2259 L 116 2260 L 117 2260 L 118 2260 L 119 2260 L 120 2261 L 121 2261 L 122 2261 L 123 2262 L 124 2262 L 125 2263 L 126 2263 L 127 2263 L 128 2264 L 129 2264 L 130 2265 L 131 2265 L 132 2266 L 133 2267 L 134 2267 L 135 2268 L 136 2268 L 137 2269 L 138 2270 L 139 2270 L 140 2271 L 141 2272 L 142 2273 L 143 2274 L 144 2274 L 145 2275 L 146 2276 L 147 2277 L 148 2278 L 149 2279 L 150 2280 L 150 2281 L 151 2282 L 152 2283 L 153 2284 L 154 2285 L 154 2286 L 155 2287 L 156 2288 L 156 2289 L 157 2290 L 157 2291 L 158 2292 L 159 2293 L 159 2294 L 160 2295 L 160 2296 L 161 2297 L 161 2299 L 162 2300 L 162 2301 L 163 2302 L 163 2304 L 164 2305 L 164 2308 L 165 2309 L 165 2312 L 166 2313 L 166 2320 L 167 2321 L 167 2332 L 166 2333 L 166 2339 L 165 2340 L 165 2343 L 164 2344 L 164 2347 L 163 2348 L 163 2350 L 162 2351 L 162 2353 L 161 2354 L 161 2355 L 160 2356 L 160 2357 L 159 2358 L 159 2359 L 158 2360 L 158 2361 L 157 2362 L 156 2363 L 156 2364 L 155 2365 L 154 2366 L 154 2367 L 153 2368 L 152 2369 L 151 2370 L 151 2371 L 150 2372 L 149 2373 L 148 2374 L 147 2375 L 146 2376 L 145 2377 L 144 2378 L 143 2379 L 142 2380 L 141 2380 L 140 2381 L 139 2382 L 138 2383 L 137 2383 L 136 2384 L 135 2384 L 134 2385 L 133 2386 L 132 2386 L 131 2387 L 130 2387 L 129 2388 L 128 2388 L 127 2389 L 126 2389 L 125 2390 L 124 2390 L 123 2390 L 122 2391 L 121 2391 L 120 2392 L 119 2392 L 118 2392 L 117 2392 L 116 2393 L 115 2393 L 114 2393 L 113 2393 L 112 2394 L 111 2394 L 110 2394 L 109 2394 L 108 2394 L 107 2394 L 106 2395 L 105 2395 L 104 2395 L 103 2395 L 102 2395 L 101 2395 L 100 2395 L 99 2395 L 98 2395 L 97 2395 L 96 2395 L 95 2395 L 94 2395 L 93 2395 L 92 2395 L 91 2395 Z M 1703 232 L 1702 231 L 1701 231 L 1700 231 L 1699 231 L 1698 231 L 1697 231 L 1696 230 L 1695 230 L 1694 230 L 1693 230 L 1692 229 L 1691 229 L 1690 229 L 1689 229 L 1688 228 L 1687 228 L 1686 227 L 1685 227 L 1684 227 L 1683 226 L 1682 226 L 1681 225 L 1680 225 L 1679 224 L 1678 224 L 1677 223 L 1676 223 L 1675 222 L 1674 222 L 1673 221 L 1672 220 L 1671 220 L 1670 219 L 1669 218 L 1668 217 L 1667 217 L 1666 216 L 1665 215 L 1664 214 L 1663 213 L 1662 212 L 1661 211 L 1660 210 L 1659 209 L 1658 208 L 1657 207 L 1657 206 L 1656 205 L 1655 204 L 1654 203 L 1654 202 L 1653 201 L 1652 200 L 1652 199 L 1651 198 L 1651 197 L 1650 196 L 1650 195 L 1649 194 L 1649 193 L 1648 192 L 1648 191 L 1647 190 L 1647 188 L 1646 187 L 1646 185 L 1645 184 L 1645 182 L 1644 181 L 1644 178 L 1643 177 L 1643 171 L 1642 170 L 1642 156 L 1643 155 L 1643 150 L 1644 149 L 1644 146 L 1645 145 L 1645 142 L 1646 141 L 1646 140 L 1647 139 L 1647 137 L 1648 136 L 1648 135 L 1649 134 L 1649 133 L 1650 132 L 1650 131 L 1651 130 L 1651 129 L 1652 128 L 1652 127 L 1653 126 L 1654 125 L 1654 124 L 1655 123 L 1656 122 L 1657 121 L 1657 120 L 1658 119 L 1659 118 L 1660 117 L 1661 116 L 1662 115 L 1663 114 L 1664 113 L 1665 112 L 1666 111 L 1667 110 L 1668 109 L 1669 109 L 1670 108 L 1671 107 L 1672 106 L 1673 106 L 1674 105 L 1675 105 L 1676 104 L 1677 103 L 1678 103 L 1679 102 L 1680 102 L 1681 101 L 1682 101 L 1683 100 L 1684 100 L 1685 99 L 1686 99 L 1687 99 L 1688 98 L 1689 98 L 1690 98 L 1691 97 L 1692 97 L 1693 97 L 1694 96 L 1695 96 L 1696 96 L 1697 96 L 1698 96 L 1699 95 L 1700 95 L 1701 95 L 1702 95 L 1703 95 L 1704 95 L 1705 95 L 1706 94 L 1707 94 L 1708 94 L 1709 94 L 1710 94 L 1711 94 L 1712 94 L 1713 94 L 1714 94 L 1715 94 L 1716 94 L 1717 95 L 1718 95 L 1719 95 L 1720 95 L 1721 95 L 1722 95 L 1723 95 L 1724 95 L 1725 96 L 1726 96 L 1727 96 L 1728 96 L 1729 97 L 1730 97 L 1731 97 L 1732 97 L 1733 98 L 1734 98 L 1735 98 L 1736 99 L 1737 99 L 1738 100 L 1739 100 L 1740 100 L 1741 101 L 1742 101 L 1743 102 L 1744 102 L 1745 103 L 1746 104 L 1747 104 L 1748 105 L 1749 105 L 1750 106 L 1751 107 L 1752 107 L 1753 108 L 1754 109 L 1755 110 L 1756 110 L 1757 111 L 1758 112 L 1759 113 L 1760 114 L 1761 115 L 1762 116 L 1763 117 L 1764 118 L 1764 119 L 1765 120 L 1766 121 L 1767 122 L 1767 123 L 1768 124 L 1769 125 L 1769 126 L 1770 127 L 1771 128 L 1771 129 L 1772 130 L 1772 131 L 1773 132 L 1773 133 L 1774 134 L 1774 135 L 1775 136 L 1775 138 L 1776 139 L 1776 141 L 1777 142 L 1777 144 L 1778 145 L 1778 148 L 1779 149 L 1779 155 L 1780 156 L 1780 170 L 1779 171 L 1779 177 L 1778 178 L 1778 181 L 1777 182 L 1777 184 L 1776 185 L 1776 187 L 1775 188 L 1775 190 L 1774 191 L 1774 192 L 1773 193 L 1773 194 L 1772 195 L 1772 196 L 1771 197 L 1771 198 L 1770 199 L 1770 200 L 1769 201 L 1768 202 L 1768 203 L 1767 204 L 1766 205 L 1765 206 L 1765 207 L 1764 208 L 1763 209 L 1762 210 L 1761 211 L 1760 212 L 1759 213 L 1758 214 L 1757 215 L 1756 216 L 1755 217 L 1754 217 L 1753 218 L 1752 219 L 1751 220 L 1750 220 L 1749 221 L 1748 222 L 1747 222 L 1746 223 L 1745 223 L 1744 224 L 1743 224 L 1742 225 L 1741 225 L 1740 226 L 1739 226 L 1738 227 L 1737 227 L 1736 228 L 1735 228 L 1734 228 L 1733 229 L 1732 229 L 1731 229 L 1730 229 L 1729 230 L 1728 230 L 1727 230 L 1726 230 L 1725 231 L 1724 231 L 1723 231 L 1722 231 L 1721 231 L 1720 231 L 1719 232 L 1718 232 L 1717 232 L 1716 232 L 1715 232 L 1714 232 L 1713 232 L 1712 232 L 1711 232 L 1710 232 L 1709 232 L 1708 232 L 1707 232 L 1706 232 L 1705 232 L 1704 232 Z M 2447 2395 L 2446 2394 L 2445 2394 L 2444 2394 L 2443 2394 L 2442 2394 L 2441 2394 L 2440 2393 L 2439 2393 L 2438 2393 L 2437 2393 L 2436 2392 L 2435 2392 L 2434 2392 L 2433 2391 L 2432 2391 L 2431 2391 L 2430 2390 L 2429 2390 L 2428 2390 L 2427 2389 L 2426 2389 L 2425 2388 L 2424 2388 L 2423 2387 L 2422 2387 L 2421 2386 L 2420 2385 L 2419 2385 L 2418 2384 L 2417 2384 L 2416 2383 L 2415 2382 L 2414 2381 L 2413 2381 L 2412 2380 L 2411 2379 L 2410 2378 L 2409 2377 L 2408 2376 L 2407 2375 L 2406 2375 L 2406 2374 L 2405 2373 L 2404 2372 L 2403 2371 L 2402 2370 L 2401 2369 L 2400 2368 L 2400 2367 L 2399 2366 L 2398 2365 L 2398 2364 L 2397 2363 L 2396 2362 L 2396 2361 L 2395 2360 L 2395 2359 L 2394 2358 L 2394 2357 L 2393 2356 L 2393 2355 L 2392 2354 L 2392 2353 L 2391 2352 L 2391 2350 L 2390 2349 L 2390 2348 L 2389 2347 L 2389 2344 L 2388 2343 L 2388 2340 L 2387 2339 L 2387 2332 L 2386 2331 L 2386 2321 L 2387 2320 L 2387 2313 L 2388 2312 L 2388 2309 L 2389 2308 L 2389 2306 L 2390 2305 L 2390 2303 L 2391 2302 L 2391 2300 L 2392 2299 L 2392 2298 L 2393 2297 L 2393 2296 L 2394 2295 L 2394 2294 L 2395 2293 L 2395 2292 L 2396 2291 L 2396 2290 L 2397 2289 L 2398 2288 L 2398 2287 L 2399 2286 L 2400 2285 L 2401 2284 L 2401 2283 L 2402 2282 L 2403 2281 L 2404 2280 L 2405 2279 L 2406 2278 L 2407 2277 L 2408 2276 L 2409 2275 L 2410 2274 L 2411 2273 L 2412 2272 L 2413 2272 L 2414 2271 L 2415 2270 L 2416 2269 L 2417 2269 L 2418 2268 L 2419 2268 L 2420 2267 L 2421 2266 L 2422 2266 L 2423 2265 L 2424 2265 L 2425 2264 L 2426 2264 L 2427 2263 L 2428 2263 L 2429 2262 L 2430 2262 L 2431 2262 L 2432 2261 L 2433 2261 L 2434 2261 L 2435 2260 L 2436 2260 L 2437 2260 L 2438 2259 L 2439 2259 L 2440 2259 L 2441 2259 L 2442 2258 L 2443 2258 L 2444 2258 L 2445 2258 L 2446 2258 L 2447 2258 L 2448 2258 L 2449 2258 L 2450 2257 L 2451 2257 L 2452 2257 L 2453 2257 L 2454 2257 L 2455 2257 L 2456 2257 L 2457 2257 L 2458 2257 L 2459 2257 L 2460 2257 L 2461 2257 L 2462 2258 L 2463 2258 L 2464 2258 L 2465 2258 L 2466 2258 L 2467 2258 L 2468 2258 L 2469 2259 L 2470 2259 L 2471 2259 L 2472 2259 L 2473 2260 L 2474 2260 L 2475 2260 L 2476 2260 L 2477 2261 L 2478 2261 L 2479 2261 L 2480 2262 L 2481 2262 L 2482 2262 L 2483 2263 L 2484 2263 L 2485 2264 L 2486 2264 L 2487 2265 L 2488 2265 L 2489 2266 L 2490 2266 L 2491 2267 L 2492 2268 L 2493 2268 L 2494 2269 L 2495 2270 L 2496 2270 L 2497 2271 L 2498 2272 L 2499 2273 L 2500 2273 L 2501 2274 L 2502 2275 L 2503 2276 L 2504 2277 L 2505 2278 L 2506 2279 L 2507 2280 L 2508 2281 L 2509 2282 L 2509 2283 L 2510 2284 L 2511 2285 L 2512 2286 L 2512 2287 L 2513 2288 L 2513 2289 L 2514 2290 L 2515 2291 L 2515 2292 L 2516 2293 L 2516 2294 L 2517 2295 L 2517 2296 L 2518 2297 L 2518 2298 L 2519 2299 L 2519 2301 L 2520 2302 L 2520 2304 L 2521 2305 L 2521 2307 L 2522 2308 L 2522 2311 L 2523 2312 L 2523 2317 L 2524 2318 L 2524 2334 L 2523 2335 L 2523 2340 L 2522 2341 L 2522 2344 L 2521 2345 L 2521 2348 L 2520 2349 L 2520 2351 L 2519 2352 L 2519 2353 L 2518 2354 L 2518 2355 L 2517 2356 L 2517 2357 L 2516 2358 L 2516 2359 L 2515 2360 L 2515 2361 L 2514 2362 L 2514 2363 L 2513 2364 L 2512 2365 L 2512 2366 L 2511 2367 L 2510 2368 L 2509 2369 L 2509 2370 L 2508 2371 L 2507 2372 L 2506 2373 L 2505 2374 L 2504 2375 L 2503 2376 L 2502 2377 L 2501 2378 L 2500 2379 L 2499 2380 L 2498 2380 L 2497 2381 L 2496 2382 L 2495 2383 L 2494 2383 L 2493 2384 L 2492 2385 L 2491 2385 L 2490 2386 L 2489 2386 L 2488 2387 L 2487 2387 L 2486 2388 L 2485 2388 L 2484 2389 L 2483 2389 L 2482 2390 L 2481 2390 L 2480 2391 L 2479 2391 L 2478 2391 L 2477 2392 L 2476 2392 L 2475 2392 L 2474 2392 L 2473 2393 L 2472 2393 L 2471 2393 L 2470 2393 L 2469 2394 L 2468 2394 L 2467 2394 L 2466 2394 L 2465 2394 L 2464 2394 L 2463 2395 L 2462 2395 L 2461 2395 L 2460 2395 L 2459 2395 L 2458 2395 L 2457 2395 L 2456 2395 L 2455 2395 L 2454 2395 L 2453 2395 L 2452 2395 L 2451 2395 L 2450 2395 L 2449 2395 L 2448 2395 Z"/><g id="pcb_bottom-drl" fill="#000" stroke="#000"><use x="809.3" y="1247.9" xlink:href="#tool-T10-pad-1000"/><use x="809.3" y="847.9" xlink:href="#tool-T10-pad-1000"/><use x="1309.3" y="1147.9" xlink:href="#tool-T11-pad-1001"/><use x="409.3" y="1047.9" xlink:href="#tool-T11-pad-1001"/><use x="1309.3" y="1447.9" xlink:href="#tool-T11-pad-1001"/><use x="1309.3" y="1347.9" xlink:href="#tool-T11-pad-1001"/><use x="409.3" y="1547.9" xlink:href="#tool-T11-pad-1001"/><use x="409.3" y="1747.9" xlink:href="#tool-T11-pad-1001"/><use x="409.3" y="1247.9" xlink:href="#tool-T11-pad-1001"/><use x="1309.3" y="1047.9" xlink:href="#tool-T11-pad-1001"/><use x="409.3" y="1447.9" xlink:href="#tool-T11-pad-1001"/><use x="1309.3" y="1547.9" xlink:href="#tool-T11-pad-1001"/><use x="1309.3" y="1747.9" xlink:href="#tool-T11-pad-1001"/><use x="1309.3" y="1647.9" xlink:href="#tool-T11-pad-1001"/><use x="409.3" y="1647.9" xlink:href="#tool-T11-pad-1001"/><use x="409.3" y="1147.9" xlink:href="#tool-T11-pad-1001"/><use x="1309.3" y="1247.9" xlink:href="#tool-T11-pad-1001"/><use x="409.3" y="1347.9" xlink:href="#tool-T11-pad-1001"/><use x="2009.3" y="1947.9" xlink:href="#tool-T12-pad-1002"/><use x="2109.3" y="597.9" xlink:href="#tool-T12-pad-1002"/><use x="2109.3" y="947.9" xlink:href="#tool-T12-pad-1002"/><use x="2209.3" y="1647.9" xlink:href="#tool-T12-pad-1002"/><use x="2009.3" y="1647.9" xlink:href="#tool-T12-pad-1002"/><use x="2009.3" y="947.9" xlink:href="#tool-T12-pad-1002"/><use x="2309.3" y="947.9" xlink:href="#tool-T12-pad-1002"/><use x="2109.3" y="1147.9" xlink:href="#tool-T12-pad-1002"/><use x="2309.3" y="1647.9" xlink:href="#tool-T12-pad-1002"/><use x="1759.6" y="1347.1" xlink:href="#tool-T12-pad-1002"/><use x="2309.3" y="1147.9" xlink:href="#tool-T12-pad-1002"/><use x="1909.3" y="597.9" xlink:href="#tool-T12-pad-1002"/><use x="1559.6" y="1947.1" xlink:href="#tool-T12-pad-1002"/><use x="1759.6" y="1947.1" xlink:href="#tool-T12-pad-1002"/><use x="1509.3" y="1147.9" xlink:href="#tool-T12-pad-1002"/><use x="1459.6" y="1947.1" xlink:href="#tool-T12-pad-1002"/><use x="1509.3" y="947.9" xlink:href="#tool-T12-pad-1002"/><use x="2009.3" y="597.9" xlink:href="#tool-T12-pad-1002"/><use x="2209.3" y="1947.9" xlink:href="#tool-T12-pad-1002"/><use x="2009.3" y="1147.9" xlink:href="#tool-T12-pad-1002"/><use x="1559.6" y="1647.1" xlink:href="#tool-T12-pad-1002"/><use x="1559.6" y="1347.1" xlink:href="#tool-T12-pad-1002"/><use x="1759.6" y="1647.1" xlink:href="#tool-T12-pad-1002"/><use x="2209.3" y="597.9" xlink:href="#tool-T12-pad-1002"/><use x="2309.3" y="1947.9" xlink:href="#tool-T12-pad-1002"/><use x="1459.6" y="1647.1" xlink:href="#tool-T12-pad-1002"/><use x="2309.3" y="597.9" xlink:href="#tool-T12-pad-1002"/><use x="1509.3" y="847.9" xlink:href="#tool-T12-pad-1002"/><use x="1459.6" y="1347.1" xlink:href="#tool-T12-pad-1002"/><use x="1159.3" y="447.9" xlink:href="#tool-T13-pad-1003"/><use x="1659.6" y="1947.1" xlink:href="#tool-T14-pad-1004"/><use x="1509.3" y="1047.9" xlink:href="#tool-T14-pad-1004"/><use x="2109.3" y="1947.9" xlink:href="#tool-T14-pad-1004"/><use x="1659.6" y="1347.1" xlink:href="#tool-T14-pad-1004"/><use x="2109.3" y="1647.9" xlink:href="#tool-T14-pad-1004"/><use x="1659.6" y="1647.1" xlink:href="#tool-T14-pad-1004"/><use x="2209.3" y="1147.9" xlink:href="#tool-T14-pad-1004"/><use x="2209.3" y="947.9" xlink:href="#tool-T14-pad-1004"/></g></mask></defs><g mask="url(#pcb_bottom_mech-mask)" transform="translate(2553,2760) scale(-1,-1)"><rect x="4" y="4" width="2545" height="2752" fill="currentColor" class="pcb_board-fr4"/><use class="pcb_board-cu" xlink:href="#pcb_bottom-cu"/><g><defs><g id="pcb_bottom-sm" fill="currentColor" stroke="currentColor"><use x="809" y="1248" xlink:href="#tool-D10-pad-1015"/><use x="809" y="848" xlink:href="#tool-D10-pad-1015"/><use x="2009" y="1648" xlink:href="#tool-D11-pad-1016"/><use x="2109" y="1648" xlink:href="#tool-D12-pad-1017"/><use x="2209" y="1648" xlink:href="#tool-D11-pad-1016"/><use x="2309" y="1648" xlink:href="#tool-D11-pad-1016"/><use x="2009" y="1948" xlink:href="#tool-D11-pad-1016"/><use x="2109" y="1948" xlink:href="#tool-D12-pad-1017"/><use x="2209" y="1948" xlink:href="#tool-D11-pad-1016"/><use x="2309" y="1948" xlink:href="#tool-D11-pad-1016"/><use x="2309" y="1148" xlink:href="#tool-D11-pad-1016"/><use x="2209" y="1148" xlink:href="#tool-D12-pad-1017"/><use x="2109" y="1148" xlink:href="#tool-D11-pad-1016"/><use x="2009" y="1148" xlink:href="#tool-D11-pad-1016"/><use x="1760" y="1647" xlink:href="#tool-D11-pad-1016"/><use x="1660" y="1647" xlink:href="#tool-D12-pad-1017"/><use x="1560" y="1647" xlink:href="#tool-D11-pad-1016"/><use x="1460" y="1647" xlink:href="#tool-D11-pad-1016"/><use x="1760" y="1347" xlink:href="#tool-D11-pad-1016"/><use x="1660" y="1347" xlink:href="#tool-D12-pad-1017"/><use x="1560" y="1347" xlink:href="#tool-D11-pad-1016"/><use x="1460" y="1347" xlink:href="#tool-D11-pad-1016"/><use x="1760" y="1947" xlink:href="#tool-D11-pad-1016"/><use x="1660" y="1947" xlink:href="#tool-D12-pad-1017"/><use x="1560" y="1947" xlink:href="#tool-D11-pad-1016"/><use x="1460" y="1947" xlink:href="#tool-D11-pad-1016"/><use x="2309" y="948" xlink:href="#tool-D11-pad-1016"/><use x="2209" y="948" xlink:href="#tool-D12-pad-1017"/><use x="2109" y="948" xlink:href="#tool-D11-pad-1016"/><use x="2009" y="948" xlink:href="#tool-D11-pad-1016"/><use x="1509" y="1148" xlink:href="#tool-D11-pad-1016"/><use x="1509" y="1048" xlink:href="#tool-D12-pad-1017"/><use x="1509" y="948" xlink:href="#tool-D11-pad-1016"/><use x="1509" y="848" xlink:href="#tool-D11-pad-1016"/><use x="409" y="1748" xlink:href="#tool-D13-pad-1018"/><use x="409" y="1648" xlink:href="#tool-D13-pad-1018"/><use x="409" y="1548" xlink:href="#tool-D13-pad-1018"/><use x="409" y="1448" xlink:href="#tool-D13-pad-1018"/><use x="409" y="1348" xlink:href="#tool-D13-pad-1018"/><use x="409" y="1248" xlink:href="#tool-D13-pad-1018"/><use x="409" y="1148" xlink:href="#tool-D13-pad-1018"/><use x="409" y="1048" xlink:href="#tool-D13-pad-1018"/><use x="1309" y="1048" xlink:href="#tool-D13-pad-1018"/><use x="1309" y="1148" xlink:href="#tool-D13-pad-1018"/><use x="1309" y="1248" xlink:href="#tool-D13-pad-1018"/><use x="1309" y="1348" xlink:href="#tool-D13-pad-1018"/><use x="1309" y="1448" xlink:href="#tool-D13-pad-1018"/><use x="1309" y="1548" xlink:href="#tool-D13-pad-1018"/><use x="1309" y="1648" xlink:href="#tool-D13-pad-1018"/><use x="1309" y="1748" xlink:href="#tool-D13-pad-1018"/><use x="2309" y="598" xlink:href="#tool-D11-pad-1016"/><use x="2209" y="598" xlink:href="#tool-D11-pad-1016"/><use x="2109" y="598" xlink:href="#tool-D11-pad-1016"/><use x="2009" y="598" xlink:href="#tool-D11-pad-1016"/><use x="1909" y="598" xlink:href="#tool-D11-pad-1016"/><use x="1159" y="448" xlink:href="#tool-D14-pad-1019"/><use x="2110" y="1648" xlink:href="#tool-D15-pad-1020"/><use x="2110" y="1948" xlink:href="#tool-D15-pad-1020"/><use x="2209" y="1148" xlink:href="#tool-D15-pad-1020"/><use x="1659" y="1647" xlink:href="#tool-D15-pad-1020"/><use x="1659" y="1347" xlink:href="#tool-D15-pad-1020"/><use x="1659" y="1947" xlink:href="#tool-D15-pad-1020"/><use x="2209" y="948" xlink:href="#tool-D15-pad-1020"/><use x="1510" y="1148" xlink:href="#tool-D16-pad-1021"/><use x="1309" y="1148" xlink:href="#tool-D17-pad-1022"/><use x="2109" y="598" xlink:href="#tool-D18-pad-1023"/></g><mask id="pcb_bottom-sm_mask" color="#000"><rect x="4" y="4" width="2545" height="2752" fill="#fff"/><use xlink:href="#pcb_bottom-sm"/></mask><mask id="pcb_bottom-cu_finish-mask" color="#fff"><use xlink:href="#pcb_bottom-cu"/></mask></defs><g mask="url(#pcb_bottom-sm_mask)"><rect x="4" y="4" width="2545" height="2752" fill="currentColor" class="pcb_board-sm"/></g><use class="pcb_board-cf" mask="url(#pcb_bottom-cu_finish-mask)" xlink:href="#pcb_bottom-sm"/></g></g></svg>