; NON-PLATED HOLES START AT T1
; THROUGH (PLATED) HOLES START AT T100
M48
INCH
T100C0.022334
T101C0.040992
T102C0.039370
T103C0.037888
T104C0.038000
T105C0.035000
%
T100
X003056Y011954
X003056Y018943
X012030Y011954
X012030Y018943
X003056Y005963
X012030Y005963
X003056Y015948
X012030Y015948
X003056Y013951
X012030Y013951
X003056Y009957
X012030Y009957
X003056Y007960
X012030Y007960
X003056Y010956
X003056Y017945
X012030Y010956
X012030Y017945
X003056Y004965
X012030Y004965
X003056Y014949
X012030Y014949
X003056Y012952
X012030Y012952
X003056Y008959
X012030Y008959
X003056Y006962
X012030Y006962
X003056Y016946
X012030Y016946
T101
X022556Y005951
X017059Y015943
X017056Y006951
X021556Y012951
X017068Y011428
X022556Y007951
X017059Y012943
X021556Y015951
T102
X019056Y020951
X021056Y020951
X022056Y020951
X023056Y020951
X015056Y020951
X024056Y020951
X016056Y020951
X017056Y020951
X020056Y020951
X018056Y020951
T103
X013068Y013947
X002091Y013947
X013068Y011950
X013068Y018940
X013068Y007956
X002091Y011950
X002091Y018940
X002091Y007956
X013068Y005960
X013068Y015944
X002091Y005960
X002091Y015944
X013068Y009953
X013068Y012949
X002091Y009953
X002091Y012949
X013068Y010952
X013068Y017941
X013068Y006958
X002091Y010952
X002091Y017941
X002091Y006958
X013068Y004961
X013068Y014946
X002091Y004961
X002091Y014946
X013068Y008955
X002091Y008955
X013068Y016943
X002091Y016943
T104
X016059Y015943
X018059Y012943
X016068Y011428
X022056Y019451
X015059Y015943
X016059Y012943
X017056Y007951
X015059Y012943
X021556Y007951
X017056Y004951
X023556Y015951
X020556Y007951
X021556Y002451
X022556Y015951
X023556Y012951
X020556Y002451
X023556Y005951
X022556Y012951
X018068Y011428
X024056Y019451
X023056Y019451
X015068Y011428
X021056Y019451
X023556Y007951
X023556Y002451
X019556Y002451
X022556Y002451
X020556Y015951
X017056Y005951
X021556Y005951
X020556Y012951
X020556Y005951
X018059Y015943
T105
X015556Y004951
X015556Y008951
T00
M30
