G04 MADE WITH FRITZING*
G04 WWW.FRITZING.ORG*
G04 DOUBLE SIDED*
G04 HOLES PLATED*
G04 CONTOUR ON CENTER OF CONTOUR VECTOR*
%ASAXBY*%
%FSLAX23Y23*%
%MOIN*%
%OFA0B0*%
%SFA1.0B1.0*%
%ADD10C,0.047859*%
%ADD11C,0.070000*%
%ADD12C,0.078000*%
%ADD13C,0.077770*%
%ADD14C,0.075000*%
%ADD15C,0.084141*%
%ADD16R,0.075556X0.075556*%
%ADD17R,0.084375X0.084375*%
%ADD18R,0.083333X0.083333*%
%ADD19R,0.078000X0.078000*%
%ADD20C,0.024000*%
%LNCOPPER1*%
G90*
G70*
G54D10*
X1203Y1697D03*
X306Y1896D03*
X306Y1796D03*
X306Y1697D03*
X306Y1597D03*
X306Y1497D03*
X1203Y1796D03*
X1203Y1896D03*
X1203Y1597D03*
X306Y1397D03*
X306Y1297D03*
X306Y1197D03*
X306Y1097D03*
X306Y998D03*
X306Y898D03*
X306Y798D03*
X306Y698D03*
X306Y598D03*
X306Y498D03*
X1203Y1197D03*
X1203Y1097D03*
X1203Y998D03*
X1203Y898D03*
X1203Y798D03*
X1203Y698D03*
X1203Y598D03*
X1203Y498D03*
X1203Y1497D03*
X1203Y1397D03*
X1203Y1297D03*
G54D11*
X2406Y2097D03*
X2306Y2097D03*
X2206Y2097D03*
X2106Y2097D03*
X2006Y2097D03*
X1906Y2097D03*
X1806Y2097D03*
X1706Y2097D03*
X1606Y2097D03*
X1506Y2097D03*
G54D12*
X2406Y1947D03*
X2306Y1947D03*
X2206Y1947D03*
X2106Y1947D03*
G54D13*
X1307Y1696D03*
X209Y1896D03*
X209Y1796D03*
X209Y1696D03*
X209Y1596D03*
X209Y1496D03*
X1307Y1796D03*
X1307Y1896D03*
X1307Y1596D03*
X209Y1397D03*
X209Y1297D03*
X209Y1197D03*
X209Y1097D03*
X209Y997D03*
X209Y897D03*
X209Y798D03*
X209Y698D03*
X209Y598D03*
X209Y498D03*
X1307Y1197D03*
X1307Y1097D03*
X1307Y997D03*
X1307Y897D03*
X1307Y798D03*
X1307Y698D03*
X1307Y598D03*
X1307Y498D03*
X1307Y1496D03*
X1307Y1397D03*
X1307Y1297D03*
G54D14*
X1556Y897D03*
X1556Y497D03*
G54D12*
X2056Y1297D03*
G54D15*
X2156Y1297D03*
G54D12*
X2256Y1297D03*
X2356Y1297D03*
X2056Y1597D03*
G54D15*
X2156Y1597D03*
G54D12*
X2256Y1597D03*
X2356Y1597D03*
X2356Y797D03*
G54D15*
X2256Y797D03*
G54D12*
X2156Y797D03*
X2056Y797D03*
X1806Y1296D03*
G54D15*
X1706Y1296D03*
G54D12*
X1606Y1296D03*
X1506Y1296D03*
X1807Y1145D03*
G54D15*
X1707Y1145D03*
G54D12*
X1607Y1145D03*
X1507Y1145D03*
X1806Y1596D03*
G54D15*
X1706Y1596D03*
G54D12*
X1606Y1596D03*
X1506Y1596D03*
X2356Y597D03*
G54D15*
X2256Y597D03*
G54D12*
X2156Y597D03*
X2056Y597D03*
X1706Y797D03*
G54D15*
X1706Y697D03*
G54D12*
X1706Y597D03*
X1706Y497D03*
X2356Y247D03*
X2256Y247D03*
X2156Y247D03*
X2056Y247D03*
X1956Y247D03*
G54D16*
X1606Y2097D03*
G54D17*
X2156Y1297D03*
X2156Y1597D03*
X2255Y797D03*
X1706Y1296D03*
X1706Y1144D03*
X1706Y1596D03*
X2255Y597D03*
G54D18*
X1706Y797D03*
G54D19*
X2156Y247D03*
G54D20*
X1277Y1397D02*
X1225Y1397D01*
D02*
X1277Y1497D02*
X1225Y1497D01*
D02*
X1277Y1596D02*
X1225Y1597D01*
D02*
X1277Y1696D02*
X1225Y1696D01*
D02*
X1277Y1796D02*
X1225Y1796D01*
D02*
X1277Y498D02*
X1225Y498D01*
D02*
X1277Y598D02*
X1225Y598D01*
D02*
X239Y1596D02*
X283Y1597D01*
D02*
X239Y1896D02*
X283Y1896D01*
D02*
X1277Y698D02*
X1225Y698D01*
D02*
X1277Y798D02*
X1225Y798D01*
D02*
X1277Y898D02*
X1225Y898D01*
D02*
X1277Y997D02*
X1225Y998D01*
D02*
X1277Y1097D02*
X1225Y1097D01*
D02*
X1277Y1197D02*
X1225Y1197D01*
D02*
X1277Y1297D02*
X1225Y1297D01*
D02*
X239Y598D02*
X283Y598D01*
D02*
X239Y698D02*
X283Y698D01*
D02*
X239Y798D02*
X283Y798D01*
D02*
X239Y898D02*
X283Y898D01*
D02*
X239Y997D02*
X283Y998D01*
D02*
X239Y1097D02*
X283Y1097D01*
D02*
X239Y1197D02*
X283Y1197D01*
D02*
X239Y1297D02*
X283Y1297D01*
D02*
X239Y1397D02*
X283Y1397D01*
D02*
X239Y1497D02*
X283Y1497D01*
D02*
X1277Y1896D02*
X1225Y1896D01*
D02*
X239Y498D02*
X283Y498D01*
D02*
X2206Y1977D02*
X2206Y2066D01*
D02*
X2106Y1977D02*
X2106Y2066D01*
D02*
X1806Y1897D02*
X1806Y2066D01*
D02*
X2056Y1897D02*
X1806Y1897D01*
D02*
X2056Y1797D02*
X2056Y1897D01*
D02*
X2356Y1797D02*
X2056Y1797D01*
D02*
X2356Y1627D02*
X2356Y1797D01*
D02*
X1706Y1847D02*
X1706Y2066D01*
D02*
X2006Y1847D02*
X1706Y1847D01*
D02*
X2006Y1747D02*
X2006Y1847D01*
D02*
X2256Y1747D02*
X2006Y1747D01*
D02*
X2256Y1627D02*
X2256Y1747D01*
D02*
X1106Y498D02*
X1277Y498D01*
D02*
X1106Y2097D02*
X1106Y498D01*
D02*
X1475Y2097D02*
X1106Y2097D01*
D02*
X1606Y1497D02*
X1337Y1497D01*
D02*
X1606Y1566D02*
X1606Y1497D01*
D02*
X2406Y1977D02*
X2406Y2066D01*
D02*
X2306Y1977D02*
X2306Y2066D01*
D02*
X1856Y347D02*
X1857Y147D01*
D02*
X1905Y347D02*
X1856Y347D01*
D02*
X1337Y1696D02*
X1905Y1698D01*
D02*
X1905Y1698D02*
X1905Y347D01*
D02*
X1337Y1796D02*
X1959Y1796D01*
D02*
X1959Y1796D02*
X1956Y277D01*
D02*
X1857Y147D02*
X2057Y147D01*
D02*
X2057Y147D02*
X2056Y217D01*
D02*
X2054Y1197D02*
X2356Y1197D01*
D02*
X2356Y1197D02*
X2356Y1267D01*
D02*
X2056Y827D02*
X2054Y1197D01*
G04 End of Copper1*
M02*