; NON-PLATED HOLES START AT T1
; THROUGH (PLATED) HOLES START AT T100
M48
INCH
T1C0.125984
T100C0.037500
T101C0.034722
T102C0.035000
T103C0.015748
T104C0.038000
T105C0.040992
%
T1
X012192Y005403
X012271Y020161
X003834Y020096
T100
X012570Y014473
X012570Y015473
X012570Y012473
X012570Y017473
X012570Y011473
X012570Y013473
X003556Y010473
X012570Y016473
X003556Y012473
X003556Y011473
X012570Y010473
T101
X003556Y013473
X003556Y016473
X003556Y014473
X003556Y017473
X003556Y015473
T102
X008053Y012481
X008053Y008481
T103
X011056Y004473
T104
X020053Y009481
X023053Y019481
X014556Y019473
X014556Y016473
X020053Y011481
X015053Y009481
X021053Y011481
X015053Y008481
X022053Y019481
X020053Y016481
X015556Y019473
X017556Y019473
X020053Y019481
X023053Y016481
X021053Y005981
X020053Y005981
X022053Y005981
X017556Y013473
X015556Y016473
X022053Y016481
X015556Y013473
X019053Y005981
X023053Y011481
X017556Y016473
X021053Y009481
X023053Y009481
X014556Y013473
X023053Y005981
X015053Y011481
T105
X016556Y016473
X022053Y009481
X015053Y010481
X021053Y016481
X016556Y013473
X022053Y011481
X021053Y019481
X016556Y019473
T00
M30
