G04 MADE WITH FRITZING*
G04 WWW.FRITZING.ORG*
G04 DOUBLE SIDED*
G04 HOLES PLATED*
G04 CONTOUR ON CENTER OF CONTOUR VECTOR*
%ASAXBY*%
%FSLAX23Y23*%
%MOIN*%
%OFA0B0*%
%SFA1.0B1.0*%
%ADD10C,0.075000*%
%ADD11C,0.078000*%
%ADD12C,0.084141*%
%ADD13C,0.039370*%
%ADD14C,0.076389*%
%ADD15C,0.079166*%
%ADD16R,0.084375X0.084375*%
%ADD17R,0.083333X0.083333*%
%ADD18R,0.078000X0.078000*%
%ADD19C,0.024000*%
%LNCOPPER0*%
G90*
G70*
G54D10*
X805Y1248D03*
X805Y848D03*
G54D11*
X2005Y1648D03*
G54D12*
X2105Y1648D03*
G54D11*
X2205Y1648D03*
X2305Y1648D03*
X2005Y1948D03*
G54D12*
X2105Y1948D03*
G54D11*
X2205Y1948D03*
X2305Y1948D03*
X2305Y1148D03*
G54D12*
X2205Y1148D03*
G54D11*
X2105Y1148D03*
X2005Y1148D03*
X1756Y1647D03*
G54D12*
X1656Y1647D03*
G54D11*
X1556Y1647D03*
X1456Y1647D03*
X1756Y1347D03*
G54D12*
X1656Y1347D03*
G54D11*
X1556Y1347D03*
X1456Y1347D03*
X1756Y1947D03*
G54D12*
X1656Y1947D03*
G54D11*
X1556Y1947D03*
X1456Y1947D03*
X2305Y948D03*
G54D12*
X2205Y948D03*
G54D11*
X2105Y948D03*
X2005Y948D03*
X1505Y1148D03*
G54D12*
X1505Y1048D03*
G54D11*
X1505Y948D03*
X1505Y848D03*
X2305Y598D03*
X2205Y598D03*
X2105Y598D03*
X2005Y598D03*
X1905Y598D03*
G54D13*
X1106Y447D03*
G54D14*
X356Y1747D03*
X356Y1647D03*
X356Y1547D03*
X356Y1447D03*
X356Y1347D03*
G54D15*
X356Y1247D03*
X356Y1147D03*
X356Y1047D03*
X1257Y1047D03*
X1257Y1147D03*
X1257Y1247D03*
X1257Y1347D03*
X1257Y1447D03*
X1257Y1547D03*
X1257Y1647D03*
X1257Y1747D03*
G54D16*
X2106Y1648D03*
X2106Y1948D03*
X2205Y1148D03*
X1655Y1647D03*
X1655Y1347D03*
X1655Y1947D03*
X2205Y948D03*
G54D17*
X1506Y1148D03*
G54D18*
X2105Y598D03*
G54D19*
X1656Y1616D02*
X1656Y1379D01*
D02*
X1756Y1617D02*
X1756Y1377D01*
D02*
X1556Y1617D02*
X1556Y1377D01*
D02*
X1456Y1617D02*
X1456Y1377D01*
D02*
X1456Y1917D02*
X1456Y1677D01*
D02*
X1556Y1917D02*
X1556Y1677D01*
D02*
X1656Y1916D02*
X1656Y1679D01*
D02*
X1756Y1917D02*
X1756Y1677D01*
D02*
X2105Y2048D02*
X1656Y2048D01*
D02*
X1656Y2048D02*
X1656Y1979D01*
D02*
X2105Y1980D02*
X2105Y2048D01*
D02*
X1554Y2099D02*
X1555Y1977D01*
D02*
X2206Y2099D02*
X1554Y2099D01*
D02*
X2205Y1978D02*
X2206Y2099D01*
D02*
X2105Y1680D02*
X2105Y1916D01*
D02*
X1455Y2147D02*
X1456Y1977D01*
D02*
X2305Y2147D02*
X1455Y2147D01*
D02*
X2305Y1978D02*
X2305Y2147D01*
D02*
X2005Y1678D02*
X2005Y1918D01*
D02*
X1786Y1947D02*
X1975Y1948D01*
D02*
X2205Y1678D02*
X2205Y1918D01*
D02*
X2305Y1678D02*
X2305Y1918D01*
D02*
X2105Y1548D02*
X2205Y1548D01*
D02*
X2205Y1548D02*
X2205Y1618D01*
D02*
X2105Y1178D02*
X2105Y1548D01*
D02*
X905Y948D02*
X905Y1249D01*
D02*
X905Y1249D02*
X834Y1248D01*
D02*
X1475Y948D02*
X905Y948D01*
D02*
X1475Y848D02*
X834Y848D01*
D02*
X1655Y1148D02*
X1535Y1148D01*
D02*
X1656Y1316D02*
X1655Y1148D01*
D02*
X1756Y847D02*
X1535Y848D01*
D02*
X1756Y1317D02*
X1756Y847D01*
D02*
X2305Y1118D02*
X2305Y978D01*
D02*
X2205Y1116D02*
X2205Y980D01*
D02*
X2105Y978D02*
X2105Y1118D01*
D02*
X2005Y978D02*
X2005Y1118D01*
D02*
X2206Y748D02*
X2104Y748D01*
D02*
X2104Y748D02*
X2105Y628D01*
D02*
X2205Y916D02*
X2206Y748D01*
D02*
X2305Y918D02*
X2305Y697D01*
D02*
X2305Y697D02*
X2206Y697D01*
D02*
X2206Y697D02*
X2206Y628D01*
D02*
X1125Y447D02*
X2104Y447D01*
D02*
X2104Y447D02*
X2105Y568D01*
D02*
X1475Y1148D02*
X1287Y1147D01*
D02*
X1554Y1247D02*
X1287Y1247D01*
D02*
X1555Y1317D02*
X1554Y1247D01*
D02*
X1426Y1347D02*
X1287Y1347D01*
D02*
X777Y1248D02*
X386Y1247D01*
D02*
X777Y848D02*
X507Y848D01*
D02*
X507Y848D02*
X507Y1047D01*
D02*
X507Y1047D02*
X386Y1047D01*
G04 End of Copper0*
M02*