G04 MADE WITH FRITZING*
G04 WWW.FRITZING.ORG*
G04 DOUBLE SIDED*
G04 HOLES PLATED*
G04 CONTOUR ON CENTER OF CONTOUR VECTOR*
%ASAXBY*%
%FSLAX23Y23*%
%MOIN*%
%OFA0B0*%
%SFA1.0B1.0*%
%ADD10C,0.075000*%
%ADD11C,0.078000*%
%ADD12C,0.084141*%
%ADD13C,0.047859*%
%ADD14R,0.084375X0.084375*%
%ADD15R,0.083333X0.083333*%
%ADD16R,0.078000X0.078000*%
%ADD17C,0.024000*%
%LNCOPPER1*%
G90*
G70*
G54D10*
X1406Y945D03*
X1406Y545D03*
G54D11*
X2055Y1647D03*
G54D12*
X2155Y1647D03*
G54D11*
X2255Y1647D03*
X2355Y1647D03*
X2055Y1947D03*
G54D12*
X2155Y1947D03*
G54D11*
X2255Y1947D03*
X2355Y1947D03*
X2355Y1147D03*
G54D12*
X2255Y1147D03*
G54D11*
X2155Y1147D03*
X2055Y1147D03*
X1805Y1646D03*
G54D12*
X1705Y1646D03*
G54D11*
X1605Y1646D03*
X1505Y1646D03*
X1806Y1494D03*
G54D12*
X1706Y1494D03*
G54D11*
X1606Y1494D03*
X1506Y1494D03*
X1805Y1946D03*
G54D12*
X1705Y1946D03*
G54D11*
X1605Y1946D03*
X1505Y1946D03*
X2355Y947D03*
G54D12*
X2255Y947D03*
G54D11*
X2155Y947D03*
X2055Y947D03*
X1605Y1146D03*
G54D12*
X1605Y1046D03*
G54D11*
X1605Y946D03*
X1605Y846D03*
X2355Y597D03*
X2255Y597D03*
X2155Y597D03*
X2055Y597D03*
X1955Y597D03*
G54D13*
X1153Y1745D03*
X256Y1945D03*
X256Y1845D03*
X256Y1745D03*
X256Y1645D03*
X256Y1545D03*
X1153Y1845D03*
X1153Y1945D03*
X1153Y1645D03*
X256Y1446D03*
X256Y1346D03*
X256Y1246D03*
X256Y1146D03*
X256Y1046D03*
X256Y946D03*
X256Y847D03*
X256Y747D03*
X256Y647D03*
X256Y547D03*
X1153Y1246D03*
X1153Y1146D03*
X1153Y1046D03*
X1153Y946D03*
X1153Y847D03*
X1153Y747D03*
X1153Y647D03*
X1153Y547D03*
X1153Y1545D03*
X1153Y1446D03*
X1153Y1346D03*
G54D14*
X2155Y1647D03*
X2155Y1947D03*
X2254Y1146D03*
X1705Y1646D03*
X1706Y1494D03*
X1705Y1946D03*
X2254Y946D03*
G54D15*
X1605Y1146D03*
G54D16*
X2155Y597D03*
G54D17*
X2054Y1547D02*
X2355Y1547D01*
D02*
X2355Y1547D02*
X2355Y1617D01*
D02*
X2055Y1177D02*
X2054Y1547D01*
D02*
X1175Y1845D02*
X1955Y1846D01*
D02*
X1955Y1846D02*
X1955Y627D01*
D02*
X1906Y1746D02*
X1175Y1745D01*
D02*
X1906Y696D02*
X1906Y1746D01*
D02*
X1855Y696D02*
X1906Y696D01*
D02*
X1855Y495D02*
X1855Y696D01*
D02*
X2055Y495D02*
X1855Y495D01*
D02*
X2055Y567D02*
X2055Y495D01*
G04 End of Copper1*
M02*