; NON-PLATED HOLES START AT T1
; THROUGH (PLATED) HOLES START AT T100
M48
INCH
T100C0.040992
T101C0.038000
T102C0.035000
T103C0.022334
%
T100
X021548Y019466
X016052Y010458
X022548Y009466
X017060Y014943
X017052Y016459
X022548Y011466
X017052Y019458
X021548Y016466
T101
X023548Y011466
X018052Y019458
X021548Y011466
X016052Y008458
X020548Y011466
X023548Y019466
X018060Y014943
X018052Y016459
X015052Y019458
X023548Y016466
X016060Y014943
X023548Y009466
X020548Y019466
X015060Y014943
X015052Y016459
X021548Y009466
X020548Y016466
X020548Y009466
X023548Y005966
X021548Y005966
X020548Y005966
X016052Y011458
X016052Y019458
X022548Y019466
X016052Y016459
X022548Y016466
X016052Y009458
X019548Y005966
X022548Y005966
T102
X014056Y005451
X014056Y009451
T103
X011530Y013457
X002556Y011460
X011530Y011460
X002556Y007466
X011530Y007466
X002556Y015454
X011530Y015454
X002556Y009463
X002556Y012458
X011530Y009463
X011530Y012458
X002556Y019448
X011530Y019448
X002556Y010462
X002556Y017451
X011530Y010462
X002556Y006468
X011530Y017451
X011530Y006468
X002556Y014456
X011530Y014456
X002556Y008465
X011530Y008465
X002556Y018449
X011530Y018449
X002556Y016452
X002556Y005469
X011530Y016452
X011530Y005469
X002556Y013457
T00
M30
