G04 MADE WITH FRITZING*
G04 WWW.FRITZING.ORG*
G04 DOUBLE SIDED*
G04 HOLES PLATED*
G04 CONTOUR ON CENTER OF CONTOUR VECTOR*
%ASAXBY*%
%FSLAX23Y23*%
%MOIN*%
%OFA0B0*%
%SFA1.0B1.0*%
%ADD10C,0.075000*%
%ADD11C,0.078000*%
%ADD12C,0.084141*%
%ADD13C,0.047859*%
%ADD14R,0.084375X0.084375*%
%ADD15R,0.083333X0.083333*%
%ADD16R,0.078000X0.078000*%
%ADD17C,0.024000*%
%LNCOPPER0*%
G90*
G70*
G54D10*
X1406Y945D03*
X1406Y545D03*
G54D11*
X2055Y1647D03*
G54D12*
X2155Y1647D03*
G54D11*
X2255Y1647D03*
X2355Y1647D03*
X2055Y1947D03*
G54D12*
X2155Y1947D03*
G54D11*
X2255Y1947D03*
X2355Y1947D03*
X2355Y1147D03*
G54D12*
X2255Y1147D03*
G54D11*
X2155Y1147D03*
X2055Y1147D03*
X1805Y1646D03*
G54D12*
X1705Y1646D03*
G54D11*
X1605Y1646D03*
X1505Y1646D03*
X1806Y1494D03*
G54D12*
X1706Y1494D03*
G54D11*
X1606Y1494D03*
X1506Y1494D03*
X1805Y1946D03*
G54D12*
X1705Y1946D03*
G54D11*
X1605Y1946D03*
X1505Y1946D03*
X2355Y947D03*
G54D12*
X2255Y947D03*
G54D11*
X2155Y947D03*
X2055Y947D03*
X1605Y1146D03*
G54D12*
X1605Y1046D03*
G54D11*
X1605Y946D03*
X1605Y846D03*
X2355Y597D03*
X2255Y597D03*
X2155Y597D03*
X2055Y597D03*
X1955Y597D03*
G54D13*
X1153Y1745D03*
X256Y1945D03*
X256Y1845D03*
X256Y1745D03*
X256Y1645D03*
X256Y1545D03*
X1153Y1845D03*
X1153Y1945D03*
X1153Y1645D03*
X256Y1446D03*
X256Y1346D03*
X256Y1246D03*
X256Y1146D03*
X256Y1046D03*
X256Y946D03*
X256Y847D03*
X256Y747D03*
X256Y647D03*
X256Y547D03*
X1153Y1246D03*
X1153Y1146D03*
X1153Y1046D03*
X1153Y946D03*
X1153Y847D03*
X1153Y747D03*
X1153Y647D03*
X1153Y547D03*
X1153Y1545D03*
X1153Y1446D03*
X1153Y1346D03*
G54D14*
X2155Y1647D03*
X2155Y1947D03*
X2254Y1146D03*
X1705Y1646D03*
X1706Y1494D03*
X1705Y1946D03*
X2254Y946D03*
G54D15*
X1605Y1146D03*
G54D16*
X2155Y597D03*
G54D17*
X1434Y945D02*
X1575Y946D01*
D02*
X1606Y544D02*
X1434Y545D01*
D02*
X1605Y816D02*
X1606Y544D01*
D02*
X1705Y1614D02*
X1706Y1526D01*
D02*
X1805Y1616D02*
X1806Y1524D01*
D02*
X1605Y1616D02*
X1606Y1524D01*
D02*
X1505Y1616D02*
X1506Y1524D01*
D02*
X1505Y1916D02*
X1505Y1676D01*
D02*
X1605Y1916D02*
X1605Y1676D01*
D02*
X1705Y1914D02*
X1705Y1677D01*
D02*
X1805Y1916D02*
X1805Y1676D01*
D02*
X2154Y2046D02*
X1706Y2047D01*
D02*
X1706Y2047D02*
X1705Y1978D01*
D02*
X2155Y1978D02*
X2154Y2046D01*
D02*
X1604Y2098D02*
X1605Y1976D01*
D02*
X2256Y2098D02*
X1604Y2098D01*
D02*
X2255Y1977D02*
X2256Y2098D01*
D02*
X2155Y1678D02*
X2155Y1915D01*
D02*
X1505Y2146D02*
X1505Y1976D01*
D02*
X2355Y2146D02*
X1505Y2146D01*
D02*
X2355Y1977D02*
X2355Y2146D01*
D02*
X2055Y1677D02*
X2055Y1917D01*
D02*
X1835Y1946D02*
X2025Y1947D01*
D02*
X2255Y1677D02*
X2255Y1917D01*
D02*
X2355Y1677D02*
X2355Y1917D01*
D02*
X2154Y1547D02*
X2255Y1547D01*
D02*
X2255Y1547D02*
X2255Y1617D01*
D02*
X2155Y1177D02*
X2154Y1547D01*
D02*
X1705Y1147D02*
X1635Y1146D01*
D02*
X1706Y1463D02*
X1705Y1147D01*
D02*
X1805Y845D02*
X1635Y846D01*
D02*
X1806Y1464D02*
X1805Y845D01*
D02*
X2355Y1117D02*
X2355Y977D01*
D02*
X2255Y1115D02*
X2255Y978D01*
D02*
X2155Y977D02*
X2155Y1117D01*
D02*
X2055Y977D02*
X2055Y1117D01*
D02*
X2256Y746D02*
X2153Y746D01*
D02*
X2153Y746D02*
X2155Y627D01*
D02*
X2255Y915D02*
X2256Y746D01*
D02*
X2355Y917D02*
X2355Y695D01*
D02*
X2355Y695D02*
X2256Y695D01*
D02*
X2256Y695D02*
X2255Y627D01*
D02*
X2256Y397D02*
X2255Y567D01*
D02*
X256Y397D02*
X2256Y397D01*
D02*
X256Y525D02*
X256Y397D01*
D02*
X1175Y547D02*
X1377Y545D01*
D02*
X1356Y945D02*
X1377Y945D01*
D02*
X1356Y1045D02*
X1356Y945D01*
D02*
X1175Y1046D02*
X1356Y1045D01*
D02*
X2155Y444D02*
X1106Y444D01*
D02*
X1106Y444D02*
X1106Y645D01*
D02*
X2155Y567D02*
X2155Y444D01*
D02*
X1106Y645D02*
X1131Y646D01*
D02*
X1175Y1645D02*
X1475Y1646D01*
D02*
X1606Y1394D02*
X1606Y1464D01*
D02*
X1405Y1394D02*
X1606Y1394D01*
D02*
X1405Y1546D02*
X1405Y1394D01*
D02*
X1175Y1545D02*
X1405Y1546D01*
D02*
X1457Y1346D02*
X1175Y1346D01*
D02*
X1457Y1145D02*
X1457Y1346D01*
D02*
X1575Y1146D02*
X1457Y1145D01*
G04 End of Copper0*
M02*